<?xml version="1.0" encoding="UTF-8" standalone="no"?>
<!DOCTYPE svg PUBLIC "-//W3C//DTD SVG 1.1//EN"
 "http://www.w3.org/Graphics/SVG/1.1/DTD/svg11.dtd">
<!-- Generated by graphviz version 14.1.1 (20251213.1925)
 -->
<!-- Title: ARCH Pages: 1 -->
<svg width="1036pt" height="397pt"
 viewBox="0.00 0.00 1036.00 397.00" xmlns="http://www.w3.org/2000/svg" xmlns:xlink="http://www.w3.org/1999/xlink">
<g id="graph0" class="graph" transform="scale(1 1) rotate(0) translate(21.6 375.85)">
<title>ARCH</title>
<polygon fill="white" stroke="none" points="-21.6,21.6 -21.6,-375.85 1014.1,-375.85 1014.1,21.6 -21.6,21.6"/>
<text xml:space="preserve" text-anchor="middle" x="496.25" y="-337.9" font-family="Arial" font-size="13.00">البنية العامة لنظام نبض — Nabd System Architecture</text>
<g id="clust1" class="cluster">
<title>cluster_api</title>
<path fill="#f7fbfd" stroke="#1f6fb2" d="M247.75,-8C247.75,-8 454.25,-8 454.25,-8 460.25,-8 466.25,-14 466.25,-20 466.25,-20 466.25,-273 466.25,-273 466.25,-279 460.25,-285 454.25,-285 454.25,-285 247.75,-285 247.75,-285 241.75,-285 235.75,-279 235.75,-273 235.75,-273 235.75,-20 235.75,-20 235.75,-14 241.75,-8 247.75,-8"/>
<text xml:space="preserve" text-anchor="middle" x="351" y="-269.6" font-family="Arial" font-size="12.00">DMRS.Api — ASP.NET Core 10 &#160;(:7029)</text>
</g>
<!-- client -->
<g id="node1" class="node">
<title>client</title>
<path fill="#e8f1f8" stroke="#1f6fb2" d="M106.75,-303.25C106.75,-303.25 12,-303.25 12,-303.25 6,-303.25 0,-297.25 0,-291.25 0,-291.25 0,-266.75 0,-266.75 0,-260.75 6,-254.75 12,-254.75 12,-254.75 106.75,-254.75 106.75,-254.75 112.75,-254.75 118.75,-260.75 118.75,-266.75 118.75,-266.75 118.75,-291.25 118.75,-291.25 118.75,-297.25 112.75,-303.25 106.75,-303.25"/>
<text xml:space="preserve" text-anchor="middle" x="59.38" y="-288.8" font-family="Arial" font-size="11.00">DMRS.Client</text>
<text xml:space="preserve" text-anchor="middle" x="59.38" y="-275.3" font-family="Arial" font-size="11.00">Blazor WebAssembly</text>
<text xml:space="preserve" text-anchor="middle" x="59.38" y="-261.8" font-family="Arial" font-size="11.00">(:7099)</text>
</g>
<!-- kc -->
<g id="node2" class="node">
<title>kc</title>
<path fill="#fdf3e3" stroke="#c8902a" d="M712.5,-331.25C712.5,-331.25 614,-331.25 614,-331.25 608,-331.25 602,-325.25 602,-319.25 602,-319.25 602,-294.75 602,-294.75 602,-288.75 608,-282.75 614,-282.75 614,-282.75 712.5,-282.75 712.5,-282.75 718.5,-282.75 724.5,-288.75 724.5,-294.75 724.5,-294.75 724.5,-319.25 724.5,-319.25 724.5,-325.25 718.5,-331.25 712.5,-331.25"/>
<text xml:space="preserve" text-anchor="middle" x="663.25" y="-316.8" font-family="Arial" font-size="11.00">Keycloak</text>
<text xml:space="preserve" text-anchor="middle" x="663.25" y="-303.3" font-family="Arial" font-size="11.00">OAuth2 / OIDC</text>
<text xml:space="preserve" text-anchor="middle" x="663.25" y="-289.8" font-family="Arial" font-size="11.00">(realm: DMRS, :8080)</text>
</g>
<!-- client&#45;&gt;kc -->
<g id="edge1" class="edge">
<title>client&#45;&gt;kc</title>
<path fill="none" stroke="#555555" d="M119.2,-283.93C153.23,-286.64 196.88,-289.88 235.75,-292 360.41,-298.81 505.75,-303.15 590.53,-305.33"/>
<polygon fill="#555555" stroke="#555555" points="590.23,-308.82 600.32,-305.58 590.41,-301.82 590.23,-308.82"/>
<text xml:space="preserve" text-anchor="middle" x="350.5" y="-303.5" font-family="Arial" font-size="9.00">تسجيل الدخول (OIDC)</text>
</g>
<!-- fhir -->
<g id="node3" class="node">
<title>fhir</title>
<path fill="#ffffff" stroke="#1f6fb2" d="M405,-251C405,-251 296,-251 296,-251 290,-251 284,-245 284,-239 284,-239 284,-227 284,-227 284,-221 290,-215 296,-215 296,-215 405,-215 405,-215 411,-215 417,-221 417,-227 417,-227 417,-239 417,-239 417,-245 411,-251 405,-251"/>
<text xml:space="preserve" text-anchor="middle" x="350.5" y="-236.05" font-family="Arial" font-size="11.00">موارد FHIR R5</text>
<text xml:space="preserve" text-anchor="middle" x="350.5" y="-222.55" font-family="Arial" font-size="11.00">CRUD · بحث · تاريخ · تحقّق</text>
</g>
<!-- client&#45;&gt;fhir -->
<g id="edge2" class="edge">
<title>client&#45;&gt;fhir</title>
<path fill="none" stroke="#555555" d="M119.23,-269.64C149.61,-264.8 187.89,-258.71 224.46,-252.89"/>
<polygon fill="#555555" stroke="#555555" points="224.93,-256.36 234.26,-251.34 223.83,-249.45 224.93,-256.36"/>
<text xml:space="preserve" text-anchor="middle" x="183.25" y="-264.76" font-family="Arial" font-size="9.00">HTTPS + JWT</text>
</g>
<!-- fhir&#45;&gt;kc -->
<g id="edge3" class="edge">
<title>fhir&#45;&gt;kc</title>
<path fill="none" stroke="#555555" stroke-dasharray="5,2" d="M428.54,-251.35C482.02,-264.08 552.25,-280.8 601.71,-292.58"/>
<polygon fill="#555555" stroke="#555555" points="429.41,-247.96 418.87,-249.04 427.79,-254.77 429.41,-247.96"/>
<text xml:space="preserve" text-anchor="middle" x="525.88" y="-282.9" font-family="Arial" font-size="9.00">التحقّق من JWT</text>
</g>
<!-- pg -->
<g id="node10" class="node">
<title>pg</title>
<path fill="#e8f1f8" stroke="#1f6fb2" d="M726,-176.73C726,-178.53 697.87,-180 663.25,-180 628.63,-180 600.5,-178.53 600.5,-176.73 600.5,-176.73 600.5,-147.27 600.5,-147.27 600.5,-145.47 628.63,-144 663.25,-144 697.87,-144 726,-145.47 726,-147.27 726,-147.27 726,-176.73 726,-176.73"/>
<path fill="none" stroke="#1f6fb2" d="M726,-176.73C726,-174.92 697.87,-173.45 663.25,-173.45 628.63,-173.45 600.5,-174.92 600.5,-176.73"/>
<text xml:space="preserve" text-anchor="middle" x="663.25" y="-158.3" font-family="Arial" font-size="11.00">PostgreSQL — DMRS</text>
</g>
<!-- fhir&#45;&gt;pg -->
<g id="edge4" class="edge">
<title>fhir&#45;&gt;pg</title>
<path fill="none" stroke="#555555" d="M417.34,-219.06C458.78,-210.17 513.34,-198.25 561.5,-187 570.52,-184.89 579.98,-182.63 589.33,-180.35"/>
<polygon fill="#555555" stroke="#555555" points="589.89,-183.81 598.77,-178.03 588.22,-177.01 589.89,-183.81"/>
</g>
<!-- cds -->
<g id="node4" class="node">
<title>cds</title>
<path fill="#ffffff" stroke="#1f6fb2" d="M426.75,-121C426.75,-121 274.25,-121 274.25,-121 268.25,-121 262.25,-115 262.25,-109 262.25,-109 262.25,-97 262.25,-97 262.25,-91 268.25,-85 274.25,-85 274.25,-85 426.75,-85 426.75,-85 432.75,-85 438.75,-91 438.75,-97 438.75,-97 438.75,-109 438.75,-109 438.75,-115 432.75,-121 426.75,-121"/>
<text xml:space="preserve" text-anchor="middle" x="350.5" y="-106.05" font-family="Arial" font-size="11.00">محرّك دعم القرار</text>
<text xml:space="preserve" text-anchor="middle" x="350.5" y="-92.55" font-family="Arial" font-size="11.00">CDS Hooks · JSON&#45;Logic · بطاقات</text>
</g>
<!-- med -->
<g id="node8" class="node">
<title>med</title>
<path fill="#e3f2e9" stroke="#2e8b57" d="M717,-102C717,-102 609.5,-102 609.5,-102 603.5,-102 597.5,-96 597.5,-90 597.5,-90 597.5,-78 597.5,-78 597.5,-72 603.5,-66 609.5,-66 609.5,-66 717,-66 717,-66 723,-66 729,-72 729,-78 729,-78 729,-90 729,-90 729,-96 723,-102 717,-102"/>
<text xml:space="preserve" text-anchor="middle" x="663.25" y="-87.05" font-family="Arial" font-size="11.00">DMRS.MedicineInfo.Api</text>
<text xml:space="preserve" text-anchor="middle" x="663.25" y="-73.55" font-family="Arial" font-size="11.00">(:5041)</text>
</g>
<!-- cds&#45;&gt;med -->
<g id="edge9" class="edge">
<title>cds&#45;&gt;med</title>
<path fill="none" stroke="#555555" d="M438.89,-97.66C485.13,-94.83 541.37,-91.39 585.86,-88.67"/>
<polygon fill="#555555" stroke="#555555" points="585.91,-92.17 595.68,-88.07 585.48,-85.19 585.91,-92.17"/>
<text xml:space="preserve" text-anchor="middle" x="525.88" y="-96.02" font-family="Arial" font-size="9.00">معرفة الأدوية</text>
</g>
<!-- cds&#45;&gt;pg -->
<g id="edge5" class="edge">
<title>cds&#45;&gt;pg</title>
<path fill="none" stroke="#555555" d="M438.89,-119.59C486.22,-128.58 544.03,-139.56 588.98,-148.09"/>
<polygon fill="#555555" stroke="#555555" points="588.16,-151.49 598.63,-149.92 589.46,-144.62 588.16,-151.49"/>
</g>
<!-- ai -->
<g id="node5" class="node">
<title>ai</title>
<path fill="#ffffff" stroke="#1f6fb2" d="M409.88,-56C409.88,-56 291.12,-56 291.12,-56 285.12,-56 279.12,-50 279.12,-44 279.12,-44 279.12,-32 279.12,-32 279.12,-26 285.12,-20 291.12,-20 291.12,-20 409.88,-20 409.88,-20 415.88,-20 421.88,-26 421.88,-32 421.88,-32 421.88,-44 421.88,-44 421.88,-50 415.88,-56 409.88,-56"/>
<text xml:space="preserve" text-anchor="middle" x="350.5" y="-41.05" font-family="Arial" font-size="11.00">خدمات المخاطر بالذكاء الاصطناعي</text>
<text xml:space="preserve" text-anchor="middle" x="350.5" y="-27.55" font-family="Arial" font-size="11.00">سكري · قلب · إعادة دخول</text>
</g>
<!-- onnx -->
<g id="node7" class="node">
<title>onnx</title>
<path fill="#efe8f8" stroke="#8e44ad" d="M708.38,-37C708.38,-37 618.12,-37 618.12,-37 612.12,-37 606.12,-31 606.12,-25 606.12,-25 606.12,-13 606.12,-13 606.12,-7 612.12,-1 618.12,-1 618.12,-1 708.38,-1 708.38,-1 714.38,-1 720.38,-7 720.38,-13 720.38,-13 720.38,-25 720.38,-25 720.38,-31 714.38,-37 708.38,-37"/>
<text xml:space="preserve" text-anchor="middle" x="663.25" y="-22.05" font-family="Arial" font-size="11.00">نماذج ONNX</text>
<text xml:space="preserve" text-anchor="middle" x="663.25" y="-8.55" font-family="Arial" font-size="11.00">DMRS.Api/Ai/*.onnx</text>
</g>
<!-- ai&#45;&gt;onnx -->
<g id="edge7" class="edge">
<title>ai&#45;&gt;onnx</title>
<path fill="none" stroke="#555555" d="M422.06,-32.3C443.91,-30.63 468.07,-28.89 490.25,-27.5 524.53,-25.36 562.69,-23.42 594.33,-21.95"/>
<polygon fill="#555555" stroke="#555555" points="594.34,-25.45 604.17,-21.49 594.02,-18.46 594.34,-25.45"/>
<text xml:space="preserve" text-anchor="middle" x="525.88" y="-29.45" font-family="Arial" font-size="9.00">InferenceSession</text>
</g>
<!-- ai&#45;&gt;pg -->
<g id="edge8" class="edge">
<title>ai&#45;&gt;pg</title>
<path fill="none" stroke="#555555" d="M422.09,-54.94C436.95,-59.44 452.33,-64.8 466.25,-71 477.74,-76.12 479.14,-80.11 490.25,-86 528.29,-106.16 572.77,-125.71 606.97,-139.94"/>
<polygon fill="#555555" stroke="#555555" points="605.26,-143.02 615.84,-143.6 607.93,-136.55 605.26,-143.02"/>
</g>
<!-- ext -->
<g id="node6" class="node">
<title>ext</title>
<path fill="#ffffff" stroke="#1f6fb2" d="M405,-186C405,-186 296,-186 296,-186 290,-186 284,-180 284,-174 284,-174 284,-162 284,-162 284,-156 290,-150 296,-150 296,-150 405,-150 405,-150 411,-150 417,-156 417,-162 417,-162 417,-174 417,-174 417,-180 411,-186 405,-186"/>
<text xml:space="preserve" text-anchor="middle" x="350.5" y="-171.05" font-family="Arial" font-size="11.00">النماذج الخارجية + الوثائق</text>
<text xml:space="preserve" text-anchor="middle" x="350.5" y="-157.55" font-family="Arial" font-size="11.00">External AI · Documents</text>
</g>
<!-- ext&#45;&gt;pg -->
<g id="edge6" class="edge">
<title>ext&#45;&gt;pg</title>
<path fill="none" stroke="#555555" d="M417.4,-166.73C467.59,-165.76 536.67,-164.42 588.66,-163.42"/>
<polygon fill="#555555" stroke="#555555" points="588.7,-166.92 598.63,-163.23 588.57,-159.92 588.7,-166.92"/>
</g>
<!-- rx -->
<g id="node9" class="node">
<title>rx</title>
<path fill="#f2f2f2" stroke="#999999" stroke-dasharray="5,2" d="M951.25,-134C951.25,-134 865.5,-134 865.5,-134 859.5,-134 853.5,-128 853.5,-122 853.5,-122 853.5,-110 853.5,-110 853.5,-104 859.5,-98 865.5,-98 865.5,-98 951.25,-98 951.25,-98 957.25,-98 963.25,-104 963.25,-110 963.25,-110 963.25,-122 963.25,-122 963.25,-128 957.25,-134 951.25,-134"/>
<text xml:space="preserve" text-anchor="middle" x="908.38" y="-119.05" font-family="Arial" font-size="11.00">RxNorm REST API</text>
<text xml:space="preserve" text-anchor="middle" x="908.38" y="-105.55" font-family="Arial" font-size="11.00">(مزوّد حيّ اختياري)</text>
</g>
<!-- med&#45;&gt;rx -->
<g id="edge11" class="edge">
<title>med&#45;&gt;rx</title>
<path fill="none" stroke="#555555" stroke-dasharray="5,2" d="M729.4,-92.58C764.31,-97.17 807.18,-102.81 842.1,-107.41"/>
<polygon fill="#555555" stroke="#555555" points="841.27,-110.83 851.64,-108.66 842.18,-103.89 841.27,-110.83"/>
<text xml:space="preserve" text-anchor="middle" x="776.62" y="-101.95" font-family="Arial" font-size="9.00">اختياري</text>
</g>
<!-- pgmed -->
<g id="node11" class="node">
<title>pgmed</title>
<path fill="#e3f2e9" stroke="#2e8b57" d="M992.5,-65.73C992.5,-67.53 954.79,-69 908.38,-69 861.96,-69 824.25,-67.53 824.25,-65.73 824.25,-65.73 824.25,-36.27 824.25,-36.27 824.25,-34.47 861.96,-33 908.38,-33 954.79,-33 992.5,-34.47 992.5,-36.27 992.5,-36.27 992.5,-65.73 992.5,-65.73"/>
<path fill="none" stroke="#2e8b57" d="M992.5,-65.73C992.5,-63.92 954.79,-62.45 908.38,-62.45 861.96,-62.45 824.25,-63.92 824.25,-65.73"/>
<text xml:space="preserve" text-anchor="middle" x="908.38" y="-47.3" font-family="Arial" font-size="11.00">PostgreSQL — DMRSMedicine</text>
</g>
<!-- med&#45;&gt;pgmed -->
<g id="edge10" class="edge">
<title>med&#45;&gt;pgmed</title>
<path fill="none" stroke="#555555" d="M729.4,-75.16C754.99,-71.68 784.87,-67.63 812.75,-63.84"/>
<polygon fill="#555555" stroke="#555555" points="813.21,-67.31 822.65,-62.5 812.27,-60.38 813.21,-67.31"/>
</g>
</g>
</svg>
