<?xml version="1.0" encoding="UTF-8" standalone="no"?>
<!DOCTYPE svg PUBLIC "-//W3C//DTD SVG 1.1//EN"
 "http://www.w3.org/Graphics/SVG/1.1/DTD/svg11.dtd">
<!-- Generated by graphviz version 14.1.1 (20251213.1925)
 -->
<!-- Title: SEQ Pages: 1 -->
<svg width="594pt" height="784pt"
 viewBox="0.00 0.00 594.00 784.00" xmlns="http://www.w3.org/2000/svg" xmlns:xlink="http://www.w3.org/1999/xlink">
<g id="graph0" class="graph" transform="scale(1 1) rotate(0) translate(21.6 762.74)">
<title>SEQ</title>
<polygon fill="white" stroke="none" points="-21.6,21.6 -21.6,-762.74 571.95,-762.74 571.95,21.6 -21.6,21.6"/>
<text xml:space="preserve" text-anchor="middle" x="275.18" y="-721.94" font-family="Arial" font-size="16.00">تسلسل الدعوة والربط (Invite/Claim)</text>
<text xml:space="preserve" text-anchor="middle" x="275.18" y="-703.19" font-family="Arial" font-size="16.00">Patient Invite &amp; Claim</text>
<!-- H_staff -->
<g id="node1" class="node">
<title>H_staff</title>
<path fill="#eef0f2" stroke="#777777" d="M183.35,-695.64C183.35,-695.64 153.35,-695.64 153.35,-695.64 147.35,-695.64 141.35,-689.64 141.35,-683.64 141.35,-683.64 141.35,-663 141.35,-663 141.35,-657 147.35,-651 153.35,-651 153.35,-651 183.35,-651 183.35,-651 189.35,-651 195.35,-657 195.35,-663 195.35,-663 195.35,-683.64 195.35,-683.64 195.35,-689.64 189.35,-695.64 183.35,-695.64"/>
<text xml:space="preserve" text-anchor="middle" x="168.35" y="-681.82" font-family="Arial" font-size="10.00">المُنشئ</text>
<text xml:space="preserve" text-anchor="middle" x="168.35" y="-669.82" font-family="Arial" font-size="10.00">مدير مؤسسة</text>
<text xml:space="preserve" text-anchor="middle" x="168.35" y="-657.82" font-family="Arial" font-size="10.00">أو طبيب</text>
</g>
<!-- H_api -->
<g id="node2" class="node">
<title>H_api</title>
<path fill="#ffffff" stroke="#1f6fb2" d="M274.21,-695.64C274.21,-695.64 236.5,-695.64 236.5,-695.64 230.5,-695.64 224.5,-689.64 224.5,-683.64 224.5,-683.64 224.5,-663 224.5,-663 224.5,-657 230.5,-651 236.5,-651 236.5,-651 274.21,-651 274.21,-651 280.21,-651 286.21,-657 286.21,-663 286.21,-663 286.21,-683.64 286.21,-683.64 286.21,-689.64 280.21,-695.64 274.21,-695.64"/>
<text xml:space="preserve" text-anchor="middle" x="255.35" y="-681.82" font-family="Arial" font-size="10.00">DMRS API</text>
<text xml:space="preserve" text-anchor="middle" x="255.35" y="-669.82" font-family="Arial" font-size="10.00">Invite /</text>
<text xml:space="preserve" text-anchor="middle" x="255.35" y="-657.82" font-family="Arial" font-size="10.00">Claim</text>
</g>
<!-- H_staff&#45;&gt;H_api -->
<!-- staff_1 -->
<g id="node6" class="node">
<title>staff_1</title>
<ellipse fill="#b9c4cc" stroke="#b9c4cc" cx="168.35" cy="-608.57" rx="0.43" ry="0.43"/>
</g>
<!-- H_staff&#45;&gt;staff_1 -->
<g id="edge5" class="edge">
<title>H_staff&#45;&gt;staff_1</title>
<path fill="none" stroke="#c4cdd5" stroke-dasharray="5,2" d="M168.35,-650.53C168.35,-633.36 168.35,-611.89 168.35,-609.27"/>
</g>
<!-- H_repo -->
<g id="node3" class="node">
<title>H_repo</title>
<path fill="#e3f2e9" stroke="#2e8b57" d="M371.96,-695.64C371.96,-695.64 326.75,-695.64 326.75,-695.64 320.75,-695.64 314.75,-689.64 314.75,-683.64 314.75,-683.64 314.75,-663 314.75,-663 314.75,-657 320.75,-651 326.75,-651 326.75,-651 371.96,-651 371.96,-651 377.96,-651 383.96,-657 383.96,-663 383.96,-663 383.96,-683.64 383.96,-683.64 383.96,-689.64 377.96,-695.64 371.96,-695.64"/>
<text xml:space="preserve" text-anchor="middle" x="349.35" y="-681.82" font-family="Arial" font-size="10.00">Fhir</text>
<text xml:space="preserve" text-anchor="middle" x="349.35" y="-669.82" font-family="Arial" font-size="10.00">Repository</text>
<text xml:space="preserve" text-anchor="middle" x="349.35" y="-657.82" font-family="Arial" font-size="10.00">(مورد Patient)</text>
</g>
<!-- H_api&#45;&gt;H_repo -->
<!-- api_1 -->
<g id="node7" class="node">
<title>api_1</title>
<ellipse fill="#b9c4cc" stroke="#b9c4cc" cx="255.35" cy="-608.57" rx="0.43" ry="0.43"/>
</g>
<!-- H_api&#45;&gt;api_1 -->
<g id="edge20" class="edge">
<title>H_api&#45;&gt;api_1</title>
<path fill="none" stroke="#c4cdd5" stroke-dasharray="5,2" d="M255.35,-650.53C255.35,-633.36 255.35,-611.89 255.35,-609.27"/>
</g>
<!-- H_pat -->
<g id="node4" class="node">
<title>H_pat</title>
<path fill="#e8f1f8" stroke="#1f6fb2" d="M455.35,-695.64C455.35,-695.64 425.35,-695.64 425.35,-695.64 419.35,-695.64 413.35,-689.64 413.35,-683.64 413.35,-683.64 413.35,-663 413.35,-663 413.35,-657 419.35,-651 425.35,-651 425.35,-651 455.35,-651 455.35,-651 461.35,-651 467.35,-657 467.35,-663 467.35,-663 467.35,-683.64 467.35,-683.64 467.35,-689.64 461.35,-695.64 455.35,-695.64"/>
<text xml:space="preserve" text-anchor="middle" x="440.35" y="-681.82" font-family="Arial" font-size="10.00">المريض</text>
<text xml:space="preserve" text-anchor="middle" x="440.35" y="-669.82" font-family="Arial" font-size="10.00">Patient</text>
<text xml:space="preserve" text-anchor="middle" x="440.35" y="-657.82" font-family="Arial" font-size="10.00">(المتصفّح)</text>
</g>
<!-- H_repo&#45;&gt;H_pat -->
<!-- repo_1 -->
<g id="node8" class="node">
<title>repo_1</title>
<ellipse fill="#b9c4cc" stroke="#b9c4cc" cx="349.35" cy="-608.57" rx="0.43" ry="0.43"/>
</g>
<!-- H_repo&#45;&gt;repo_1 -->
<g id="edge35" class="edge">
<title>H_repo&#45;&gt;repo_1</title>
<path fill="none" stroke="#c4cdd5" stroke-dasharray="5,2" d="M349.35,-650.53C349.35,-633.36 349.35,-611.89 349.35,-609.27"/>
</g>
<!-- H_kc -->
<g id="node5" class="node">
<title>H_kc</title>
<path fill="#fdf3e3" stroke="#c8902a" d="M538.35,-695.64C538.35,-695.64 508.35,-695.64 508.35,-695.64 502.35,-695.64 496.35,-689.64 496.35,-683.64 496.35,-683.64 496.35,-663 496.35,-663 496.35,-657 502.35,-651 508.35,-651 508.35,-651 538.35,-651 538.35,-651 544.35,-651 550.35,-657 550.35,-663 550.35,-663 550.35,-683.64 550.35,-683.64 550.35,-689.64 544.35,-695.64 538.35,-695.64"/>
<text xml:space="preserve" text-anchor="middle" x="523.35" y="-681.82" font-family="Arial" font-size="10.00">Keycloak</text>
<text xml:space="preserve" text-anchor="middle" x="523.35" y="-669.82" font-family="Arial" font-size="10.00">تسجيل</text>
<text xml:space="preserve" text-anchor="middle" x="523.35" y="-657.82" font-family="Arial" font-size="10.00">+ أدوار</text>
</g>
<!-- H_pat&#45;&gt;H_kc -->
<!-- pat_1 -->
<g id="node9" class="node">
<title>pat_1</title>
<ellipse fill="#b9c4cc" stroke="#b9c4cc" cx="440.35" cy="-608.57" rx="0.43" ry="0.43"/>
</g>
<!-- H_pat&#45;&gt;pat_1 -->
<g id="edge50" class="edge">
<title>H_pat&#45;&gt;pat_1</title>
<path fill="none" stroke="#c4cdd5" stroke-dasharray="5,2" d="M440.35,-650.53C440.35,-633.36 440.35,-611.89 440.35,-609.27"/>
</g>
<!-- kc_1 -->
<g id="node10" class="node">
<title>kc_1</title>
<ellipse fill="#b9c4cc" stroke="#b9c4cc" cx="523.35" cy="-608.57" rx="0.43" ry="0.43"/>
</g>
<!-- H_kc&#45;&gt;kc_1 -->
<g id="edge65" class="edge">
<title>H_kc&#45;&gt;kc_1</title>
<path fill="none" stroke="#c4cdd5" stroke-dasharray="5,2" d="M523.35,-650.53C523.35,-633.36 523.35,-611.89 523.35,-609.27"/>
</g>
<!-- staff_1&#45;&gt;api_1 -->
<g id="edge80" class="edge">
<title>staff_1&#45;&gt;api_1</title>
<path fill="none" stroke="#1f6fb2" stroke-width="1.9" d="M169.03,-608.57C193.34,-608.57 217.66,-608.57 241.97,-608.57"/>
<polygon fill="#1f6fb2" stroke="#1f6fb2" stroke-width="1.9" points="241.8,-612.07 251.8,-608.57 241.8,-605.07 241.8,-612.07"/>
<text xml:space="preserve" text-anchor="middle" x="102.75" y="-626.77" font-family="Arial" font-size="14.00" fill="#0f3e66">1) POST create&#45;invite</text>
<text xml:space="preserve" text-anchor="middle" x="102.75" y="-611.02" font-family="Arial" font-size="14.00" fill="#0f3e66">{ organizationId, name, birthDate }</text>
</g>
<!-- staff_2 -->
<g id="node11" class="node">
<title>staff_2</title>
<ellipse fill="#b9c4cc" stroke="#b9c4cc" cx="168.35" cy="-565.71" rx="0.43" ry="0.43"/>
</g>
<!-- staff_1&#45;&gt;staff_2 -->
<g id="edge6" class="edge">
<title>staff_1&#45;&gt;staff_2</title>
<path fill="none" stroke="#c4cdd5" stroke-dasharray="5,2" d="M168.35,-607.67C168.35,-603.34 168.35,-570.63 168.35,-566.56"/>
</g>
<!-- api_2 -->
<g id="node12" class="node">
<title>api_2</title>
<ellipse fill="#b9c4cc" stroke="#b9c4cc" cx="255.35" cy="-565.71" rx="0.43" ry="0.43"/>
</g>
<!-- api_1&#45;&gt;api_2 -->
<g id="edge21" class="edge">
<title>api_1&#45;&gt;api_2</title>
<path fill="none" stroke="#c4cdd5" stroke-dasharray="5,2" d="M255.35,-607.67C255.35,-603.34 255.35,-570.63 255.35,-566.56"/>
</g>
<!-- repo_2 -->
<g id="node13" class="node">
<title>repo_2</title>
<ellipse fill="#b9c4cc" stroke="#b9c4cc" cx="349.35" cy="-565.71" rx="0.43" ry="0.43"/>
</g>
<!-- repo_1&#45;&gt;repo_2 -->
<g id="edge36" class="edge">
<title>repo_1&#45;&gt;repo_2</title>
<path fill="none" stroke="#c4cdd5" stroke-dasharray="5,2" d="M349.35,-607.67C349.35,-603.34 349.35,-570.63 349.35,-566.56"/>
</g>
<!-- pat_2 -->
<g id="node14" class="node">
<title>pat_2</title>
<ellipse fill="#b9c4cc" stroke="#b9c4cc" cx="440.35" cy="-565.71" rx="0.43" ry="0.43"/>
</g>
<!-- pat_1&#45;&gt;pat_2 -->
<g id="edge51" class="edge">
<title>pat_1&#45;&gt;pat_2</title>
<path fill="none" stroke="#c4cdd5" stroke-dasharray="5,2" d="M440.35,-607.67C440.35,-603.34 440.35,-570.63 440.35,-566.56"/>
</g>
<!-- kc_2 -->
<g id="node15" class="node">
<title>kc_2</title>
<ellipse fill="#b9c4cc" stroke="#b9c4cc" cx="523.35" cy="-565.71" rx="0.43" ry="0.43"/>
</g>
<!-- kc_1&#45;&gt;kc_2 -->
<g id="edge66" class="edge">
<title>kc_1&#45;&gt;kc_2</title>
<path fill="none" stroke="#c4cdd5" stroke-dasharray="5,2" d="M523.35,-607.67C523.35,-603.34 523.35,-570.63 523.35,-566.56"/>
</g>
<!-- staff_3 -->
<g id="node16" class="node">
<title>staff_3</title>
<ellipse fill="#b9c4cc" stroke="#b9c4cc" cx="168.35" cy="-522.84" rx="0.43" ry="0.43"/>
</g>
<!-- staff_2&#45;&gt;staff_3 -->
<g id="edge7" class="edge">
<title>staff_2&#45;&gt;staff_3</title>
<path fill="none" stroke="#c4cdd5" stroke-dasharray="5,2" d="M168.35,-564.8C168.35,-560.48 168.35,-527.76 168.35,-523.69"/>
</g>
<!-- api_2&#45;&gt;api_2 -->
<g id="edge81" class="edge">
<title>api_2&#45;&gt;api_2</title>
<path fill="none" stroke="#7a6baa" d="M255.82,-566.2C265.77,-576.42 284.79,-576.26 284.79,-565.71 284.79,-558.04 274.75,-555.86 265.44,-559.16"/>
<polygon fill="#7a6baa" stroke="#7a6baa" points="263.7,-556.12 257.1,-564.41 267.43,-562.05 263.7,-556.12"/>
<text xml:space="preserve" text-anchor="middle" x="219.39" y="-583.98" font-family="Arial" font-size="14.00" fill="#4a3c78">2) تحقّق الصلاحية + توليد</text>
<text xml:space="preserve" text-anchor="middle" x="219.39" y="-568.23" font-family="Arial" font-size="14.00" fill="#4a3c78">رقم المريض ورمز الدعوة</text>
</g>
<!-- api_3 -->
<g id="node17" class="node">
<title>api_3</title>
<ellipse fill="#b9c4cc" stroke="#b9c4cc" cx="255.35" cy="-522.84" rx="0.43" ry="0.43"/>
</g>
<!-- api_2&#45;&gt;api_3 -->
<g id="edge22" class="edge">
<title>api_2&#45;&gt;api_3</title>
<path fill="none" stroke="#c4cdd5" stroke-dasharray="5,2" d="M255.35,-564.8C255.35,-560.48 255.35,-527.76 255.35,-523.69"/>
</g>
<!-- repo_3 -->
<g id="node18" class="node">
<title>repo_3</title>
<ellipse fill="#b9c4cc" stroke="#b9c4cc" cx="349.35" cy="-522.84" rx="0.43" ry="0.43"/>
</g>
<!-- repo_2&#45;&gt;repo_3 -->
<g id="edge37" class="edge">
<title>repo_2&#45;&gt;repo_3</title>
<path fill="none" stroke="#c4cdd5" stroke-dasharray="5,2" d="M349.35,-564.8C349.35,-560.48 349.35,-527.76 349.35,-523.69"/>
</g>
<!-- pat_3 -->
<g id="node19" class="node">
<title>pat_3</title>
<ellipse fill="#b9c4cc" stroke="#b9c4cc" cx="440.35" cy="-522.84" rx="0.43" ry="0.43"/>
</g>
<!-- pat_2&#45;&gt;pat_3 -->
<g id="edge52" class="edge">
<title>pat_2&#45;&gt;pat_3</title>
<path fill="none" stroke="#c4cdd5" stroke-dasharray="5,2" d="M440.35,-564.8C440.35,-560.48 440.35,-527.76 440.35,-523.69"/>
</g>
<!-- kc_3 -->
<g id="node20" class="node">
<title>kc_3</title>
<ellipse fill="#b9c4cc" stroke="#b9c4cc" cx="523.35" cy="-522.84" rx="0.43" ry="0.43"/>
</g>
<!-- kc_2&#45;&gt;kc_3 -->
<g id="edge67" class="edge">
<title>kc_2&#45;&gt;kc_3</title>
<path fill="none" stroke="#c4cdd5" stroke-dasharray="5,2" d="M523.35,-564.8C523.35,-560.48 523.35,-527.76 523.35,-523.69"/>
</g>
<!-- staff_4 -->
<g id="node21" class="node">
<title>staff_4</title>
<ellipse fill="#b9c4cc" stroke="#b9c4cc" cx="168.35" cy="-479.98" rx="0.43" ry="0.43"/>
</g>
<!-- staff_3&#45;&gt;staff_4 -->
<g id="edge8" class="edge">
<title>staff_3&#45;&gt;staff_4</title>
<path fill="none" stroke="#c4cdd5" stroke-dasharray="5,2" d="M168.35,-521.94C168.35,-517.61 168.35,-484.9 168.35,-480.83"/>
</g>
<!-- api_3&#45;&gt;repo_3 -->
<g id="edge82" class="edge">
<title>api_3&#45;&gt;repo_3</title>
<path fill="none" stroke="#1f6fb2" stroke-width="1.9" d="M256.09,-522.84C282.72,-522.84 309.35,-522.84 335.97,-522.84"/>
<polygon fill="#1f6fb2" stroke="#1f6fb2" stroke-width="1.9" points="335.75,-526.34 345.75,-522.84 335.75,-519.34 335.75,-526.34"/>
<text xml:space="preserve" text-anchor="middle" x="234.53" y="-541.04" font-family="Arial" font-size="14.00" fill="#0f3e66">3) إنشاء Patient</text>
<text xml:space="preserve" text-anchor="middle" x="234.53" y="-525.29" font-family="Arial" font-size="14.00" fill="#0f3e66">+ Identifier(رمز الدعوة)</text>
</g>
<!-- api_4 -->
<g id="node22" class="node">
<title>api_4</title>
<ellipse fill="#b9c4cc" stroke="#b9c4cc" cx="255.35" cy="-479.98" rx="0.43" ry="0.43"/>
</g>
<!-- api_3&#45;&gt;api_4 -->
<g id="edge23" class="edge">
<title>api_3&#45;&gt;api_4</title>
<path fill="none" stroke="#c4cdd5" stroke-dasharray="5,2" d="M255.35,-521.94C255.35,-517.61 255.35,-484.9 255.35,-480.83"/>
</g>
<!-- repo_4 -->
<g id="node23" class="node">
<title>repo_4</title>
<ellipse fill="#b9c4cc" stroke="#b9c4cc" cx="349.35" cy="-479.98" rx="0.43" ry="0.43"/>
</g>
<!-- repo_3&#45;&gt;repo_4 -->
<g id="edge38" class="edge">
<title>repo_3&#45;&gt;repo_4</title>
<path fill="none" stroke="#c4cdd5" stroke-dasharray="5,2" d="M349.35,-521.94C349.35,-517.61 349.35,-484.9 349.35,-480.83"/>
</g>
<!-- pat_4 -->
<g id="node24" class="node">
<title>pat_4</title>
<ellipse fill="#b9c4cc" stroke="#b9c4cc" cx="440.35" cy="-479.98" rx="0.43" ry="0.43"/>
</g>
<!-- pat_3&#45;&gt;pat_4 -->
<g id="edge53" class="edge">
<title>pat_3&#45;&gt;pat_4</title>
<path fill="none" stroke="#c4cdd5" stroke-dasharray="5,2" d="M440.35,-521.94C440.35,-517.61 440.35,-484.9 440.35,-480.83"/>
</g>
<!-- kc_4 -->
<g id="node25" class="node">
<title>kc_4</title>
<ellipse fill="#b9c4cc" stroke="#b9c4cc" cx="523.35" cy="-479.98" rx="0.43" ry="0.43"/>
</g>
<!-- kc_3&#45;&gt;kc_4 -->
<g id="edge68" class="edge">
<title>kc_3&#45;&gt;kc_4</title>
<path fill="none" stroke="#c4cdd5" stroke-dasharray="5,2" d="M523.35,-521.94C523.35,-517.61 523.35,-484.9 523.35,-480.83"/>
</g>
<!-- staff_5 -->
<g id="node26" class="node">
<title>staff_5</title>
<ellipse fill="#b9c4cc" stroke="#b9c4cc" cx="168.35" cy="-437.12" rx="0.43" ry="0.43"/>
</g>
<!-- staff_4&#45;&gt;staff_5 -->
<g id="edge9" class="edge">
<title>staff_4&#45;&gt;staff_5</title>
<path fill="none" stroke="#c4cdd5" stroke-dasharray="5,2" d="M168.35,-479.08C168.35,-474.75 168.35,-442.04 168.35,-437.96"/>
</g>
<!-- api_5 -->
<g id="node27" class="node">
<title>api_5</title>
<ellipse fill="#b9c4cc" stroke="#b9c4cc" cx="255.35" cy="-437.12" rx="0.43" ry="0.43"/>
</g>
<!-- api_4&#45;&gt;api_5 -->
<g id="edge24" class="edge">
<title>api_4&#45;&gt;api_5</title>
<path fill="none" stroke="#c4cdd5" stroke-dasharray="5,2" d="M255.35,-479.08C255.35,-474.75 255.35,-442.04 255.35,-437.96"/>
</g>
<!-- repo_4&#45;&gt;api_4 -->
<g id="edge83" class="edge">
<title>repo_4&#45;&gt;api_4</title>
<path fill="none" stroke="#7c8996" stroke-width="1.4" stroke-dasharray="5,2" d="M348.63,-479.98C321.64,-479.98 294.65,-479.98 267.66,-479.98"/>
<polygon fill="#7c8996" stroke="#7c8996" stroke-width="1.4" points="257.79,-479.98 267.79,-475.48 261.09,-479.78 267.79,-479.78 267.79,-479.98 267.79,-480.18 261.09,-480.18 267.79,-484.48 257.79,-479.98"/>
<text xml:space="preserve" text-anchor="middle" x="274.39" y="-482.43" font-family="Arial" font-size="14.00" fill="#3d4750">4) patientId</text>
</g>
<!-- repo_5 -->
<g id="node28" class="node">
<title>repo_5</title>
<ellipse fill="#b9c4cc" stroke="#b9c4cc" cx="349.35" cy="-437.12" rx="0.43" ry="0.43"/>
</g>
<!-- repo_4&#45;&gt;repo_5 -->
<g id="edge39" class="edge">
<title>repo_4&#45;&gt;repo_5</title>
<path fill="none" stroke="#c4cdd5" stroke-dasharray="5,2" d="M349.35,-479.08C349.35,-474.75 349.35,-442.04 349.35,-437.96"/>
</g>
<!-- pat_5 -->
<g id="node29" class="node">
<title>pat_5</title>
<ellipse fill="#b9c4cc" stroke="#b9c4cc" cx="440.35" cy="-437.12" rx="0.43" ry="0.43"/>
</g>
<!-- pat_4&#45;&gt;pat_5 -->
<g id="edge54" class="edge">
<title>pat_4&#45;&gt;pat_5</title>
<path fill="none" stroke="#c4cdd5" stroke-dasharray="5,2" d="M440.35,-479.08C440.35,-474.75 440.35,-442.04 440.35,-437.96"/>
</g>
<!-- kc_5 -->
<g id="node30" class="node">
<title>kc_5</title>
<ellipse fill="#b9c4cc" stroke="#b9c4cc" cx="523.35" cy="-437.12" rx="0.43" ry="0.43"/>
</g>
<!-- kc_4&#45;&gt;kc_5 -->
<g id="edge69" class="edge">
<title>kc_4&#45;&gt;kc_5</title>
<path fill="none" stroke="#c4cdd5" stroke-dasharray="5,2" d="M523.35,-479.08C523.35,-474.75 523.35,-442.04 523.35,-437.96"/>
</g>
<!-- staff_6 -->
<g id="node31" class="node">
<title>staff_6</title>
<ellipse fill="#b9c4cc" stroke="#b9c4cc" cx="168.35" cy="-394.25" rx="0.43" ry="0.43"/>
</g>
<!-- staff_5&#45;&gt;staff_6 -->
<g id="edge10" class="edge">
<title>staff_5&#45;&gt;staff_6</title>
<path fill="none" stroke="#c4cdd5" stroke-dasharray="5,2" d="M168.35,-436.21C168.35,-431.89 168.35,-399.17 168.35,-395.1"/>
</g>
<!-- api_5&#45;&gt;staff_5 -->
<g id="edge84" class="edge">
<title>api_5&#45;&gt;staff_5</title>
<path fill="none" stroke="#7c8996" stroke-width="1.4" stroke-dasharray="5,2" d="M254.68,-437.12C229.92,-437.12 205.17,-437.12 180.41,-437.12"/>
<polygon fill="#7c8996" stroke="#7c8996" stroke-width="1.4" points="170.74,-437.12 180.74,-432.62 174.03,-436.92 180.74,-436.92 180.74,-437.12 180.74,-437.32 174.03,-437.32 180.74,-441.62 170.74,-437.12"/>
<text xml:space="preserve" text-anchor="middle" x="135.42" y="-455.32" font-family="Arial" font-size="14.00" fill="#3d4750">5) 200 { inviteCode,</text>
<text xml:space="preserve" text-anchor="middle" x="135.42" y="-439.57" font-family="Arial" font-size="14.00" fill="#3d4750">claimLink, registrationLink }</text>
</g>
<!-- api_6 -->
<g id="node32" class="node">
<title>api_6</title>
<ellipse fill="#b9c4cc" stroke="#b9c4cc" cx="255.35" cy="-394.25" rx="0.43" ry="0.43"/>
</g>
<!-- api_5&#45;&gt;api_6 -->
<g id="edge25" class="edge">
<title>api_5&#45;&gt;api_6</title>
<path fill="none" stroke="#c4cdd5" stroke-dasharray="5,2" d="M255.35,-436.21C255.35,-431.89 255.35,-399.17 255.35,-395.1"/>
</g>
<!-- repo_6 -->
<g id="node33" class="node">
<title>repo_6</title>
<ellipse fill="#b9c4cc" stroke="#b9c4cc" cx="349.35" cy="-394.25" rx="0.43" ry="0.43"/>
</g>
<!-- repo_5&#45;&gt;repo_6 -->
<g id="edge40" class="edge">
<title>repo_5&#45;&gt;repo_6</title>
<path fill="none" stroke="#c4cdd5" stroke-dasharray="5,2" d="M349.35,-436.21C349.35,-431.89 349.35,-399.17 349.35,-395.1"/>
</g>
<!-- pat_6 -->
<g id="node34" class="node">
<title>pat_6</title>
<ellipse fill="#b9c4cc" stroke="#b9c4cc" cx="440.35" cy="-394.25" rx="0.43" ry="0.43"/>
</g>
<!-- pat_5&#45;&gt;pat_6 -->
<g id="edge55" class="edge">
<title>pat_5&#45;&gt;pat_6</title>
<path fill="none" stroke="#c4cdd5" stroke-dasharray="5,2" d="M440.35,-436.21C440.35,-431.89 440.35,-399.17 440.35,-395.1"/>
</g>
<!-- kc_6 -->
<g id="node35" class="node">
<title>kc_6</title>
<ellipse fill="#b9c4cc" stroke="#b9c4cc" cx="523.35" cy="-394.25" rx="0.43" ry="0.43"/>
</g>
<!-- kc_5&#45;&gt;kc_6 -->
<g id="edge70" class="edge">
<title>kc_5&#45;&gt;kc_6</title>
<path fill="none" stroke="#c4cdd5" stroke-dasharray="5,2" d="M523.35,-436.21C523.35,-431.89 523.35,-399.17 523.35,-395.1"/>
</g>
<!-- staff_6&#45;&gt;pat_6 -->
<g id="edge85" class="edge">
<title>staff_6&#45;&gt;pat_6</title>
<path fill="none" stroke="#7c8996" stroke-width="1.4" stroke-dasharray="5,2" d="M169.15,-394.25C255.41,-394.25 341.68,-394.25 427.94,-394.25"/>
<polygon fill="#7c8996" stroke="#7c8996" stroke-width="1.4" points="437.85,-394.25 427.85,-398.75 434.56,-394.45 427.85,-394.45 427.85,-394.25 427.85,-394.05 434.56,-394.05 427.85,-389.75 437.85,-394.25"/>
<text xml:space="preserve" text-anchor="middle" x="241.92" y="-412.45" font-family="Arial" font-size="14.00" fill="#3d4750">6) مشاركة رابط التسجيل</text>
<text xml:space="preserve" text-anchor="middle" x="241.92" y="-396.7" font-family="Arial" font-size="14.00" fill="#3d4750">(خارج النظام)</text>
</g>
<!-- staff_7 -->
<g id="node36" class="node">
<title>staff_7</title>
<ellipse fill="#b9c4cc" stroke="#b9c4cc" cx="168.35" cy="-351.39" rx="0.43" ry="0.43"/>
</g>
<!-- staff_6&#45;&gt;staff_7 -->
<g id="edge11" class="edge">
<title>staff_6&#45;&gt;staff_7</title>
<path fill="none" stroke="#c4cdd5" stroke-dasharray="5,2" d="M168.35,-393.35C168.35,-389.02 168.35,-356.31 168.35,-352.24"/>
</g>
<!-- api_7 -->
<g id="node37" class="node">
<title>api_7</title>
<ellipse fill="#b9c4cc" stroke="#b9c4cc" cx="255.35" cy="-351.39" rx="0.43" ry="0.43"/>
</g>
<!-- api_6&#45;&gt;api_7 -->
<g id="edge26" class="edge">
<title>api_6&#45;&gt;api_7</title>
<path fill="none" stroke="#c4cdd5" stroke-dasharray="5,2" d="M255.35,-393.35C255.35,-389.02 255.35,-356.31 255.35,-352.24"/>
</g>
<!-- repo_7 -->
<g id="node38" class="node">
<title>repo_7</title>
<ellipse fill="#b9c4cc" stroke="#b9c4cc" cx="349.35" cy="-351.39" rx="0.43" ry="0.43"/>
</g>
<!-- repo_6&#45;&gt;repo_7 -->
<g id="edge41" class="edge">
<title>repo_6&#45;&gt;repo_7</title>
<path fill="none" stroke="#c4cdd5" stroke-dasharray="5,2" d="M349.35,-393.35C349.35,-389.02 349.35,-356.31 349.35,-352.24"/>
</g>
<!-- pat_7 -->
<g id="node39" class="node">
<title>pat_7</title>
<ellipse fill="#b9c4cc" stroke="#b9c4cc" cx="440.35" cy="-351.39" rx="0.43" ry="0.43"/>
</g>
<!-- pat_6&#45;&gt;pat_7 -->
<g id="edge56" class="edge">
<title>pat_6&#45;&gt;pat_7</title>
<path fill="none" stroke="#c4cdd5" stroke-dasharray="5,2" d="M440.35,-393.35C440.35,-389.02 440.35,-356.31 440.35,-352.24"/>
</g>
<!-- kc_7 -->
<g id="node40" class="node">
<title>kc_7</title>
<ellipse fill="#b9c4cc" stroke="#b9c4cc" cx="523.35" cy="-351.39" rx="0.43" ry="0.43"/>
</g>
<!-- kc_6&#45;&gt;kc_7 -->
<g id="edge71" class="edge">
<title>kc_6&#45;&gt;kc_7</title>
<path fill="none" stroke="#c4cdd5" stroke-dasharray="5,2" d="M523.35,-393.35C523.35,-389.02 523.35,-356.31 523.35,-352.24"/>
</g>
<!-- staff_8 -->
<g id="node41" class="node">
<title>staff_8</title>
<ellipse fill="#b9c4cc" stroke="#b9c4cc" cx="168.35" cy="-308.52" rx="0.43" ry="0.43"/>
</g>
<!-- staff_7&#45;&gt;staff_8 -->
<g id="edge12" class="edge">
<title>staff_7&#45;&gt;staff_8</title>
<path fill="none" stroke="#c4cdd5" stroke-dasharray="5,2" d="M168.35,-350.48C168.35,-346.16 168.35,-313.44 168.35,-309.37"/>
</g>
<!-- api_8 -->
<g id="node42" class="node">
<title>api_8</title>
<ellipse fill="#b9c4cc" stroke="#b9c4cc" cx="255.35" cy="-308.52" rx="0.43" ry="0.43"/>
</g>
<!-- api_7&#45;&gt;api_8 -->
<g id="edge27" class="edge">
<title>api_7&#45;&gt;api_8</title>
<path fill="none" stroke="#c4cdd5" stroke-dasharray="5,2" d="M255.35,-350.48C255.35,-346.16 255.35,-313.44 255.35,-309.37"/>
</g>
<!-- repo_8 -->
<g id="node43" class="node">
<title>repo_8</title>
<ellipse fill="#b9c4cc" stroke="#b9c4cc" cx="349.35" cy="-308.52" rx="0.43" ry="0.43"/>
</g>
<!-- repo_7&#45;&gt;repo_8 -->
<g id="edge42" class="edge">
<title>repo_7&#45;&gt;repo_8</title>
<path fill="none" stroke="#c4cdd5" stroke-dasharray="5,2" d="M349.35,-350.48C349.35,-346.16 349.35,-313.44 349.35,-309.37"/>
</g>
<!-- pat_7&#45;&gt;kc_7 -->
<g id="edge86" class="edge">
<title>pat_7&#45;&gt;kc_7</title>
<path fill="none" stroke="#1f6fb2" stroke-width="1.9" d="M441,-351.39C463.98,-351.39 486.96,-351.39 509.94,-351.39"/>
<polygon fill="#1f6fb2" stroke="#1f6fb2" stroke-width="1.9" points="509.83,-354.89 519.83,-351.39 509.83,-347.89 509.83,-354.89"/>
<text xml:space="preserve" text-anchor="middle" x="412.47" y="-369.59" font-family="Arial" font-size="14.00" fill="#0f3e66">7) فتح registrationLink</text>
<text xml:space="preserve" text-anchor="middle" x="412.47" y="-353.84" font-family="Arial" font-size="14.00" fill="#0f3e66">تسجيل / دخول</text>
</g>
<!-- pat_8 -->
<g id="node44" class="node">
<title>pat_8</title>
<ellipse fill="#b9c4cc" stroke="#b9c4cc" cx="440.35" cy="-308.52" rx="0.43" ry="0.43"/>
</g>
<!-- pat_7&#45;&gt;pat_8 -->
<g id="edge57" class="edge">
<title>pat_7&#45;&gt;pat_8</title>
<path fill="none" stroke="#c4cdd5" stroke-dasharray="5,2" d="M440.35,-350.48C440.35,-346.16 440.35,-313.44 440.35,-309.37"/>
</g>
<!-- kc_8 -->
<g id="node45" class="node">
<title>kc_8</title>
<ellipse fill="#b9c4cc" stroke="#b9c4cc" cx="523.35" cy="-308.52" rx="0.43" ry="0.43"/>
</g>
<!-- kc_7&#45;&gt;kc_8 -->
<g id="edge72" class="edge">
<title>kc_7&#45;&gt;kc_8</title>
<path fill="none" stroke="#c4cdd5" stroke-dasharray="5,2" d="M523.35,-350.48C523.35,-346.16 523.35,-313.44 523.35,-309.37"/>
</g>
<!-- staff_9 -->
<g id="node46" class="node">
<title>staff_9</title>
<ellipse fill="#b9c4cc" stroke="#b9c4cc" cx="168.35" cy="-265.66" rx="0.43" ry="0.43"/>
</g>
<!-- staff_8&#45;&gt;staff_9 -->
<g id="edge13" class="edge">
<title>staff_8&#45;&gt;staff_9</title>
<path fill="none" stroke="#c4cdd5" stroke-dasharray="5,2" d="M168.35,-307.62C168.35,-303.29 168.35,-270.58 168.35,-266.51"/>
</g>
<!-- api_9 -->
<g id="node47" class="node">
<title>api_9</title>
<ellipse fill="#b9c4cc" stroke="#b9c4cc" cx="255.35" cy="-265.66" rx="0.43" ry="0.43"/>
</g>
<!-- api_8&#45;&gt;api_9 -->
<g id="edge28" class="edge">
<title>api_8&#45;&gt;api_9</title>
<path fill="none" stroke="#c4cdd5" stroke-dasharray="5,2" d="M255.35,-307.62C255.35,-303.29 255.35,-270.58 255.35,-266.51"/>
</g>
<!-- repo_9 -->
<g id="node48" class="node">
<title>repo_9</title>
<ellipse fill="#b9c4cc" stroke="#b9c4cc" cx="349.35" cy="-265.66" rx="0.43" ry="0.43"/>
</g>
<!-- repo_8&#45;&gt;repo_9 -->
<g id="edge43" class="edge">
<title>repo_8&#45;&gt;repo_9</title>
<path fill="none" stroke="#c4cdd5" stroke-dasharray="5,2" d="M349.35,-307.62C349.35,-303.29 349.35,-270.58 349.35,-266.51"/>
</g>
<!-- pat_9 -->
<g id="node49" class="node">
<title>pat_9</title>
<ellipse fill="#b9c4cc" stroke="#b9c4cc" cx="440.35" cy="-265.66" rx="0.43" ry="0.43"/>
</g>
<!-- pat_8&#45;&gt;pat_9 -->
<g id="edge58" class="edge">
<title>pat_8&#45;&gt;pat_9</title>
<path fill="none" stroke="#c4cdd5" stroke-dasharray="5,2" d="M440.35,-307.62C440.35,-303.29 440.35,-270.58 440.35,-266.51"/>
</g>
<!-- kc_8&#45;&gt;pat_8 -->
<g id="edge87" class="edge">
<title>kc_8&#45;&gt;pat_8</title>
<path fill="none" stroke="#7c8996" stroke-width="1.4" stroke-dasharray="5,2" d="M522.71,-308.52C499.3,-308.52 475.9,-308.52 452.49,-308.52"/>
<polygon fill="#7c8996" stroke="#7c8996" stroke-width="1.4" points="442.71,-308.52 452.71,-304.02 446,-308.32 452.71,-308.32 452.71,-308.52 452.71,-308.72 446,-308.72 452.71,-313.02 442.71,-308.52"/>
<text xml:space="preserve" text-anchor="middle" x="381.1" y="-326.72" font-family="Arial" font-size="14.00" fill="#3d4750">8) إعادة توجيه إلى</text>
<text xml:space="preserve" text-anchor="middle" x="381.1" y="-310.97" font-family="Arial" font-size="14.00" fill="#3d4750">/patients/claim?code=…&amp;auto=true</text>
</g>
<!-- kc_9 -->
<g id="node50" class="node">
<title>kc_9</title>
<ellipse fill="#b9c4cc" stroke="#b9c4cc" cx="523.35" cy="-265.66" rx="0.43" ry="0.43"/>
</g>
<!-- kc_8&#45;&gt;kc_9 -->
<g id="edge73" class="edge">
<title>kc_8&#45;&gt;kc_9</title>
<path fill="none" stroke="#c4cdd5" stroke-dasharray="5,2" d="M523.35,-307.62C523.35,-303.29 523.35,-270.58 523.35,-266.51"/>
</g>
<!-- staff_10 -->
<g id="node51" class="node">
<title>staff_10</title>
<ellipse fill="#b9c4cc" stroke="#b9c4cc" cx="168.35" cy="-222.8" rx="0.43" ry="0.43"/>
</g>
<!-- staff_9&#45;&gt;staff_10 -->
<g id="edge14" class="edge">
<title>staff_9&#45;&gt;staff_10</title>
<path fill="none" stroke="#c4cdd5" stroke-dasharray="5,2" d="M168.35,-264.76C168.35,-260.43 168.35,-227.72 168.35,-223.64"/>
</g>
<!-- api_10 -->
<g id="node52" class="node">
<title>api_10</title>
<ellipse fill="#b9c4cc" stroke="#b9c4cc" cx="255.35" cy="-222.8" rx="0.43" ry="0.43"/>
</g>
<!-- api_9&#45;&gt;api_10 -->
<g id="edge29" class="edge">
<title>api_9&#45;&gt;api_10</title>
<path fill="none" stroke="#c4cdd5" stroke-dasharray="5,2" d="M255.35,-264.76C255.35,-260.43 255.35,-227.72 255.35,-223.64"/>
</g>
<!-- repo_10 -->
<g id="node53" class="node">
<title>repo_10</title>
<ellipse fill="#b9c4cc" stroke="#b9c4cc" cx="349.35" cy="-222.8" rx="0.43" ry="0.43"/>
</g>
<!-- repo_9&#45;&gt;repo_10 -->
<g id="edge44" class="edge">
<title>repo_9&#45;&gt;repo_10</title>
<path fill="none" stroke="#c4cdd5" stroke-dasharray="5,2" d="M349.35,-264.76C349.35,-260.43 349.35,-227.72 349.35,-223.64"/>
</g>
<!-- pat_9&#45;&gt;api_9 -->
<g id="edge88" class="edge">
<title>pat_9&#45;&gt;api_9</title>
<path fill="none" stroke="#1f6fb2" stroke-width="1.9" d="M439.63,-265.66C382.63,-265.66 325.63,-265.66 268.62,-265.66"/>
<polygon fill="#1f6fb2" stroke="#1f6fb2" stroke-width="1.9" points="268.95,-262.16 258.95,-265.66 268.95,-269.16 268.95,-262.16"/>
<text xml:space="preserve" text-anchor="middle" x="264.13" y="-283.86" font-family="Arial" font-size="14.00" fill="#0f3e66">9) POST claim&#45;invite</text>
<text xml:space="preserve" text-anchor="middle" x="264.13" y="-268.11" font-family="Arial" font-size="14.00" fill="#0f3e66">{ inviteCode, keycloakUserId }</text>
</g>
<!-- pat_10 -->
<g id="node54" class="node">
<title>pat_10</title>
<ellipse fill="#b9c4cc" stroke="#b9c4cc" cx="440.35" cy="-222.8" rx="0.43" ry="0.43"/>
</g>
<!-- pat_9&#45;&gt;pat_10 -->
<g id="edge59" class="edge">
<title>pat_9&#45;&gt;pat_10</title>
<path fill="none" stroke="#c4cdd5" stroke-dasharray="5,2" d="M440.35,-264.76C440.35,-260.43 440.35,-227.72 440.35,-223.64"/>
</g>
<!-- kc_10 -->
<g id="node55" class="node">
<title>kc_10</title>
<ellipse fill="#b9c4cc" stroke="#b9c4cc" cx="523.35" cy="-222.8" rx="0.43" ry="0.43"/>
</g>
<!-- kc_9&#45;&gt;kc_10 -->
<g id="edge74" class="edge">
<title>kc_9&#45;&gt;kc_10</title>
<path fill="none" stroke="#c4cdd5" stroke-dasharray="5,2" d="M523.35,-264.76C523.35,-260.43 523.35,-227.72 523.35,-223.64"/>
</g>
<!-- staff_11 -->
<g id="node56" class="node">
<title>staff_11</title>
<ellipse fill="#b9c4cc" stroke="#b9c4cc" cx="168.35" cy="-179.93" rx="0.43" ry="0.43"/>
</g>
<!-- staff_10&#45;&gt;staff_11 -->
<g id="edge15" class="edge">
<title>staff_10&#45;&gt;staff_11</title>
<path fill="none" stroke="#c4cdd5" stroke-dasharray="5,2" d="M168.35,-221.89C168.35,-217.57 168.35,-184.85 168.35,-180.78"/>
</g>
<!-- api_10&#45;&gt;repo_10 -->
<g id="edge89" class="edge">
<title>api_10&#45;&gt;repo_10</title>
<path fill="none" stroke="#1f6fb2" stroke-width="1.9" d="M256.09,-222.8C282.72,-222.8 309.35,-222.8 335.97,-222.8"/>
<polygon fill="#1f6fb2" stroke="#1f6fb2" stroke-width="1.9" points="335.75,-226.3 345.75,-222.8 335.75,-219.3 335.75,-226.3"/>
<text xml:space="preserve" text-anchor="middle" x="238.28" y="-241" font-family="Arial" font-size="14.00" fill="#0f3e66">10) بحث بالرمز + تحقّق</text>
<text xml:space="preserve" text-anchor="middle" x="238.28" y="-225.25" font-family="Arial" font-size="14.00" fill="#0f3e66">عدم الارتباط بحساب آخر</text>
</g>
<!-- api_11 -->
<g id="node57" class="node">
<title>api_11</title>
<ellipse fill="#b9c4cc" stroke="#b9c4cc" cx="255.35" cy="-179.93" rx="0.43" ry="0.43"/>
</g>
<!-- api_10&#45;&gt;api_11 -->
<g id="edge30" class="edge">
<title>api_10&#45;&gt;api_11</title>
<path fill="none" stroke="#c4cdd5" stroke-dasharray="5,2" d="M255.35,-221.89C255.35,-217.57 255.35,-184.85 255.35,-180.78"/>
</g>
<!-- repo_11 -->
<g id="node58" class="node">
<title>repo_11</title>
<ellipse fill="#b9c4cc" stroke="#b9c4cc" cx="349.35" cy="-179.93" rx="0.43" ry="0.43"/>
</g>
<!-- repo_10&#45;&gt;repo_11 -->
<g id="edge45" class="edge">
<title>repo_10&#45;&gt;repo_11</title>
<path fill="none" stroke="#c4cdd5" stroke-dasharray="5,2" d="M349.35,-221.89C349.35,-217.57 349.35,-184.85 349.35,-180.78"/>
</g>
<!-- pat_11 -->
<g id="node59" class="node">
<title>pat_11</title>
<ellipse fill="#b9c4cc" stroke="#b9c4cc" cx="440.35" cy="-179.93" rx="0.43" ry="0.43"/>
</g>
<!-- pat_10&#45;&gt;pat_11 -->
<g id="edge60" class="edge">
<title>pat_10&#45;&gt;pat_11</title>
<path fill="none" stroke="#c4cdd5" stroke-dasharray="5,2" d="M440.35,-221.89C440.35,-217.57 440.35,-184.85 440.35,-180.78"/>
</g>
<!-- kc_11 -->
<g id="node60" class="node">
<title>kc_11</title>
<ellipse fill="#b9c4cc" stroke="#b9c4cc" cx="523.35" cy="-179.93" rx="0.43" ry="0.43"/>
</g>
<!-- kc_10&#45;&gt;kc_11 -->
<g id="edge75" class="edge">
<title>kc_10&#45;&gt;kc_11</title>
<path fill="none" stroke="#c4cdd5" stroke-dasharray="5,2" d="M523.35,-221.89C523.35,-217.57 523.35,-184.85 523.35,-180.78"/>
</g>
<!-- staff_12 -->
<g id="node61" class="node">
<title>staff_12</title>
<ellipse fill="#b9c4cc" stroke="#b9c4cc" cx="168.35" cy="-137.07" rx="0.43" ry="0.43"/>
</g>
<!-- staff_11&#45;&gt;staff_12 -->
<g id="edge16" class="edge">
<title>staff_11&#45;&gt;staff_12</title>
<path fill="none" stroke="#c4cdd5" stroke-dasharray="5,2" d="M168.35,-179.03C168.35,-174.7 168.35,-141.99 168.35,-137.92"/>
</g>
<!-- api_12 -->
<g id="node62" class="node">
<title>api_12</title>
<ellipse fill="#b9c4cc" stroke="#b9c4cc" cx="255.35" cy="-137.07" rx="0.43" ry="0.43"/>
</g>
<!-- api_11&#45;&gt;api_12 -->
<g id="edge31" class="edge">
<title>api_11&#45;&gt;api_12</title>
<path fill="none" stroke="#c4cdd5" stroke-dasharray="5,2" d="M255.35,-179.03C255.35,-174.7 255.35,-141.99 255.35,-137.92"/>
</g>
<!-- repo_11&#45;&gt;api_11 -->
<g id="edge90" class="edge">
<title>repo_11&#45;&gt;api_11</title>
<path fill="none" stroke="#7c8996" stroke-width="1.4" stroke-dasharray="5,2" d="M348.63,-179.93C321.64,-179.93 294.65,-179.93 267.66,-179.93"/>
<polygon fill="#7c8996" stroke="#7c8996" stroke-width="1.4" points="257.79,-179.93 267.79,-175.43 261.09,-179.73 267.79,-179.73 267.79,-179.93 267.79,-180.13 261.09,-180.13 267.79,-184.43 257.79,-179.93"/>
<text xml:space="preserve" text-anchor="middle" x="243.27" y="-182.38" font-family="Arial" font-size="14.00" fill="#3d4750">11) مورد Patient المطابق</text>
</g>
<!-- repo_12 -->
<g id="node63" class="node">
<title>repo_12</title>
<ellipse fill="#b9c4cc" stroke="#b9c4cc" cx="349.35" cy="-137.07" rx="0.43" ry="0.43"/>
</g>
<!-- repo_11&#45;&gt;repo_12 -->
<g id="edge46" class="edge">
<title>repo_11&#45;&gt;repo_12</title>
<path fill="none" stroke="#c4cdd5" stroke-dasharray="5,2" d="M349.35,-179.03C349.35,-174.7 349.35,-141.99 349.35,-137.92"/>
</g>
<!-- pat_12 -->
<g id="node64" class="node">
<title>pat_12</title>
<ellipse fill="#b9c4cc" stroke="#b9c4cc" cx="440.35" cy="-137.07" rx="0.43" ry="0.43"/>
</g>
<!-- pat_11&#45;&gt;pat_12 -->
<g id="edge61" class="edge">
<title>pat_11&#45;&gt;pat_12</title>
<path fill="none" stroke="#c4cdd5" stroke-dasharray="5,2" d="M440.35,-179.03C440.35,-174.7 440.35,-141.99 440.35,-137.92"/>
</g>
<!-- kc_12 -->
<g id="node65" class="node">
<title>kc_12</title>
<ellipse fill="#b9c4cc" stroke="#b9c4cc" cx="523.35" cy="-137.07" rx="0.43" ry="0.43"/>
</g>
<!-- kc_11&#45;&gt;kc_12 -->
<g id="edge76" class="edge">
<title>kc_11&#45;&gt;kc_12</title>
<path fill="none" stroke="#c4cdd5" stroke-dasharray="5,2" d="M523.35,-179.03C523.35,-174.7 523.35,-141.99 523.35,-137.92"/>
</g>
<!-- staff_13 -->
<g id="node66" class="node">
<title>staff_13</title>
<ellipse fill="#b9c4cc" stroke="#b9c4cc" cx="168.35" cy="-94.2" rx="0.43" ry="0.43"/>
</g>
<!-- staff_12&#45;&gt;staff_13 -->
<g id="edge17" class="edge">
<title>staff_12&#45;&gt;staff_13</title>
<path fill="none" stroke="#c4cdd5" stroke-dasharray="5,2" d="M168.35,-136.16C168.35,-131.84 168.35,-99.12 168.35,-95.05"/>
</g>
<!-- api_12&#45;&gt;kc_12 -->
<g id="edge91" class="edge">
<title>api_12&#45;&gt;kc_12</title>
<path fill="none" stroke="#1f6fb2" stroke-width="1.9" d="M256.14,-137.07C340.7,-137.07 425.26,-137.07 509.82,-137.07"/>
<polygon fill="#1f6fb2" stroke="#1f6fb2" stroke-width="1.9" points="509.7,-140.57 519.7,-137.07 509.7,-133.57 509.7,-140.57"/>
<text xml:space="preserve" text-anchor="middle" x="262.98" y="-139.52" font-family="Arial" font-size="14.00" fill="#0f3e66">12) AssignRealmRole(ROLE_PATIENT)</text>
</g>
<!-- api_13 -->
<g id="node67" class="node">
<title>api_13</title>
<ellipse fill="#b9c4cc" stroke="#b9c4cc" cx="255.35" cy="-94.2" rx="0.43" ry="0.43"/>
</g>
<!-- api_12&#45;&gt;api_13 -->
<g id="edge32" class="edge">
<title>api_12&#45;&gt;api_13</title>
<path fill="none" stroke="#c4cdd5" stroke-dasharray="5,2" d="M255.35,-136.16C255.35,-131.84 255.35,-99.12 255.35,-95.05"/>
</g>
<!-- repo_13 -->
<g id="node68" class="node">
<title>repo_13</title>
<ellipse fill="#b9c4cc" stroke="#b9c4cc" cx="349.35" cy="-94.2" rx="0.43" ry="0.43"/>
</g>
<!-- repo_12&#45;&gt;repo_13 -->
<g id="edge47" class="edge">
<title>repo_12&#45;&gt;repo_13</title>
<path fill="none" stroke="#c4cdd5" stroke-dasharray="5,2" d="M349.35,-136.16C349.35,-131.84 349.35,-99.12 349.35,-95.05"/>
</g>
<!-- pat_13 -->
<g id="node69" class="node">
<title>pat_13</title>
<ellipse fill="#b9c4cc" stroke="#b9c4cc" cx="440.35" cy="-94.2" rx="0.43" ry="0.43"/>
</g>
<!-- pat_12&#45;&gt;pat_13 -->
<g id="edge62" class="edge">
<title>pat_12&#45;&gt;pat_13</title>
<path fill="none" stroke="#c4cdd5" stroke-dasharray="5,2" d="M440.35,-136.16C440.35,-131.84 440.35,-99.12 440.35,-95.05"/>
</g>
<!-- kc_13 -->
<g id="node70" class="node">
<title>kc_13</title>
<ellipse fill="#b9c4cc" stroke="#b9c4cc" cx="523.35" cy="-94.2" rx="0.43" ry="0.43"/>
</g>
<!-- kc_12&#45;&gt;kc_13 -->
<g id="edge77" class="edge">
<title>kc_12&#45;&gt;kc_13</title>
<path fill="none" stroke="#c4cdd5" stroke-dasharray="5,2" d="M523.35,-136.16C523.35,-131.84 523.35,-99.12 523.35,-95.05"/>
</g>
<!-- staff_14 -->
<g id="node71" class="node">
<title>staff_14</title>
<ellipse fill="#b9c4cc" stroke="#b9c4cc" cx="168.35" cy="-51.34" rx="0.43" ry="0.43"/>
</g>
<!-- staff_13&#45;&gt;staff_14 -->
<g id="edge18" class="edge">
<title>staff_13&#45;&gt;staff_14</title>
<path fill="none" stroke="#c4cdd5" stroke-dasharray="5,2" d="M168.35,-93.3C168.35,-88.97 168.35,-56.26 168.35,-52.19"/>
</g>
<!-- api_13&#45;&gt;repo_13 -->
<g id="edge92" class="edge">
<title>api_13&#45;&gt;repo_13</title>
<path fill="none" stroke="#1f6fb2" stroke-width="1.9" d="M256.09,-94.2C282.72,-94.2 309.35,-94.2 335.97,-94.2"/>
<polygon fill="#1f6fb2" stroke="#1f6fb2" stroke-width="1.9" points="335.75,-97.7 345.75,-94.2 335.75,-90.7 335.75,-97.7"/>
<text xml:space="preserve" text-anchor="middle" x="204.53" y="-112.4" font-family="Arial" font-size="14.00" fill="#0f3e66">13) تحديث Patient: حذف رمز الدعوة</text>
<text xml:space="preserve" text-anchor="middle" x="204.53" y="-96.65" font-family="Arial" font-size="14.00" fill="#0f3e66">+ ربط حساب Keycloak</text>
</g>
<!-- api_14 -->
<g id="node72" class="node">
<title>api_14</title>
<ellipse fill="#b9c4cc" stroke="#b9c4cc" cx="255.35" cy="-51.34" rx="0.43" ry="0.43"/>
</g>
<!-- api_13&#45;&gt;api_14 -->
<g id="edge33" class="edge">
<title>api_13&#45;&gt;api_14</title>
<path fill="none" stroke="#c4cdd5" stroke-dasharray="5,2" d="M255.35,-93.3C255.35,-88.97 255.35,-56.26 255.35,-52.19"/>
</g>
<!-- repo_14 -->
<g id="node73" class="node">
<title>repo_14</title>
<ellipse fill="#b9c4cc" stroke="#b9c4cc" cx="349.35" cy="-51.34" rx="0.43" ry="0.43"/>
</g>
<!-- repo_13&#45;&gt;repo_14 -->
<g id="edge48" class="edge">
<title>repo_13&#45;&gt;repo_14</title>
<path fill="none" stroke="#c4cdd5" stroke-dasharray="5,2" d="M349.35,-93.3C349.35,-88.97 349.35,-56.26 349.35,-52.19"/>
</g>
<!-- pat_14 -->
<g id="node74" class="node">
<title>pat_14</title>
<ellipse fill="#b9c4cc" stroke="#b9c4cc" cx="440.35" cy="-51.34" rx="0.43" ry="0.43"/>
</g>
<!-- pat_13&#45;&gt;pat_14 -->
<g id="edge63" class="edge">
<title>pat_13&#45;&gt;pat_14</title>
<path fill="none" stroke="#c4cdd5" stroke-dasharray="5,2" d="M440.35,-93.3C440.35,-88.97 440.35,-56.26 440.35,-52.19"/>
</g>
<!-- kc_14 -->
<g id="node75" class="node">
<title>kc_14</title>
<ellipse fill="#b9c4cc" stroke="#b9c4cc" cx="523.35" cy="-51.34" rx="0.43" ry="0.43"/>
</g>
<!-- kc_13&#45;&gt;kc_14 -->
<g id="edge78" class="edge">
<title>kc_13&#45;&gt;kc_14</title>
<path fill="none" stroke="#c4cdd5" stroke-dasharray="5,2" d="M523.35,-93.3C523.35,-88.97 523.35,-56.26 523.35,-52.19"/>
</g>
<!-- staff_15 -->
<g id="node76" class="node">
<title>staff_15</title>
<ellipse fill="#b9c4cc" stroke="#b9c4cc" cx="168.35" cy="-8.48" rx="0.43" ry="0.43"/>
</g>
<!-- staff_14&#45;&gt;staff_15 -->
<g id="edge19" class="edge">
<title>staff_14&#45;&gt;staff_15</title>
<path fill="none" stroke="#c4cdd5" stroke-dasharray="5,2" d="M168.35,-50.44C168.35,-46.11 168.35,-13.4 168.35,-9.32"/>
</g>
<!-- api_14&#45;&gt;pat_14 -->
<g id="edge93" class="edge">
<title>api_14&#45;&gt;pat_14</title>
<path fill="none" stroke="#7c8996" stroke-width="1.4" stroke-dasharray="5,2" d="M256.08,-51.34C313.44,-51.34 370.8,-51.34 428.16,-51.34"/>
<polygon fill="#7c8996" stroke="#7c8996" stroke-width="1.4" points="437.93,-51.34 427.93,-55.84 434.63,-51.54 427.93,-51.54 427.93,-51.34 427.93,-51.14 434.63,-51.14 427.93,-46.84 437.93,-51.34"/>
<text xml:space="preserve" text-anchor="middle" x="229.24" y="-53.79" font-family="Arial" font-size="14.00" fill="#3d4750">14) 200 { patientId, ROLE_PATIENT }</text>
</g>
<!-- api_15 -->
<g id="node77" class="node">
<title>api_15</title>
<ellipse fill="#b9c4cc" stroke="#b9c4cc" cx="255.35" cy="-8.48" rx="0.43" ry="0.43"/>
</g>
<!-- api_14&#45;&gt;api_15 -->
<g id="edge34" class="edge">
<title>api_14&#45;&gt;api_15</title>
<path fill="none" stroke="#c4cdd5" stroke-dasharray="5,2" d="M255.35,-50.44C255.35,-46.11 255.35,-13.4 255.35,-9.32"/>
</g>
<!-- repo_15 -->
<g id="node78" class="node">
<title>repo_15</title>
<ellipse fill="#b9c4cc" stroke="#b9c4cc" cx="349.35" cy="-8.48" rx="0.43" ry="0.43"/>
</g>
<!-- repo_14&#45;&gt;repo_15 -->
<g id="edge49" class="edge">
<title>repo_14&#45;&gt;repo_15</title>
<path fill="none" stroke="#c4cdd5" stroke-dasharray="5,2" d="M349.35,-50.44C349.35,-46.11 349.35,-13.4 349.35,-9.32"/>
</g>
<!-- pat_15 -->
<g id="node79" class="node">
<title>pat_15</title>
<ellipse fill="#b9c4cc" stroke="#b9c4cc" cx="440.35" cy="-8.48" rx="0.43" ry="0.43"/>
</g>
<!-- pat_14&#45;&gt;pat_15 -->
<g id="edge64" class="edge">
<title>pat_14&#45;&gt;pat_15</title>
<path fill="none" stroke="#c4cdd5" stroke-dasharray="5,2" d="M440.35,-50.44C440.35,-46.11 440.35,-13.4 440.35,-9.32"/>
</g>
<!-- kc_15 -->
<g id="node80" class="node">
<title>kc_15</title>
<ellipse fill="#b9c4cc" stroke="#b9c4cc" cx="523.35" cy="-8.48" rx="0.43" ry="0.43"/>
</g>
<!-- kc_14&#45;&gt;kc_15 -->
<g id="edge79" class="edge">
<title>kc_14&#45;&gt;kc_15</title>
<path fill="none" stroke="#c4cdd5" stroke-dasharray="5,2" d="M523.35,-50.44C523.35,-46.11 523.35,-13.4 523.35,-9.32"/>
</g>
<!-- pat_15&#45;&gt;pat_15 -->
<g id="edge94" class="edge">
<title>pat_15&#45;&gt;pat_15</title>
<path fill="none" stroke="#7a6baa" d="M440.82,-8.97C450.77,-19.19 469.79,-19.03 469.79,-8.48 469.79,-0.81 459.75,1.37 450.44,-1.93"/>
<polygon fill="#7a6baa" stroke="#7a6baa" points="448.7,1.11 442.1,-7.18 452.43,-4.81 448.7,1.11"/>
<text xml:space="preserve" text-anchor="middle" x="373.26" y="-11" font-family="Arial" font-size="14.00" fill="#4a3c78">15) دخول بوّابة المريض (MyHealth)</text>
</g>
</g>
</svg>
