<?xml version="1.0" encoding="UTF-8" standalone="no"?>
<!DOCTYPE svg PUBLIC "-//W3C//DTD SVG 1.1//EN"
 "http://www.w3.org/Graphics/SVG/1.1/DTD/svg11.dtd">
<!-- Generated by graphviz version 14.1.1 (20251213.1925)
 -->
<!-- Title: SEQ Pages: 1 -->
<svg width="1780pt" height="675pt"
 viewBox="0.00 0.00 1780.00 675.00" xmlns="http://www.w3.org/2000/svg" xmlns:xlink="http://www.w3.org/1999/xlink">
<g id="graph0" class="graph" transform="scale(1 1) rotate(0) translate(25.2 649.68)">
<title>SEQ</title>
<polygon fill="white" stroke="none" points="-25.2,25.2 -25.2,-649.68 1754.61,-649.68 1754.61,25.2 -25.2,25.2"/>
<text xml:space="preserve" text-anchor="middle" x="864.7" y="-607.18" font-family="Arial" font-size="14.00">تسلسل الدعوة والربط (Invite/Claim) — Patient Onboarding</text>
<!-- H_staff -->
<g id="node1" class="node">
<title>H_staff</title>
<path fill="#eef0f2" stroke="#777777" d="M74.91,-600.73C74.91,-600.73 12,-600.73 12,-600.73 6,-600.73 0,-594.73 0,-588.73 0,-588.73 0,-576.73 0,-576.73 0,-570.73 6,-564.73 12,-564.73 12,-564.73 74.91,-564.73 74.91,-564.73 80.91,-564.73 86.91,-570.73 86.91,-576.73 86.91,-576.73 86.91,-588.73 86.91,-588.73 86.91,-594.73 80.91,-600.73 74.91,-600.73"/>
<text xml:space="preserve" text-anchor="middle" x="43.45" y="-585.23" font-family="Arial" font-size="10.00">المُنشئ</text>
<text xml:space="preserve" text-anchor="middle" x="43.45" y="-573.23" font-family="Arial" font-size="10.00">(مدير مؤسسة/طبيب)</text>
</g>
<!-- H_inv -->
<g id="node2" class="node">
<title>H_inv</title>
<path fill="#ffffff" stroke="#1f6fb2" d="M420.28,-600.73C420.28,-600.73 314.62,-600.73 314.62,-600.73 308.62,-600.73 302.62,-594.73 302.62,-588.73 302.62,-588.73 302.62,-576.73 302.62,-576.73 302.62,-570.73 308.62,-564.73 314.62,-564.73 314.62,-564.73 420.28,-564.73 420.28,-564.73 426.28,-564.73 432.28,-570.73 432.28,-576.73 432.28,-576.73 432.28,-588.73 432.28,-588.73 432.28,-594.73 426.28,-600.73 420.28,-600.73"/>
<text xml:space="preserve" text-anchor="middle" x="367.45" y="-585.23" font-family="Arial" font-size="10.00">PatientInviteController</text>
<text xml:space="preserve" text-anchor="middle" x="367.45" y="-573.23" font-family="Arial" font-size="10.00">/api/patients/create&#45;invite</text>
</g>
<!-- H_staff&#45;&gt;H_inv -->
<!-- staff_1 -->
<g id="node7" class="node">
<title>staff_1</title>
<ellipse fill="#b9c4cc" stroke="#b9c4cc" cx="43.45" cy="-533.3" rx="0.43" ry="0.43"/>
</g>
<!-- H_staff&#45;&gt;staff_1 -->
<g id="edge6" class="edge">
<title>H_staff&#45;&gt;staff_1</title>
<path fill="none" stroke="#c4cdd5" stroke-dasharray="5,2" d="M43.45,-564.4C43.45,-551.94 43.45,-536.88 43.45,-534.16"/>
</g>
<!-- H_repo -->
<g id="node3" class="node">
<title>H_repo</title>
<path fill="#e3f2e9" stroke="#2e8b57" d="M761.41,-600.73C761.41,-600.73 659.5,-600.73 659.5,-600.73 653.5,-600.73 647.5,-594.73 647.5,-588.73 647.5,-588.73 647.5,-576.73 647.5,-576.73 647.5,-570.73 653.5,-564.73 659.5,-564.73 659.5,-564.73 761.41,-564.73 761.41,-564.73 767.41,-564.73 773.41,-570.73 773.41,-576.73 773.41,-576.73 773.41,-588.73 773.41,-588.73 773.41,-594.73 767.41,-600.73 761.41,-600.73"/>
<text xml:space="preserve" text-anchor="middle" x="710.45" y="-585.23" font-family="Arial" font-size="10.00">FhirRepository</text>
<text xml:space="preserve" text-anchor="middle" x="710.45" y="-573.23" font-family="Arial" font-size="10.00">(مورد Patient + رمز الدعوة)</text>
</g>
<!-- H_inv&#45;&gt;H_repo -->
<!-- inv_1 -->
<g id="node8" class="node">
<title>inv_1</title>
<ellipse fill="#b9c4cc" stroke="#b9c4cc" cx="367.45" cy="-533.3" rx="0.43" ry="0.43"/>
</g>
<!-- H_inv&#45;&gt;inv_1 -->
<g id="edge21" class="edge">
<title>H_inv&#45;&gt;inv_1</title>
<path fill="none" stroke="#c4cdd5" stroke-dasharray="5,2" d="M367.45,-564.4C367.45,-551.94 367.45,-536.88 367.45,-534.16"/>
</g>
<!-- H_pat -->
<g id="node4" class="node">
<title>H_pat</title>
<path fill="#e8f1f8" stroke="#1f6fb2" d="M1063.91,-600.73C1063.91,-600.73 1001,-600.73 1001,-600.73 995,-600.73 989,-594.73 989,-588.73 989,-588.73 989,-576.73 989,-576.73 989,-570.73 995,-564.73 1001,-564.73 1001,-564.73 1063.91,-564.73 1063.91,-564.73 1069.91,-564.73 1075.91,-570.73 1075.91,-576.73 1075.91,-576.73 1075.91,-588.73 1075.91,-588.73 1075.91,-594.73 1069.91,-600.73 1063.91,-600.73"/>
<text xml:space="preserve" text-anchor="middle" x="1032.45" y="-585.23" font-family="Arial" font-size="10.00">المريض</text>
<text xml:space="preserve" text-anchor="middle" x="1032.45" y="-573.23" font-family="Arial" font-size="10.00">Patient (المتصفّح)</text>
</g>
<!-- H_repo&#45;&gt;H_pat -->
<!-- repo_1 -->
<g id="node9" class="node">
<title>repo_1</title>
<ellipse fill="#b9c4cc" stroke="#b9c4cc" cx="710.45" cy="-533.3" rx="0.43" ry="0.43"/>
</g>
<!-- H_repo&#45;&gt;repo_1 -->
<g id="edge36" class="edge">
<title>H_repo&#45;&gt;repo_1</title>
<path fill="none" stroke="#c4cdd5" stroke-dasharray="5,2" d="M710.45,-564.4C710.45,-551.94 710.45,-536.88 710.45,-534.16"/>
</g>
<!-- H_kc -->
<g id="node5" class="node">
<title>H_kc</title>
<path fill="#fdf3e3" stroke="#c8902a" d="M1376.28,-600.73C1376.28,-600.73 1324.62,-600.73 1324.62,-600.73 1318.62,-600.73 1312.62,-594.73 1312.62,-588.73 1312.62,-588.73 1312.62,-576.73 1312.62,-576.73 1312.62,-570.73 1318.62,-564.73 1324.62,-564.73 1324.62,-564.73 1376.28,-564.73 1376.28,-564.73 1382.28,-564.73 1388.28,-570.73 1388.28,-576.73 1388.28,-576.73 1388.28,-588.73 1388.28,-588.73 1388.28,-594.73 1382.28,-600.73 1376.28,-600.73"/>
<text xml:space="preserve" text-anchor="middle" x="1350.45" y="-585.23" font-family="Arial" font-size="10.00">Keycloak</text>
<text xml:space="preserve" text-anchor="middle" x="1350.45" y="-573.23" font-family="Arial" font-size="10.00">(تسجيل + أدوار)</text>
</g>
<!-- H_pat&#45;&gt;H_kc -->
<!-- pat_1 -->
<g id="node10" class="node">
<title>pat_1</title>
<ellipse fill="#b9c4cc" stroke="#b9c4cc" cx="1032.45" cy="-533.3" rx="0.43" ry="0.43"/>
</g>
<!-- H_pat&#45;&gt;pat_1 -->
<g id="edge51" class="edge">
<title>H_pat&#45;&gt;pat_1</title>
<path fill="none" stroke="#c4cdd5" stroke-dasharray="5,2" d="M1032.45,-564.4C1032.45,-551.94 1032.45,-536.88 1032.45,-534.16"/>
</g>
<!-- H_clm -->
<g id="node6" class="node">
<title>H_clm</title>
<path fill="#ffffff" stroke="#1f6fb2" d="M1717.41,-600.73C1717.41,-600.73 1615.5,-600.73 1615.5,-600.73 1609.5,-600.73 1603.5,-594.73 1603.5,-588.73 1603.5,-588.73 1603.5,-576.73 1603.5,-576.73 1603.5,-570.73 1609.5,-564.73 1615.5,-564.73 1615.5,-564.73 1717.41,-564.73 1717.41,-564.73 1723.41,-564.73 1729.41,-570.73 1729.41,-576.73 1729.41,-576.73 1729.41,-588.73 1729.41,-588.73 1729.41,-594.73 1723.41,-600.73 1717.41,-600.73"/>
<text xml:space="preserve" text-anchor="middle" x="1666.45" y="-585.23" font-family="Arial" font-size="10.00">PatientClaimController</text>
<text xml:space="preserve" text-anchor="middle" x="1666.45" y="-573.23" font-family="Arial" font-size="10.00">/api/patients/claim&#45;invite</text>
</g>
<!-- H_kc&#45;&gt;H_clm -->
<!-- kc_1 -->
<g id="node11" class="node">
<title>kc_1</title>
<ellipse fill="#b9c4cc" stroke="#b9c4cc" cx="1350.45" cy="-533.3" rx="0.43" ry="0.43"/>
</g>
<!-- H_kc&#45;&gt;kc_1 -->
<g id="edge66" class="edge">
<title>H_kc&#45;&gt;kc_1</title>
<path fill="none" stroke="#c4cdd5" stroke-dasharray="5,2" d="M1350.45,-564.4C1350.45,-551.94 1350.45,-536.88 1350.45,-534.16"/>
</g>
<!-- clm_1 -->
<g id="node12" class="node">
<title>clm_1</title>
<ellipse fill="#b9c4cc" stroke="#b9c4cc" cx="1666.45" cy="-533.3" rx="0.43" ry="0.43"/>
</g>
<!-- H_clm&#45;&gt;clm_1 -->
<g id="edge81" class="edge">
<title>H_clm&#45;&gt;clm_1</title>
<path fill="none" stroke="#c4cdd5" stroke-dasharray="5,2" d="M1666.45,-564.4C1666.45,-551.94 1666.45,-536.88 1666.45,-534.16"/>
</g>
<!-- staff_1&#45;&gt;inv_1 -->
<g id="edge96" class="edge">
<title>staff_1&#45;&gt;inv_1</title>
<path fill="none" stroke="#1f6fb2" stroke-width="1.3" d="M44.38,-533.3C61.07,-533.3 297.47,-533.3 354.93,-533.3"/>
<polygon fill="#1f6fb2" stroke="#1f6fb2" stroke-width="1.3" points="354.61,-536.8 364.61,-533.3 354.61,-529.8 354.61,-536.8"/>
<text xml:space="preserve" text-anchor="middle" x="205.45" y="-548.75" font-family="Arial" font-size="9.00" fill="#154d7c">1) POST create&#45;invite</text>
<text xml:space="preserve" text-anchor="middle" x="205.45" y="-538.25" font-family="Arial" font-size="9.00" fill="#154d7c">{org, name, birthDate}</text>
</g>
<!-- staff_2 -->
<g id="node13" class="node">
<title>staff_2</title>
<ellipse fill="#b9c4cc" stroke="#b9c4cc" cx="43.45" cy="-496.62" rx="0.43" ry="0.43"/>
</g>
<!-- staff_1&#45;&gt;staff_2 -->
<g id="edge7" class="edge">
<title>staff_1&#45;&gt;staff_2</title>
<path fill="none" stroke="#c4cdd5" stroke-dasharray="5,2" d="M43.45,-532.47C43.45,-528.72 43.45,-499.53 43.45,-497.71"/>
</g>
<!-- inv_2 -->
<g id="node14" class="node">
<title>inv_2</title>
<ellipse fill="#b9c4cc" stroke="#b9c4cc" cx="367.45" cy="-496.62" rx="0.43" ry="0.43"/>
</g>
<!-- inv_1&#45;&gt;inv_2 -->
<g id="edge22" class="edge">
<title>inv_1&#45;&gt;inv_2</title>
<path fill="none" stroke="#c4cdd5" stroke-dasharray="5,2" d="M367.45,-532.47C367.45,-528.72 367.45,-499.53 367.45,-497.71"/>
</g>
<!-- repo_2 -->
<g id="node15" class="node">
<title>repo_2</title>
<ellipse fill="#b9c4cc" stroke="#b9c4cc" cx="710.45" cy="-496.62" rx="0.43" ry="0.43"/>
</g>
<!-- repo_1&#45;&gt;repo_2 -->
<g id="edge37" class="edge">
<title>repo_1&#45;&gt;repo_2</title>
<path fill="none" stroke="#c4cdd5" stroke-dasharray="5,2" d="M710.45,-532.47C710.45,-528.72 710.45,-499.53 710.45,-497.71"/>
</g>
<!-- pat_2 -->
<g id="node16" class="node">
<title>pat_2</title>
<ellipse fill="#b9c4cc" stroke="#b9c4cc" cx="1032.45" cy="-496.62" rx="0.43" ry="0.43"/>
</g>
<!-- pat_1&#45;&gt;pat_2 -->
<g id="edge52" class="edge">
<title>pat_1&#45;&gt;pat_2</title>
<path fill="none" stroke="#c4cdd5" stroke-dasharray="5,2" d="M1032.45,-532.47C1032.45,-528.72 1032.45,-499.53 1032.45,-497.71"/>
</g>
<!-- kc_2 -->
<g id="node17" class="node">
<title>kc_2</title>
<ellipse fill="#b9c4cc" stroke="#b9c4cc" cx="1350.45" cy="-496.62" rx="0.43" ry="0.43"/>
</g>
<!-- kc_1&#45;&gt;kc_2 -->
<g id="edge67" class="edge">
<title>kc_1&#45;&gt;kc_2</title>
<path fill="none" stroke="#c4cdd5" stroke-dasharray="5,2" d="M1350.45,-532.47C1350.45,-528.72 1350.45,-499.53 1350.45,-497.71"/>
</g>
<!-- clm_2 -->
<g id="node18" class="node">
<title>clm_2</title>
<ellipse fill="#b9c4cc" stroke="#b9c4cc" cx="1666.45" cy="-496.62" rx="0.43" ry="0.43"/>
</g>
<!-- clm_1&#45;&gt;clm_2 -->
<g id="edge82" class="edge">
<title>clm_1&#45;&gt;clm_2</title>
<path fill="none" stroke="#c4cdd5" stroke-dasharray="5,2" d="M1666.45,-532.47C1666.45,-528.72 1666.45,-499.53 1666.45,-497.71"/>
</g>
<!-- staff_3 -->
<g id="node19" class="node">
<title>staff_3</title>
<ellipse fill="#b9c4cc" stroke="#b9c4cc" cx="43.45" cy="-459.94" rx="0.43" ry="0.43"/>
</g>
<!-- staff_2&#45;&gt;staff_3 -->
<g id="edge8" class="edge">
<title>staff_2&#45;&gt;staff_3</title>
<path fill="none" stroke="#c4cdd5" stroke-dasharray="5,2" d="M43.45,-495.52C43.45,-493.58 43.45,-464.38 43.45,-460.74"/>
</g>
<!-- inv_2&#45;&gt;inv_2 -->
<g id="edge97" class="edge">
<title>inv_2&#45;&gt;inv_2</title>
<path fill="none" stroke="#7a6baa" d="M368.31,-496.74C404.72,-501.81 475.89,-501.76 475.89,-496.62 475.89,-491.95 417.44,-491.48 379.38,-495.21"/>
<polygon fill="#7a6baa" stroke="#7a6baa" points="379.34,-491.69 369.81,-496.32 380.15,-498.64 379.34,-491.69"/>
<text xml:space="preserve" text-anchor="middle" x="551.26" y="-493.32" font-family="Arial" font-size="9.00" fill="#5b4c8a">2) تحقّق الصلاحية + توليد رقم المريض ورمز الدعوة</text>
</g>
<!-- inv_3 -->
<g id="node20" class="node">
<title>inv_3</title>
<ellipse fill="#b9c4cc" stroke="#b9c4cc" cx="367.45" cy="-459.94" rx="0.43" ry="0.43"/>
</g>
<!-- inv_2&#45;&gt;inv_3 -->
<g id="edge23" class="edge">
<title>inv_2&#45;&gt;inv_3</title>
<path fill="none" stroke="#c4cdd5" stroke-dasharray="5,2" d="M367.45,-495.52C367.45,-493.58 367.45,-464.38 367.45,-460.74"/>
</g>
<!-- repo_3 -->
<g id="node21" class="node">
<title>repo_3</title>
<ellipse fill="#b9c4cc" stroke="#b9c4cc" cx="710.45" cy="-459.94" rx="0.43" ry="0.43"/>
</g>
<!-- repo_2&#45;&gt;repo_3 -->
<g id="edge38" class="edge">
<title>repo_2&#45;&gt;repo_3</title>
<path fill="none" stroke="#c4cdd5" stroke-dasharray="5,2" d="M710.45,-495.52C710.45,-493.58 710.45,-464.38 710.45,-460.74"/>
</g>
<!-- pat_3 -->
<g id="node22" class="node">
<title>pat_3</title>
<ellipse fill="#b9c4cc" stroke="#b9c4cc" cx="1032.45" cy="-459.94" rx="0.43" ry="0.43"/>
</g>
<!-- pat_2&#45;&gt;pat_3 -->
<g id="edge53" class="edge">
<title>pat_2&#45;&gt;pat_3</title>
<path fill="none" stroke="#c4cdd5" stroke-dasharray="5,2" d="M1032.45,-495.52C1032.45,-493.58 1032.45,-464.38 1032.45,-460.74"/>
</g>
<!-- kc_3 -->
<g id="node23" class="node">
<title>kc_3</title>
<ellipse fill="#b9c4cc" stroke="#b9c4cc" cx="1350.45" cy="-459.94" rx="0.43" ry="0.43"/>
</g>
<!-- kc_2&#45;&gt;kc_3 -->
<g id="edge68" class="edge">
<title>kc_2&#45;&gt;kc_3</title>
<path fill="none" stroke="#c4cdd5" stroke-dasharray="5,2" d="M1350.45,-495.52C1350.45,-493.58 1350.45,-464.38 1350.45,-460.74"/>
</g>
<!-- clm_3 -->
<g id="node24" class="node">
<title>clm_3</title>
<ellipse fill="#b9c4cc" stroke="#b9c4cc" cx="1666.45" cy="-459.94" rx="0.43" ry="0.43"/>
</g>
<!-- clm_2&#45;&gt;clm_3 -->
<g id="edge83" class="edge">
<title>clm_2&#45;&gt;clm_3</title>
<path fill="none" stroke="#c4cdd5" stroke-dasharray="5,2" d="M1666.45,-495.52C1666.45,-493.58 1666.45,-464.38 1666.45,-460.74"/>
</g>
<!-- staff_4 -->
<g id="node25" class="node">
<title>staff_4</title>
<ellipse fill="#b9c4cc" stroke="#b9c4cc" cx="43.45" cy="-428.07" rx="0.43" ry="0.43"/>
</g>
<!-- staff_3&#45;&gt;staff_4 -->
<g id="edge9" class="edge">
<title>staff_3&#45;&gt;staff_4</title>
<path fill="none" stroke="#c4cdd5" stroke-dasharray="5,2" d="M43.45,-459.16C43.45,-455.96 43.45,-431.82 43.45,-428.81"/>
</g>
<!-- inv_3&#45;&gt;repo_3 -->
<g id="edge98" class="edge">
<title>inv_3&#45;&gt;repo_3</title>
<path fill="none" stroke="#1f6fb2" stroke-width="1.3" d="M368.01,-459.94C381.55,-459.94 638.24,-459.94 698.07,-459.94"/>
<polygon fill="#1f6fb2" stroke="#1f6fb2" stroke-width="1.3" points="697.96,-463.44 707.96,-459.94 697.96,-456.44 697.96,-463.44"/>
<text xml:space="preserve" text-anchor="middle" x="538.95" y="-464.89" font-family="Arial" font-size="9.00" fill="#154d7c">3) Create Patient + Identifier(رمز الدعوة)</text>
</g>
<!-- inv_4 -->
<g id="node26" class="node">
<title>inv_4</title>
<ellipse fill="#b9c4cc" stroke="#b9c4cc" cx="367.45" cy="-428.07" rx="0.43" ry="0.43"/>
</g>
<!-- inv_3&#45;&gt;inv_4 -->
<g id="edge24" class="edge">
<title>inv_3&#45;&gt;inv_4</title>
<path fill="none" stroke="#c4cdd5" stroke-dasharray="5,2" d="M367.45,-459.16C367.45,-455.96 367.45,-431.82 367.45,-428.81"/>
</g>
<!-- repo_4 -->
<g id="node27" class="node">
<title>repo_4</title>
<ellipse fill="#b9c4cc" stroke="#b9c4cc" cx="710.45" cy="-428.07" rx="0.43" ry="0.43"/>
</g>
<!-- repo_3&#45;&gt;repo_4 -->
<g id="edge39" class="edge">
<title>repo_3&#45;&gt;repo_4</title>
<path fill="none" stroke="#c4cdd5" stroke-dasharray="5,2" d="M710.45,-459.16C710.45,-455.96 710.45,-431.82 710.45,-428.81"/>
</g>
<!-- pat_4 -->
<g id="node28" class="node">
<title>pat_4</title>
<ellipse fill="#b9c4cc" stroke="#b9c4cc" cx="1032.45" cy="-428.07" rx="0.43" ry="0.43"/>
</g>
<!-- pat_3&#45;&gt;pat_4 -->
<g id="edge54" class="edge">
<title>pat_3&#45;&gt;pat_4</title>
<path fill="none" stroke="#c4cdd5" stroke-dasharray="5,2" d="M1032.45,-459.16C1032.45,-455.96 1032.45,-431.82 1032.45,-428.81"/>
</g>
<!-- kc_4 -->
<g id="node29" class="node">
<title>kc_4</title>
<ellipse fill="#b9c4cc" stroke="#b9c4cc" cx="1350.45" cy="-428.07" rx="0.43" ry="0.43"/>
</g>
<!-- kc_3&#45;&gt;kc_4 -->
<g id="edge69" class="edge">
<title>kc_3&#45;&gt;kc_4</title>
<path fill="none" stroke="#c4cdd5" stroke-dasharray="5,2" d="M1350.45,-459.16C1350.45,-455.96 1350.45,-431.82 1350.45,-428.81"/>
</g>
<!-- clm_4 -->
<g id="node30" class="node">
<title>clm_4</title>
<ellipse fill="#b9c4cc" stroke="#b9c4cc" cx="1666.45" cy="-428.07" rx="0.43" ry="0.43"/>
</g>
<!-- clm_3&#45;&gt;clm_4 -->
<g id="edge84" class="edge">
<title>clm_3&#45;&gt;clm_4</title>
<path fill="none" stroke="#c4cdd5" stroke-dasharray="5,2" d="M1666.45,-459.16C1666.45,-455.96 1666.45,-431.82 1666.45,-428.81"/>
</g>
<!-- staff_5 -->
<g id="node31" class="node">
<title>staff_5</title>
<ellipse fill="#b9c4cc" stroke="#b9c4cc" cx="43.45" cy="-396.21" rx="0.43" ry="0.43"/>
</g>
<!-- staff_4&#45;&gt;staff_5 -->
<g id="edge10" class="edge">
<title>staff_4&#45;&gt;staff_5</title>
<path fill="none" stroke="#c4cdd5" stroke-dasharray="5,2" d="M43.45,-427.29C43.45,-424.1 43.45,-399.95 43.45,-396.95"/>
</g>
<!-- inv_5 -->
<g id="node32" class="node">
<title>inv_5</title>
<ellipse fill="#b9c4cc" stroke="#b9c4cc" cx="367.45" cy="-396.21" rx="0.43" ry="0.43"/>
</g>
<!-- inv_4&#45;&gt;inv_5 -->
<g id="edge25" class="edge">
<title>inv_4&#45;&gt;inv_5</title>
<path fill="none" stroke="#c4cdd5" stroke-dasharray="5,2" d="M367.45,-427.29C367.45,-424.1 367.45,-399.95 367.45,-396.95"/>
</g>
<!-- repo_4&#45;&gt;inv_4 -->
<g id="edge99" class="edge">
<title>repo_4&#45;&gt;inv_4</title>
<path fill="none" stroke="#8a97a3" stroke-dasharray="5,2" d="M709.92,-428.07C696.64,-428.07 437.81,-428.07 379.19,-428.07"/>
<polygon fill="#8a97a3" stroke="#8a97a3" points="369.23,-428.07 379.23,-423.57 373.01,-428.07 379.23,-428.07 379.23,-428.07 379.23,-428.07 373.01,-428.07 379.23,-432.57 369.23,-428.07"/>
<text xml:space="preserve" text-anchor="middle" x="538.95" y="-433.02" font-family="Arial" font-size="9.00" fill="#5c6773">4) patientId</text>
</g>
<!-- repo_5 -->
<g id="node33" class="node">
<title>repo_5</title>
<ellipse fill="#b9c4cc" stroke="#b9c4cc" cx="710.45" cy="-396.21" rx="0.43" ry="0.43"/>
</g>
<!-- repo_4&#45;&gt;repo_5 -->
<g id="edge40" class="edge">
<title>repo_4&#45;&gt;repo_5</title>
<path fill="none" stroke="#c4cdd5" stroke-dasharray="5,2" d="M710.45,-427.29C710.45,-424.1 710.45,-399.95 710.45,-396.95"/>
</g>
<!-- pat_5 -->
<g id="node34" class="node">
<title>pat_5</title>
<ellipse fill="#b9c4cc" stroke="#b9c4cc" cx="1032.45" cy="-396.21" rx="0.43" ry="0.43"/>
</g>
<!-- pat_4&#45;&gt;pat_5 -->
<g id="edge55" class="edge">
<title>pat_4&#45;&gt;pat_5</title>
<path fill="none" stroke="#c4cdd5" stroke-dasharray="5,2" d="M1032.45,-427.29C1032.45,-424.1 1032.45,-399.95 1032.45,-396.95"/>
</g>
<!-- kc_5 -->
<g id="node35" class="node">
<title>kc_5</title>
<ellipse fill="#b9c4cc" stroke="#b9c4cc" cx="1350.45" cy="-396.21" rx="0.43" ry="0.43"/>
</g>
<!-- kc_4&#45;&gt;kc_5 -->
<g id="edge70" class="edge">
<title>kc_4&#45;&gt;kc_5</title>
<path fill="none" stroke="#c4cdd5" stroke-dasharray="5,2" d="M1350.45,-427.29C1350.45,-424.1 1350.45,-399.95 1350.45,-396.95"/>
</g>
<!-- clm_5 -->
<g id="node36" class="node">
<title>clm_5</title>
<ellipse fill="#b9c4cc" stroke="#b9c4cc" cx="1666.45" cy="-396.21" rx="0.43" ry="0.43"/>
</g>
<!-- clm_4&#45;&gt;clm_5 -->
<g id="edge85" class="edge">
<title>clm_4&#45;&gt;clm_5</title>
<path fill="none" stroke="#c4cdd5" stroke-dasharray="5,2" d="M1666.45,-427.29C1666.45,-424.1 1666.45,-399.95 1666.45,-396.95"/>
</g>
<!-- staff_6 -->
<g id="node37" class="node">
<title>staff_6</title>
<ellipse fill="#b9c4cc" stroke="#b9c4cc" cx="43.45" cy="-354.84" rx="0.43" ry="0.43"/>
</g>
<!-- staff_5&#45;&gt;staff_6 -->
<g id="edge11" class="edge">
<title>staff_5&#45;&gt;staff_6</title>
<path fill="none" stroke="#c4cdd5" stroke-dasharray="5,2" d="M43.45,-395.32C43.45,-391.15 43.45,-359.6 43.45,-355.68"/>
</g>
<!-- inv_5&#45;&gt;staff_5 -->
<g id="edge100" class="edge">
<title>inv_5&#45;&gt;staff_5</title>
<path fill="none" stroke="#8a97a3" stroke-dasharray="5,2" d="M366.58,-396.21C350.33,-396.21 112.01,-396.21 55.44,-396.21"/>
<polygon fill="#8a97a3" stroke="#8a97a3" points="45.6,-396.21 55.6,-391.71 49.38,-396.21 55.6,-396.21 55.6,-396.21 55.6,-396.21 49.38,-396.21 55.6,-400.71 45.6,-396.21"/>
<text xml:space="preserve" text-anchor="middle" x="205.45" y="-401.16" font-family="Arial" font-size="9.00" fill="#5c6773">5) 200 { claimLink, registrationLink }</text>
</g>
<!-- inv_6 -->
<g id="node38" class="node">
<title>inv_6</title>
<ellipse fill="#b9c4cc" stroke="#b9c4cc" cx="367.45" cy="-354.84" rx="0.43" ry="0.43"/>
</g>
<!-- inv_5&#45;&gt;inv_6 -->
<g id="edge26" class="edge">
<title>inv_5&#45;&gt;inv_6</title>
<path fill="none" stroke="#c4cdd5" stroke-dasharray="5,2" d="M367.45,-395.32C367.45,-391.15 367.45,-359.6 367.45,-355.68"/>
</g>
<!-- repo_6 -->
<g id="node39" class="node">
<title>repo_6</title>
<ellipse fill="#b9c4cc" stroke="#b9c4cc" cx="710.45" cy="-354.84" rx="0.43" ry="0.43"/>
</g>
<!-- repo_5&#45;&gt;repo_6 -->
<g id="edge41" class="edge">
<title>repo_5&#45;&gt;repo_6</title>
<path fill="none" stroke="#c4cdd5" stroke-dasharray="5,2" d="M710.45,-395.32C710.45,-391.15 710.45,-359.6 710.45,-355.68"/>
</g>
<!-- pat_6 -->
<g id="node40" class="node">
<title>pat_6</title>
<ellipse fill="#b9c4cc" stroke="#b9c4cc" cx="1032.45" cy="-354.84" rx="0.43" ry="0.43"/>
</g>
<!-- pat_5&#45;&gt;pat_6 -->
<g id="edge56" class="edge">
<title>pat_5&#45;&gt;pat_6</title>
<path fill="none" stroke="#c4cdd5" stroke-dasharray="5,2" d="M1032.45,-395.32C1032.45,-391.15 1032.45,-359.6 1032.45,-355.68"/>
</g>
<!-- kc_6 -->
<g id="node41" class="node">
<title>kc_6</title>
<ellipse fill="#b9c4cc" stroke="#b9c4cc" cx="1350.45" cy="-354.84" rx="0.43" ry="0.43"/>
</g>
<!-- kc_5&#45;&gt;kc_6 -->
<g id="edge71" class="edge">
<title>kc_5&#45;&gt;kc_6</title>
<path fill="none" stroke="#c4cdd5" stroke-dasharray="5,2" d="M1350.45,-395.32C1350.45,-391.15 1350.45,-359.6 1350.45,-355.68"/>
</g>
<!-- clm_6 -->
<g id="node42" class="node">
<title>clm_6</title>
<ellipse fill="#b9c4cc" stroke="#b9c4cc" cx="1666.45" cy="-354.84" rx="0.43" ry="0.43"/>
</g>
<!-- clm_5&#45;&gt;clm_6 -->
<g id="edge86" class="edge">
<title>clm_5&#45;&gt;clm_6</title>
<path fill="none" stroke="#c4cdd5" stroke-dasharray="5,2" d="M1666.45,-395.32C1666.45,-391.15 1666.45,-359.6 1666.45,-355.68"/>
</g>
<!-- staff_6&#45;&gt;pat_6 -->
<g id="edge101" class="edge">
<title>staff_6&#45;&gt;pat_6</title>
<path fill="none" stroke="#8a97a3" stroke-dasharray="5,2" d="M44.26,-354.87C66.43,-355.56 539.45,-370.28 539.45,-370.28 539.45,-370.28 945.82,-357.56 1020.68,-355.21"/>
<polygon fill="#8a97a3" stroke="#8a97a3" points="1030.44,-354.91 1020.58,-359.72 1026.66,-355.03 1020.44,-355.22 1020.44,-355.22 1020.44,-355.22 1026.66,-355.03 1020.3,-350.72 1030.44,-354.91"/>
<text xml:space="preserve" text-anchor="middle" x="539.45" y="-372.23" font-family="Arial" font-size="9.00" fill="#5c6773">6) مشاركة رابط التسجيل (خارج النظام)</text>
</g>
<!-- staff_7 -->
<g id="node43" class="node">
<title>staff_7</title>
<ellipse fill="#b9c4cc" stroke="#b9c4cc" cx="43.45" cy="-322.98" rx="0.43" ry="0.43"/>
</g>
<!-- staff_6&#45;&gt;staff_7 -->
<g id="edge12" class="edge">
<title>staff_6&#45;&gt;staff_7</title>
<path fill="none" stroke="#c4cdd5" stroke-dasharray="5,2" d="M43.45,-354.06C43.45,-350.87 43.45,-326.72 43.45,-323.72"/>
</g>
<!-- inv_7 -->
<g id="node44" class="node">
<title>inv_7</title>
<ellipse fill="#b9c4cc" stroke="#b9c4cc" cx="367.45" cy="-322.98" rx="0.43" ry="0.43"/>
</g>
<!-- inv_6&#45;&gt;inv_7 -->
<g id="edge27" class="edge">
<title>inv_6&#45;&gt;inv_7</title>
<path fill="none" stroke="#c4cdd5" stroke-dasharray="5,2" d="M367.45,-354.06C367.45,-350.87 367.45,-326.72 367.45,-323.72"/>
</g>
<!-- repo_7 -->
<g id="node45" class="node">
<title>repo_7</title>
<ellipse fill="#b9c4cc" stroke="#b9c4cc" cx="710.45" cy="-322.98" rx="0.43" ry="0.43"/>
</g>
<!-- repo_6&#45;&gt;repo_7 -->
<g id="edge42" class="edge">
<title>repo_6&#45;&gt;repo_7</title>
<path fill="none" stroke="#c4cdd5" stroke-dasharray="5,2" d="M710.45,-354.06C710.45,-350.87 710.45,-326.72 710.45,-323.72"/>
</g>
<!-- pat_7 -->
<g id="node46" class="node">
<title>pat_7</title>
<ellipse fill="#b9c4cc" stroke="#b9c4cc" cx="1032.45" cy="-322.98" rx="0.43" ry="0.43"/>
</g>
<!-- pat_6&#45;&gt;pat_7 -->
<g id="edge57" class="edge">
<title>pat_6&#45;&gt;pat_7</title>
<path fill="none" stroke="#c4cdd5" stroke-dasharray="5,2" d="M1032.45,-354.06C1032.45,-350.87 1032.45,-326.72 1032.45,-323.72"/>
</g>
<!-- kc_7 -->
<g id="node47" class="node">
<title>kc_7</title>
<ellipse fill="#b9c4cc" stroke="#b9c4cc" cx="1350.45" cy="-322.98" rx="0.43" ry="0.43"/>
</g>
<!-- kc_6&#45;&gt;kc_7 -->
<g id="edge72" class="edge">
<title>kc_6&#45;&gt;kc_7</title>
<path fill="none" stroke="#c4cdd5" stroke-dasharray="5,2" d="M1350.45,-354.06C1350.45,-350.87 1350.45,-326.72 1350.45,-323.72"/>
</g>
<!-- clm_7 -->
<g id="node48" class="node">
<title>clm_7</title>
<ellipse fill="#b9c4cc" stroke="#b9c4cc" cx="1666.45" cy="-322.98" rx="0.43" ry="0.43"/>
</g>
<!-- clm_6&#45;&gt;clm_7 -->
<g id="edge87" class="edge">
<title>clm_6&#45;&gt;clm_7</title>
<path fill="none" stroke="#c4cdd5" stroke-dasharray="5,2" d="M1666.45,-354.06C1666.45,-350.87 1666.45,-326.72 1666.45,-323.72"/>
</g>
<!-- staff_8 -->
<g id="node49" class="node">
<title>staff_8</title>
<ellipse fill="#b9c4cc" stroke="#b9c4cc" cx="43.45" cy="-291.12" rx="0.43" ry="0.43"/>
</g>
<!-- staff_7&#45;&gt;staff_8 -->
<g id="edge13" class="edge">
<title>staff_7&#45;&gt;staff_8</title>
<path fill="none" stroke="#c4cdd5" stroke-dasharray="5,2" d="M43.45,-322.2C43.45,-319.01 43.45,-294.86 43.45,-291.85"/>
</g>
<!-- inv_8 -->
<g id="node50" class="node">
<title>inv_8</title>
<ellipse fill="#b9c4cc" stroke="#b9c4cc" cx="367.45" cy="-291.12" rx="0.43" ry="0.43"/>
</g>
<!-- inv_7&#45;&gt;inv_8 -->
<g id="edge28" class="edge">
<title>inv_7&#45;&gt;inv_8</title>
<path fill="none" stroke="#c4cdd5" stroke-dasharray="5,2" d="M367.45,-322.2C367.45,-319.01 367.45,-294.86 367.45,-291.85"/>
</g>
<!-- repo_8 -->
<g id="node51" class="node">
<title>repo_8</title>
<ellipse fill="#b9c4cc" stroke="#b9c4cc" cx="710.45" cy="-291.12" rx="0.43" ry="0.43"/>
</g>
<!-- repo_7&#45;&gt;repo_8 -->
<g id="edge43" class="edge">
<title>repo_7&#45;&gt;repo_8</title>
<path fill="none" stroke="#c4cdd5" stroke-dasharray="5,2" d="M710.45,-322.2C710.45,-319.01 710.45,-294.86 710.45,-291.85"/>
</g>
<!-- pat_7&#45;&gt;kc_7 -->
<g id="edge102" class="edge">
<title>pat_7&#45;&gt;kc_7</title>
<path fill="none" stroke="#1f6fb2" stroke-width="1.3" d="M1033.37,-322.98C1049.71,-322.98 1280.76,-322.98 1337.8,-322.98"/>
<polygon fill="#1f6fb2" stroke="#1f6fb2" stroke-width="1.3" points="1337.63,-326.48 1347.63,-322.98 1337.63,-319.48 1337.63,-326.48"/>
<text xml:space="preserve" text-anchor="middle" x="1191.45" y="-327.93" font-family="Arial" font-size="9.00" fill="#154d7c">7) فتح registrationLink — تسجيل/دخول</text>
</g>
<!-- pat_8 -->
<g id="node52" class="node">
<title>pat_8</title>
<ellipse fill="#b9c4cc" stroke="#b9c4cc" cx="1032.45" cy="-291.12" rx="0.43" ry="0.43"/>
</g>
<!-- pat_7&#45;&gt;pat_8 -->
<g id="edge58" class="edge">
<title>pat_7&#45;&gt;pat_8</title>
<path fill="none" stroke="#c4cdd5" stroke-dasharray="5,2" d="M1032.45,-322.2C1032.45,-319.01 1032.45,-294.86 1032.45,-291.85"/>
</g>
<!-- kc_8 -->
<g id="node53" class="node">
<title>kc_8</title>
<ellipse fill="#b9c4cc" stroke="#b9c4cc" cx="1350.45" cy="-291.12" rx="0.43" ry="0.43"/>
</g>
<!-- kc_7&#45;&gt;kc_8 -->
<g id="edge73" class="edge">
<title>kc_7&#45;&gt;kc_8</title>
<path fill="none" stroke="#c4cdd5" stroke-dasharray="5,2" d="M1350.45,-322.2C1350.45,-319.01 1350.45,-294.86 1350.45,-291.85"/>
</g>
<!-- clm_8 -->
<g id="node54" class="node">
<title>clm_8</title>
<ellipse fill="#b9c4cc" stroke="#b9c4cc" cx="1666.45" cy="-291.12" rx="0.43" ry="0.43"/>
</g>
<!-- clm_7&#45;&gt;clm_8 -->
<g id="edge88" class="edge">
<title>clm_7&#45;&gt;clm_8</title>
<path fill="none" stroke="#c4cdd5" stroke-dasharray="5,2" d="M1666.45,-322.2C1666.45,-319.01 1666.45,-294.86 1666.45,-291.85"/>
</g>
<!-- staff_9 -->
<g id="node55" class="node">
<title>staff_9</title>
<ellipse fill="#b9c4cc" stroke="#b9c4cc" cx="43.45" cy="-239.25" rx="0.43" ry="0.43"/>
</g>
<!-- staff_8&#45;&gt;staff_9 -->
<g id="edge14" class="edge">
<title>staff_8&#45;&gt;staff_9</title>
<path fill="none" stroke="#c4cdd5" stroke-dasharray="5,2" d="M43.45,-290.54C43.45,-287.64 43.45,-242.63 43.45,-239.82"/>
</g>
<!-- inv_9 -->
<g id="node56" class="node">
<title>inv_9</title>
<ellipse fill="#b9c4cc" stroke="#b9c4cc" cx="367.45" cy="-239.25" rx="0.43" ry="0.43"/>
</g>
<!-- inv_8&#45;&gt;inv_9 -->
<g id="edge29" class="edge">
<title>inv_8&#45;&gt;inv_9</title>
<path fill="none" stroke="#c4cdd5" stroke-dasharray="5,2" d="M367.45,-290.54C367.45,-287.64 367.45,-242.63 367.45,-239.82"/>
</g>
<!-- repo_9 -->
<g id="node57" class="node">
<title>repo_9</title>
<ellipse fill="#b9c4cc" stroke="#b9c4cc" cx="710.45" cy="-239.25" rx="0.43" ry="0.43"/>
</g>
<!-- repo_8&#45;&gt;repo_9 -->
<g id="edge44" class="edge">
<title>repo_8&#45;&gt;repo_9</title>
<path fill="none" stroke="#c4cdd5" stroke-dasharray="5,2" d="M710.45,-290.54C710.45,-287.64 710.45,-242.63 710.45,-239.82"/>
</g>
<!-- pat_9 -->
<g id="node58" class="node">
<title>pat_9</title>
<ellipse fill="#b9c4cc" stroke="#b9c4cc" cx="1032.45" cy="-239.25" rx="0.43" ry="0.43"/>
</g>
<!-- pat_8&#45;&gt;pat_9 -->
<g id="edge59" class="edge">
<title>pat_8&#45;&gt;pat_9</title>
<path fill="none" stroke="#c4cdd5" stroke-dasharray="5,2" d="M1032.45,-290.54C1032.45,-287.64 1032.45,-242.63 1032.45,-239.82"/>
</g>
<!-- kc_8&#45;&gt;pat_8 -->
<g id="edge103" class="edge">
<title>kc_8&#45;&gt;pat_8</title>
<path fill="none" stroke="#8a97a3" stroke-dasharray="5,2" d="M1349.6,-291.12C1333.68,-291.12 1100.74,-291.12 1044.57,-291.12"/>
<polygon fill="#8a97a3" stroke="#8a97a3" points="1034.59,-291.12 1044.59,-286.62 1038.37,-291.12 1044.59,-291.12 1044.59,-291.12 1044.59,-291.12 1038.37,-291.12 1044.59,-295.62 1034.59,-291.12"/>
<text xml:space="preserve" text-anchor="middle" x="1191.45" y="-296.07" font-family="Arial" font-size="9.00" fill="#5c6773">8) إعادة توجيه: /patients/claim?code=…&amp;auto=true</text>
</g>
<!-- kc_9 -->
<g id="node59" class="node">
<title>kc_9</title>
<ellipse fill="#b9c4cc" stroke="#b9c4cc" cx="1350.45" cy="-239.25" rx="0.43" ry="0.43"/>
</g>
<!-- kc_8&#45;&gt;kc_9 -->
<g id="edge74" class="edge">
<title>kc_8&#45;&gt;kc_9</title>
<path fill="none" stroke="#c4cdd5" stroke-dasharray="5,2" d="M1350.45,-290.54C1350.45,-287.64 1350.45,-242.63 1350.45,-239.82"/>
</g>
<!-- clm_9 -->
<g id="node60" class="node">
<title>clm_9</title>
<ellipse fill="#b9c4cc" stroke="#b9c4cc" cx="1666.45" cy="-239.25" rx="0.43" ry="0.43"/>
</g>
<!-- clm_8&#45;&gt;clm_9 -->
<g id="edge89" class="edge">
<title>clm_8&#45;&gt;clm_9</title>
<path fill="none" stroke="#c4cdd5" stroke-dasharray="5,2" d="M1666.45,-290.54C1666.45,-287.64 1666.45,-242.63 1666.45,-239.82"/>
</g>
<!-- staff_10 -->
<g id="node61" class="node">
<title>staff_10</title>
<ellipse fill="#b9c4cc" stroke="#b9c4cc" cx="43.45" cy="-197.89" rx="0.43" ry="0.43"/>
</g>
<!-- staff_9&#45;&gt;staff_10 -->
<g id="edge15" class="edge">
<title>staff_9&#45;&gt;staff_10</title>
<path fill="none" stroke="#c4cdd5" stroke-dasharray="5,2" d="M43.45,-238.37C43.45,-234.19 43.45,-202.65 43.45,-198.72"/>
</g>
<!-- inv_10 -->
<g id="node62" class="node">
<title>inv_10</title>
<ellipse fill="#b9c4cc" stroke="#b9c4cc" cx="367.45" cy="-197.89" rx="0.43" ry="0.43"/>
</g>
<!-- inv_9&#45;&gt;inv_10 -->
<g id="edge30" class="edge">
<title>inv_9&#45;&gt;inv_10</title>
<path fill="none" stroke="#c4cdd5" stroke-dasharray="5,2" d="M367.45,-238.37C367.45,-234.19 367.45,-202.65 367.45,-198.72"/>
</g>
<!-- repo_10 -->
<g id="node63" class="node">
<title>repo_10</title>
<ellipse fill="#b9c4cc" stroke="#b9c4cc" cx="710.45" cy="-197.89" rx="0.43" ry="0.43"/>
</g>
<!-- repo_9&#45;&gt;repo_10 -->
<g id="edge45" class="edge">
<title>repo_9&#45;&gt;repo_10</title>
<path fill="none" stroke="#c4cdd5" stroke-dasharray="5,2" d="M710.45,-238.37C710.45,-234.19 710.45,-202.65 710.45,-198.72"/>
</g>
<!-- pat_9&#45;&gt;clm_9 -->
<g id="edge104" class="edge">
<title>pat_9&#45;&gt;clm_9</title>
<path fill="none" stroke="#1f6fb2" stroke-width="1.3" d="M1033.27,-239.32C1046.47,-240.43 1215.45,-254.68 1215.45,-254.68 1215.45,-254.68 1580.98,-242.18 1653.89,-239.68"/>
<polygon fill="#1f6fb2" stroke="#1f6fb2" stroke-width="1.3" points="1653.88,-243.18 1663.76,-239.34 1653.64,-236.19 1653.88,-243.18"/>
<text xml:space="preserve" text-anchor="middle" x="1215.45" y="-267.13" font-family="Arial" font-size="9.00" fill="#154d7c">9) POST claim&#45;invite</text>
<text xml:space="preserve" text-anchor="middle" x="1215.45" y="-256.63" font-family="Arial" font-size="9.00" fill="#154d7c">{inviteCode, keycloakUserId}</text>
</g>
<!-- pat_10 -->
<g id="node64" class="node">
<title>pat_10</title>
<ellipse fill="#b9c4cc" stroke="#b9c4cc" cx="1032.45" cy="-197.89" rx="0.43" ry="0.43"/>
</g>
<!-- pat_9&#45;&gt;pat_10 -->
<g id="edge60" class="edge">
<title>pat_9&#45;&gt;pat_10</title>
<path fill="none" stroke="#c4cdd5" stroke-dasharray="5,2" d="M1032.45,-238.37C1032.45,-234.19 1032.45,-202.65 1032.45,-198.72"/>
</g>
<!-- kc_10 -->
<g id="node65" class="node">
<title>kc_10</title>
<ellipse fill="#b9c4cc" stroke="#b9c4cc" cx="1350.45" cy="-197.89" rx="0.43" ry="0.43"/>
</g>
<!-- kc_9&#45;&gt;kc_10 -->
<g id="edge75" class="edge">
<title>kc_9&#45;&gt;kc_10</title>
<path fill="none" stroke="#c4cdd5" stroke-dasharray="5,2" d="M1350.45,-238.37C1350.45,-234.19 1350.45,-202.65 1350.45,-198.72"/>
</g>
<!-- clm_10 -->
<g id="node66" class="node">
<title>clm_10</title>
<ellipse fill="#b9c4cc" stroke="#b9c4cc" cx="1666.45" cy="-197.89" rx="0.43" ry="0.43"/>
</g>
<!-- clm_9&#45;&gt;clm_10 -->
<g id="edge90" class="edge">
<title>clm_9&#45;&gt;clm_10</title>
<path fill="none" stroke="#c4cdd5" stroke-dasharray="5,2" d="M1666.45,-238.37C1666.45,-234.19 1666.45,-202.65 1666.45,-198.72"/>
</g>
<!-- staff_11 -->
<g id="node67" class="node">
<title>staff_11</title>
<ellipse fill="#b9c4cc" stroke="#b9c4cc" cx="43.45" cy="-156.52" rx="0.43" ry="0.43"/>
</g>
<!-- staff_10&#45;&gt;staff_11 -->
<g id="edge16" class="edge">
<title>staff_10&#45;&gt;staff_11</title>
<path fill="none" stroke="#c4cdd5" stroke-dasharray="5,2" d="M43.45,-197C43.45,-192.83 43.45,-161.28 43.45,-157.36"/>
</g>
<!-- inv_11 -->
<g id="node68" class="node">
<title>inv_11</title>
<ellipse fill="#b9c4cc" stroke="#b9c4cc" cx="367.45" cy="-156.52" rx="0.43" ry="0.43"/>
</g>
<!-- inv_10&#45;&gt;inv_11 -->
<g id="edge31" class="edge">
<title>inv_10&#45;&gt;inv_11</title>
<path fill="none" stroke="#c4cdd5" stroke-dasharray="5,2" d="M367.45,-197C367.45,-192.83 367.45,-161.28 367.45,-157.36"/>
</g>
<!-- repo_11 -->
<g id="node69" class="node">
<title>repo_11</title>
<ellipse fill="#b9c4cc" stroke="#b9c4cc" cx="710.45" cy="-156.52" rx="0.43" ry="0.43"/>
</g>
<!-- repo_10&#45;&gt;repo_11 -->
<g id="edge46" class="edge">
<title>repo_10&#45;&gt;repo_11</title>
<path fill="none" stroke="#c4cdd5" stroke-dasharray="5,2" d="M710.45,-197C710.45,-192.83 710.45,-161.28 710.45,-157.36"/>
</g>
<!-- pat_11 -->
<g id="node70" class="node">
<title>pat_11</title>
<ellipse fill="#b9c4cc" stroke="#b9c4cc" cx="1032.45" cy="-156.52" rx="0.43" ry="0.43"/>
</g>
<!-- pat_10&#45;&gt;pat_11 -->
<g id="edge61" class="edge">
<title>pat_10&#45;&gt;pat_11</title>
<path fill="none" stroke="#c4cdd5" stroke-dasharray="5,2" d="M1032.45,-197C1032.45,-192.83 1032.45,-161.28 1032.45,-157.36"/>
</g>
<!-- kc_11 -->
<g id="node71" class="node">
<title>kc_11</title>
<ellipse fill="#b9c4cc" stroke="#b9c4cc" cx="1350.45" cy="-156.52" rx="0.43" ry="0.43"/>
</g>
<!-- kc_10&#45;&gt;kc_11 -->
<g id="edge76" class="edge">
<title>kc_10&#45;&gt;kc_11</title>
<path fill="none" stroke="#c4cdd5" stroke-dasharray="5,2" d="M1350.45,-197C1350.45,-192.83 1350.45,-161.28 1350.45,-157.36"/>
</g>
<!-- clm_10&#45;&gt;repo_10 -->
<g id="edge105" class="edge">
<title>clm_10&#45;&gt;repo_10</title>
<path fill="none" stroke="#1f6fb2" stroke-width="1.3" d="M1665.68,-197.91C1644.45,-198.6 1191.45,-213.32 1191.45,-213.32 1191.45,-213.32 798.3,-200.71 722.88,-198.29"/>
<polygon fill="#1f6fb2" stroke="#1f6fb2" stroke-width="1.3" points="723.31,-194.8 713.2,-197.98 723.08,-201.8 723.31,-194.8"/>
<text xml:space="preserve" text-anchor="middle" x="1191.45" y="-215.27" font-family="Arial" font-size="9.00" fill="#154d7c">10) بحث بالرمز + تحقّق عدم الارتباط</text>
</g>
<!-- clm_11 -->
<g id="node72" class="node">
<title>clm_11</title>
<ellipse fill="#b9c4cc" stroke="#b9c4cc" cx="1666.45" cy="-156.52" rx="0.43" ry="0.43"/>
</g>
<!-- clm_10&#45;&gt;clm_11 -->
<g id="edge91" class="edge">
<title>clm_10&#45;&gt;clm_11</title>
<path fill="none" stroke="#c4cdd5" stroke-dasharray="5,2" d="M1666.45,-197C1666.45,-192.83 1666.45,-161.28 1666.45,-157.36"/>
</g>
<!-- staff_12 -->
<g id="node73" class="node">
<title>staff_12</title>
<ellipse fill="#b9c4cc" stroke="#b9c4cc" cx="43.45" cy="-124.66" rx="0.43" ry="0.43"/>
</g>
<!-- staff_11&#45;&gt;staff_12 -->
<g id="edge17" class="edge">
<title>staff_11&#45;&gt;staff_12</title>
<path fill="none" stroke="#c4cdd5" stroke-dasharray="5,2" d="M43.45,-155.74C43.45,-152.55 43.45,-128.4 43.45,-125.4"/>
</g>
<!-- inv_12 -->
<g id="node74" class="node">
<title>inv_12</title>
<ellipse fill="#b9c4cc" stroke="#b9c4cc" cx="367.45" cy="-124.66" rx="0.43" ry="0.43"/>
</g>
<!-- inv_11&#45;&gt;inv_12 -->
<g id="edge32" class="edge">
<title>inv_11&#45;&gt;inv_12</title>
<path fill="none" stroke="#c4cdd5" stroke-dasharray="5,2" d="M367.45,-155.74C367.45,-152.55 367.45,-128.4 367.45,-125.4"/>
</g>
<!-- repo_11&#45;&gt;clm_11 -->
<g id="edge106" class="edge">
<title>repo_11&#45;&gt;clm_11</title>
<path fill="none" stroke="#8a97a3" stroke-dasharray="5,2" d="M711.24,-156.55C732.74,-157.24 1191.45,-171.96 1191.45,-171.96 1191.45,-171.96 1581.34,-159.29 1654.65,-156.91"/>
<polygon fill="#8a97a3" stroke="#8a97a3" points="1664.47,-156.59 1654.62,-161.41 1660.69,-156.71 1654.47,-156.91 1654.47,-156.91 1654.47,-156.91 1660.69,-156.71 1654.33,-152.42 1664.47,-156.59"/>
<text xml:space="preserve" text-anchor="middle" x="1191.45" y="-173.91" font-family="Arial" font-size="9.00" fill="#5c6773">11) مورد Patient المطابق</text>
</g>
<!-- repo_12 -->
<g id="node75" class="node">
<title>repo_12</title>
<ellipse fill="#b9c4cc" stroke="#b9c4cc" cx="710.45" cy="-124.66" rx="0.43" ry="0.43"/>
</g>
<!-- repo_11&#45;&gt;repo_12 -->
<g id="edge47" class="edge">
<title>repo_11&#45;&gt;repo_12</title>
<path fill="none" stroke="#c4cdd5" stroke-dasharray="5,2" d="M710.45,-155.74C710.45,-152.55 710.45,-128.4 710.45,-125.4"/>
</g>
<!-- pat_12 -->
<g id="node76" class="node">
<title>pat_12</title>
<ellipse fill="#b9c4cc" stroke="#b9c4cc" cx="1032.45" cy="-124.66" rx="0.43" ry="0.43"/>
</g>
<!-- pat_11&#45;&gt;pat_12 -->
<g id="edge62" class="edge">
<title>pat_11&#45;&gt;pat_12</title>
<path fill="none" stroke="#c4cdd5" stroke-dasharray="5,2" d="M1032.45,-155.74C1032.45,-152.55 1032.45,-128.4 1032.45,-125.4"/>
</g>
<!-- kc_12 -->
<g id="node77" class="node">
<title>kc_12</title>
<ellipse fill="#b9c4cc" stroke="#b9c4cc" cx="1350.45" cy="-124.66" rx="0.43" ry="0.43"/>
</g>
<!-- kc_11&#45;&gt;kc_12 -->
<g id="edge77" class="edge">
<title>kc_11&#45;&gt;kc_12</title>
<path fill="none" stroke="#c4cdd5" stroke-dasharray="5,2" d="M1350.45,-155.74C1350.45,-152.55 1350.45,-128.4 1350.45,-125.4"/>
</g>
<!-- clm_12 -->
<g id="node78" class="node">
<title>clm_12</title>
<ellipse fill="#b9c4cc" stroke="#b9c4cc" cx="1666.45" cy="-124.66" rx="0.43" ry="0.43"/>
</g>
<!-- clm_11&#45;&gt;clm_12 -->
<g id="edge92" class="edge">
<title>clm_11&#45;&gt;clm_12</title>
<path fill="none" stroke="#c4cdd5" stroke-dasharray="5,2" d="M1666.45,-155.74C1666.45,-152.55 1666.45,-128.4 1666.45,-125.4"/>
</g>
<!-- staff_13 -->
<g id="node79" class="node">
<title>staff_13</title>
<ellipse fill="#b9c4cc" stroke="#b9c4cc" cx="43.45" cy="-83.3" rx="0.43" ry="0.43"/>
</g>
<!-- staff_12&#45;&gt;staff_13 -->
<g id="edge18" class="edge">
<title>staff_12&#45;&gt;staff_13</title>
<path fill="none" stroke="#c4cdd5" stroke-dasharray="5,2" d="M43.45,-123.77C43.45,-119.6 43.45,-88.06 43.45,-84.13"/>
</g>
<!-- inv_13 -->
<g id="node80" class="node">
<title>inv_13</title>
<ellipse fill="#b9c4cc" stroke="#b9c4cc" cx="367.45" cy="-83.3" rx="0.43" ry="0.43"/>
</g>
<!-- inv_12&#45;&gt;inv_13 -->
<g id="edge33" class="edge">
<title>inv_12&#45;&gt;inv_13</title>
<path fill="none" stroke="#c4cdd5" stroke-dasharray="5,2" d="M367.45,-123.77C367.45,-119.6 367.45,-88.06 367.45,-84.13"/>
</g>
<!-- repo_13 -->
<g id="node81" class="node">
<title>repo_13</title>
<ellipse fill="#b9c4cc" stroke="#b9c4cc" cx="710.45" cy="-83.3" rx="0.43" ry="0.43"/>
</g>
<!-- repo_12&#45;&gt;repo_13 -->
<g id="edge48" class="edge">
<title>repo_12&#45;&gt;repo_13</title>
<path fill="none" stroke="#c4cdd5" stroke-dasharray="5,2" d="M710.45,-123.77C710.45,-119.6 710.45,-88.06 710.45,-84.13"/>
</g>
<!-- pat_13 -->
<g id="node82" class="node">
<title>pat_13</title>
<ellipse fill="#b9c4cc" stroke="#b9c4cc" cx="1032.45" cy="-83.3" rx="0.43" ry="0.43"/>
</g>
<!-- pat_12&#45;&gt;pat_13 -->
<g id="edge63" class="edge">
<title>pat_12&#45;&gt;pat_13</title>
<path fill="none" stroke="#c4cdd5" stroke-dasharray="5,2" d="M1032.45,-123.77C1032.45,-119.6 1032.45,-88.06 1032.45,-84.13"/>
</g>
<!-- kc_13 -->
<g id="node83" class="node">
<title>kc_13</title>
<ellipse fill="#b9c4cc" stroke="#b9c4cc" cx="1350.45" cy="-83.3" rx="0.43" ry="0.43"/>
</g>
<!-- kc_12&#45;&gt;kc_13 -->
<g id="edge78" class="edge">
<title>kc_12&#45;&gt;kc_13</title>
<path fill="none" stroke="#c4cdd5" stroke-dasharray="5,2" d="M1350.45,-123.77C1350.45,-119.6 1350.45,-88.06 1350.45,-84.13"/>
</g>
<!-- clm_12&#45;&gt;kc_12 -->
<g id="edge107" class="edge">
<title>clm_12&#45;&gt;kc_12</title>
<path fill="none" stroke="#1f6fb2" stroke-width="1.3" d="M1665.6,-124.66C1649.86,-124.66 1420.3,-124.66 1363.23,-124.66"/>
<polygon fill="#1f6fb2" stroke="#1f6fb2" stroke-width="1.3" points="1363.33,-121.16 1353.33,-124.66 1363.33,-128.16 1363.33,-121.16"/>
<text xml:space="preserve" text-anchor="middle" x="1508.45" y="-129.61" font-family="Arial" font-size="9.00" fill="#154d7c">12) AssignRealmRole(ROLE_PATIENT)</text>
</g>
<!-- clm_13 -->
<g id="node84" class="node">
<title>clm_13</title>
<ellipse fill="#b9c4cc" stroke="#b9c4cc" cx="1666.45" cy="-83.3" rx="0.43" ry="0.43"/>
</g>
<!-- clm_12&#45;&gt;clm_13 -->
<g id="edge93" class="edge">
<title>clm_12&#45;&gt;clm_13</title>
<path fill="none" stroke="#c4cdd5" stroke-dasharray="5,2" d="M1666.45,-123.77C1666.45,-119.6 1666.45,-88.06 1666.45,-84.13"/>
</g>
<!-- staff_14 -->
<g id="node85" class="node">
<title>staff_14</title>
<ellipse fill="#b9c4cc" stroke="#b9c4cc" cx="43.45" cy="-41.93" rx="0.43" ry="0.43"/>
</g>
<!-- staff_13&#45;&gt;staff_14 -->
<g id="edge19" class="edge">
<title>staff_13&#45;&gt;staff_14</title>
<path fill="none" stroke="#c4cdd5" stroke-dasharray="5,2" d="M43.45,-82.41C43.45,-78.24 43.45,-46.69 43.45,-42.76"/>
</g>
<!-- inv_14 -->
<g id="node86" class="node">
<title>inv_14</title>
<ellipse fill="#b9c4cc" stroke="#b9c4cc" cx="367.45" cy="-41.93" rx="0.43" ry="0.43"/>
</g>
<!-- inv_13&#45;&gt;inv_14 -->
<g id="edge34" class="edge">
<title>inv_13&#45;&gt;inv_14</title>
<path fill="none" stroke="#c4cdd5" stroke-dasharray="5,2" d="M367.45,-82.41C367.45,-78.24 367.45,-46.69 367.45,-42.76"/>
</g>
<!-- repo_14 -->
<g id="node87" class="node">
<title>repo_14</title>
<ellipse fill="#b9c4cc" stroke="#b9c4cc" cx="710.45" cy="-41.93" rx="0.43" ry="0.43"/>
</g>
<!-- repo_13&#45;&gt;repo_14 -->
<g id="edge49" class="edge">
<title>repo_13&#45;&gt;repo_14</title>
<path fill="none" stroke="#c4cdd5" stroke-dasharray="5,2" d="M710.45,-82.41C710.45,-78.24 710.45,-46.69 710.45,-42.76"/>
</g>
<!-- pat_14 -->
<g id="node88" class="node">
<title>pat_14</title>
<ellipse fill="#b9c4cc" stroke="#b9c4cc" cx="1032.45" cy="-41.93" rx="0.43" ry="0.43"/>
</g>
<!-- pat_13&#45;&gt;pat_14 -->
<g id="edge64" class="edge">
<title>pat_13&#45;&gt;pat_14</title>
<path fill="none" stroke="#c4cdd5" stroke-dasharray="5,2" d="M1032.45,-82.41C1032.45,-78.24 1032.45,-46.69 1032.45,-42.76"/>
</g>
<!-- kc_14 -->
<g id="node89" class="node">
<title>kc_14</title>
<ellipse fill="#b9c4cc" stroke="#b9c4cc" cx="1350.45" cy="-41.93" rx="0.43" ry="0.43"/>
</g>
<!-- kc_13&#45;&gt;kc_14 -->
<g id="edge79" class="edge">
<title>kc_13&#45;&gt;kc_14</title>
<path fill="none" stroke="#c4cdd5" stroke-dasharray="5,2" d="M1350.45,-82.41C1350.45,-78.24 1350.45,-46.69 1350.45,-42.76"/>
</g>
<!-- clm_13&#45;&gt;repo_13 -->
<g id="edge108" class="edge">
<title>clm_13&#45;&gt;repo_13</title>
<path fill="none" stroke="#1f6fb2" stroke-width="1.3" d="M1665.68,-83.32C1644.45,-84.01 1191.45,-98.73 1191.45,-98.73 1191.45,-98.73 798.3,-86.11 722.88,-83.69"/>
<polygon fill="#1f6fb2" stroke="#1f6fb2" stroke-width="1.3" points="723.31,-80.21 713.2,-83.38 723.08,-87.2 723.31,-80.21"/>
<text xml:space="preserve" text-anchor="middle" x="1191.45" y="-100.68" font-family="Arial" font-size="9.00" fill="#154d7c">13) تحديث Patient: حذف الرمز + ربط حساب Keycloak</text>
</g>
<!-- clm_14 -->
<g id="node90" class="node">
<title>clm_14</title>
<ellipse fill="#b9c4cc" stroke="#b9c4cc" cx="1666.45" cy="-41.93" rx="0.43" ry="0.43"/>
</g>
<!-- clm_13&#45;&gt;clm_14 -->
<g id="edge94" class="edge">
<title>clm_13&#45;&gt;clm_14</title>
<path fill="none" stroke="#c4cdd5" stroke-dasharray="5,2" d="M1666.45,-82.41C1666.45,-78.24 1666.45,-46.69 1666.45,-42.76"/>
</g>
<!-- staff_15 -->
<g id="node91" class="node">
<title>staff_15</title>
<ellipse fill="#b9c4cc" stroke="#b9c4cc" cx="43.45" cy="-5.25" rx="0.43" ry="0.43"/>
</g>
<!-- staff_14&#45;&gt;staff_15 -->
<g id="edge20" class="edge">
<title>staff_14&#45;&gt;staff_15</title>
<path fill="none" stroke="#c4cdd5" stroke-dasharray="5,2" d="M43.45,-41.1C43.45,-37.35 43.45,-8.16 43.45,-6.34"/>
</g>
<!-- inv_15 -->
<g id="node92" class="node">
<title>inv_15</title>
<ellipse fill="#b9c4cc" stroke="#b9c4cc" cx="367.45" cy="-5.25" rx="0.43" ry="0.43"/>
</g>
<!-- inv_14&#45;&gt;inv_15 -->
<g id="edge35" class="edge">
<title>inv_14&#45;&gt;inv_15</title>
<path fill="none" stroke="#c4cdd5" stroke-dasharray="5,2" d="M367.45,-41.1C367.45,-37.35 367.45,-8.16 367.45,-6.34"/>
</g>
<!-- repo_15 -->
<g id="node93" class="node">
<title>repo_15</title>
<ellipse fill="#b9c4cc" stroke="#b9c4cc" cx="710.45" cy="-5.25" rx="0.43" ry="0.43"/>
</g>
<!-- repo_14&#45;&gt;repo_15 -->
<g id="edge50" class="edge">
<title>repo_14&#45;&gt;repo_15</title>
<path fill="none" stroke="#c4cdd5" stroke-dasharray="5,2" d="M710.45,-41.1C710.45,-37.35 710.45,-8.16 710.45,-6.34"/>
</g>
<!-- pat_15 -->
<g id="node94" class="node">
<title>pat_15</title>
<ellipse fill="#b9c4cc" stroke="#b9c4cc" cx="1032.45" cy="-5.25" rx="0.43" ry="0.43"/>
</g>
<!-- pat_14&#45;&gt;pat_15 -->
<g id="edge65" class="edge">
<title>pat_14&#45;&gt;pat_15</title>
<path fill="none" stroke="#c4cdd5" stroke-dasharray="5,2" d="M1032.45,-41.1C1032.45,-37.35 1032.45,-8.16 1032.45,-6.34"/>
</g>
<!-- kc_15 -->
<g id="node95" class="node">
<title>kc_15</title>
<ellipse fill="#b9c4cc" stroke="#b9c4cc" cx="1350.45" cy="-5.25" rx="0.43" ry="0.43"/>
</g>
<!-- kc_14&#45;&gt;kc_15 -->
<g id="edge80" class="edge">
<title>kc_14&#45;&gt;kc_15</title>
<path fill="none" stroke="#c4cdd5" stroke-dasharray="5,2" d="M1350.45,-41.1C1350.45,-37.35 1350.45,-8.16 1350.45,-6.34"/>
</g>
<!-- clm_14&#45;&gt;pat_14 -->
<g id="edge109" class="edge">
<title>clm_14&#45;&gt;pat_14</title>
<path fill="none" stroke="#8a97a3" stroke-dasharray="5,2" d="M1665.72,-41.96C1645.56,-42.65 1215.45,-57.36 1215.45,-57.36 1215.45,-57.36 1084.92,-46.36 1044.34,-42.93"/>
<polygon fill="#8a97a3" stroke="#8a97a3" points="1034.49,-42.1 1044.83,-38.46 1038.25,-42.42 1044.45,-42.94 1044.45,-42.94 1044.45,-42.94 1038.25,-42.42 1044.07,-47.43 1034.49,-42.1"/>
<text xml:space="preserve" text-anchor="middle" x="1215.45" y="-59.31" font-family="Arial" font-size="9.00" fill="#5c6773">14) 200 { patientId, ROLE_PATIENT }</text>
</g>
<!-- clm_15 -->
<g id="node96" class="node">
<title>clm_15</title>
<ellipse fill="#b9c4cc" stroke="#b9c4cc" cx="1666.45" cy="-5.25" rx="0.43" ry="0.43"/>
</g>
<!-- clm_14&#45;&gt;clm_15 -->
<g id="edge95" class="edge">
<title>clm_14&#45;&gt;clm_15</title>
<path fill="none" stroke="#c4cdd5" stroke-dasharray="5,2" d="M1666.45,-41.1C1666.45,-37.35 1666.45,-8.16 1666.45,-6.34"/>
</g>
<!-- pat_15&#45;&gt;pat_15 -->
<g id="edge110" class="edge">
<title>pat_15&#45;&gt;pat_15</title>
<path fill="none" stroke="#7a6baa" d="M1033.31,-5.37C1069.72,-10.44 1140.89,-10.4 1140.89,-5.25 1140.89,-0.59 1082.44,-0.12 1044.38,-3.84"/>
<polygon fill="#7a6baa" stroke="#7a6baa" points="1044.34,-0.32 1034.81,-4.95 1045.15,-7.27 1044.34,-0.32"/>
<text xml:space="preserve" text-anchor="middle" x="1200.89" y="-1.95" font-family="Arial" font-size="9.00" fill="#5b4c8a">15) دخول بوّابة المريض (MyHealth)</text>
</g>
</g>
</svg>
