<?xml version="1.0" encoding="UTF-8" standalone="no"?>
<!DOCTYPE svg PUBLIC "-//W3C//DTD SVG 1.1//EN"
 "http://www.w3.org/Graphics/SVG/1.1/DTD/svg11.dtd">
<!-- Generated by graphviz version 14.1.1 (20251213.1925)
 -->
<!-- Title: SEQ Pages: 1 -->
<svg width="625pt" height="819pt"
 viewBox="0.00 0.00 625.00 819.00" xmlns="http://www.w3.org/2000/svg" xmlns:xlink="http://www.w3.org/1999/xlink">
<g id="graph0" class="graph" transform="scale(1 1) rotate(0) translate(21.6 797.56)">
<title>SEQ</title>
<polygon fill="white" stroke="none" points="-21.6,21.6 -21.6,-797.56 603.63,-797.56 603.63,21.6 -21.6,21.6"/>
<text xml:space="preserve" text-anchor="middle" x="291.02" y="-756.76" font-family="Arial" font-size="16.00">تسلسل استدلال نماذج المخاطر</text>
<text xml:space="preserve" text-anchor="middle" x="291.02" y="-738.01" font-family="Arial" font-size="16.00">AI Risk&#45;Model Inference</text>
<!-- H_cli -->
<g id="node1" class="node">
<title>H_cli</title>
<path fill="#e8f1f8" stroke="#1f6fb2" d="M194.66,-730.46C194.66,-730.46 154.7,-730.46 154.7,-730.46 148.7,-730.46 142.7,-724.46 142.7,-718.46 142.7,-718.46 142.7,-697.82 142.7,-697.82 142.7,-691.82 148.7,-685.82 154.7,-685.82 154.7,-685.82 194.66,-685.82 194.66,-685.82 200.66,-685.82 206.66,-691.82 206.66,-697.82 206.66,-697.82 206.66,-718.46 206.66,-718.46 206.66,-724.46 200.66,-730.46 194.66,-730.46"/>
<text xml:space="preserve" text-anchor="middle" x="174.68" y="-716.64" font-family="Arial" font-size="10.00">العميل</text>
<text xml:space="preserve" text-anchor="middle" x="174.68" y="-704.64" font-family="Arial" font-size="10.00">مخطّط المريض</text>
<text xml:space="preserve" text-anchor="middle" x="174.68" y="-692.64" font-family="Arial" font-size="10.00">لوحة المخاطر</text>
</g>
<!-- H_ctl -->
<g id="node2" class="node">
<title>H_ctl</title>
<path fill="#ffffff" stroke="#1f6fb2" d="M278.16,-730.46C278.16,-730.46 247.2,-730.46 247.2,-730.46 241.2,-730.46 235.2,-724.46 235.2,-718.46 235.2,-718.46 235.2,-697.82 235.2,-697.82 235.2,-691.82 241.2,-685.82 247.2,-685.82 247.2,-685.82 278.16,-685.82 278.16,-685.82 284.16,-685.82 290.16,-691.82 290.16,-697.82 290.16,-697.82 290.16,-718.46 290.16,-718.46 290.16,-724.46 284.16,-730.46 278.16,-730.46"/>
<text xml:space="preserve" text-anchor="middle" x="262.68" y="-716.64" font-family="Arial" font-size="10.00">CdsRisk</text>
<text xml:space="preserve" text-anchor="middle" x="262.68" y="-704.64" font-family="Arial" font-size="10.00">Insights</text>
<text xml:space="preserve" text-anchor="middle" x="262.68" y="-692.64" font-family="Arial" font-size="10.00">Controller</text>
</g>
<!-- H_cli&#45;&gt;H_ctl -->
<!-- cli_1 -->
<g id="node6" class="node">
<title>cli_1</title>
<ellipse fill="#b9c4cc" stroke="#b9c4cc" cx="174.68" cy="-643.39" rx="0.43" ry="0.43"/>
</g>
<!-- H_cli&#45;&gt;cli_1 -->
<g id="edge5" class="edge">
<title>H_cli&#45;&gt;cli_1</title>
<path fill="none" stroke="#c4cdd5" stroke-dasharray="5,2" d="M174.68,-685.35C174.68,-668.18 174.68,-646.71 174.68,-644.09"/>
</g>
<!-- H_svc -->
<g id="node3" class="node">
<title>H_svc</title>
<path fill="#ffffff" stroke="#1f6fb2" d="M382.28,-730.46C382.28,-730.46 331.07,-730.46 331.07,-730.46 325.07,-730.46 319.07,-724.46 319.07,-718.46 319.07,-718.46 319.07,-697.82 319.07,-697.82 319.07,-691.82 325.07,-685.82 331.07,-685.82 331.07,-685.82 382.28,-685.82 382.28,-685.82 388.28,-685.82 394.28,-691.82 394.28,-697.82 394.28,-697.82 394.28,-718.46 394.28,-718.46 394.28,-724.46 388.28,-730.46 382.28,-730.46"/>
<text xml:space="preserve" text-anchor="middle" x="356.68" y="-716.64" font-family="Arial" font-size="10.00">RiskService</text>
<text xml:space="preserve" text-anchor="middle" x="356.68" y="-704.64" font-family="Arial" font-size="10.00">Readmission</text>
<text xml:space="preserve" text-anchor="middle" x="356.68" y="-692.64" font-family="Arial" font-size="10.00">Diabetes / CV</text>
</g>
<!-- H_ctl&#45;&gt;H_svc -->
<!-- ctl_1 -->
<g id="node7" class="node">
<title>ctl_1</title>
<ellipse fill="#b9c4cc" stroke="#b9c4cc" cx="262.68" cy="-643.39" rx="0.43" ry="0.43"/>
</g>
<!-- H_ctl&#45;&gt;ctl_1 -->
<g id="edge21" class="edge">
<title>H_ctl&#45;&gt;ctl_1</title>
<path fill="none" stroke="#c4cdd5" stroke-dasharray="5,2" d="M262.68,-685.35C262.68,-668.18 262.68,-646.71 262.68,-644.09"/>
</g>
<!-- H_fhir -->
<g id="node4" class="node">
<title>H_fhir</title>
<path fill="#e3f2e9" stroke="#2e8b57" d="M476.03,-730.46C476.03,-730.46 435.32,-730.46 435.32,-730.46 429.32,-730.46 423.32,-724.46 423.32,-718.46 423.32,-718.46 423.32,-697.82 423.32,-697.82 423.32,-691.82 429.32,-685.82 435.32,-685.82 435.32,-685.82 476.03,-685.82 476.03,-685.82 482.03,-685.82 488.03,-691.82 488.03,-697.82 488.03,-697.82 488.03,-718.46 488.03,-718.46 488.03,-724.46 482.03,-730.46 476.03,-730.46"/>
<text xml:space="preserve" text-anchor="middle" x="455.68" y="-716.64" font-family="Arial" font-size="10.00">Fhir</text>
<text xml:space="preserve" text-anchor="middle" x="455.68" y="-704.64" font-family="Arial" font-size="10.00">Repository</text>
<text xml:space="preserve" text-anchor="middle" x="455.68" y="-692.64" font-family="Arial" font-size="10.00">(بيانات FHIR)</text>
</g>
<!-- H_svc&#45;&gt;H_fhir -->
<!-- svc_1 -->
<g id="node8" class="node">
<title>svc_1</title>
<ellipse fill="#b9c4cc" stroke="#b9c4cc" cx="356.68" cy="-643.39" rx="0.43" ry="0.43"/>
</g>
<!-- H_svc&#45;&gt;svc_1 -->
<g id="edge37" class="edge">
<title>H_svc&#45;&gt;svc_1</title>
<path fill="none" stroke="#c4cdd5" stroke-dasharray="5,2" d="M356.68,-685.35C356.68,-668.18 356.68,-646.71 356.68,-644.09"/>
</g>
<!-- H_onnx -->
<g id="node5" class="node">
<title>H_onnx</title>
<path fill="#efe8f8" stroke="#8e44ad" d="M570.03,-730.46C570.03,-730.46 529.32,-730.46 529.32,-730.46 523.32,-730.46 517.32,-724.46 517.32,-718.46 517.32,-718.46 517.32,-697.82 517.32,-697.82 517.32,-691.82 523.32,-685.82 529.32,-685.82 529.32,-685.82 570.03,-685.82 570.03,-685.82 576.03,-685.82 582.03,-691.82 582.03,-697.82 582.03,-697.82 582.03,-718.46 582.03,-718.46 582.03,-724.46 576.03,-730.46 570.03,-730.46"/>
<text xml:space="preserve" text-anchor="middle" x="549.68" y="-716.64" font-family="Arial" font-size="10.00">نموذج ONNX</text>
<text xml:space="preserve" text-anchor="middle" x="549.68" y="-704.64" font-family="Arial" font-size="10.00">ModelPool</text>
<text xml:space="preserve" text-anchor="middle" x="549.68" y="-692.64" font-family="Arial" font-size="10.00">+ Session</text>
</g>
<!-- H_fhir&#45;&gt;H_onnx -->
<!-- fhir_1 -->
<g id="node9" class="node">
<title>fhir_1</title>
<ellipse fill="#b9c4cc" stroke="#b9c4cc" cx="455.68" cy="-643.39" rx="0.43" ry="0.43"/>
</g>
<!-- H_fhir&#45;&gt;fhir_1 -->
<g id="edge53" class="edge">
<title>H_fhir&#45;&gt;fhir_1</title>
<path fill="none" stroke="#c4cdd5" stroke-dasharray="5,2" d="M455.68,-685.35C455.68,-668.18 455.68,-646.71 455.68,-644.09"/>
</g>
<!-- onnx_1 -->
<g id="node10" class="node">
<title>onnx_1</title>
<ellipse fill="#b9c4cc" stroke="#b9c4cc" cx="549.68" cy="-643.39" rx="0.43" ry="0.43"/>
</g>
<!-- H_onnx&#45;&gt;onnx_1 -->
<g id="edge69" class="edge">
<title>H_onnx&#45;&gt;onnx_1</title>
<path fill="none" stroke="#c4cdd5" stroke-dasharray="5,2" d="M549.68,-685.35C549.68,-668.18 549.68,-646.71 549.68,-644.09"/>
</g>
<!-- cli_1&#45;&gt;ctl_1 -->
<g id="edge85" class="edge">
<title>cli_1&#45;&gt;ctl_1</title>
<path fill="none" stroke="#1f6fb2" stroke-width="1.9" d="M175.36,-643.39C199.95,-643.39 224.55,-643.39 249.14,-643.39"/>
<polygon fill="#1f6fb2" stroke="#1f6fb2" stroke-width="1.9" points="249.12,-646.89 259.12,-643.39 249.12,-639.89 249.12,-646.89"/>
<text xml:space="preserve" text-anchor="middle" x="106.12" y="-661.59" font-family="Arial" font-size="14.00" fill="#0f3e66">1) GET /cds/risk/{model}/{patientId}</text>
<text xml:space="preserve" text-anchor="middle" x="106.12" y="-645.84" font-family="Arial" font-size="14.00" fill="#0f3e66">أو /batch?mine</text>
</g>
<!-- cli_2 -->
<g id="node11" class="node">
<title>cli_2</title>
<ellipse fill="#b9c4cc" stroke="#b9c4cc" cx="174.68" cy="-600.53" rx="0.43" ry="0.43"/>
</g>
<!-- cli_1&#45;&gt;cli_2 -->
<g id="edge6" class="edge">
<title>cli_1&#45;&gt;cli_2</title>
<path fill="none" stroke="#c4cdd5" stroke-dasharray="5,2" d="M174.68,-642.49C174.68,-638.16 174.68,-605.45 174.68,-601.38"/>
</g>
<!-- ctl_2 -->
<g id="node12" class="node">
<title>ctl_2</title>
<ellipse fill="#b9c4cc" stroke="#b9c4cc" cx="262.68" cy="-600.53" rx="0.43" ry="0.43"/>
</g>
<!-- ctl_1&#45;&gt;ctl_2 -->
<g id="edge22" class="edge">
<title>ctl_1&#45;&gt;ctl_2</title>
<path fill="none" stroke="#c4cdd5" stroke-dasharray="5,2" d="M262.68,-642.49C262.68,-638.16 262.68,-605.45 262.68,-601.38"/>
</g>
<!-- svc_2 -->
<g id="node13" class="node">
<title>svc_2</title>
<ellipse fill="#b9c4cc" stroke="#b9c4cc" cx="356.68" cy="-600.53" rx="0.43" ry="0.43"/>
</g>
<!-- svc_1&#45;&gt;svc_2 -->
<g id="edge38" class="edge">
<title>svc_1&#45;&gt;svc_2</title>
<path fill="none" stroke="#c4cdd5" stroke-dasharray="5,2" d="M356.68,-642.49C356.68,-638.16 356.68,-605.45 356.68,-601.38"/>
</g>
<!-- fhir_2 -->
<g id="node14" class="node">
<title>fhir_2</title>
<ellipse fill="#b9c4cc" stroke="#b9c4cc" cx="455.68" cy="-600.53" rx="0.43" ry="0.43"/>
</g>
<!-- fhir_1&#45;&gt;fhir_2 -->
<g id="edge54" class="edge">
<title>fhir_1&#45;&gt;fhir_2</title>
<path fill="none" stroke="#c4cdd5" stroke-dasharray="5,2" d="M455.68,-642.49C455.68,-638.16 455.68,-605.45 455.68,-601.38"/>
</g>
<!-- onnx_2 -->
<g id="node15" class="node">
<title>onnx_2</title>
<ellipse fill="#b9c4cc" stroke="#b9c4cc" cx="549.68" cy="-600.53" rx="0.43" ry="0.43"/>
</g>
<!-- onnx_1&#45;&gt;onnx_2 -->
<g id="edge70" class="edge">
<title>onnx_1&#45;&gt;onnx_2</title>
<path fill="none" stroke="#c4cdd5" stroke-dasharray="5,2" d="M549.68,-642.49C549.68,-638.16 549.68,-605.45 549.68,-601.38"/>
</g>
<!-- cli_3 -->
<g id="node16" class="node">
<title>cli_3</title>
<ellipse fill="#b9c4cc" stroke="#b9c4cc" cx="174.68" cy="-557.66" rx="0.43" ry="0.43"/>
</g>
<!-- cli_2&#45;&gt;cli_3 -->
<g id="edge7" class="edge">
<title>cli_2&#45;&gt;cli_3</title>
<path fill="none" stroke="#c4cdd5" stroke-dasharray="5,2" d="M174.68,-599.62C174.68,-595.3 174.68,-562.58 174.68,-558.51"/>
</g>
<!-- ctl_2&#45;&gt;ctl_2 -->
<g id="edge86" class="edge">
<title>ctl_2&#45;&gt;ctl_2</title>
<path fill="none" stroke="#7a6baa" d="M263.14,-601.02C273.1,-611.24 292.11,-611.08 292.11,-600.53 292.11,-592.86 282.07,-590.68 272.77,-593.98"/>
<polygon fill="#7a6baa" stroke="#7a6baa" points="271.03,-590.94 264.42,-599.23 274.75,-596.86 271.03,-590.94"/>
<text xml:space="preserve" text-anchor="middle" x="210.96" y="-618.8" font-family="Arial" font-size="14.00" fill="#4a3c78">2) ResolveViewPatientIds</text>
<text xml:space="preserve" text-anchor="middle" x="210.96" y="-603.05" font-family="Arial" font-size="14.00" fill="#4a3c78">(نطاق المرضى المسموح بهم)</text>
</g>
<!-- ctl_3 -->
<g id="node17" class="node">
<title>ctl_3</title>
<ellipse fill="#b9c4cc" stroke="#b9c4cc" cx="262.68" cy="-557.66" rx="0.43" ry="0.43"/>
</g>
<!-- ctl_2&#45;&gt;ctl_3 -->
<g id="edge23" class="edge">
<title>ctl_2&#45;&gt;ctl_3</title>
<path fill="none" stroke="#c4cdd5" stroke-dasharray="5,2" d="M262.68,-599.62C262.68,-595.3 262.68,-562.58 262.68,-558.51"/>
</g>
<!-- svc_3 -->
<g id="node18" class="node">
<title>svc_3</title>
<ellipse fill="#b9c4cc" stroke="#b9c4cc" cx="356.68" cy="-557.66" rx="0.43" ry="0.43"/>
</g>
<!-- svc_2&#45;&gt;svc_3 -->
<g id="edge39" class="edge">
<title>svc_2&#45;&gt;svc_3</title>
<path fill="none" stroke="#c4cdd5" stroke-dasharray="5,2" d="M356.68,-599.62C356.68,-595.3 356.68,-562.58 356.68,-558.51"/>
</g>
<!-- fhir_3 -->
<g id="node19" class="node">
<title>fhir_3</title>
<ellipse fill="#b9c4cc" stroke="#b9c4cc" cx="455.68" cy="-557.66" rx="0.43" ry="0.43"/>
</g>
<!-- fhir_2&#45;&gt;fhir_3 -->
<g id="edge55" class="edge">
<title>fhir_2&#45;&gt;fhir_3</title>
<path fill="none" stroke="#c4cdd5" stroke-dasharray="5,2" d="M455.68,-599.62C455.68,-595.3 455.68,-562.58 455.68,-558.51"/>
</g>
<!-- onnx_3 -->
<g id="node20" class="node">
<title>onnx_3</title>
<ellipse fill="#b9c4cc" stroke="#b9c4cc" cx="549.68" cy="-557.66" rx="0.43" ry="0.43"/>
</g>
<!-- onnx_2&#45;&gt;onnx_3 -->
<g id="edge71" class="edge">
<title>onnx_2&#45;&gt;onnx_3</title>
<path fill="none" stroke="#c4cdd5" stroke-dasharray="5,2" d="M549.68,-599.62C549.68,-595.3 549.68,-562.58 549.68,-558.51"/>
</g>
<!-- cli_4 -->
<g id="node21" class="node">
<title>cli_4</title>
<ellipse fill="#b9c4cc" stroke="#b9c4cc" cx="174.68" cy="-514.8" rx="0.43" ry="0.43"/>
</g>
<!-- cli_3&#45;&gt;cli_4 -->
<g id="edge8" class="edge">
<title>cli_3&#45;&gt;cli_4</title>
<path fill="none" stroke="#c4cdd5" stroke-dasharray="5,2" d="M174.68,-556.76C174.68,-552.43 174.68,-519.72 174.68,-515.65"/>
</g>
<!-- ctl_3&#45;&gt;svc_3 -->
<g id="edge87" class="edge">
<title>ctl_3&#45;&gt;svc_3</title>
<path fill="none" stroke="#1f6fb2" stroke-width="1.9" d="M263.41,-557.66C290.04,-557.66 316.67,-557.66 343.3,-557.66"/>
<polygon fill="#1f6fb2" stroke="#1f6fb2" stroke-width="1.9" points="343.07,-561.16 353.07,-557.66 343.07,-554.16 343.07,-561.16"/>
<text xml:space="preserve" text-anchor="middle" x="181.85" y="-560.11" font-family="Arial" font-size="14.00" fill="#0f3e66">3) AssessPatientAsync / AssessAllAsync</text>
</g>
<!-- ctl_4 -->
<g id="node22" class="node">
<title>ctl_4</title>
<ellipse fill="#b9c4cc" stroke="#b9c4cc" cx="262.68" cy="-514.8" rx="0.43" ry="0.43"/>
</g>
<!-- ctl_3&#45;&gt;ctl_4 -->
<g id="edge24" class="edge">
<title>ctl_3&#45;&gt;ctl_4</title>
<path fill="none" stroke="#c4cdd5" stroke-dasharray="5,2" d="M262.68,-556.76C262.68,-552.43 262.68,-519.72 262.68,-515.65"/>
</g>
<!-- svc_4 -->
<g id="node23" class="node">
<title>svc_4</title>
<ellipse fill="#b9c4cc" stroke="#b9c4cc" cx="356.68" cy="-514.8" rx="0.43" ry="0.43"/>
</g>
<!-- svc_3&#45;&gt;svc_4 -->
<g id="edge40" class="edge">
<title>svc_3&#45;&gt;svc_4</title>
<path fill="none" stroke="#c4cdd5" stroke-dasharray="5,2" d="M356.68,-556.76C356.68,-552.43 356.68,-519.72 356.68,-515.65"/>
</g>
<!-- fhir_4 -->
<g id="node24" class="node">
<title>fhir_4</title>
<ellipse fill="#b9c4cc" stroke="#b9c4cc" cx="455.68" cy="-514.8" rx="0.43" ry="0.43"/>
</g>
<!-- fhir_3&#45;&gt;fhir_4 -->
<g id="edge56" class="edge">
<title>fhir_3&#45;&gt;fhir_4</title>
<path fill="none" stroke="#c4cdd5" stroke-dasharray="5,2" d="M455.68,-556.76C455.68,-552.43 455.68,-519.72 455.68,-515.65"/>
</g>
<!-- onnx_4 -->
<g id="node25" class="node">
<title>onnx_4</title>
<ellipse fill="#b9c4cc" stroke="#b9c4cc" cx="549.68" cy="-514.8" rx="0.43" ry="0.43"/>
</g>
<!-- onnx_3&#45;&gt;onnx_4 -->
<g id="edge72" class="edge">
<title>onnx_3&#45;&gt;onnx_4</title>
<path fill="none" stroke="#c4cdd5" stroke-dasharray="5,2" d="M549.68,-556.76C549.68,-552.43 549.68,-519.72 549.68,-515.65"/>
</g>
<!-- cli_5 -->
<g id="node26" class="node">
<title>cli_5</title>
<ellipse fill="#b9c4cc" stroke="#b9c4cc" cx="174.68" cy="-471.94" rx="0.43" ry="0.43"/>
</g>
<!-- cli_4&#45;&gt;cli_5 -->
<g id="edge9" class="edge">
<title>cli_4&#45;&gt;cli_5</title>
<path fill="none" stroke="#c4cdd5" stroke-dasharray="5,2" d="M174.68,-513.9C174.68,-509.57 174.68,-476.86 174.68,-472.78"/>
</g>
<!-- ctl_5 -->
<g id="node27" class="node">
<title>ctl_5</title>
<ellipse fill="#b9c4cc" stroke="#b9c4cc" cx="262.68" cy="-471.94" rx="0.43" ry="0.43"/>
</g>
<!-- ctl_4&#45;&gt;ctl_5 -->
<g id="edge25" class="edge">
<title>ctl_4&#45;&gt;ctl_5</title>
<path fill="none" stroke="#c4cdd5" stroke-dasharray="5,2" d="M262.68,-513.9C262.68,-509.57 262.68,-476.86 262.68,-472.78"/>
</g>
<!-- svc_4&#45;&gt;onnx_4 -->
<g id="edge88" class="edge">
<title>svc_4&#45;&gt;onnx_4</title>
<path fill="none" stroke="#1f6fb2" stroke-width="1.9" d="M357.43,-514.8C417.02,-514.8 476.62,-514.8 536.21,-514.8"/>
<polygon fill="#1f6fb2" stroke="#1f6fb2" stroke-width="1.9" points="536.05,-518.3 546.05,-514.8 536.05,-511.3 536.05,-518.3"/>
<text xml:space="preserve" text-anchor="middle" x="367.7" y="-517.25" font-family="Arial" font-size="14.00" fill="#0f3e66">4) GetOrLoad(modelPath)</text>
</g>
<!-- svc_5 -->
<g id="node28" class="node">
<title>svc_5</title>
<ellipse fill="#b9c4cc" stroke="#b9c4cc" cx="356.68" cy="-471.94" rx="0.43" ry="0.43"/>
</g>
<!-- svc_4&#45;&gt;svc_5 -->
<g id="edge41" class="edge">
<title>svc_4&#45;&gt;svc_5</title>
<path fill="none" stroke="#c4cdd5" stroke-dasharray="5,2" d="M356.68,-513.9C356.68,-509.57 356.68,-476.86 356.68,-472.78"/>
</g>
<!-- fhir_5 -->
<g id="node29" class="node">
<title>fhir_5</title>
<ellipse fill="#b9c4cc" stroke="#b9c4cc" cx="455.68" cy="-471.94" rx="0.43" ry="0.43"/>
</g>
<!-- fhir_4&#45;&gt;fhir_5 -->
<g id="edge57" class="edge">
<title>fhir_4&#45;&gt;fhir_5</title>
<path fill="none" stroke="#c4cdd5" stroke-dasharray="5,2" d="M455.68,-513.9C455.68,-509.57 455.68,-476.86 455.68,-472.78"/>
</g>
<!-- onnx_5 -->
<g id="node30" class="node">
<title>onnx_5</title>
<ellipse fill="#b9c4cc" stroke="#b9c4cc" cx="549.68" cy="-471.94" rx="0.43" ry="0.43"/>
</g>
<!-- onnx_4&#45;&gt;onnx_5 -->
<g id="edge73" class="edge">
<title>onnx_4&#45;&gt;onnx_5</title>
<path fill="none" stroke="#c4cdd5" stroke-dasharray="5,2" d="M549.68,-513.9C549.68,-509.57 549.68,-476.86 549.68,-472.78"/>
</g>
<!-- cli_6 -->
<g id="node31" class="node">
<title>cli_6</title>
<ellipse fill="#b9c4cc" stroke="#b9c4cc" cx="174.68" cy="-429.07" rx="0.43" ry="0.43"/>
</g>
<!-- cli_5&#45;&gt;cli_6 -->
<g id="edge10" class="edge">
<title>cli_5&#45;&gt;cli_6</title>
<path fill="none" stroke="#c4cdd5" stroke-dasharray="5,2" d="M174.68,-471.03C174.68,-466.71 174.68,-433.99 174.68,-429.92"/>
</g>
<!-- ctl_6 -->
<g id="node32" class="node">
<title>ctl_6</title>
<ellipse fill="#b9c4cc" stroke="#b9c4cc" cx="262.68" cy="-429.07" rx="0.43" ry="0.43"/>
</g>
<!-- ctl_5&#45;&gt;ctl_6 -->
<g id="edge26" class="edge">
<title>ctl_5&#45;&gt;ctl_6</title>
<path fill="none" stroke="#c4cdd5" stroke-dasharray="5,2" d="M262.68,-471.03C262.68,-466.71 262.68,-433.99 262.68,-429.92"/>
</g>
<!-- svc_6 -->
<g id="node33" class="node">
<title>svc_6</title>
<ellipse fill="#b9c4cc" stroke="#b9c4cc" cx="356.68" cy="-429.07" rx="0.43" ry="0.43"/>
</g>
<!-- svc_5&#45;&gt;svc_6 -->
<g id="edge42" class="edge">
<title>svc_5&#45;&gt;svc_6</title>
<path fill="none" stroke="#c4cdd5" stroke-dasharray="5,2" d="M356.68,-471.03C356.68,-466.71 356.68,-433.99 356.68,-429.92"/>
</g>
<!-- fhir_6 -->
<g id="node34" class="node">
<title>fhir_6</title>
<ellipse fill="#b9c4cc" stroke="#b9c4cc" cx="455.68" cy="-429.07" rx="0.43" ry="0.43"/>
</g>
<!-- fhir_5&#45;&gt;fhir_6 -->
<g id="edge58" class="edge">
<title>fhir_5&#45;&gt;fhir_6</title>
<path fill="none" stroke="#c4cdd5" stroke-dasharray="5,2" d="M455.68,-471.03C455.68,-466.71 455.68,-433.99 455.68,-429.92"/>
</g>
<!-- onnx_5&#45;&gt;onnx_5 -->
<g id="edge89" class="edge">
<title>onnx_5&#45;&gt;onnx_5</title>
<path fill="none" stroke="#7a6baa" d="M550.14,-472.43C560.1,-482.65 579.11,-482.48 579.11,-471.94 579.11,-464.27 569.07,-462.09 559.77,-465.39"/>
<polygon fill="#7a6baa" stroke="#7a6baa" points="558.03,-462.35 551.42,-470.64 561.75,-468.27 558.03,-462.35"/>
<text xml:space="preserve" text-anchor="middle" x="510.71" y="-490.21" font-family="Arial" font-size="14.00" fill="#4a3c78">5) تحميل النموذج مرّة واحدة</text>
<text xml:space="preserve" text-anchor="middle" x="510.71" y="-474.46" font-family="Arial" font-size="14.00" fill="#4a3c78">ثم تخزينه (singleton)</text>
</g>
<!-- onnx_6 -->
<g id="node35" class="node">
<title>onnx_6</title>
<ellipse fill="#b9c4cc" stroke="#b9c4cc" cx="549.68" cy="-429.07" rx="0.43" ry="0.43"/>
</g>
<!-- onnx_5&#45;&gt;onnx_6 -->
<g id="edge74" class="edge">
<title>onnx_5&#45;&gt;onnx_6</title>
<path fill="none" stroke="#c4cdd5" stroke-dasharray="5,2" d="M549.68,-471.03C549.68,-466.71 549.68,-433.99 549.68,-429.92"/>
</g>
<!-- cli_7 -->
<g id="node36" class="node">
<title>cli_7</title>
<ellipse fill="#b9c4cc" stroke="#b9c4cc" cx="174.68" cy="-386.21" rx="0.43" ry="0.43"/>
</g>
<!-- cli_6&#45;&gt;cli_7 -->
<g id="edge11" class="edge">
<title>cli_6&#45;&gt;cli_7</title>
<path fill="none" stroke="#c4cdd5" stroke-dasharray="5,2" d="M174.68,-428.17C174.68,-423.84 174.68,-391.13 174.68,-387.06"/>
</g>
<!-- ctl_7 -->
<g id="node37" class="node">
<title>ctl_7</title>
<ellipse fill="#b9c4cc" stroke="#b9c4cc" cx="262.68" cy="-386.21" rx="0.43" ry="0.43"/>
</g>
<!-- ctl_6&#45;&gt;ctl_7 -->
<g id="edge27" class="edge">
<title>ctl_6&#45;&gt;ctl_7</title>
<path fill="none" stroke="#c4cdd5" stroke-dasharray="5,2" d="M262.68,-428.17C262.68,-423.84 262.68,-391.13 262.68,-387.06"/>
</g>
<!-- svc_7 -->
<g id="node38" class="node">
<title>svc_7</title>
<ellipse fill="#b9c4cc" stroke="#b9c4cc" cx="356.68" cy="-386.21" rx="0.43" ry="0.43"/>
</g>
<!-- svc_6&#45;&gt;svc_7 -->
<g id="edge43" class="edge">
<title>svc_6&#45;&gt;svc_7</title>
<path fill="none" stroke="#c4cdd5" stroke-dasharray="5,2" d="M356.68,-428.17C356.68,-423.84 356.68,-391.13 356.68,-387.06"/>
</g>
<!-- fhir_7 -->
<g id="node39" class="node">
<title>fhir_7</title>
<ellipse fill="#b9c4cc" stroke="#b9c4cc" cx="455.68" cy="-386.21" rx="0.43" ry="0.43"/>
</g>
<!-- fhir_6&#45;&gt;fhir_7 -->
<g id="edge59" class="edge">
<title>fhir_6&#45;&gt;fhir_7</title>
<path fill="none" stroke="#c4cdd5" stroke-dasharray="5,2" d="M455.68,-428.17C455.68,-423.84 455.68,-391.13 455.68,-387.06"/>
</g>
<!-- onnx_6&#45;&gt;svc_6 -->
<g id="edge90" class="edge">
<title>onnx_6&#45;&gt;svc_6</title>
<path fill="none" stroke="#7c8996" stroke-width="1.4" stroke-dasharray="5,2" d="M548.93,-429.07C488.96,-429.07 428.99,-429.07 369.03,-429.07"/>
<polygon fill="#7c8996" stroke="#7c8996" stroke-width="1.4" points="359.14,-429.07 369.14,-424.57 362.43,-428.87 369.14,-428.87 369.14,-429.07 369.14,-429.27 362.43,-429.27 369.14,-433.57 359.14,-429.07"/>
<text xml:space="preserve" text-anchor="middle" x="378.35" y="-431.52" font-family="Arial" font-size="14.00" fill="#3d4750">6) InferenceSession (مُخزّنة)</text>
</g>
<!-- onnx_7 -->
<g id="node40" class="node">
<title>onnx_7</title>
<ellipse fill="#b9c4cc" stroke="#b9c4cc" cx="549.68" cy="-386.21" rx="0.43" ry="0.43"/>
</g>
<!-- onnx_6&#45;&gt;onnx_7 -->
<g id="edge75" class="edge">
<title>onnx_6&#45;&gt;onnx_7</title>
<path fill="none" stroke="#c4cdd5" stroke-dasharray="5,2" d="M549.68,-428.17C549.68,-423.84 549.68,-391.13 549.68,-387.06"/>
</g>
<!-- cli_8 -->
<g id="node41" class="node">
<title>cli_8</title>
<ellipse fill="#b9c4cc" stroke="#b9c4cc" cx="174.68" cy="-343.34" rx="0.43" ry="0.43"/>
</g>
<!-- cli_7&#45;&gt;cli_8 -->
<g id="edge12" class="edge">
<title>cli_7&#45;&gt;cli_8</title>
<path fill="none" stroke="#c4cdd5" stroke-dasharray="5,2" d="M174.68,-385.3C174.68,-380.98 174.68,-348.26 174.68,-344.19"/>
</g>
<!-- ctl_8 -->
<g id="node42" class="node">
<title>ctl_8</title>
<ellipse fill="#b9c4cc" stroke="#b9c4cc" cx="262.68" cy="-343.34" rx="0.43" ry="0.43"/>
</g>
<!-- ctl_7&#45;&gt;ctl_8 -->
<g id="edge28" class="edge">
<title>ctl_7&#45;&gt;ctl_8</title>
<path fill="none" stroke="#c4cdd5" stroke-dasharray="5,2" d="M262.68,-385.3C262.68,-380.98 262.68,-348.26 262.68,-344.19"/>
</g>
<!-- svc_7&#45;&gt;fhir_7 -->
<g id="edge91" class="edge">
<title>svc_7&#45;&gt;fhir_7</title>
<path fill="none" stroke="#1f6fb2" stroke-width="1.9" d="M357.45,-386.21C385.75,-386.21 414.05,-386.21 442.35,-386.21"/>
<polygon fill="#1f6fb2" stroke="#1f6fb2" stroke-width="1.9" points="442.03,-389.71 452.03,-386.21 442.03,-382.71 442.03,-389.71"/>
<text xml:space="preserve" text-anchor="middle" x="331.27" y="-404.41" font-family="Arial" font-size="14.00" fill="#0f3e66">7) Patient + Conditions</text>
<text xml:space="preserve" text-anchor="middle" x="331.27" y="-388.66" font-family="Arial" font-size="14.00" fill="#0f3e66">+ MedicationRequests</text>
</g>
<!-- svc_8 -->
<g id="node43" class="node">
<title>svc_8</title>
<ellipse fill="#b9c4cc" stroke="#b9c4cc" cx="356.68" cy="-343.34" rx="0.43" ry="0.43"/>
</g>
<!-- svc_7&#45;&gt;svc_8 -->
<g id="edge44" class="edge">
<title>svc_7&#45;&gt;svc_8</title>
<path fill="none" stroke="#c4cdd5" stroke-dasharray="5,2" d="M356.68,-385.3C356.68,-380.98 356.68,-348.26 356.68,-344.19"/>
</g>
<!-- fhir_8 -->
<g id="node44" class="node">
<title>fhir_8</title>
<ellipse fill="#b9c4cc" stroke="#b9c4cc" cx="455.68" cy="-343.34" rx="0.43" ry="0.43"/>
</g>
<!-- fhir_7&#45;&gt;fhir_8 -->
<g id="edge60" class="edge">
<title>fhir_7&#45;&gt;fhir_8</title>
<path fill="none" stroke="#c4cdd5" stroke-dasharray="5,2" d="M455.68,-385.3C455.68,-380.98 455.68,-348.26 455.68,-344.19"/>
</g>
<!-- onnx_8 -->
<g id="node45" class="node">
<title>onnx_8</title>
<ellipse fill="#b9c4cc" stroke="#b9c4cc" cx="549.68" cy="-343.34" rx="0.43" ry="0.43"/>
</g>
<!-- onnx_7&#45;&gt;onnx_8 -->
<g id="edge76" class="edge">
<title>onnx_7&#45;&gt;onnx_8</title>
<path fill="none" stroke="#c4cdd5" stroke-dasharray="5,2" d="M549.68,-385.3C549.68,-380.98 549.68,-348.26 549.68,-344.19"/>
</g>
<!-- cli_9 -->
<g id="node46" class="node">
<title>cli_9</title>
<ellipse fill="#b9c4cc" stroke="#b9c4cc" cx="174.68" cy="-300.48" rx="0.43" ry="0.43"/>
</g>
<!-- cli_8&#45;&gt;cli_9 -->
<g id="edge13" class="edge">
<title>cli_8&#45;&gt;cli_9</title>
<path fill="none" stroke="#c4cdd5" stroke-dasharray="5,2" d="M174.68,-342.44C174.68,-338.11 174.68,-305.4 174.68,-301.33"/>
</g>
<!-- ctl_9 -->
<g id="node47" class="node">
<title>ctl_9</title>
<ellipse fill="#b9c4cc" stroke="#b9c4cc" cx="262.68" cy="-300.48" rx="0.43" ry="0.43"/>
</g>
<!-- ctl_8&#45;&gt;ctl_9 -->
<g id="edge29" class="edge">
<title>ctl_8&#45;&gt;ctl_9</title>
<path fill="none" stroke="#c4cdd5" stroke-dasharray="5,2" d="M262.68,-342.44C262.68,-338.11 262.68,-305.4 262.68,-301.33"/>
</g>
<!-- svc_9 -->
<g id="node48" class="node">
<title>svc_9</title>
<ellipse fill="#b9c4cc" stroke="#b9c4cc" cx="356.68" cy="-300.48" rx="0.43" ry="0.43"/>
</g>
<!-- svc_8&#45;&gt;svc_9 -->
<g id="edge45" class="edge">
<title>svc_8&#45;&gt;svc_9</title>
<path fill="none" stroke="#c4cdd5" stroke-dasharray="5,2" d="M356.68,-342.44C356.68,-338.11 356.68,-305.4 356.68,-301.33"/>
</g>
<!-- fhir_8&#45;&gt;svc_8 -->
<g id="edge92" class="edge">
<title>fhir_8&#45;&gt;svc_8</title>
<path fill="none" stroke="#7c8996" stroke-width="1.4" stroke-dasharray="5,2" d="M454.91,-343.34C426.23,-343.34 397.55,-343.34 368.87,-343.34"/>
<polygon fill="#7c8996" stroke="#7c8996" stroke-width="1.4" points="359.16,-343.34 369.16,-338.84 362.45,-343.14 369.16,-343.14 369.16,-343.34 369.16,-343.54 362.45,-343.54 369.16,-347.84 359.16,-343.34"/>
<text xml:space="preserve" text-anchor="middle" x="367.64" y="-345.79" font-family="Arial" font-size="14.00" fill="#3d4750">8) الموارد المطلوبة</text>
</g>
<!-- fhir_9 -->
<g id="node49" class="node">
<title>fhir_9</title>
<ellipse fill="#b9c4cc" stroke="#b9c4cc" cx="455.68" cy="-300.48" rx="0.43" ry="0.43"/>
</g>
<!-- fhir_8&#45;&gt;fhir_9 -->
<g id="edge61" class="edge">
<title>fhir_8&#45;&gt;fhir_9</title>
<path fill="none" stroke="#c4cdd5" stroke-dasharray="5,2" d="M455.68,-342.44C455.68,-338.11 455.68,-305.4 455.68,-301.33"/>
</g>
<!-- onnx_9 -->
<g id="node50" class="node">
<title>onnx_9</title>
<ellipse fill="#b9c4cc" stroke="#b9c4cc" cx="549.68" cy="-300.48" rx="0.43" ry="0.43"/>
</g>
<!-- onnx_8&#45;&gt;onnx_9 -->
<g id="edge77" class="edge">
<title>onnx_8&#45;&gt;onnx_9</title>
<path fill="none" stroke="#c4cdd5" stroke-dasharray="5,2" d="M549.68,-342.44C549.68,-338.11 549.68,-305.4 549.68,-301.33"/>
</g>
<!-- cli_10 -->
<g id="node51" class="node">
<title>cli_10</title>
<ellipse fill="#b9c4cc" stroke="#b9c4cc" cx="174.68" cy="-257.62" rx="0.43" ry="0.43"/>
</g>
<!-- cli_9&#45;&gt;cli_10 -->
<g id="edge14" class="edge">
<title>cli_9&#45;&gt;cli_10</title>
<path fill="none" stroke="#c4cdd5" stroke-dasharray="5,2" d="M174.68,-299.58C174.68,-295.25 174.68,-262.54 174.68,-258.46"/>
</g>
<!-- ctl_10 -->
<g id="node52" class="node">
<title>ctl_10</title>
<ellipse fill="#b9c4cc" stroke="#b9c4cc" cx="262.68" cy="-257.62" rx="0.43" ry="0.43"/>
</g>
<!-- ctl_9&#45;&gt;ctl_10 -->
<g id="edge30" class="edge">
<title>ctl_9&#45;&gt;ctl_10</title>
<path fill="none" stroke="#c4cdd5" stroke-dasharray="5,2" d="M262.68,-299.58C262.68,-295.25 262.68,-262.54 262.68,-258.46"/>
</g>
<!-- svc_9&#45;&gt;fhir_9 -->
<g id="edge93" class="edge">
<title>svc_9&#45;&gt;fhir_9</title>
<path fill="none" stroke="#1f6fb2" stroke-width="1.9" d="M357.45,-300.48C385.75,-300.48 414.05,-300.48 442.35,-300.48"/>
<polygon fill="#1f6fb2" stroke="#1f6fb2" stroke-width="1.9" points="442.03,-303.98 452.03,-300.48 442.03,-296.98 442.03,-303.98"/>
<text xml:space="preserve" text-anchor="middle" x="312.9" y="-318.68" font-family="Arial" font-size="14.00" fill="#0f3e66">9) SearchCount: Encounters,</text>
<text xml:space="preserve" text-anchor="middle" x="312.9" y="-302.93" font-family="Arial" font-size="14.00" fill="#0f3e66">Procedures (عدّ فقط)</text>
</g>
<!-- svc_10 -->
<g id="node53" class="node">
<title>svc_10</title>
<ellipse fill="#b9c4cc" stroke="#b9c4cc" cx="356.68" cy="-257.62" rx="0.43" ry="0.43"/>
</g>
<!-- svc_9&#45;&gt;svc_10 -->
<g id="edge46" class="edge">
<title>svc_9&#45;&gt;svc_10</title>
<path fill="none" stroke="#c4cdd5" stroke-dasharray="5,2" d="M356.68,-299.58C356.68,-295.25 356.68,-262.54 356.68,-258.46"/>
</g>
<!-- fhir_10 -->
<g id="node54" class="node">
<title>fhir_10</title>
<ellipse fill="#b9c4cc" stroke="#b9c4cc" cx="455.68" cy="-257.62" rx="0.43" ry="0.43"/>
</g>
<!-- fhir_9&#45;&gt;fhir_10 -->
<g id="edge62" class="edge">
<title>fhir_9&#45;&gt;fhir_10</title>
<path fill="none" stroke="#c4cdd5" stroke-dasharray="5,2" d="M455.68,-299.58C455.68,-295.25 455.68,-262.54 455.68,-258.46"/>
</g>
<!-- onnx_10 -->
<g id="node55" class="node">
<title>onnx_10</title>
<ellipse fill="#b9c4cc" stroke="#b9c4cc" cx="549.68" cy="-257.62" rx="0.43" ry="0.43"/>
</g>
<!-- onnx_9&#45;&gt;onnx_10 -->
<g id="edge78" class="edge">
<title>onnx_9&#45;&gt;onnx_10</title>
<path fill="none" stroke="#c4cdd5" stroke-dasharray="5,2" d="M549.68,-299.58C549.68,-295.25 549.68,-262.54 549.68,-258.46"/>
</g>
<!-- cli_11 -->
<g id="node56" class="node">
<title>cli_11</title>
<ellipse fill="#b9c4cc" stroke="#b9c4cc" cx="174.68" cy="-214.75" rx="0.43" ry="0.43"/>
</g>
<!-- cli_10&#45;&gt;cli_11 -->
<g id="edge15" class="edge">
<title>cli_10&#45;&gt;cli_11</title>
<path fill="none" stroke="#c4cdd5" stroke-dasharray="5,2" d="M174.68,-256.71C174.68,-252.39 174.68,-219.67 174.68,-215.6"/>
</g>
<!-- ctl_11 -->
<g id="node57" class="node">
<title>ctl_11</title>
<ellipse fill="#b9c4cc" stroke="#b9c4cc" cx="262.68" cy="-214.75" rx="0.43" ry="0.43"/>
</g>
<!-- ctl_10&#45;&gt;ctl_11 -->
<g id="edge31" class="edge">
<title>ctl_10&#45;&gt;ctl_11</title>
<path fill="none" stroke="#c4cdd5" stroke-dasharray="5,2" d="M262.68,-256.71C262.68,-252.39 262.68,-219.67 262.68,-215.6"/>
</g>
<!-- svc_11 -->
<g id="node58" class="node">
<title>svc_11</title>
<ellipse fill="#b9c4cc" stroke="#b9c4cc" cx="356.68" cy="-214.75" rx="0.43" ry="0.43"/>
</g>
<!-- svc_10&#45;&gt;svc_11 -->
<g id="edge47" class="edge">
<title>svc_10&#45;&gt;svc_11</title>
<path fill="none" stroke="#c4cdd5" stroke-dasharray="5,2" d="M356.68,-256.71C356.68,-252.39 356.68,-219.67 356.68,-215.6"/>
</g>
<!-- fhir_10&#45;&gt;svc_10 -->
<g id="edge94" class="edge">
<title>fhir_10&#45;&gt;svc_10</title>
<path fill="none" stroke="#7c8996" stroke-width="1.4" stroke-dasharray="5,2" d="M454.91,-257.62C426.23,-257.62 397.55,-257.62 368.87,-257.62"/>
<polygon fill="#7c8996" stroke="#7c8996" stroke-width="1.4" points="359.16,-257.62 369.16,-253.12 362.45,-257.42 369.16,-257.42 369.16,-257.62 369.16,-257.82 362.45,-257.82 369.16,-262.12 359.16,-257.62"/>
<text xml:space="preserve" text-anchor="middle" x="385.27" y="-260.07" font-family="Arial" font-size="14.00" fill="#3d4750">10) الأعداد</text>
</g>
<!-- fhir_11 -->
<g id="node59" class="node">
<title>fhir_11</title>
<ellipse fill="#b9c4cc" stroke="#b9c4cc" cx="455.68" cy="-214.75" rx="0.43" ry="0.43"/>
</g>
<!-- fhir_10&#45;&gt;fhir_11 -->
<g id="edge63" class="edge">
<title>fhir_10&#45;&gt;fhir_11</title>
<path fill="none" stroke="#c4cdd5" stroke-dasharray="5,2" d="M455.68,-256.71C455.68,-252.39 455.68,-219.67 455.68,-215.6"/>
</g>
<!-- onnx_11 -->
<g id="node60" class="node">
<title>onnx_11</title>
<ellipse fill="#b9c4cc" stroke="#b9c4cc" cx="549.68" cy="-214.75" rx="0.43" ry="0.43"/>
</g>
<!-- onnx_10&#45;&gt;onnx_11 -->
<g id="edge79" class="edge">
<title>onnx_10&#45;&gt;onnx_11</title>
<path fill="none" stroke="#c4cdd5" stroke-dasharray="5,2" d="M549.68,-256.71C549.68,-252.39 549.68,-219.67 549.68,-215.6"/>
</g>
<!-- cli_12 -->
<g id="node61" class="node">
<title>cli_12</title>
<ellipse fill="#b9c4cc" stroke="#b9c4cc" cx="174.68" cy="-171.89" rx="0.43" ry="0.43"/>
</g>
<!-- cli_11&#45;&gt;cli_12 -->
<g id="edge16" class="edge">
<title>cli_11&#45;&gt;cli_12</title>
<path fill="none" stroke="#c4cdd5" stroke-dasharray="5,2" d="M174.68,-213.85C174.68,-209.52 174.68,-176.81 174.68,-172.74"/>
</g>
<!-- ctl_12 -->
<g id="node62" class="node">
<title>ctl_12</title>
<ellipse fill="#b9c4cc" stroke="#b9c4cc" cx="262.68" cy="-171.89" rx="0.43" ry="0.43"/>
</g>
<!-- ctl_11&#45;&gt;ctl_12 -->
<g id="edge32" class="edge">
<title>ctl_11&#45;&gt;ctl_12</title>
<path fill="none" stroke="#c4cdd5" stroke-dasharray="5,2" d="M262.68,-213.85C262.68,-209.52 262.68,-176.81 262.68,-172.74"/>
</g>
<!-- svc_11&#45;&gt;svc_11 -->
<g id="edge95" class="edge">
<title>svc_11&#45;&gt;svc_11</title>
<path fill="none" stroke="#7a6baa" d="M357.14,-215.25C367.1,-225.47 386.11,-225.3 386.11,-214.75 386.11,-207.09 376.07,-204.91 366.77,-208.2"/>
<polygon fill="#7a6baa" stroke="#7a6baa" points="365.03,-205.16 358.42,-213.45 368.75,-211.09 365.03,-205.16"/>
<text xml:space="preserve" text-anchor="middle" x="311.71" y="-233.02" font-family="Arial" font-size="14.00" fill="#4a3c78">11) بناء متجه الميزات</text>
<text xml:space="preserve" text-anchor="middle" x="311.71" y="-217.27" font-family="Arial" font-size="14.00" fill="#4a3c78">[age, gender, counts…]</text>
</g>
<!-- svc_12 -->
<g id="node63" class="node">
<title>svc_12</title>
<ellipse fill="#b9c4cc" stroke="#b9c4cc" cx="356.68" cy="-171.89" rx="0.43" ry="0.43"/>
</g>
<!-- svc_11&#45;&gt;svc_12 -->
<g id="edge48" class="edge">
<title>svc_11&#45;&gt;svc_12</title>
<path fill="none" stroke="#c4cdd5" stroke-dasharray="5,2" d="M356.68,-213.85C356.68,-209.52 356.68,-176.81 356.68,-172.74"/>
</g>
<!-- fhir_12 -->
<g id="node64" class="node">
<title>fhir_12</title>
<ellipse fill="#b9c4cc" stroke="#b9c4cc" cx="455.68" cy="-171.89" rx="0.43" ry="0.43"/>
</g>
<!-- fhir_11&#45;&gt;fhir_12 -->
<g id="edge64" class="edge">
<title>fhir_11&#45;&gt;fhir_12</title>
<path fill="none" stroke="#c4cdd5" stroke-dasharray="5,2" d="M455.68,-213.85C455.68,-209.52 455.68,-176.81 455.68,-172.74"/>
</g>
<!-- onnx_12 -->
<g id="node65" class="node">
<title>onnx_12</title>
<ellipse fill="#b9c4cc" stroke="#b9c4cc" cx="549.68" cy="-171.89" rx="0.43" ry="0.43"/>
</g>
<!-- onnx_11&#45;&gt;onnx_12 -->
<g id="edge80" class="edge">
<title>onnx_11&#45;&gt;onnx_12</title>
<path fill="none" stroke="#c4cdd5" stroke-dasharray="5,2" d="M549.68,-213.85C549.68,-209.52 549.68,-176.81 549.68,-172.74"/>
</g>
<!-- cli_13 -->
<g id="node66" class="node">
<title>cli_13</title>
<ellipse fill="#b9c4cc" stroke="#b9c4cc" cx="174.68" cy="-129.02" rx="0.43" ry="0.43"/>
</g>
<!-- cli_12&#45;&gt;cli_13 -->
<g id="edge17" class="edge">
<title>cli_12&#45;&gt;cli_13</title>
<path fill="none" stroke="#c4cdd5" stroke-dasharray="5,2" d="M174.68,-170.98C174.68,-166.66 174.68,-133.94 174.68,-129.87"/>
</g>
<!-- ctl_13 -->
<g id="node67" class="node">
<title>ctl_13</title>
<ellipse fill="#b9c4cc" stroke="#b9c4cc" cx="262.68" cy="-129.02" rx="0.43" ry="0.43"/>
</g>
<!-- ctl_12&#45;&gt;ctl_13 -->
<g id="edge33" class="edge">
<title>ctl_12&#45;&gt;ctl_13</title>
<path fill="none" stroke="#c4cdd5" stroke-dasharray="5,2" d="M262.68,-170.98C262.68,-166.66 262.68,-133.94 262.68,-129.87"/>
</g>
<!-- svc_12&#45;&gt;onnx_12 -->
<g id="edge96" class="edge">
<title>svc_12&#45;&gt;onnx_12</title>
<path fill="none" stroke="#1f6fb2" stroke-width="1.9" d="M357.43,-171.89C417.02,-171.89 476.62,-171.89 536.21,-171.89"/>
<polygon fill="#1f6fb2" stroke="#1f6fb2" stroke-width="1.9" points="536.05,-175.39 546.05,-171.89 536.05,-168.39 536.05,-175.39"/>
<text xml:space="preserve" text-anchor="middle" x="383.45" y="-174.34" font-family="Arial" font-size="14.00" fill="#0f3e66">12) Run(inputTensor)</text>
</g>
<!-- svc_13 -->
<g id="node68" class="node">
<title>svc_13</title>
<ellipse fill="#b9c4cc" stroke="#b9c4cc" cx="356.68" cy="-129.02" rx="0.43" ry="0.43"/>
</g>
<!-- svc_12&#45;&gt;svc_13 -->
<g id="edge49" class="edge">
<title>svc_12&#45;&gt;svc_13</title>
<path fill="none" stroke="#c4cdd5" stroke-dasharray="5,2" d="M356.68,-170.98C356.68,-166.66 356.68,-133.94 356.68,-129.87"/>
</g>
<!-- fhir_13 -->
<g id="node69" class="node">
<title>fhir_13</title>
<ellipse fill="#b9c4cc" stroke="#b9c4cc" cx="455.68" cy="-129.02" rx="0.43" ry="0.43"/>
</g>
<!-- fhir_12&#45;&gt;fhir_13 -->
<g id="edge65" class="edge">
<title>fhir_12&#45;&gt;fhir_13</title>
<path fill="none" stroke="#c4cdd5" stroke-dasharray="5,2" d="M455.68,-170.98C455.68,-166.66 455.68,-133.94 455.68,-129.87"/>
</g>
<!-- onnx_13 -->
<g id="node70" class="node">
<title>onnx_13</title>
<ellipse fill="#b9c4cc" stroke="#b9c4cc" cx="549.68" cy="-129.02" rx="0.43" ry="0.43"/>
</g>
<!-- onnx_12&#45;&gt;onnx_13 -->
<g id="edge81" class="edge">
<title>onnx_12&#45;&gt;onnx_13</title>
<path fill="none" stroke="#c4cdd5" stroke-dasharray="5,2" d="M549.68,-170.98C549.68,-166.66 549.68,-133.94 549.68,-129.87"/>
</g>
<!-- cli_14 -->
<g id="node71" class="node">
<title>cli_14</title>
<ellipse fill="#b9c4cc" stroke="#b9c4cc" cx="174.68" cy="-86.16" rx="0.43" ry="0.43"/>
</g>
<!-- cli_13&#45;&gt;cli_14 -->
<g id="edge18" class="edge">
<title>cli_13&#45;&gt;cli_14</title>
<path fill="none" stroke="#c4cdd5" stroke-dasharray="5,2" d="M174.68,-128.12C174.68,-123.79 174.68,-91.08 174.68,-87.01"/>
</g>
<!-- ctl_14 -->
<g id="node72" class="node">
<title>ctl_14</title>
<ellipse fill="#b9c4cc" stroke="#b9c4cc" cx="262.68" cy="-86.16" rx="0.43" ry="0.43"/>
</g>
<!-- ctl_13&#45;&gt;ctl_14 -->
<g id="edge34" class="edge">
<title>ctl_13&#45;&gt;ctl_14</title>
<path fill="none" stroke="#c4cdd5" stroke-dasharray="5,2" d="M262.68,-128.12C262.68,-123.79 262.68,-91.08 262.68,-87.01"/>
</g>
<!-- svc_14 -->
<g id="node73" class="node">
<title>svc_14</title>
<ellipse fill="#b9c4cc" stroke="#b9c4cc" cx="356.68" cy="-86.16" rx="0.43" ry="0.43"/>
</g>
<!-- svc_13&#45;&gt;svc_14 -->
<g id="edge50" class="edge">
<title>svc_13&#45;&gt;svc_14</title>
<path fill="none" stroke="#c4cdd5" stroke-dasharray="5,2" d="M356.68,-128.12C356.68,-123.79 356.68,-91.08 356.68,-87.01"/>
</g>
<!-- fhir_14 -->
<g id="node74" class="node">
<title>fhir_14</title>
<ellipse fill="#b9c4cc" stroke="#b9c4cc" cx="455.68" cy="-86.16" rx="0.43" ry="0.43"/>
</g>
<!-- fhir_13&#45;&gt;fhir_14 -->
<g id="edge66" class="edge">
<title>fhir_13&#45;&gt;fhir_14</title>
<path fill="none" stroke="#c4cdd5" stroke-dasharray="5,2" d="M455.68,-128.12C455.68,-123.79 455.68,-91.08 455.68,-87.01"/>
</g>
<!-- onnx_13&#45;&gt;svc_13 -->
<g id="edge97" class="edge">
<title>onnx_13&#45;&gt;svc_13</title>
<path fill="none" stroke="#7c8996" stroke-width="1.4" stroke-dasharray="5,2" d="M548.93,-129.02C488.96,-129.02 428.99,-129.02 369.03,-129.02"/>
<polygon fill="#7c8996" stroke="#7c8996" stroke-width="1.4" points="359.14,-129.02 369.14,-124.52 362.43,-128.82 369.14,-128.82 369.14,-129.02 369.14,-129.22 362.43,-129.22 369.14,-133.52 359.14,-129.02"/>
<text xml:space="preserve" text-anchor="middle" x="394.1" y="-131.47" font-family="Arial" font-size="14.00" fill="#3d4750">13) (label, probability)</text>
</g>
<!-- onnx_14 -->
<g id="node75" class="node">
<title>onnx_14</title>
<ellipse fill="#b9c4cc" stroke="#b9c4cc" cx="549.68" cy="-86.16" rx="0.43" ry="0.43"/>
</g>
<!-- onnx_13&#45;&gt;onnx_14 -->
<g id="edge82" class="edge">
<title>onnx_13&#45;&gt;onnx_14</title>
<path fill="none" stroke="#c4cdd5" stroke-dasharray="5,2" d="M549.68,-128.12C549.68,-123.79 549.68,-91.08 549.68,-87.01"/>
</g>
<!-- cli_15 -->
<g id="node76" class="node">
<title>cli_15</title>
<ellipse fill="#b9c4cc" stroke="#b9c4cc" cx="174.68" cy="-43.3" rx="0.43" ry="0.43"/>
</g>
<!-- cli_14&#45;&gt;cli_15 -->
<g id="edge19" class="edge">
<title>cli_14&#45;&gt;cli_15</title>
<path fill="none" stroke="#c4cdd5" stroke-dasharray="5,2" d="M174.68,-85.26C174.68,-80.93 174.68,-48.22 174.68,-44.14"/>
</g>
<!-- ctl_15 -->
<g id="node77" class="node">
<title>ctl_15</title>
<ellipse fill="#b9c4cc" stroke="#b9c4cc" cx="262.68" cy="-43.3" rx="0.43" ry="0.43"/>
</g>
<!-- ctl_14&#45;&gt;ctl_15 -->
<g id="edge35" class="edge">
<title>ctl_14&#45;&gt;ctl_15</title>
<path fill="none" stroke="#c4cdd5" stroke-dasharray="5,2" d="M262.68,-85.26C262.68,-80.93 262.68,-48.22 262.68,-44.14"/>
</g>
<!-- svc_14&#45;&gt;svc_14 -->
<g id="edge98" class="edge">
<title>svc_14&#45;&gt;svc_14</title>
<path fill="none" stroke="#7a6baa" d="M357.14,-86.65C367.1,-96.87 386.11,-96.71 386.11,-86.16 386.11,-78.5 376.07,-76.31 366.77,-79.61"/>
<polygon fill="#7a6baa" stroke="#7a6baa" points="365.03,-76.57 358.42,-84.86 368.75,-82.5 365.03,-76.57"/>
<text xml:space="preserve" text-anchor="middle" x="319.59" y="-104.43" font-family="Arial" font-size="14.00" fill="#4a3c78">14) تطبيق العتبات:</text>
<text xml:space="preserve" text-anchor="middle" x="319.59" y="-88.68" font-family="Arial" font-size="14.00" fill="#4a3c78">High / Medium / Low</text>
</g>
<!-- svc_15 -->
<g id="node78" class="node">
<title>svc_15</title>
<ellipse fill="#b9c4cc" stroke="#b9c4cc" cx="356.68" cy="-43.3" rx="0.43" ry="0.43"/>
</g>
<!-- svc_14&#45;&gt;svc_15 -->
<g id="edge51" class="edge">
<title>svc_14&#45;&gt;svc_15</title>
<path fill="none" stroke="#c4cdd5" stroke-dasharray="5,2" d="M356.68,-85.26C356.68,-80.93 356.68,-48.22 356.68,-44.14"/>
</g>
<!-- fhir_15 -->
<g id="node79" class="node">
<title>fhir_15</title>
<ellipse fill="#b9c4cc" stroke="#b9c4cc" cx="455.68" cy="-43.3" rx="0.43" ry="0.43"/>
</g>
<!-- fhir_14&#45;&gt;fhir_15 -->
<g id="edge67" class="edge">
<title>fhir_14&#45;&gt;fhir_15</title>
<path fill="none" stroke="#c4cdd5" stroke-dasharray="5,2" d="M455.68,-85.26C455.68,-80.93 455.68,-48.22 455.68,-44.14"/>
</g>
<!-- onnx_15 -->
<g id="node80" class="node">
<title>onnx_15</title>
<ellipse fill="#b9c4cc" stroke="#b9c4cc" cx="549.68" cy="-43.3" rx="0.43" ry="0.43"/>
</g>
<!-- onnx_14&#45;&gt;onnx_15 -->
<g id="edge83" class="edge">
<title>onnx_14&#45;&gt;onnx_15</title>
<path fill="none" stroke="#c4cdd5" stroke-dasharray="5,2" d="M549.68,-85.26C549.68,-80.93 549.68,-48.22 549.68,-44.14"/>
</g>
<!-- cli_16 -->
<g id="node81" class="node">
<title>cli_16</title>
<ellipse fill="#b9c4cc" stroke="#b9c4cc" cx="174.68" cy="-0.43" rx="0.43" ry="0.43"/>
</g>
<!-- cli_15&#45;&gt;cli_16 -->
<g id="edge20" class="edge">
<title>cli_15&#45;&gt;cli_16</title>
<path fill="none" stroke="#c4cdd5" stroke-dasharray="5,2" d="M174.68,-42.39C174.68,-38.07 174.68,-5.35 174.68,-1.28"/>
</g>
<!-- ctl_16 -->
<g id="node82" class="node">
<title>ctl_16</title>
<ellipse fill="#b9c4cc" stroke="#b9c4cc" cx="262.68" cy="-0.43" rx="0.43" ry="0.43"/>
</g>
<!-- ctl_15&#45;&gt;ctl_16 -->
<g id="edge36" class="edge">
<title>ctl_15&#45;&gt;ctl_16</title>
<path fill="none" stroke="#c4cdd5" stroke-dasharray="5,2" d="M262.68,-42.39C262.68,-38.07 262.68,-5.35 262.68,-1.28"/>
</g>
<!-- svc_15&#45;&gt;ctl_15 -->
<g id="edge99" class="edge">
<title>svc_15&#45;&gt;ctl_15</title>
<path fill="none" stroke="#7c8996" stroke-width="1.4" stroke-dasharray="5,2" d="M355.95,-43.3C328.96,-43.3 301.97,-43.3 274.98,-43.3"/>
<polygon fill="#7c8996" stroke="#7c8996" stroke-width="1.4" points="265.12,-43.3 275.12,-38.8 268.41,-43.1 275.12,-43.1 275.12,-43.3 275.12,-43.5 268.41,-43.5 275.12,-47.8 265.12,-43.3"/>
<text xml:space="preserve" text-anchor="middle" x="253.59" y="-45.75" font-family="Arial" font-size="14.00" fill="#3d4750">15) RiskAssessment</text>
</g>
<!-- svc_16 -->
<g id="node83" class="node">
<title>svc_16</title>
<ellipse fill="#b9c4cc" stroke="#b9c4cc" cx="356.68" cy="-0.43" rx="0.43" ry="0.43"/>
</g>
<!-- svc_15&#45;&gt;svc_16 -->
<g id="edge52" class="edge">
<title>svc_15&#45;&gt;svc_16</title>
<path fill="none" stroke="#c4cdd5" stroke-dasharray="5,2" d="M356.68,-42.39C356.68,-38.07 356.68,-5.35 356.68,-1.28"/>
</g>
<!-- fhir_16 -->
<g id="node84" class="node">
<title>fhir_16</title>
<ellipse fill="#b9c4cc" stroke="#b9c4cc" cx="455.68" cy="-0.43" rx="0.43" ry="0.43"/>
</g>
<!-- fhir_15&#45;&gt;fhir_16 -->
<g id="edge68" class="edge">
<title>fhir_15&#45;&gt;fhir_16</title>
<path fill="none" stroke="#c4cdd5" stroke-dasharray="5,2" d="M455.68,-42.39C455.68,-38.07 455.68,-5.35 455.68,-1.28"/>
</g>
<!-- onnx_16 -->
<g id="node85" class="node">
<title>onnx_16</title>
<ellipse fill="#b9c4cc" stroke="#b9c4cc" cx="549.68" cy="-0.43" rx="0.43" ry="0.43"/>
</g>
<!-- onnx_15&#45;&gt;onnx_16 -->
<g id="edge84" class="edge">
<title>onnx_15&#45;&gt;onnx_16</title>
<path fill="none" stroke="#c4cdd5" stroke-dasharray="5,2" d="M549.68,-42.39C549.68,-38.07 549.68,-5.35 549.68,-1.28"/>
</g>
<!-- ctl_16&#45;&gt;cli_16 -->
<g id="edge100" class="edge">
<title>ctl_16&#45;&gt;cli_16</title>
<path fill="none" stroke="#7c8996" stroke-width="1.4" stroke-dasharray="5,2" d="M261.99,-0.43C236.95,-0.43 211.91,-0.43 186.87,-0.43"/>
<polygon fill="#7c8996" stroke="#7c8996" stroke-width="1.4" points="177.07,-0.43 187.07,4.07 180.36,-0.23 187.07,-0.23 187.07,-0.43 187.07,-0.63 180.36,-0.63 187.07,-4.93 177.07,-0.43"/>
<text xml:space="preserve" text-anchor="middle" x="123.56" y="-2.88" font-family="Arial" font-size="14.00" fill="#3d4750">16) 200 OK — عرض الدرجة والمستوى</text>
</g>
</g>
</svg>
