<?xml version="1.0" encoding="UTF-8" standalone="no"?>
<!DOCTYPE svg PUBLIC "-//W3C//DTD SVG 1.1//EN"
 "http://www.w3.org/Graphics/SVG/1.1/DTD/svg11.dtd">
<!-- Generated by graphviz version 14.1.1 (20251213.1925)
 -->
<!-- Title: SEQ Pages: 1 -->
<svg width="589pt" height="784pt"
 viewBox="0.00 0.00 589.00 784.00" xmlns="http://www.w3.org/2000/svg" xmlns:xlink="http://www.w3.org/1999/xlink">
<g id="graph0" class="graph" transform="scale(1 1) rotate(0) translate(21.6 762.74)">
<title>SEQ</title>
<polygon fill="white" stroke="none" points="-21.6,21.6 -21.6,-762.74 566.98,-762.74 566.98,21.6 -21.6,21.6"/>
<text xml:space="preserve" text-anchor="middle" x="272.69" y="-721.94" font-family="Arial" font-size="16.00">تسلسل الدعوة والربط (Invite/Claim)</text>
<text xml:space="preserve" text-anchor="middle" x="272.69" y="-703.19" font-family="Arial" font-size="16.00">Patient Invite &amp; Claim</text>
<!-- H_staff -->
<g id="node1" class="node">
<title>H_staff</title>
<path fill="#eef0f2" stroke="#777777" d="M185.38,-695.64C185.38,-695.64 155.38,-695.64 155.38,-695.64 149.38,-695.64 143.38,-689.64 143.38,-683.64 143.38,-683.64 143.38,-663 143.38,-663 143.38,-657 149.38,-651 155.38,-651 155.38,-651 185.38,-651 185.38,-651 191.38,-651 197.38,-657 197.38,-663 197.38,-663 197.38,-683.64 197.38,-683.64 197.38,-689.64 191.38,-695.64 185.38,-695.64"/>
<text xml:space="preserve" text-anchor="middle" x="170.38" y="-681.82" font-family="Arial" font-size="10.00">المُنشئ</text>
<text xml:space="preserve" text-anchor="middle" x="170.38" y="-669.82" font-family="Arial" font-size="10.00">مدير مؤسسة</text>
<text xml:space="preserve" text-anchor="middle" x="170.38" y="-657.82" font-family="Arial" font-size="10.00">أو طبيب</text>
</g>
<!-- H_api -->
<g id="node2" class="node">
<title>H_api</title>
<path fill="#ffffff" stroke="#1f6fb2" d="M268.86,-695.64C268.86,-695.64 237.9,-695.64 237.9,-695.64 231.9,-695.64 225.9,-689.64 225.9,-683.64 225.9,-683.64 225.9,-663 225.9,-663 225.9,-657 231.9,-651 237.9,-651 237.9,-651 268.86,-651 268.86,-651 274.86,-651 280.86,-657 280.86,-663 280.86,-663 280.86,-683.64 280.86,-683.64 280.86,-689.64 274.86,-695.64 268.86,-695.64"/>
<text xml:space="preserve" text-anchor="middle" x="253.38" y="-681.82" font-family="Arial" font-size="10.00">Nabd API</text>
<text xml:space="preserve" text-anchor="middle" x="253.38" y="-669.82" font-family="Arial" font-size="10.00">Invite /</text>
<text xml:space="preserve" text-anchor="middle" x="253.38" y="-657.82" font-family="Arial" font-size="10.00">Claim</text>
</g>
<!-- H_staff&#45;&gt;H_api -->
<!-- staff_1 -->
<g id="node6" class="node">
<title>staff_1</title>
<ellipse fill="#b9c4cc" stroke="#b9c4cc" cx="170.38" cy="-608.57" rx="0.43" ry="0.43"/>
</g>
<!-- H_staff&#45;&gt;staff_1 -->
<g id="edge5" class="edge">
<title>H_staff&#45;&gt;staff_1</title>
<path fill="none" stroke="#c4cdd5" stroke-dasharray="5,2" d="M170.38,-650.53C170.38,-633.36 170.38,-611.89 170.38,-609.27"/>
</g>
<!-- H_repo -->
<g id="node3" class="node">
<title>H_repo</title>
<path fill="#e3f2e9" stroke="#2e8b57" d="M366.99,-695.64C366.99,-695.64 321.78,-695.64 321.78,-695.64 315.78,-695.64 309.78,-689.64 309.78,-683.64 309.78,-683.64 309.78,-663 309.78,-663 309.78,-657 315.78,-651 321.78,-651 321.78,-651 366.99,-651 366.99,-651 372.99,-651 378.99,-657 378.99,-663 378.99,-663 378.99,-683.64 378.99,-683.64 378.99,-689.64 372.99,-695.64 366.99,-695.64"/>
<text xml:space="preserve" text-anchor="middle" x="344.38" y="-681.82" font-family="Arial" font-size="10.00">Fhir</text>
<text xml:space="preserve" text-anchor="middle" x="344.38" y="-669.82" font-family="Arial" font-size="10.00">Repository</text>
<text xml:space="preserve" text-anchor="middle" x="344.38" y="-657.82" font-family="Arial" font-size="10.00">(مورد Patient)</text>
</g>
<!-- H_api&#45;&gt;H_repo -->
<!-- api_1 -->
<g id="node7" class="node">
<title>api_1</title>
<ellipse fill="#b9c4cc" stroke="#b9c4cc" cx="253.38" cy="-608.57" rx="0.43" ry="0.43"/>
</g>
<!-- H_api&#45;&gt;api_1 -->
<g id="edge20" class="edge">
<title>H_api&#45;&gt;api_1</title>
<path fill="none" stroke="#c4cdd5" stroke-dasharray="5,2" d="M253.38,-650.53C253.38,-633.36 253.38,-611.89 253.38,-609.27"/>
</g>
<!-- H_pat -->
<g id="node4" class="node">
<title>H_pat</title>
<path fill="#e8f1f8" stroke="#1f6fb2" d="M450.38,-695.64C450.38,-695.64 420.38,-695.64 420.38,-695.64 414.38,-695.64 408.38,-689.64 408.38,-683.64 408.38,-683.64 408.38,-663 408.38,-663 408.38,-657 414.38,-651 420.38,-651 420.38,-651 450.38,-651 450.38,-651 456.38,-651 462.38,-657 462.38,-663 462.38,-663 462.38,-683.64 462.38,-683.64 462.38,-689.64 456.38,-695.64 450.38,-695.64"/>
<text xml:space="preserve" text-anchor="middle" x="435.38" y="-681.82" font-family="Arial" font-size="10.00">المريض</text>
<text xml:space="preserve" text-anchor="middle" x="435.38" y="-669.82" font-family="Arial" font-size="10.00">Patient</text>
<text xml:space="preserve" text-anchor="middle" x="435.38" y="-657.82" font-family="Arial" font-size="10.00">(المتصفّح)</text>
</g>
<!-- H_repo&#45;&gt;H_pat -->
<!-- repo_1 -->
<g id="node8" class="node">
<title>repo_1</title>
<ellipse fill="#b9c4cc" stroke="#b9c4cc" cx="344.38" cy="-608.57" rx="0.43" ry="0.43"/>
</g>
<!-- H_repo&#45;&gt;repo_1 -->
<g id="edge35" class="edge">
<title>H_repo&#45;&gt;repo_1</title>
<path fill="none" stroke="#c4cdd5" stroke-dasharray="5,2" d="M344.38,-650.53C344.38,-633.36 344.38,-611.89 344.38,-609.27"/>
</g>
<!-- H_kc -->
<g id="node5" class="node">
<title>H_kc</title>
<path fill="#fdf3e3" stroke="#c8902a" d="M533.38,-695.64C533.38,-695.64 503.38,-695.64 503.38,-695.64 497.38,-695.64 491.38,-689.64 491.38,-683.64 491.38,-683.64 491.38,-663 491.38,-663 491.38,-657 497.38,-651 503.38,-651 503.38,-651 533.38,-651 533.38,-651 539.38,-651 545.38,-657 545.38,-663 545.38,-663 545.38,-683.64 545.38,-683.64 545.38,-689.64 539.38,-695.64 533.38,-695.64"/>
<text xml:space="preserve" text-anchor="middle" x="518.38" y="-681.82" font-family="Arial" font-size="10.00">Keycloak</text>
<text xml:space="preserve" text-anchor="middle" x="518.38" y="-669.82" font-family="Arial" font-size="10.00">تسجيل</text>
<text xml:space="preserve" text-anchor="middle" x="518.38" y="-657.82" font-family="Arial" font-size="10.00">+ أدوار</text>
</g>
<!-- H_pat&#45;&gt;H_kc -->
<!-- pat_1 -->
<g id="node9" class="node">
<title>pat_1</title>
<ellipse fill="#b9c4cc" stroke="#b9c4cc" cx="435.38" cy="-608.57" rx="0.43" ry="0.43"/>
</g>
<!-- H_pat&#45;&gt;pat_1 -->
<g id="edge50" class="edge">
<title>H_pat&#45;&gt;pat_1</title>
<path fill="none" stroke="#c4cdd5" stroke-dasharray="5,2" d="M435.38,-650.53C435.38,-633.36 435.38,-611.89 435.38,-609.27"/>
</g>
<!-- kc_1 -->
<g id="node10" class="node">
<title>kc_1</title>
<ellipse fill="#b9c4cc" stroke="#b9c4cc" cx="518.38" cy="-608.57" rx="0.43" ry="0.43"/>
</g>
<!-- H_kc&#45;&gt;kc_1 -->
<g id="edge65" class="edge">
<title>H_kc&#45;&gt;kc_1</title>
<path fill="none" stroke="#c4cdd5" stroke-dasharray="5,2" d="M518.38,-650.53C518.38,-633.36 518.38,-611.89 518.38,-609.27"/>
</g>
<!-- staff_1&#45;&gt;api_1 -->
<g id="edge80" class="edge">
<title>staff_1&#45;&gt;api_1</title>
<path fill="none" stroke="#1f6fb2" stroke-width="1.9" d="M171.03,-608.57C194.01,-608.57 216.99,-608.57 239.97,-608.57"/>
<polygon fill="#1f6fb2" stroke="#1f6fb2" stroke-width="1.9" points="239.86,-612.07 249.86,-608.57 239.86,-605.07 239.86,-612.07"/>
<text xml:space="preserve" text-anchor="middle" x="102.75" y="-626.77" font-family="Arial" font-size="14.00" fill="#0f3e66">1) POST create&#45;invite</text>
<text xml:space="preserve" text-anchor="middle" x="102.75" y="-611.02" font-family="Arial" font-size="14.00" fill="#0f3e66">{ organizationId, name, birthDate }</text>
</g>
<!-- staff_2 -->
<g id="node11" class="node">
<title>staff_2</title>
<ellipse fill="#b9c4cc" stroke="#b9c4cc" cx="170.38" cy="-565.71" rx="0.43" ry="0.43"/>
</g>
<!-- staff_1&#45;&gt;staff_2 -->
<g id="edge6" class="edge">
<title>staff_1&#45;&gt;staff_2</title>
<path fill="none" stroke="#c4cdd5" stroke-dasharray="5,2" d="M170.38,-607.67C170.38,-603.34 170.38,-570.63 170.38,-566.56"/>
</g>
<!-- api_2 -->
<g id="node12" class="node">
<title>api_2</title>
<ellipse fill="#b9c4cc" stroke="#b9c4cc" cx="253.38" cy="-565.71" rx="0.43" ry="0.43"/>
</g>
<!-- api_1&#45;&gt;api_2 -->
<g id="edge21" class="edge">
<title>api_1&#45;&gt;api_2</title>
<path fill="none" stroke="#c4cdd5" stroke-dasharray="5,2" d="M253.38,-607.67C253.38,-603.34 253.38,-570.63 253.38,-566.56"/>
</g>
<!-- repo_2 -->
<g id="node13" class="node">
<title>repo_2</title>
<ellipse fill="#b9c4cc" stroke="#b9c4cc" cx="344.38" cy="-565.71" rx="0.43" ry="0.43"/>
</g>
<!-- repo_1&#45;&gt;repo_2 -->
<g id="edge36" class="edge">
<title>repo_1&#45;&gt;repo_2</title>
<path fill="none" stroke="#c4cdd5" stroke-dasharray="5,2" d="M344.38,-607.67C344.38,-603.34 344.38,-570.63 344.38,-566.56"/>
</g>
<!-- pat_2 -->
<g id="node14" class="node">
<title>pat_2</title>
<ellipse fill="#b9c4cc" stroke="#b9c4cc" cx="435.38" cy="-565.71" rx="0.43" ry="0.43"/>
</g>
<!-- pat_1&#45;&gt;pat_2 -->
<g id="edge51" class="edge">
<title>pat_1&#45;&gt;pat_2</title>
<path fill="none" stroke="#c4cdd5" stroke-dasharray="5,2" d="M435.38,-607.67C435.38,-603.34 435.38,-570.63 435.38,-566.56"/>
</g>
<!-- kc_2 -->
<g id="node15" class="node">
<title>kc_2</title>
<ellipse fill="#b9c4cc" stroke="#b9c4cc" cx="518.38" cy="-565.71" rx="0.43" ry="0.43"/>
</g>
<!-- kc_1&#45;&gt;kc_2 -->
<g id="edge66" class="edge">
<title>kc_1&#45;&gt;kc_2</title>
<path fill="none" stroke="#c4cdd5" stroke-dasharray="5,2" d="M518.38,-607.67C518.38,-603.34 518.38,-570.63 518.38,-566.56"/>
</g>
<!-- staff_3 -->
<g id="node16" class="node">
<title>staff_3</title>
<ellipse fill="#b9c4cc" stroke="#b9c4cc" cx="170.38" cy="-522.84" rx="0.43" ry="0.43"/>
</g>
<!-- staff_2&#45;&gt;staff_3 -->
<g id="edge7" class="edge">
<title>staff_2&#45;&gt;staff_3</title>
<path fill="none" stroke="#c4cdd5" stroke-dasharray="5,2" d="M170.38,-564.8C170.38,-560.48 170.38,-527.76 170.38,-523.69"/>
</g>
<!-- api_2&#45;&gt;api_2 -->
<g id="edge81" class="edge">
<title>api_2&#45;&gt;api_2</title>
<path fill="none" stroke="#7a6baa" d="M253.85,-566.2C263.8,-576.42 282.81,-576.26 282.81,-565.71 282.81,-558.04 272.78,-555.86 263.47,-559.16"/>
<polygon fill="#7a6baa" stroke="#7a6baa" points="261.73,-556.12 255.13,-564.41 265.46,-562.05 261.73,-556.12"/>
<text xml:space="preserve" text-anchor="middle" x="217.41" y="-583.98" font-family="Arial" font-size="14.00" fill="#4a3c78">2) تحقّق الصلاحية + توليد</text>
<text xml:space="preserve" text-anchor="middle" x="217.41" y="-568.23" font-family="Arial" font-size="14.00" fill="#4a3c78">رقم المريض ورمز الدعوة</text>
</g>
<!-- api_3 -->
<g id="node17" class="node">
<title>api_3</title>
<ellipse fill="#b9c4cc" stroke="#b9c4cc" cx="253.38" cy="-522.84" rx="0.43" ry="0.43"/>
</g>
<!-- api_2&#45;&gt;api_3 -->
<g id="edge22" class="edge">
<title>api_2&#45;&gt;api_3</title>
<path fill="none" stroke="#c4cdd5" stroke-dasharray="5,2" d="M253.38,-564.8C253.38,-560.48 253.38,-527.76 253.38,-523.69"/>
</g>
<!-- repo_3 -->
<g id="node18" class="node">
<title>repo_3</title>
<ellipse fill="#b9c4cc" stroke="#b9c4cc" cx="344.38" cy="-522.84" rx="0.43" ry="0.43"/>
</g>
<!-- repo_2&#45;&gt;repo_3 -->
<g id="edge37" class="edge">
<title>repo_2&#45;&gt;repo_3</title>
<path fill="none" stroke="#c4cdd5" stroke-dasharray="5,2" d="M344.38,-564.8C344.38,-560.48 344.38,-527.76 344.38,-523.69"/>
</g>
<!-- pat_3 -->
<g id="node19" class="node">
<title>pat_3</title>
<ellipse fill="#b9c4cc" stroke="#b9c4cc" cx="435.38" cy="-522.84" rx="0.43" ry="0.43"/>
</g>
<!-- pat_2&#45;&gt;pat_3 -->
<g id="edge52" class="edge">
<title>pat_2&#45;&gt;pat_3</title>
<path fill="none" stroke="#c4cdd5" stroke-dasharray="5,2" d="M435.38,-564.8C435.38,-560.48 435.38,-527.76 435.38,-523.69"/>
</g>
<!-- kc_3 -->
<g id="node20" class="node">
<title>kc_3</title>
<ellipse fill="#b9c4cc" stroke="#b9c4cc" cx="518.38" cy="-522.84" rx="0.43" ry="0.43"/>
</g>
<!-- kc_2&#45;&gt;kc_3 -->
<g id="edge67" class="edge">
<title>kc_2&#45;&gt;kc_3</title>
<path fill="none" stroke="#c4cdd5" stroke-dasharray="5,2" d="M518.38,-564.8C518.38,-560.48 518.38,-527.76 518.38,-523.69"/>
</g>
<!-- staff_4 -->
<g id="node21" class="node">
<title>staff_4</title>
<ellipse fill="#b9c4cc" stroke="#b9c4cc" cx="170.38" cy="-479.98" rx="0.43" ry="0.43"/>
</g>
<!-- staff_3&#45;&gt;staff_4 -->
<g id="edge8" class="edge">
<title>staff_3&#45;&gt;staff_4</title>
<path fill="none" stroke="#c4cdd5" stroke-dasharray="5,2" d="M170.38,-521.94C170.38,-517.61 170.38,-484.9 170.38,-480.83"/>
</g>
<!-- api_3&#45;&gt;repo_3 -->
<g id="edge82" class="edge">
<title>api_3&#45;&gt;repo_3</title>
<path fill="none" stroke="#1f6fb2" stroke-width="1.9" d="M254.09,-522.84C279.75,-522.84 305.42,-522.84 331.08,-522.84"/>
<polygon fill="#1f6fb2" stroke="#1f6fb2" stroke-width="1.9" points="330.8,-526.34 340.8,-522.84 330.8,-519.34 330.8,-526.34"/>
<text xml:space="preserve" text-anchor="middle" x="231.08" y="-541.04" font-family="Arial" font-size="14.00" fill="#0f3e66">3) إنشاء Patient</text>
<text xml:space="preserve" text-anchor="middle" x="231.08" y="-525.29" font-family="Arial" font-size="14.00" fill="#0f3e66">+ Identifier(رمز الدعوة)</text>
</g>
<!-- api_4 -->
<g id="node22" class="node">
<title>api_4</title>
<ellipse fill="#b9c4cc" stroke="#b9c4cc" cx="253.38" cy="-479.98" rx="0.43" ry="0.43"/>
</g>
<!-- api_3&#45;&gt;api_4 -->
<g id="edge23" class="edge">
<title>api_3&#45;&gt;api_4</title>
<path fill="none" stroke="#c4cdd5" stroke-dasharray="5,2" d="M253.38,-521.94C253.38,-517.61 253.38,-484.9 253.38,-480.83"/>
</g>
<!-- repo_4 -->
<g id="node23" class="node">
<title>repo_4</title>
<ellipse fill="#b9c4cc" stroke="#b9c4cc" cx="344.38" cy="-479.98" rx="0.43" ry="0.43"/>
</g>
<!-- repo_3&#45;&gt;repo_4 -->
<g id="edge38" class="edge">
<title>repo_3&#45;&gt;repo_4</title>
<path fill="none" stroke="#c4cdd5" stroke-dasharray="5,2" d="M344.38,-521.94C344.38,-517.61 344.38,-484.9 344.38,-480.83"/>
</g>
<!-- pat_4 -->
<g id="node24" class="node">
<title>pat_4</title>
<ellipse fill="#b9c4cc" stroke="#b9c4cc" cx="435.38" cy="-479.98" rx="0.43" ry="0.43"/>
</g>
<!-- pat_3&#45;&gt;pat_4 -->
<g id="edge53" class="edge">
<title>pat_3&#45;&gt;pat_4</title>
<path fill="none" stroke="#c4cdd5" stroke-dasharray="5,2" d="M435.38,-521.94C435.38,-517.61 435.38,-484.9 435.38,-480.83"/>
</g>
<!-- kc_4 -->
<g id="node25" class="node">
<title>kc_4</title>
<ellipse fill="#b9c4cc" stroke="#b9c4cc" cx="518.38" cy="-479.98" rx="0.43" ry="0.43"/>
</g>
<!-- kc_3&#45;&gt;kc_4 -->
<g id="edge68" class="edge">
<title>kc_3&#45;&gt;kc_4</title>
<path fill="none" stroke="#c4cdd5" stroke-dasharray="5,2" d="M518.38,-521.94C518.38,-517.61 518.38,-484.9 518.38,-480.83"/>
</g>
<!-- staff_5 -->
<g id="node26" class="node">
<title>staff_5</title>
<ellipse fill="#b9c4cc" stroke="#b9c4cc" cx="170.38" cy="-437.12" rx="0.43" ry="0.43"/>
</g>
<!-- staff_4&#45;&gt;staff_5 -->
<g id="edge9" class="edge">
<title>staff_4&#45;&gt;staff_5</title>
<path fill="none" stroke="#c4cdd5" stroke-dasharray="5,2" d="M170.38,-479.08C170.38,-474.75 170.38,-442.04 170.38,-437.96"/>
</g>
<!-- api_5 -->
<g id="node27" class="node">
<title>api_5</title>
<ellipse fill="#b9c4cc" stroke="#b9c4cc" cx="253.38" cy="-437.12" rx="0.43" ry="0.43"/>
</g>
<!-- api_4&#45;&gt;api_5 -->
<g id="edge24" class="edge">
<title>api_4&#45;&gt;api_5</title>
<path fill="none" stroke="#c4cdd5" stroke-dasharray="5,2" d="M253.38,-479.08C253.38,-474.75 253.38,-442.04 253.38,-437.96"/>
</g>
<!-- repo_4&#45;&gt;api_4 -->
<g id="edge83" class="edge">
<title>repo_4&#45;&gt;api_4</title>
<path fill="none" stroke="#7c8996" stroke-width="1.4" stroke-dasharray="5,2" d="M343.68,-479.98C317.66,-479.98 291.65,-479.98 265.64,-479.98"/>
<polygon fill="#7c8996" stroke="#7c8996" stroke-width="1.4" points="255.8,-479.98 265.8,-475.48 259.09,-479.78 265.8,-479.78 265.8,-479.98 265.8,-480.18 259.09,-480.18 265.8,-484.48 255.8,-479.98"/>
<text xml:space="preserve" text-anchor="middle" x="270.91" y="-482.43" font-family="Arial" font-size="14.00" fill="#3d4750">4) patientId</text>
</g>
<!-- repo_5 -->
<g id="node28" class="node">
<title>repo_5</title>
<ellipse fill="#b9c4cc" stroke="#b9c4cc" cx="344.38" cy="-437.12" rx="0.43" ry="0.43"/>
</g>
<!-- repo_4&#45;&gt;repo_5 -->
<g id="edge39" class="edge">
<title>repo_4&#45;&gt;repo_5</title>
<path fill="none" stroke="#c4cdd5" stroke-dasharray="5,2" d="M344.38,-479.08C344.38,-474.75 344.38,-442.04 344.38,-437.96"/>
</g>
<!-- pat_5 -->
<g id="node29" class="node">
<title>pat_5</title>
<ellipse fill="#b9c4cc" stroke="#b9c4cc" cx="435.38" cy="-437.12" rx="0.43" ry="0.43"/>
</g>
<!-- pat_4&#45;&gt;pat_5 -->
<g id="edge54" class="edge">
<title>pat_4&#45;&gt;pat_5</title>
<path fill="none" stroke="#c4cdd5" stroke-dasharray="5,2" d="M435.38,-479.08C435.38,-474.75 435.38,-442.04 435.38,-437.96"/>
</g>
<!-- kc_5 -->
<g id="node30" class="node">
<title>kc_5</title>
<ellipse fill="#b9c4cc" stroke="#b9c4cc" cx="518.38" cy="-437.12" rx="0.43" ry="0.43"/>
</g>
<!-- kc_4&#45;&gt;kc_5 -->
<g id="edge69" class="edge">
<title>kc_4&#45;&gt;kc_5</title>
<path fill="none" stroke="#c4cdd5" stroke-dasharray="5,2" d="M518.38,-479.08C518.38,-474.75 518.38,-442.04 518.38,-437.96"/>
</g>
<!-- staff_6 -->
<g id="node31" class="node">
<title>staff_6</title>
<ellipse fill="#b9c4cc" stroke="#b9c4cc" cx="170.38" cy="-394.25" rx="0.43" ry="0.43"/>
</g>
<!-- staff_5&#45;&gt;staff_6 -->
<g id="edge10" class="edge">
<title>staff_5&#45;&gt;staff_6</title>
<path fill="none" stroke="#c4cdd5" stroke-dasharray="5,2" d="M170.38,-436.21C170.38,-431.89 170.38,-399.17 170.38,-395.1"/>
</g>
<!-- api_5&#45;&gt;staff_5 -->
<g id="edge84" class="edge">
<title>api_5&#45;&gt;staff_5</title>
<path fill="none" stroke="#7c8996" stroke-width="1.4" stroke-dasharray="5,2" d="M252.74,-437.12C229.33,-437.12 205.93,-437.12 182.52,-437.12"/>
<polygon fill="#7c8996" stroke="#7c8996" stroke-width="1.4" points="172.74,-437.12 182.74,-432.62 176.03,-436.92 182.74,-436.92 182.74,-437.12 182.74,-437.32 176.03,-437.32 182.74,-441.62 172.74,-437.12"/>
<text xml:space="preserve" text-anchor="middle" x="135.5" y="-455.32" font-family="Arial" font-size="14.00" fill="#3d4750">5) 200 { inviteCode,</text>
<text xml:space="preserve" text-anchor="middle" x="135.5" y="-439.57" font-family="Arial" font-size="14.00" fill="#3d4750">claimLink, registrationLink }</text>
</g>
<!-- api_6 -->
<g id="node32" class="node">
<title>api_6</title>
<ellipse fill="#b9c4cc" stroke="#b9c4cc" cx="253.38" cy="-394.25" rx="0.43" ry="0.43"/>
</g>
<!-- api_5&#45;&gt;api_6 -->
<g id="edge25" class="edge">
<title>api_5&#45;&gt;api_6</title>
<path fill="none" stroke="#c4cdd5" stroke-dasharray="5,2" d="M253.38,-436.21C253.38,-431.89 253.38,-399.17 253.38,-395.1"/>
</g>
<!-- repo_6 -->
<g id="node33" class="node">
<title>repo_6</title>
<ellipse fill="#b9c4cc" stroke="#b9c4cc" cx="344.38" cy="-394.25" rx="0.43" ry="0.43"/>
</g>
<!-- repo_5&#45;&gt;repo_6 -->
<g id="edge40" class="edge">
<title>repo_5&#45;&gt;repo_6</title>
<path fill="none" stroke="#c4cdd5" stroke-dasharray="5,2" d="M344.38,-436.21C344.38,-431.89 344.38,-399.17 344.38,-395.1"/>
</g>
<!-- pat_6 -->
<g id="node34" class="node">
<title>pat_6</title>
<ellipse fill="#b9c4cc" stroke="#b9c4cc" cx="435.38" cy="-394.25" rx="0.43" ry="0.43"/>
</g>
<!-- pat_5&#45;&gt;pat_6 -->
<g id="edge55" class="edge">
<title>pat_5&#45;&gt;pat_6</title>
<path fill="none" stroke="#c4cdd5" stroke-dasharray="5,2" d="M435.38,-436.21C435.38,-431.89 435.38,-399.17 435.38,-395.1"/>
</g>
<!-- kc_6 -->
<g id="node35" class="node">
<title>kc_6</title>
<ellipse fill="#b9c4cc" stroke="#b9c4cc" cx="518.38" cy="-394.25" rx="0.43" ry="0.43"/>
</g>
<!-- kc_5&#45;&gt;kc_6 -->
<g id="edge70" class="edge">
<title>kc_5&#45;&gt;kc_6</title>
<path fill="none" stroke="#c4cdd5" stroke-dasharray="5,2" d="M518.38,-436.21C518.38,-431.89 518.38,-399.17 518.38,-395.1"/>
</g>
<!-- staff_6&#45;&gt;pat_6 -->
<g id="edge85" class="edge">
<title>staff_6&#45;&gt;pat_6</title>
<path fill="none" stroke="#7c8996" stroke-width="1.4" stroke-dasharray="5,2" d="M171.16,-394.25C255.11,-394.25 339.07,-394.25 423.03,-394.25"/>
<polygon fill="#7c8996" stroke="#7c8996" stroke-width="1.4" points="432.9,-394.25 422.9,-398.75 429.61,-394.45 422.9,-394.45 422.9,-394.25 422.9,-394.05 429.61,-394.05 422.9,-389.75 432.9,-394.25"/>
<text xml:space="preserve" text-anchor="middle" x="240.47" y="-412.45" font-family="Arial" font-size="14.00" fill="#3d4750">6) مشاركة رابط التسجيل</text>
<text xml:space="preserve" text-anchor="middle" x="240.47" y="-396.7" font-family="Arial" font-size="14.00" fill="#3d4750">(خارج النظام)</text>
</g>
<!-- staff_7 -->
<g id="node36" class="node">
<title>staff_7</title>
<ellipse fill="#b9c4cc" stroke="#b9c4cc" cx="170.38" cy="-351.39" rx="0.43" ry="0.43"/>
</g>
<!-- staff_6&#45;&gt;staff_7 -->
<g id="edge11" class="edge">
<title>staff_6&#45;&gt;staff_7</title>
<path fill="none" stroke="#c4cdd5" stroke-dasharray="5,2" d="M170.38,-393.35C170.38,-389.02 170.38,-356.31 170.38,-352.24"/>
</g>
<!-- api_7 -->
<g id="node37" class="node">
<title>api_7</title>
<ellipse fill="#b9c4cc" stroke="#b9c4cc" cx="253.38" cy="-351.39" rx="0.43" ry="0.43"/>
</g>
<!-- api_6&#45;&gt;api_7 -->
<g id="edge26" class="edge">
<title>api_6&#45;&gt;api_7</title>
<path fill="none" stroke="#c4cdd5" stroke-dasharray="5,2" d="M253.38,-393.35C253.38,-389.02 253.38,-356.31 253.38,-352.24"/>
</g>
<!-- repo_7 -->
<g id="node38" class="node">
<title>repo_7</title>
<ellipse fill="#b9c4cc" stroke="#b9c4cc" cx="344.38" cy="-351.39" rx="0.43" ry="0.43"/>
</g>
<!-- repo_6&#45;&gt;repo_7 -->
<g id="edge41" class="edge">
<title>repo_6&#45;&gt;repo_7</title>
<path fill="none" stroke="#c4cdd5" stroke-dasharray="5,2" d="M344.38,-393.35C344.38,-389.02 344.38,-356.31 344.38,-352.24"/>
</g>
<!-- pat_7 -->
<g id="node39" class="node">
<title>pat_7</title>
<ellipse fill="#b9c4cc" stroke="#b9c4cc" cx="435.38" cy="-351.39" rx="0.43" ry="0.43"/>
</g>
<!-- pat_6&#45;&gt;pat_7 -->
<g id="edge56" class="edge">
<title>pat_6&#45;&gt;pat_7</title>
<path fill="none" stroke="#c4cdd5" stroke-dasharray="5,2" d="M435.38,-393.35C435.38,-389.02 435.38,-356.31 435.38,-352.24"/>
</g>
<!-- kc_7 -->
<g id="node40" class="node">
<title>kc_7</title>
<ellipse fill="#b9c4cc" stroke="#b9c4cc" cx="518.38" cy="-351.39" rx="0.43" ry="0.43"/>
</g>
<!-- kc_6&#45;&gt;kc_7 -->
<g id="edge71" class="edge">
<title>kc_6&#45;&gt;kc_7</title>
<path fill="none" stroke="#c4cdd5" stroke-dasharray="5,2" d="M518.38,-393.35C518.38,-389.02 518.38,-356.31 518.38,-352.24"/>
</g>
<!-- staff_8 -->
<g id="node41" class="node">
<title>staff_8</title>
<ellipse fill="#b9c4cc" stroke="#b9c4cc" cx="170.38" cy="-308.52" rx="0.43" ry="0.43"/>
</g>
<!-- staff_7&#45;&gt;staff_8 -->
<g id="edge12" class="edge">
<title>staff_7&#45;&gt;staff_8</title>
<path fill="none" stroke="#c4cdd5" stroke-dasharray="5,2" d="M170.38,-350.48C170.38,-346.16 170.38,-313.44 170.38,-309.37"/>
</g>
<!-- api_8 -->
<g id="node42" class="node">
<title>api_8</title>
<ellipse fill="#b9c4cc" stroke="#b9c4cc" cx="253.38" cy="-308.52" rx="0.43" ry="0.43"/>
</g>
<!-- api_7&#45;&gt;api_8 -->
<g id="edge27" class="edge">
<title>api_7&#45;&gt;api_8</title>
<path fill="none" stroke="#c4cdd5" stroke-dasharray="5,2" d="M253.38,-350.48C253.38,-346.16 253.38,-313.44 253.38,-309.37"/>
</g>
<!-- repo_8 -->
<g id="node43" class="node">
<title>repo_8</title>
<ellipse fill="#b9c4cc" stroke="#b9c4cc" cx="344.38" cy="-308.52" rx="0.43" ry="0.43"/>
</g>
<!-- repo_7&#45;&gt;repo_8 -->
<g id="edge42" class="edge">
<title>repo_7&#45;&gt;repo_8</title>
<path fill="none" stroke="#c4cdd5" stroke-dasharray="5,2" d="M344.38,-350.48C344.38,-346.16 344.38,-313.44 344.38,-309.37"/>
</g>
<!-- pat_7&#45;&gt;kc_7 -->
<g id="edge86" class="edge">
<title>pat_7&#45;&gt;kc_7</title>
<path fill="none" stroke="#1f6fb2" stroke-width="1.9" d="M436.03,-351.39C459.01,-351.39 481.99,-351.39 504.97,-351.39"/>
<polygon fill="#1f6fb2" stroke="#1f6fb2" stroke-width="1.9" points="504.86,-354.89 514.86,-351.39 504.86,-347.89 504.86,-354.89"/>
<text xml:space="preserve" text-anchor="middle" x="407.5" y="-369.59" font-family="Arial" font-size="14.00" fill="#0f3e66">7) فتح registrationLink</text>
<text xml:space="preserve" text-anchor="middle" x="407.5" y="-353.84" font-family="Arial" font-size="14.00" fill="#0f3e66">تسجيل / دخول</text>
</g>
<!-- pat_8 -->
<g id="node44" class="node">
<title>pat_8</title>
<ellipse fill="#b9c4cc" stroke="#b9c4cc" cx="435.38" cy="-308.52" rx="0.43" ry="0.43"/>
</g>
<!-- pat_7&#45;&gt;pat_8 -->
<g id="edge57" class="edge">
<title>pat_7&#45;&gt;pat_8</title>
<path fill="none" stroke="#c4cdd5" stroke-dasharray="5,2" d="M435.38,-350.48C435.38,-346.16 435.38,-313.44 435.38,-309.37"/>
</g>
<!-- kc_8 -->
<g id="node45" class="node">
<title>kc_8</title>
<ellipse fill="#b9c4cc" stroke="#b9c4cc" cx="518.38" cy="-308.52" rx="0.43" ry="0.43"/>
</g>
<!-- kc_7&#45;&gt;kc_8 -->
<g id="edge72" class="edge">
<title>kc_7&#45;&gt;kc_8</title>
<path fill="none" stroke="#c4cdd5" stroke-dasharray="5,2" d="M518.38,-350.48C518.38,-346.16 518.38,-313.44 518.38,-309.37"/>
</g>
<!-- staff_9 -->
<g id="node46" class="node">
<title>staff_9</title>
<ellipse fill="#b9c4cc" stroke="#b9c4cc" cx="170.38" cy="-265.66" rx="0.43" ry="0.43"/>
</g>
<!-- staff_8&#45;&gt;staff_9 -->
<g id="edge13" class="edge">
<title>staff_8&#45;&gt;staff_9</title>
<path fill="none" stroke="#c4cdd5" stroke-dasharray="5,2" d="M170.38,-307.62C170.38,-303.29 170.38,-270.58 170.38,-266.51"/>
</g>
<!-- api_9 -->
<g id="node47" class="node">
<title>api_9</title>
<ellipse fill="#b9c4cc" stroke="#b9c4cc" cx="253.38" cy="-265.66" rx="0.43" ry="0.43"/>
</g>
<!-- api_8&#45;&gt;api_9 -->
<g id="edge28" class="edge">
<title>api_8&#45;&gt;api_9</title>
<path fill="none" stroke="#c4cdd5" stroke-dasharray="5,2" d="M253.38,-307.62C253.38,-303.29 253.38,-270.58 253.38,-266.51"/>
</g>
<!-- repo_9 -->
<g id="node48" class="node">
<title>repo_9</title>
<ellipse fill="#b9c4cc" stroke="#b9c4cc" cx="344.38" cy="-265.66" rx="0.43" ry="0.43"/>
</g>
<!-- repo_8&#45;&gt;repo_9 -->
<g id="edge43" class="edge">
<title>repo_8&#45;&gt;repo_9</title>
<path fill="none" stroke="#c4cdd5" stroke-dasharray="5,2" d="M344.38,-307.62C344.38,-303.29 344.38,-270.58 344.38,-266.51"/>
</g>
<!-- pat_9 -->
<g id="node49" class="node">
<title>pat_9</title>
<ellipse fill="#b9c4cc" stroke="#b9c4cc" cx="435.38" cy="-265.66" rx="0.43" ry="0.43"/>
</g>
<!-- pat_8&#45;&gt;pat_9 -->
<g id="edge58" class="edge">
<title>pat_8&#45;&gt;pat_9</title>
<path fill="none" stroke="#c4cdd5" stroke-dasharray="5,2" d="M435.38,-307.62C435.38,-303.29 435.38,-270.58 435.38,-266.51"/>
</g>
<!-- kc_8&#45;&gt;pat_8 -->
<g id="edge87" class="edge">
<title>kc_8&#45;&gt;pat_8</title>
<path fill="none" stroke="#7c8996" stroke-width="1.4" stroke-dasharray="5,2" d="M517.74,-308.52C494.33,-308.52 470.93,-308.52 447.52,-308.52"/>
<polygon fill="#7c8996" stroke="#7c8996" stroke-width="1.4" points="437.74,-308.52 447.74,-304.02 441.03,-308.32 447.74,-308.32 447.74,-308.52 447.74,-308.72 441.03,-308.72 447.74,-313.02 437.74,-308.52"/>
<text xml:space="preserve" text-anchor="middle" x="376.13" y="-326.72" font-family="Arial" font-size="14.00" fill="#3d4750">8) إعادة توجيه إلى</text>
<text xml:space="preserve" text-anchor="middle" x="376.13" y="-310.97" font-family="Arial" font-size="14.00" fill="#3d4750">/patients/claim?code=…&amp;auto=true</text>
</g>
<!-- kc_9 -->
<g id="node50" class="node">
<title>kc_9</title>
<ellipse fill="#b9c4cc" stroke="#b9c4cc" cx="518.38" cy="-265.66" rx="0.43" ry="0.43"/>
</g>
<!-- kc_8&#45;&gt;kc_9 -->
<g id="edge73" class="edge">
<title>kc_8&#45;&gt;kc_9</title>
<path fill="none" stroke="#c4cdd5" stroke-dasharray="5,2" d="M518.38,-307.62C518.38,-303.29 518.38,-270.58 518.38,-266.51"/>
</g>
<!-- staff_10 -->
<g id="node51" class="node">
<title>staff_10</title>
<ellipse fill="#b9c4cc" stroke="#b9c4cc" cx="170.38" cy="-222.8" rx="0.43" ry="0.43"/>
</g>
<!-- staff_9&#45;&gt;staff_10 -->
<g id="edge14" class="edge">
<title>staff_9&#45;&gt;staff_10</title>
<path fill="none" stroke="#c4cdd5" stroke-dasharray="5,2" d="M170.38,-264.76C170.38,-260.43 170.38,-227.72 170.38,-223.64"/>
</g>
<!-- api_10 -->
<g id="node52" class="node">
<title>api_10</title>
<ellipse fill="#b9c4cc" stroke="#b9c4cc" cx="253.38" cy="-222.8" rx="0.43" ry="0.43"/>
</g>
<!-- api_9&#45;&gt;api_10 -->
<g id="edge29" class="edge">
<title>api_9&#45;&gt;api_10</title>
<path fill="none" stroke="#c4cdd5" stroke-dasharray="5,2" d="M253.38,-264.76C253.38,-260.43 253.38,-227.72 253.38,-223.64"/>
</g>
<!-- repo_10 -->
<g id="node53" class="node">
<title>repo_10</title>
<ellipse fill="#b9c4cc" stroke="#b9c4cc" cx="344.38" cy="-222.8" rx="0.43" ry="0.43"/>
</g>
<!-- repo_9&#45;&gt;repo_10 -->
<g id="edge44" class="edge">
<title>repo_9&#45;&gt;repo_10</title>
<path fill="none" stroke="#c4cdd5" stroke-dasharray="5,2" d="M344.38,-264.76C344.38,-260.43 344.38,-227.72 344.38,-223.64"/>
</g>
<!-- pat_9&#45;&gt;api_9 -->
<g id="edge88" class="edge">
<title>pat_9&#45;&gt;api_9</title>
<path fill="none" stroke="#1f6fb2" stroke-width="1.9" d="M434.67,-265.66C378.71,-265.66 322.75,-265.66 266.79,-265.66"/>
<polygon fill="#1f6fb2" stroke="#1f6fb2" stroke-width="1.9" points="266.97,-262.16 256.97,-265.66 266.97,-269.16 266.97,-262.16"/>
<text xml:space="preserve" text-anchor="middle" x="260.73" y="-283.86" font-family="Arial" font-size="14.00" fill="#0f3e66">9) POST claim&#45;invite</text>
<text xml:space="preserve" text-anchor="middle" x="260.73" y="-268.11" font-family="Arial" font-size="14.00" fill="#0f3e66">{ inviteCode, keycloakUserId }</text>
</g>
<!-- pat_10 -->
<g id="node54" class="node">
<title>pat_10</title>
<ellipse fill="#b9c4cc" stroke="#b9c4cc" cx="435.38" cy="-222.8" rx="0.43" ry="0.43"/>
</g>
<!-- pat_9&#45;&gt;pat_10 -->
<g id="edge59" class="edge">
<title>pat_9&#45;&gt;pat_10</title>
<path fill="none" stroke="#c4cdd5" stroke-dasharray="5,2" d="M435.38,-264.76C435.38,-260.43 435.38,-227.72 435.38,-223.64"/>
</g>
<!-- kc_10 -->
<g id="node55" class="node">
<title>kc_10</title>
<ellipse fill="#b9c4cc" stroke="#b9c4cc" cx="518.38" cy="-222.8" rx="0.43" ry="0.43"/>
</g>
<!-- kc_9&#45;&gt;kc_10 -->
<g id="edge74" class="edge">
<title>kc_9&#45;&gt;kc_10</title>
<path fill="none" stroke="#c4cdd5" stroke-dasharray="5,2" d="M518.38,-264.76C518.38,-260.43 518.38,-227.72 518.38,-223.64"/>
</g>
<!-- staff_11 -->
<g id="node56" class="node">
<title>staff_11</title>
<ellipse fill="#b9c4cc" stroke="#b9c4cc" cx="170.38" cy="-179.93" rx="0.43" ry="0.43"/>
</g>
<!-- staff_10&#45;&gt;staff_11 -->
<g id="edge15" class="edge">
<title>staff_10&#45;&gt;staff_11</title>
<path fill="none" stroke="#c4cdd5" stroke-dasharray="5,2" d="M170.38,-221.89C170.38,-217.57 170.38,-184.85 170.38,-180.78"/>
</g>
<!-- api_10&#45;&gt;repo_10 -->
<g id="edge89" class="edge">
<title>api_10&#45;&gt;repo_10</title>
<path fill="none" stroke="#1f6fb2" stroke-width="1.9" d="M254.09,-222.8C279.75,-222.8 305.42,-222.8 331.08,-222.8"/>
<polygon fill="#1f6fb2" stroke="#1f6fb2" stroke-width="1.9" points="330.8,-226.3 340.8,-222.8 330.8,-219.3 330.8,-226.3"/>
<text xml:space="preserve" text-anchor="middle" x="234.83" y="-241" font-family="Arial" font-size="14.00" fill="#0f3e66">10) بحث بالرمز + تحقّق</text>
<text xml:space="preserve" text-anchor="middle" x="234.83" y="-225.25" font-family="Arial" font-size="14.00" fill="#0f3e66">عدم الارتباط بحساب آخر</text>
</g>
<!-- api_11 -->
<g id="node57" class="node">
<title>api_11</title>
<ellipse fill="#b9c4cc" stroke="#b9c4cc" cx="253.38" cy="-179.93" rx="0.43" ry="0.43"/>
</g>
<!-- api_10&#45;&gt;api_11 -->
<g id="edge30" class="edge">
<title>api_10&#45;&gt;api_11</title>
<path fill="none" stroke="#c4cdd5" stroke-dasharray="5,2" d="M253.38,-221.89C253.38,-217.57 253.38,-184.85 253.38,-180.78"/>
</g>
<!-- repo_11 -->
<g id="node58" class="node">
<title>repo_11</title>
<ellipse fill="#b9c4cc" stroke="#b9c4cc" cx="344.38" cy="-179.93" rx="0.43" ry="0.43"/>
</g>
<!-- repo_10&#45;&gt;repo_11 -->
<g id="edge45" class="edge">
<title>repo_10&#45;&gt;repo_11</title>
<path fill="none" stroke="#c4cdd5" stroke-dasharray="5,2" d="M344.38,-221.89C344.38,-217.57 344.38,-184.85 344.38,-180.78"/>
</g>
<!-- pat_11 -->
<g id="node59" class="node">
<title>pat_11</title>
<ellipse fill="#b9c4cc" stroke="#b9c4cc" cx="435.38" cy="-179.93" rx="0.43" ry="0.43"/>
</g>
<!-- pat_10&#45;&gt;pat_11 -->
<g id="edge60" class="edge">
<title>pat_10&#45;&gt;pat_11</title>
<path fill="none" stroke="#c4cdd5" stroke-dasharray="5,2" d="M435.38,-221.89C435.38,-217.57 435.38,-184.85 435.38,-180.78"/>
</g>
<!-- kc_11 -->
<g id="node60" class="node">
<title>kc_11</title>
<ellipse fill="#b9c4cc" stroke="#b9c4cc" cx="518.38" cy="-179.93" rx="0.43" ry="0.43"/>
</g>
<!-- kc_10&#45;&gt;kc_11 -->
<g id="edge75" class="edge">
<title>kc_10&#45;&gt;kc_11</title>
<path fill="none" stroke="#c4cdd5" stroke-dasharray="5,2" d="M518.38,-221.89C518.38,-217.57 518.38,-184.85 518.38,-180.78"/>
</g>
<!-- staff_12 -->
<g id="node61" class="node">
<title>staff_12</title>
<ellipse fill="#b9c4cc" stroke="#b9c4cc" cx="170.38" cy="-137.07" rx="0.43" ry="0.43"/>
</g>
<!-- staff_11&#45;&gt;staff_12 -->
<g id="edge16" class="edge">
<title>staff_11&#45;&gt;staff_12</title>
<path fill="none" stroke="#c4cdd5" stroke-dasharray="5,2" d="M170.38,-179.03C170.38,-174.7 170.38,-141.99 170.38,-137.92"/>
</g>
<!-- api_12 -->
<g id="node62" class="node">
<title>api_12</title>
<ellipse fill="#b9c4cc" stroke="#b9c4cc" cx="253.38" cy="-137.07" rx="0.43" ry="0.43"/>
</g>
<!-- api_11&#45;&gt;api_12 -->
<g id="edge31" class="edge">
<title>api_11&#45;&gt;api_12</title>
<path fill="none" stroke="#c4cdd5" stroke-dasharray="5,2" d="M253.38,-179.03C253.38,-174.7 253.38,-141.99 253.38,-137.92"/>
</g>
<!-- repo_11&#45;&gt;api_11 -->
<g id="edge90" class="edge">
<title>repo_11&#45;&gt;api_11</title>
<path fill="none" stroke="#7c8996" stroke-width="1.4" stroke-dasharray="5,2" d="M343.68,-179.93C317.66,-179.93 291.65,-179.93 265.64,-179.93"/>
<polygon fill="#7c8996" stroke="#7c8996" stroke-width="1.4" points="255.8,-179.93 265.8,-175.43 259.09,-179.73 265.8,-179.73 265.8,-179.93 265.8,-180.13 259.09,-180.13 265.8,-184.43 255.8,-179.93"/>
<text xml:space="preserve" text-anchor="middle" x="239.78" y="-182.38" font-family="Arial" font-size="14.00" fill="#3d4750">11) مورد Patient المطابق</text>
</g>
<!-- repo_12 -->
<g id="node63" class="node">
<title>repo_12</title>
<ellipse fill="#b9c4cc" stroke="#b9c4cc" cx="344.38" cy="-137.07" rx="0.43" ry="0.43"/>
</g>
<!-- repo_11&#45;&gt;repo_12 -->
<g id="edge46" class="edge">
<title>repo_11&#45;&gt;repo_12</title>
<path fill="none" stroke="#c4cdd5" stroke-dasharray="5,2" d="M344.38,-179.03C344.38,-174.7 344.38,-141.99 344.38,-137.92"/>
</g>
<!-- pat_12 -->
<g id="node64" class="node">
<title>pat_12</title>
<ellipse fill="#b9c4cc" stroke="#b9c4cc" cx="435.38" cy="-137.07" rx="0.43" ry="0.43"/>
</g>
<!-- pat_11&#45;&gt;pat_12 -->
<g id="edge61" class="edge">
<title>pat_11&#45;&gt;pat_12</title>
<path fill="none" stroke="#c4cdd5" stroke-dasharray="5,2" d="M435.38,-179.03C435.38,-174.7 435.38,-141.99 435.38,-137.92"/>
</g>
<!-- kc_12 -->
<g id="node65" class="node">
<title>kc_12</title>
<ellipse fill="#b9c4cc" stroke="#b9c4cc" cx="518.38" cy="-137.07" rx="0.43" ry="0.43"/>
</g>
<!-- kc_11&#45;&gt;kc_12 -->
<g id="edge76" class="edge">
<title>kc_11&#45;&gt;kc_12</title>
<path fill="none" stroke="#c4cdd5" stroke-dasharray="5,2" d="M518.38,-179.03C518.38,-174.7 518.38,-141.99 518.38,-137.92"/>
</g>
<!-- staff_13 -->
<g id="node66" class="node">
<title>staff_13</title>
<ellipse fill="#b9c4cc" stroke="#b9c4cc" cx="170.38" cy="-94.2" rx="0.43" ry="0.43"/>
</g>
<!-- staff_12&#45;&gt;staff_13 -->
<g id="edge17" class="edge">
<title>staff_12&#45;&gt;staff_13</title>
<path fill="none" stroke="#c4cdd5" stroke-dasharray="5,2" d="M170.38,-136.16C170.38,-131.84 170.38,-99.12 170.38,-95.05"/>
</g>
<!-- api_12&#45;&gt;kc_12 -->
<g id="edge91" class="edge">
<title>api_12&#45;&gt;kc_12</title>
<path fill="none" stroke="#1f6fb2" stroke-width="1.9" d="M254.16,-137.07C337.69,-137.07 421.21,-137.07 504.74,-137.07"/>
<polygon fill="#1f6fb2" stroke="#1f6fb2" stroke-width="1.9" points="504.73,-140.57 514.73,-137.07 504.73,-133.57 504.73,-140.57"/>
<text xml:space="preserve" text-anchor="middle" x="259.45" y="-139.52" font-family="Arial" font-size="14.00" fill="#0f3e66">12) AssignRealmRole(ROLE_PATIENT)</text>
</g>
<!-- api_13 -->
<g id="node67" class="node">
<title>api_13</title>
<ellipse fill="#b9c4cc" stroke="#b9c4cc" cx="253.38" cy="-94.2" rx="0.43" ry="0.43"/>
</g>
<!-- api_12&#45;&gt;api_13 -->
<g id="edge32" class="edge">
<title>api_12&#45;&gt;api_13</title>
<path fill="none" stroke="#c4cdd5" stroke-dasharray="5,2" d="M253.38,-136.16C253.38,-131.84 253.38,-99.12 253.38,-95.05"/>
</g>
<!-- repo_13 -->
<g id="node68" class="node">
<title>repo_13</title>
<ellipse fill="#b9c4cc" stroke="#b9c4cc" cx="344.38" cy="-94.2" rx="0.43" ry="0.43"/>
</g>
<!-- repo_12&#45;&gt;repo_13 -->
<g id="edge47" class="edge">
<title>repo_12&#45;&gt;repo_13</title>
<path fill="none" stroke="#c4cdd5" stroke-dasharray="5,2" d="M344.38,-136.16C344.38,-131.84 344.38,-99.12 344.38,-95.05"/>
</g>
<!-- pat_13 -->
<g id="node69" class="node">
<title>pat_13</title>
<ellipse fill="#b9c4cc" stroke="#b9c4cc" cx="435.38" cy="-94.2" rx="0.43" ry="0.43"/>
</g>
<!-- pat_12&#45;&gt;pat_13 -->
<g id="edge62" class="edge">
<title>pat_12&#45;&gt;pat_13</title>
<path fill="none" stroke="#c4cdd5" stroke-dasharray="5,2" d="M435.38,-136.16C435.38,-131.84 435.38,-99.12 435.38,-95.05"/>
</g>
<!-- kc_13 -->
<g id="node70" class="node">
<title>kc_13</title>
<ellipse fill="#b9c4cc" stroke="#b9c4cc" cx="518.38" cy="-94.2" rx="0.43" ry="0.43"/>
</g>
<!-- kc_12&#45;&gt;kc_13 -->
<g id="edge77" class="edge">
<title>kc_12&#45;&gt;kc_13</title>
<path fill="none" stroke="#c4cdd5" stroke-dasharray="5,2" d="M518.38,-136.16C518.38,-131.84 518.38,-99.12 518.38,-95.05"/>
</g>
<!-- staff_14 -->
<g id="node71" class="node">
<title>staff_14</title>
<ellipse fill="#b9c4cc" stroke="#b9c4cc" cx="170.38" cy="-51.34" rx="0.43" ry="0.43"/>
</g>
<!-- staff_13&#45;&gt;staff_14 -->
<g id="edge18" class="edge">
<title>staff_13&#45;&gt;staff_14</title>
<path fill="none" stroke="#c4cdd5" stroke-dasharray="5,2" d="M170.38,-93.3C170.38,-88.97 170.38,-56.26 170.38,-52.19"/>
</g>
<!-- api_13&#45;&gt;repo_13 -->
<g id="edge92" class="edge">
<title>api_13&#45;&gt;repo_13</title>
<path fill="none" stroke="#1f6fb2" stroke-width="1.9" d="M254.09,-94.2C279.75,-94.2 305.42,-94.2 331.08,-94.2"/>
<polygon fill="#1f6fb2" stroke="#1f6fb2" stroke-width="1.9" points="330.8,-97.7 340.8,-94.2 330.8,-90.7 330.8,-97.7"/>
<text xml:space="preserve" text-anchor="middle" x="201.08" y="-112.4" font-family="Arial" font-size="14.00" fill="#0f3e66">13) تحديث Patient: حذف رمز الدعوة</text>
<text xml:space="preserve" text-anchor="middle" x="201.08" y="-96.65" font-family="Arial" font-size="14.00" fill="#0f3e66">+ ربط حساب Keycloak</text>
</g>
<!-- api_14 -->
<g id="node72" class="node">
<title>api_14</title>
<ellipse fill="#b9c4cc" stroke="#b9c4cc" cx="253.38" cy="-51.34" rx="0.43" ry="0.43"/>
</g>
<!-- api_13&#45;&gt;api_14 -->
<g id="edge33" class="edge">
<title>api_13&#45;&gt;api_14</title>
<path fill="none" stroke="#c4cdd5" stroke-dasharray="5,2" d="M253.38,-93.3C253.38,-88.97 253.38,-56.26 253.38,-52.19"/>
</g>
<!-- repo_14 -->
<g id="node73" class="node">
<title>repo_14</title>
<ellipse fill="#b9c4cc" stroke="#b9c4cc" cx="344.38" cy="-51.34" rx="0.43" ry="0.43"/>
</g>
<!-- repo_13&#45;&gt;repo_14 -->
<g id="edge48" class="edge">
<title>repo_13&#45;&gt;repo_14</title>
<path fill="none" stroke="#c4cdd5" stroke-dasharray="5,2" d="M344.38,-93.3C344.38,-88.97 344.38,-56.26 344.38,-52.19"/>
</g>
<!-- pat_14 -->
<g id="node74" class="node">
<title>pat_14</title>
<ellipse fill="#b9c4cc" stroke="#b9c4cc" cx="435.38" cy="-51.34" rx="0.43" ry="0.43"/>
</g>
<!-- pat_13&#45;&gt;pat_14 -->
<g id="edge63" class="edge">
<title>pat_13&#45;&gt;pat_14</title>
<path fill="none" stroke="#c4cdd5" stroke-dasharray="5,2" d="M435.38,-93.3C435.38,-88.97 435.38,-56.26 435.38,-52.19"/>
</g>
<!-- kc_14 -->
<g id="node75" class="node">
<title>kc_14</title>
<ellipse fill="#b9c4cc" stroke="#b9c4cc" cx="518.38" cy="-51.34" rx="0.43" ry="0.43"/>
</g>
<!-- kc_13&#45;&gt;kc_14 -->
<g id="edge78" class="edge">
<title>kc_13&#45;&gt;kc_14</title>
<path fill="none" stroke="#c4cdd5" stroke-dasharray="5,2" d="M518.38,-93.3C518.38,-88.97 518.38,-56.26 518.38,-52.19"/>
</g>
<!-- staff_15 -->
<g id="node76" class="node">
<title>staff_15</title>
<ellipse fill="#b9c4cc" stroke="#b9c4cc" cx="170.38" cy="-8.48" rx="0.43" ry="0.43"/>
</g>
<!-- staff_14&#45;&gt;staff_15 -->
<g id="edge19" class="edge">
<title>staff_14&#45;&gt;staff_15</title>
<path fill="none" stroke="#c4cdd5" stroke-dasharray="5,2" d="M170.38,-50.44C170.38,-46.11 170.38,-13.4 170.38,-9.32"/>
</g>
<!-- api_14&#45;&gt;pat_14 -->
<g id="edge93" class="edge">
<title>api_14&#45;&gt;pat_14</title>
<path fill="none" stroke="#7c8996" stroke-width="1.4" stroke-dasharray="5,2" d="M254.09,-51.34C310.41,-51.34 366.72,-51.34 423.03,-51.34"/>
<polygon fill="#7c8996" stroke="#7c8996" stroke-width="1.4" points="432.97,-51.34 422.97,-55.84 429.67,-51.54 422.97,-51.54 422.97,-51.34 422.97,-51.14 429.67,-51.14 422.97,-46.84 432.97,-51.34"/>
<text xml:space="preserve" text-anchor="middle" x="225.69" y="-53.79" font-family="Arial" font-size="14.00" fill="#3d4750">14) 200 { patientId, ROLE_PATIENT }</text>
</g>
<!-- api_15 -->
<g id="node77" class="node">
<title>api_15</title>
<ellipse fill="#b9c4cc" stroke="#b9c4cc" cx="253.38" cy="-8.48" rx="0.43" ry="0.43"/>
</g>
<!-- api_14&#45;&gt;api_15 -->
<g id="edge34" class="edge">
<title>api_14&#45;&gt;api_15</title>
<path fill="none" stroke="#c4cdd5" stroke-dasharray="5,2" d="M253.38,-50.44C253.38,-46.11 253.38,-13.4 253.38,-9.32"/>
</g>
<!-- repo_15 -->
<g id="node78" class="node">
<title>repo_15</title>
<ellipse fill="#b9c4cc" stroke="#b9c4cc" cx="344.38" cy="-8.48" rx="0.43" ry="0.43"/>
</g>
<!-- repo_14&#45;&gt;repo_15 -->
<g id="edge49" class="edge">
<title>repo_14&#45;&gt;repo_15</title>
<path fill="none" stroke="#c4cdd5" stroke-dasharray="5,2" d="M344.38,-50.44C344.38,-46.11 344.38,-13.4 344.38,-9.32"/>
</g>
<!-- pat_15 -->
<g id="node79" class="node">
<title>pat_15</title>
<ellipse fill="#b9c4cc" stroke="#b9c4cc" cx="435.38" cy="-8.48" rx="0.43" ry="0.43"/>
</g>
<!-- pat_14&#45;&gt;pat_15 -->
<g id="edge64" class="edge">
<title>pat_14&#45;&gt;pat_15</title>
<path fill="none" stroke="#c4cdd5" stroke-dasharray="5,2" d="M435.38,-50.44C435.38,-46.11 435.38,-13.4 435.38,-9.32"/>
</g>
<!-- kc_15 -->
<g id="node80" class="node">
<title>kc_15</title>
<ellipse fill="#b9c4cc" stroke="#b9c4cc" cx="518.38" cy="-8.48" rx="0.43" ry="0.43"/>
</g>
<!-- kc_14&#45;&gt;kc_15 -->
<g id="edge79" class="edge">
<title>kc_14&#45;&gt;kc_15</title>
<path fill="none" stroke="#c4cdd5" stroke-dasharray="5,2" d="M518.38,-50.44C518.38,-46.11 518.38,-13.4 518.38,-9.32"/>
</g>
<!-- pat_15&#45;&gt;pat_15 -->
<g id="edge94" class="edge">
<title>pat_15&#45;&gt;pat_15</title>
<path fill="none" stroke="#7a6baa" d="M435.85,-8.97C445.8,-19.19 464.81,-19.03 464.81,-8.48 464.81,-0.81 454.78,1.37 445.47,-1.93"/>
<polygon fill="#7a6baa" stroke="#7a6baa" points="443.73,1.11 437.13,-7.18 447.46,-4.81 443.73,1.11"/>
<text xml:space="preserve" text-anchor="middle" x="368.29" y="-11" font-family="Arial" font-size="14.00" fill="#4a3c78">15) دخول بوّابة المريض (MyHealth)</text>
</g>
</g>
</svg>
