<?xml version="1.0" encoding="UTF-8" standalone="no"?>
<!DOCTYPE svg PUBLIC "-//W3C//DTD SVG 1.1//EN"
 "http://www.w3.org/Graphics/SVG/1.1/DTD/svg11.dtd">
<!-- Generated by graphviz version 14.1.1 (20251213.1925)
 -->
<!-- Title: SEQ Pages: 1 -->
<svg width="594pt" height="784pt"
 viewBox="0.00 0.00 594.00 784.00" xmlns="http://www.w3.org/2000/svg" xmlns:xlink="http://www.w3.org/1999/xlink">
<g id="graph0" class="graph" transform="scale(1 1) rotate(0) translate(21.6 762.74)">
<title>SEQ</title>
<polygon fill="white" stroke="none" points="-21.6,21.6 -21.6,-762.74 571.99,-762.74 571.99,21.6 -21.6,21.6"/>
<text xml:space="preserve" text-anchor="middle" x="275.19" y="-721.94" font-family="Arial" font-size="16.00">تسلسل تقييم دعم القرار (CDS Hook)</text>
<text xml:space="preserve" text-anchor="middle" x="275.19" y="-703.19" font-family="Arial" font-size="16.00">CDS Hook Evaluation</text>
<!-- H_cli -->
<g id="node1" class="node">
<title>H_cli</title>
<path fill="#e8f1f8" stroke="#1f6fb2" d="M170.28,-695.64C170.28,-695.64 140.28,-695.64 140.28,-695.64 134.28,-695.64 128.28,-689.64 128.28,-683.64 128.28,-683.64 128.28,-663 128.28,-663 128.28,-657 134.28,-651 140.28,-651 140.28,-651 170.28,-651 170.28,-651 176.28,-651 182.28,-657 182.28,-663 182.28,-663 182.28,-683.64 182.28,-683.64 182.28,-689.64 176.28,-695.64 170.28,-695.64"/>
<text xml:space="preserve" text-anchor="middle" x="155.28" y="-681.82" font-family="Arial" font-size="10.00">العميل</text>
<text xml:space="preserve" text-anchor="middle" x="155.28" y="-669.82" font-family="Arial" font-size="10.00">Client</text>
<text xml:space="preserve" text-anchor="middle" x="155.28" y="-657.82" font-family="Arial" font-size="10.00">(Blazor)</text>
</g>
<!-- H_ctl -->
<g id="node2" class="node">
<title>H_ctl</title>
<path fill="#ffffff" stroke="#1f6fb2" d="M259.01,-691.32C259.01,-691.32 223.55,-691.32 223.55,-691.32 217.55,-691.32 211.55,-685.32 211.55,-679.32 211.55,-679.32 211.55,-667.32 211.55,-667.32 211.55,-661.32 217.55,-655.32 223.55,-655.32 223.55,-655.32 259.01,-655.32 259.01,-655.32 265.01,-655.32 271.01,-661.32 271.01,-667.32 271.01,-667.32 271.01,-679.32 271.01,-679.32 271.01,-685.32 265.01,-691.32 259.01,-691.32"/>
<text xml:space="preserve" text-anchor="middle" x="241.28" y="-675.82" font-family="Arial" font-size="10.00">CdsHooks</text>
<text xml:space="preserve" text-anchor="middle" x="241.28" y="-663.82" font-family="Arial" font-size="10.00">Controller</text>
</g>
<!-- H_cli&#45;&gt;H_ctl -->
<!-- cli_1 -->
<g id="node6" class="node">
<title>cli_1</title>
<ellipse fill="#b9c4cc" stroke="#b9c4cc" cx="155.28" cy="-608.57" rx="0.43" ry="0.43"/>
</g>
<!-- H_cli&#45;&gt;cli_1 -->
<g id="edge5" class="edge">
<title>H_cli&#45;&gt;cli_1</title>
<path fill="none" stroke="#c4cdd5" stroke-dasharray="5,2" d="M155.28,-650.53C155.28,-633.36 155.28,-611.89 155.28,-609.27"/>
</g>
<!-- H_svc -->
<g id="node3" class="node">
<title>H_svc</title>
<path fill="#ffffff" stroke="#1f6fb2" d="M342.39,-691.32C342.39,-691.32 312.18,-691.32 312.18,-691.32 306.18,-691.32 300.18,-685.32 300.18,-679.32 300.18,-679.32 300.18,-667.32 300.18,-667.32 300.18,-661.32 306.18,-655.32 312.18,-655.32 312.18,-655.32 342.39,-655.32 342.39,-655.32 348.39,-655.32 354.39,-661.32 354.39,-667.32 354.39,-667.32 354.39,-679.32 354.39,-679.32 354.39,-685.32 348.39,-691.32 342.39,-691.32"/>
<text xml:space="preserve" text-anchor="middle" x="327.28" y="-675.82" font-family="Arial" font-size="10.00">CdsHook</text>
<text xml:space="preserve" text-anchor="middle" x="327.28" y="-663.82" font-family="Arial" font-size="10.00">Service</text>
</g>
<!-- H_ctl&#45;&gt;H_svc -->
<!-- ctl_1 -->
<g id="node7" class="node">
<title>ctl_1</title>
<ellipse fill="#b9c4cc" stroke="#b9c4cc" cx="241.28" cy="-608.57" rx="0.43" ry="0.43"/>
</g>
<!-- H_ctl&#45;&gt;ctl_1 -->
<g id="edge20" class="edge">
<title>H_ctl&#45;&gt;ctl_1</title>
<path fill="none" stroke="#c4cdd5" stroke-dasharray="5,2" d="M241.28,-655.02C241.28,-637.45 241.28,-612.38 241.28,-609.32"/>
</g>
<!-- H_ctx -->
<g id="node4" class="node">
<title>H_ctx</title>
<path fill="#ffffff" stroke="#1f6fb2" d="M437.01,-691.32C437.01,-691.32 395.55,-691.32 395.55,-691.32 389.55,-691.32 383.55,-685.32 383.55,-679.32 383.55,-679.32 383.55,-667.32 383.55,-667.32 383.55,-661.32 389.55,-655.32 395.55,-655.32 395.55,-655.32 437.01,-655.32 437.01,-655.32 443.01,-655.32 449.01,-661.32 449.01,-667.32 449.01,-667.32 449.01,-679.32 449.01,-679.32 449.01,-685.32 443.01,-691.32 437.01,-691.32"/>
<text xml:space="preserve" text-anchor="middle" x="416.28" y="-675.82" font-family="Arial" font-size="10.00">CdsContext</text>
<text xml:space="preserve" text-anchor="middle" x="416.28" y="-663.82" font-family="Arial" font-size="10.00">Builder</text>
</g>
<!-- H_svc&#45;&gt;H_ctx -->
<!-- svc_1 -->
<g id="node8" class="node">
<title>svc_1</title>
<ellipse fill="#b9c4cc" stroke="#b9c4cc" cx="327.28" cy="-608.57" rx="0.43" ry="0.43"/>
</g>
<!-- H_svc&#45;&gt;svc_1 -->
<g id="edge35" class="edge">
<title>H_svc&#45;&gt;svc_1</title>
<path fill="none" stroke="#c4cdd5" stroke-dasharray="5,2" d="M327.28,-655.02C327.28,-637.45 327.28,-612.38 327.28,-609.32"/>
</g>
<!-- H_eng -->
<g id="node5" class="node">
<title>H_eng</title>
<path fill="#efe8f8" stroke="#8e44ad" d="M538.39,-695.64C538.39,-695.64 490.18,-695.64 490.18,-695.64 484.18,-695.64 478.18,-689.64 478.18,-683.64 478.18,-683.64 478.18,-663 478.18,-663 478.18,-657 484.18,-651 490.18,-651 490.18,-651 538.39,-651 538.39,-651 544.39,-651 550.39,-657 550.39,-663 550.39,-663 550.39,-683.64 550.39,-683.64 550.39,-689.64 544.39,-695.64 538.39,-695.64"/>
<text xml:space="preserve" text-anchor="middle" x="514.28" y="-681.82" font-family="Arial" font-size="10.00">القواعد والمحرّك</text>
<text xml:space="preserve" text-anchor="middle" x="514.28" y="-669.82" font-family="Arial" font-size="10.00">Rules Repo</text>
<text xml:space="preserve" text-anchor="middle" x="514.28" y="-657.82" font-family="Arial" font-size="10.00">+ RuleEngine</text>
</g>
<!-- H_ctx&#45;&gt;H_eng -->
<!-- ctx_1 -->
<g id="node9" class="node">
<title>ctx_1</title>
<ellipse fill="#b9c4cc" stroke="#b9c4cc" cx="416.28" cy="-608.57" rx="0.43" ry="0.43"/>
</g>
<!-- H_ctx&#45;&gt;ctx_1 -->
<g id="edge50" class="edge">
<title>H_ctx&#45;&gt;ctx_1</title>
<path fill="none" stroke="#c4cdd5" stroke-dasharray="5,2" d="M416.28,-655.02C416.28,-637.45 416.28,-612.38 416.28,-609.32"/>
</g>
<!-- eng_1 -->
<g id="node10" class="node">
<title>eng_1</title>
<ellipse fill="#b9c4cc" stroke="#b9c4cc" cx="514.28" cy="-608.57" rx="0.43" ry="0.43"/>
</g>
<!-- H_eng&#45;&gt;eng_1 -->
<g id="edge65" class="edge">
<title>H_eng&#45;&gt;eng_1</title>
<path fill="none" stroke="#c4cdd5" stroke-dasharray="5,2" d="M514.28,-650.53C514.28,-633.36 514.28,-611.89 514.28,-609.27"/>
</g>
<!-- cli_1&#45;&gt;ctl_1 -->
<g id="edge80" class="edge">
<title>cli_1&#45;&gt;ctl_1</title>
<path fill="none" stroke="#1f6fb2" stroke-width="1.9" d="M155.95,-608.57C179.98,-608.57 204.02,-608.57 228.05,-608.57"/>
<polygon fill="#1f6fb2" stroke="#1f6fb2" stroke-width="1.9" points="227.74,-612.07 237.74,-608.57 227.74,-605.07 227.74,-612.07"/>
<text xml:space="preserve" text-anchor="middle" x="96" y="-626.77" font-family="Arial" font-size="14.00" fill="#0f3e66">1) POST medication&#45;prescribe</text>
<text xml:space="preserve" text-anchor="middle" x="96" y="-611.02" font-family="Arial" font-size="14.00" fill="#0f3e66">{ patientId, medicationRequest }</text>
</g>
<!-- cli_2 -->
<g id="node11" class="node">
<title>cli_2</title>
<ellipse fill="#b9c4cc" stroke="#b9c4cc" cx="155.28" cy="-565.71" rx="0.43" ry="0.43"/>
</g>
<!-- cli_1&#45;&gt;cli_2 -->
<g id="edge6" class="edge">
<title>cli_1&#45;&gt;cli_2</title>
<path fill="none" stroke="#c4cdd5" stroke-dasharray="5,2" d="M155.28,-607.67C155.28,-603.34 155.28,-570.63 155.28,-566.56"/>
</g>
<!-- ctl_2 -->
<g id="node12" class="node">
<title>ctl_2</title>
<ellipse fill="#b9c4cc" stroke="#b9c4cc" cx="241.28" cy="-565.71" rx="0.43" ry="0.43"/>
</g>
<!-- ctl_1&#45;&gt;ctl_2 -->
<g id="edge21" class="edge">
<title>ctl_1&#45;&gt;ctl_2</title>
<path fill="none" stroke="#c4cdd5" stroke-dasharray="5,2" d="M241.28,-607.67C241.28,-603.34 241.28,-570.63 241.28,-566.56"/>
</g>
<!-- svc_2 -->
<g id="node13" class="node">
<title>svc_2</title>
<ellipse fill="#b9c4cc" stroke="#b9c4cc" cx="327.28" cy="-565.71" rx="0.43" ry="0.43"/>
</g>
<!-- svc_1&#45;&gt;svc_2 -->
<g id="edge36" class="edge">
<title>svc_1&#45;&gt;svc_2</title>
<path fill="none" stroke="#c4cdd5" stroke-dasharray="5,2" d="M327.28,-607.67C327.28,-603.34 327.28,-570.63 327.28,-566.56"/>
</g>
<!-- ctx_2 -->
<g id="node14" class="node">
<title>ctx_2</title>
<ellipse fill="#b9c4cc" stroke="#b9c4cc" cx="416.28" cy="-565.71" rx="0.43" ry="0.43"/>
</g>
<!-- ctx_1&#45;&gt;ctx_2 -->
<g id="edge51" class="edge">
<title>ctx_1&#45;&gt;ctx_2</title>
<path fill="none" stroke="#c4cdd5" stroke-dasharray="5,2" d="M416.28,-607.67C416.28,-603.34 416.28,-570.63 416.28,-566.56"/>
</g>
<!-- eng_2 -->
<g id="node15" class="node">
<title>eng_2</title>
<ellipse fill="#b9c4cc" stroke="#b9c4cc" cx="514.28" cy="-565.71" rx="0.43" ry="0.43"/>
</g>
<!-- eng_1&#45;&gt;eng_2 -->
<g id="edge66" class="edge">
<title>eng_1&#45;&gt;eng_2</title>
<path fill="none" stroke="#c4cdd5" stroke-dasharray="5,2" d="M514.28,-607.67C514.28,-603.34 514.28,-570.63 514.28,-566.56"/>
</g>
<!-- cli_3 -->
<g id="node16" class="node">
<title>cli_3</title>
<ellipse fill="#b9c4cc" stroke="#b9c4cc" cx="155.28" cy="-522.84" rx="0.43" ry="0.43"/>
</g>
<!-- cli_2&#45;&gt;cli_3 -->
<g id="edge7" class="edge">
<title>cli_2&#45;&gt;cli_3</title>
<path fill="none" stroke="#c4cdd5" stroke-dasharray="5,2" d="M155.28,-564.8C155.28,-560.48 155.28,-527.76 155.28,-523.69"/>
</g>
<!-- ctl_2&#45;&gt;svc_2 -->
<g id="edge81" class="edge">
<title>ctl_2&#45;&gt;svc_2</title>
<path fill="none" stroke="#1f6fb2" stroke-width="1.9" d="M241.95,-565.71C265.98,-565.71 290.02,-565.71 314.05,-565.71"/>
<polygon fill="#1f6fb2" stroke="#1f6fb2" stroke-width="1.9" points="313.74,-569.21 323.74,-565.71 313.74,-562.21 313.74,-569.21"/>
<text xml:space="preserve" text-anchor="middle" x="180.12" y="-568.16" font-family="Arial" font-size="14.00" fill="#0f3e66">2) EvaluateAsync(hook, request)</text>
</g>
<!-- ctl_3 -->
<g id="node17" class="node">
<title>ctl_3</title>
<ellipse fill="#b9c4cc" stroke="#b9c4cc" cx="241.28" cy="-522.84" rx="0.43" ry="0.43"/>
</g>
<!-- ctl_2&#45;&gt;ctl_3 -->
<g id="edge22" class="edge">
<title>ctl_2&#45;&gt;ctl_3</title>
<path fill="none" stroke="#c4cdd5" stroke-dasharray="5,2" d="M241.28,-564.8C241.28,-560.48 241.28,-527.76 241.28,-523.69"/>
</g>
<!-- svc_3 -->
<g id="node18" class="node">
<title>svc_3</title>
<ellipse fill="#b9c4cc" stroke="#b9c4cc" cx="327.28" cy="-522.84" rx="0.43" ry="0.43"/>
</g>
<!-- svc_2&#45;&gt;svc_3 -->
<g id="edge37" class="edge">
<title>svc_2&#45;&gt;svc_3</title>
<path fill="none" stroke="#c4cdd5" stroke-dasharray="5,2" d="M327.28,-564.8C327.28,-560.48 327.28,-527.76 327.28,-523.69"/>
</g>
<!-- ctx_3 -->
<g id="node19" class="node">
<title>ctx_3</title>
<ellipse fill="#b9c4cc" stroke="#b9c4cc" cx="416.28" cy="-522.84" rx="0.43" ry="0.43"/>
</g>
<!-- ctx_2&#45;&gt;ctx_3 -->
<g id="edge52" class="edge">
<title>ctx_2&#45;&gt;ctx_3</title>
<path fill="none" stroke="#c4cdd5" stroke-dasharray="5,2" d="M416.28,-564.8C416.28,-560.48 416.28,-527.76 416.28,-523.69"/>
</g>
<!-- eng_3 -->
<g id="node20" class="node">
<title>eng_3</title>
<ellipse fill="#b9c4cc" stroke="#b9c4cc" cx="514.28" cy="-522.84" rx="0.43" ry="0.43"/>
</g>
<!-- eng_2&#45;&gt;eng_3 -->
<g id="edge67" class="edge">
<title>eng_2&#45;&gt;eng_3</title>
<path fill="none" stroke="#c4cdd5" stroke-dasharray="5,2" d="M514.28,-564.8C514.28,-560.48 514.28,-527.76 514.28,-523.69"/>
</g>
<!-- cli_4 -->
<g id="node21" class="node">
<title>cli_4</title>
<ellipse fill="#b9c4cc" stroke="#b9c4cc" cx="155.28" cy="-479.98" rx="0.43" ry="0.43"/>
</g>
<!-- cli_3&#45;&gt;cli_4 -->
<g id="edge8" class="edge">
<title>cli_3&#45;&gt;cli_4</title>
<path fill="none" stroke="#c4cdd5" stroke-dasharray="5,2" d="M155.28,-521.94C155.28,-517.61 155.28,-484.9 155.28,-480.83"/>
</g>
<!-- ctl_4 -->
<g id="node22" class="node">
<title>ctl_4</title>
<ellipse fill="#b9c4cc" stroke="#b9c4cc" cx="241.28" cy="-479.98" rx="0.43" ry="0.43"/>
</g>
<!-- ctl_3&#45;&gt;ctl_4 -->
<g id="edge23" class="edge">
<title>ctl_3&#45;&gt;ctl_4</title>
<path fill="none" stroke="#c4cdd5" stroke-dasharray="5,2" d="M241.28,-521.94C241.28,-517.61 241.28,-484.9 241.28,-480.83"/>
</g>
<!-- svc_3&#45;&gt;eng_3 -->
<g id="edge82" class="edge">
<title>svc_3&#45;&gt;eng_3</title>
<path fill="none" stroke="#1f6fb2" stroke-width="1.9" d="M328.01,-522.84C385.63,-522.84 443.25,-522.84 500.87,-522.84"/>
<polygon fill="#1f6fb2" stroke="#1f6fb2" stroke-width="1.9" points="500.68,-526.34 510.68,-522.84 500.68,-519.34 500.68,-526.34"/>
<text xml:space="preserve" text-anchor="middle" x="310.19" y="-525.29" font-family="Arial" font-size="14.00" fill="#0f3e66">3) GetActiveByHookAsync(hookId)</text>
</g>
<!-- svc_4 -->
<g id="node23" class="node">
<title>svc_4</title>
<ellipse fill="#b9c4cc" stroke="#b9c4cc" cx="327.28" cy="-479.98" rx="0.43" ry="0.43"/>
</g>
<!-- svc_3&#45;&gt;svc_4 -->
<g id="edge38" class="edge">
<title>svc_3&#45;&gt;svc_4</title>
<path fill="none" stroke="#c4cdd5" stroke-dasharray="5,2" d="M327.28,-521.94C327.28,-517.61 327.28,-484.9 327.28,-480.83"/>
</g>
<!-- ctx_4 -->
<g id="node24" class="node">
<title>ctx_4</title>
<ellipse fill="#b9c4cc" stroke="#b9c4cc" cx="416.28" cy="-479.98" rx="0.43" ry="0.43"/>
</g>
<!-- ctx_3&#45;&gt;ctx_4 -->
<g id="edge53" class="edge">
<title>ctx_3&#45;&gt;ctx_4</title>
<path fill="none" stroke="#c4cdd5" stroke-dasharray="5,2" d="M416.28,-521.94C416.28,-517.61 416.28,-484.9 416.28,-480.83"/>
</g>
<!-- eng_4 -->
<g id="node25" class="node">
<title>eng_4</title>
<ellipse fill="#b9c4cc" stroke="#b9c4cc" cx="514.28" cy="-479.98" rx="0.43" ry="0.43"/>
</g>
<!-- eng_3&#45;&gt;eng_4 -->
<g id="edge68" class="edge">
<title>eng_3&#45;&gt;eng_4</title>
<path fill="none" stroke="#c4cdd5" stroke-dasharray="5,2" d="M514.28,-521.94C514.28,-517.61 514.28,-484.9 514.28,-480.83"/>
</g>
<!-- cli_5 -->
<g id="node26" class="node">
<title>cli_5</title>
<ellipse fill="#b9c4cc" stroke="#b9c4cc" cx="155.28" cy="-437.12" rx="0.43" ry="0.43"/>
</g>
<!-- cli_4&#45;&gt;cli_5 -->
<g id="edge9" class="edge">
<title>cli_4&#45;&gt;cli_5</title>
<path fill="none" stroke="#c4cdd5" stroke-dasharray="5,2" d="M155.28,-479.08C155.28,-474.75 155.28,-442.04 155.28,-437.96"/>
</g>
<!-- ctl_5 -->
<g id="node27" class="node">
<title>ctl_5</title>
<ellipse fill="#b9c4cc" stroke="#b9c4cc" cx="241.28" cy="-437.12" rx="0.43" ry="0.43"/>
</g>
<!-- ctl_4&#45;&gt;ctl_5 -->
<g id="edge24" class="edge">
<title>ctl_4&#45;&gt;ctl_5</title>
<path fill="none" stroke="#c4cdd5" stroke-dasharray="5,2" d="M241.28,-479.08C241.28,-474.75 241.28,-442.04 241.28,-437.96"/>
</g>
<!-- svc_5 -->
<g id="node28" class="node">
<title>svc_5</title>
<ellipse fill="#b9c4cc" stroke="#b9c4cc" cx="327.28" cy="-437.12" rx="0.43" ry="0.43"/>
</g>
<!-- svc_4&#45;&gt;svc_5 -->
<g id="edge39" class="edge">
<title>svc_4&#45;&gt;svc_5</title>
<path fill="none" stroke="#c4cdd5" stroke-dasharray="5,2" d="M327.28,-479.08C327.28,-474.75 327.28,-442.04 327.28,-437.96"/>
</g>
<!-- ctx_5 -->
<g id="node29" class="node">
<title>ctx_5</title>
<ellipse fill="#b9c4cc" stroke="#b9c4cc" cx="416.28" cy="-437.12" rx="0.43" ry="0.43"/>
</g>
<!-- ctx_4&#45;&gt;ctx_5 -->
<g id="edge54" class="edge">
<title>ctx_4&#45;&gt;ctx_5</title>
<path fill="none" stroke="#c4cdd5" stroke-dasharray="5,2" d="M416.28,-479.08C416.28,-474.75 416.28,-442.04 416.28,-437.96"/>
</g>
<!-- eng_4&#45;&gt;svc_4 -->
<g id="edge83" class="edge">
<title>eng_4&#45;&gt;svc_4</title>
<path fill="none" stroke="#7c8996" stroke-width="1.4" stroke-dasharray="5,2" d="M513.55,-479.98C455.57,-479.98 397.59,-479.98 339.61,-479.98"/>
<polygon fill="#7c8996" stroke="#7c8996" stroke-width="1.4" points="329.72,-479.98 339.72,-475.48 333.01,-479.78 339.72,-479.78 339.72,-479.98 339.72,-480.18 333.01,-480.18 339.72,-484.48 329.72,-479.98"/>
<text xml:space="preserve" text-anchor="middle" x="364.71" y="-482.43" font-family="Arial" font-size="14.00" fill="#3d4750">4) القواعد النشطة المنشورة</text>
</g>
<!-- eng_5 -->
<g id="node30" class="node">
<title>eng_5</title>
<ellipse fill="#b9c4cc" stroke="#b9c4cc" cx="514.28" cy="-437.12" rx="0.43" ry="0.43"/>
</g>
<!-- eng_4&#45;&gt;eng_5 -->
<g id="edge69" class="edge">
<title>eng_4&#45;&gt;eng_5</title>
<path fill="none" stroke="#c4cdd5" stroke-dasharray="5,2" d="M514.28,-479.08C514.28,-474.75 514.28,-442.04 514.28,-437.96"/>
</g>
<!-- cli_6 -->
<g id="node31" class="node">
<title>cli_6</title>
<ellipse fill="#b9c4cc" stroke="#b9c4cc" cx="155.28" cy="-394.25" rx="0.43" ry="0.43"/>
</g>
<!-- cli_5&#45;&gt;cli_6 -->
<g id="edge10" class="edge">
<title>cli_5&#45;&gt;cli_6</title>
<path fill="none" stroke="#c4cdd5" stroke-dasharray="5,2" d="M155.28,-436.21C155.28,-431.89 155.28,-399.17 155.28,-395.1"/>
</g>
<!-- ctl_6 -->
<g id="node32" class="node">
<title>ctl_6</title>
<ellipse fill="#b9c4cc" stroke="#b9c4cc" cx="241.28" cy="-394.25" rx="0.43" ry="0.43"/>
</g>
<!-- ctl_5&#45;&gt;ctl_6 -->
<g id="edge25" class="edge">
<title>ctl_5&#45;&gt;ctl_6</title>
<path fill="none" stroke="#c4cdd5" stroke-dasharray="5,2" d="M241.28,-436.21C241.28,-431.89 241.28,-399.17 241.28,-395.1"/>
</g>
<!-- svc_5&#45;&gt;ctx_5 -->
<g id="edge84" class="edge">
<title>svc_5&#45;&gt;ctx_5</title>
<path fill="none" stroke="#1f6fb2" stroke-width="1.9" d="M327.98,-437.12C352.96,-437.12 377.94,-437.12 402.93,-437.12"/>
<polygon fill="#1f6fb2" stroke="#1f6fb2" stroke-width="1.9" points="402.72,-440.62 412.72,-437.12 402.72,-433.62 402.72,-440.62"/>
<text xml:space="preserve" text-anchor="middle" x="297.2" y="-439.57" font-family="Arial" font-size="14.00" fill="#0f3e66">5) BuildAsync(request)</text>
</g>
<!-- svc_6 -->
<g id="node33" class="node">
<title>svc_6</title>
<ellipse fill="#b9c4cc" stroke="#b9c4cc" cx="327.28" cy="-394.25" rx="0.43" ry="0.43"/>
</g>
<!-- svc_5&#45;&gt;svc_6 -->
<g id="edge40" class="edge">
<title>svc_5&#45;&gt;svc_6</title>
<path fill="none" stroke="#c4cdd5" stroke-dasharray="5,2" d="M327.28,-436.21C327.28,-431.89 327.28,-399.17 327.28,-395.1"/>
</g>
<!-- ctx_6 -->
<g id="node34" class="node">
<title>ctx_6</title>
<ellipse fill="#b9c4cc" stroke="#b9c4cc" cx="416.28" cy="-394.25" rx="0.43" ry="0.43"/>
</g>
<!-- ctx_5&#45;&gt;ctx_6 -->
<g id="edge55" class="edge">
<title>ctx_5&#45;&gt;ctx_6</title>
<path fill="none" stroke="#c4cdd5" stroke-dasharray="5,2" d="M416.28,-436.21C416.28,-431.89 416.28,-399.17 416.28,-395.1"/>
</g>
<!-- eng_6 -->
<g id="node35" class="node">
<title>eng_6</title>
<ellipse fill="#b9c4cc" stroke="#b9c4cc" cx="514.28" cy="-394.25" rx="0.43" ry="0.43"/>
</g>
<!-- eng_5&#45;&gt;eng_6 -->
<g id="edge70" class="edge">
<title>eng_5&#45;&gt;eng_6</title>
<path fill="none" stroke="#c4cdd5" stroke-dasharray="5,2" d="M514.28,-436.21C514.28,-431.89 514.28,-399.17 514.28,-395.1"/>
</g>
<!-- cli_7 -->
<g id="node36" class="node">
<title>cli_7</title>
<ellipse fill="#b9c4cc" stroke="#b9c4cc" cx="155.28" cy="-351.39" rx="0.43" ry="0.43"/>
</g>
<!-- cli_6&#45;&gt;cli_7 -->
<g id="edge11" class="edge">
<title>cli_6&#45;&gt;cli_7</title>
<path fill="none" stroke="#c4cdd5" stroke-dasharray="5,2" d="M155.28,-393.35C155.28,-389.02 155.28,-356.31 155.28,-352.24"/>
</g>
<!-- ctl_7 -->
<g id="node37" class="node">
<title>ctl_7</title>
<ellipse fill="#b9c4cc" stroke="#b9c4cc" cx="241.28" cy="-351.39" rx="0.43" ry="0.43"/>
</g>
<!-- ctl_6&#45;&gt;ctl_7 -->
<g id="edge26" class="edge">
<title>ctl_6&#45;&gt;ctl_7</title>
<path fill="none" stroke="#c4cdd5" stroke-dasharray="5,2" d="M241.28,-393.35C241.28,-389.02 241.28,-356.31 241.28,-352.24"/>
</g>
<!-- svc_7 -->
<g id="node38" class="node">
<title>svc_7</title>
<ellipse fill="#b9c4cc" stroke="#b9c4cc" cx="327.28" cy="-351.39" rx="0.43" ry="0.43"/>
</g>
<!-- svc_6&#45;&gt;svc_7 -->
<g id="edge41" class="edge">
<title>svc_6&#45;&gt;svc_7</title>
<path fill="none" stroke="#c4cdd5" stroke-dasharray="5,2" d="M327.28,-393.35C327.28,-389.02 327.28,-356.31 327.28,-352.24"/>
</g>
<!-- ctx_6&#45;&gt;ctx_6 -->
<g id="edge85" class="edge">
<title>ctx_6&#45;&gt;ctx_6</title>
<path fill="none" stroke="#7a6baa" d="M416.75,-394.75C426.7,-404.97 445.71,-404.8 445.71,-394.25 445.71,-386.59 435.68,-384.41 426.37,-387.7"/>
<polygon fill="#7a6baa" stroke="#7a6baa" points="424.63,-384.66 418.03,-392.95 428.36,-390.59 424.63,-384.66"/>
<text xml:space="preserve" text-anchor="middle" x="352.19" y="-412.53" font-family="Arial" font-size="14.00" fill="#4a3c78">6) جلب من FHIR: المريض، الحالات،</text>
<text xml:space="preserve" text-anchor="middle" x="352.19" y="-396.78" font-family="Arial" font-size="14.00" fill="#4a3c78">الحساسية، الأدوية النشطة</text>
</g>
<!-- ctx_7 -->
<g id="node39" class="node">
<title>ctx_7</title>
<ellipse fill="#b9c4cc" stroke="#b9c4cc" cx="416.28" cy="-351.39" rx="0.43" ry="0.43"/>
</g>
<!-- ctx_6&#45;&gt;ctx_7 -->
<g id="edge56" class="edge">
<title>ctx_6&#45;&gt;ctx_7</title>
<path fill="none" stroke="#c4cdd5" stroke-dasharray="5,2" d="M416.28,-393.35C416.28,-389.02 416.28,-356.31 416.28,-352.24"/>
</g>
<!-- eng_7 -->
<g id="node40" class="node">
<title>eng_7</title>
<ellipse fill="#b9c4cc" stroke="#b9c4cc" cx="514.28" cy="-351.39" rx="0.43" ry="0.43"/>
</g>
<!-- eng_6&#45;&gt;eng_7 -->
<g id="edge71" class="edge">
<title>eng_6&#45;&gt;eng_7</title>
<path fill="none" stroke="#c4cdd5" stroke-dasharray="5,2" d="M514.28,-393.35C514.28,-389.02 514.28,-356.31 514.28,-352.24"/>
</g>
<!-- cli_8 -->
<g id="node41" class="node">
<title>cli_8</title>
<ellipse fill="#b9c4cc" stroke="#b9c4cc" cx="155.28" cy="-308.52" rx="0.43" ry="0.43"/>
</g>
<!-- cli_7&#45;&gt;cli_8 -->
<g id="edge12" class="edge">
<title>cli_7&#45;&gt;cli_8</title>
<path fill="none" stroke="#c4cdd5" stroke-dasharray="5,2" d="M155.28,-350.48C155.28,-346.16 155.28,-313.44 155.28,-309.37"/>
</g>
<!-- ctl_8 -->
<g id="node42" class="node">
<title>ctl_8</title>
<ellipse fill="#b9c4cc" stroke="#b9c4cc" cx="241.28" cy="-308.52" rx="0.43" ry="0.43"/>
</g>
<!-- ctl_7&#45;&gt;ctl_8 -->
<g id="edge27" class="edge">
<title>ctl_7&#45;&gt;ctl_8</title>
<path fill="none" stroke="#c4cdd5" stroke-dasharray="5,2" d="M241.28,-350.48C241.28,-346.16 241.28,-313.44 241.28,-309.37"/>
</g>
<!-- svc_8 -->
<g id="node43" class="node">
<title>svc_8</title>
<ellipse fill="#b9c4cc" stroke="#b9c4cc" cx="327.28" cy="-308.52" rx="0.43" ry="0.43"/>
</g>
<!-- svc_7&#45;&gt;svc_8 -->
<g id="edge42" class="edge">
<title>svc_7&#45;&gt;svc_8</title>
<path fill="none" stroke="#c4cdd5" stroke-dasharray="5,2" d="M327.28,-350.48C327.28,-346.16 327.28,-313.44 327.28,-309.37"/>
</g>
<!-- ctx_7&#45;&gt;ctx_7 -->
<g id="edge86" class="edge">
<title>ctx_7&#45;&gt;ctx_7</title>
<path fill="none" stroke="#7a6baa" d="M416.75,-351.88C426.7,-362.1 445.71,-361.94 445.71,-351.39 445.71,-343.72 435.68,-341.54 426.37,-344.84"/>
<polygon fill="#7a6baa" stroke="#7a6baa" points="424.63,-341.8 418.03,-350.09 428.36,-347.73 424.63,-341.8"/>
<text xml:space="preserve" text-anchor="middle" x="360.81" y="-369.66" font-family="Arial" font-size="14.00" fill="#4a3c78">7) معرفة الدواء (MedicineInfo)</text>
<text xml:space="preserve" text-anchor="middle" x="360.81" y="-353.91" font-family="Arial" font-size="14.00" fill="#4a3c78">+ تقييم مخاطر AI</text>
</g>
<!-- ctx_8 -->
<g id="node44" class="node">
<title>ctx_8</title>
<ellipse fill="#b9c4cc" stroke="#b9c4cc" cx="416.28" cy="-308.52" rx="0.43" ry="0.43"/>
</g>
<!-- ctx_7&#45;&gt;ctx_8 -->
<g id="edge57" class="edge">
<title>ctx_7&#45;&gt;ctx_8</title>
<path fill="none" stroke="#c4cdd5" stroke-dasharray="5,2" d="M416.28,-350.48C416.28,-346.16 416.28,-313.44 416.28,-309.37"/>
</g>
<!-- eng_8 -->
<g id="node45" class="node">
<title>eng_8</title>
<ellipse fill="#b9c4cc" stroke="#b9c4cc" cx="514.28" cy="-308.52" rx="0.43" ry="0.43"/>
</g>
<!-- eng_7&#45;&gt;eng_8 -->
<g id="edge72" class="edge">
<title>eng_7&#45;&gt;eng_8</title>
<path fill="none" stroke="#c4cdd5" stroke-dasharray="5,2" d="M514.28,-350.48C514.28,-346.16 514.28,-313.44 514.28,-309.37"/>
</g>
<!-- cli_9 -->
<g id="node46" class="node">
<title>cli_9</title>
<ellipse fill="#b9c4cc" stroke="#b9c4cc" cx="155.28" cy="-265.66" rx="0.43" ry="0.43"/>
</g>
<!-- cli_8&#45;&gt;cli_9 -->
<g id="edge13" class="edge">
<title>cli_8&#45;&gt;cli_9</title>
<path fill="none" stroke="#c4cdd5" stroke-dasharray="5,2" d="M155.28,-307.62C155.28,-303.29 155.28,-270.58 155.28,-266.51"/>
</g>
<!-- ctl_9 -->
<g id="node47" class="node">
<title>ctl_9</title>
<ellipse fill="#b9c4cc" stroke="#b9c4cc" cx="241.28" cy="-265.66" rx="0.43" ry="0.43"/>
</g>
<!-- ctl_8&#45;&gt;ctl_9 -->
<g id="edge28" class="edge">
<title>ctl_8&#45;&gt;ctl_9</title>
<path fill="none" stroke="#c4cdd5" stroke-dasharray="5,2" d="M241.28,-307.62C241.28,-303.29 241.28,-270.58 241.28,-266.51"/>
</g>
<!-- svc_9 -->
<g id="node48" class="node">
<title>svc_9</title>
<ellipse fill="#b9c4cc" stroke="#b9c4cc" cx="327.28" cy="-265.66" rx="0.43" ry="0.43"/>
</g>
<!-- svc_8&#45;&gt;svc_9 -->
<g id="edge43" class="edge">
<title>svc_8&#45;&gt;svc_9</title>
<path fill="none" stroke="#c4cdd5" stroke-dasharray="5,2" d="M327.28,-307.62C327.28,-303.29 327.28,-270.58 327.28,-266.51"/>
</g>
<!-- ctx_8&#45;&gt;svc_8 -->
<g id="edge87" class="edge">
<title>ctx_8&#45;&gt;svc_8</title>
<path fill="none" stroke="#7c8996" stroke-width="1.4" stroke-dasharray="5,2" d="M415.59,-308.52C390.26,-308.52 364.94,-308.52 339.61,-308.52"/>
<polygon fill="#7c8996" stroke="#7c8996" stroke-width="1.4" points="329.68,-308.52 339.68,-304.02 332.98,-308.32 339.68,-308.32 339.68,-308.52 339.68,-308.72 332.98,-308.72 339.68,-313.02 329.68,-308.52"/>
<text xml:space="preserve" text-anchor="middle" x="302.23" y="-310.97" font-family="Arial" font-size="14.00" fill="#3d4750">8) CdsContext (سياق التقييم)</text>
</g>
<!-- ctx_9 -->
<g id="node49" class="node">
<title>ctx_9</title>
<ellipse fill="#b9c4cc" stroke="#b9c4cc" cx="416.28" cy="-265.66" rx="0.43" ry="0.43"/>
</g>
<!-- ctx_8&#45;&gt;ctx_9 -->
<g id="edge58" class="edge">
<title>ctx_8&#45;&gt;ctx_9</title>
<path fill="none" stroke="#c4cdd5" stroke-dasharray="5,2" d="M416.28,-307.62C416.28,-303.29 416.28,-270.58 416.28,-266.51"/>
</g>
<!-- eng_9 -->
<g id="node50" class="node">
<title>eng_9</title>
<ellipse fill="#b9c4cc" stroke="#b9c4cc" cx="514.28" cy="-265.66" rx="0.43" ry="0.43"/>
</g>
<!-- eng_8&#45;&gt;eng_9 -->
<g id="edge73" class="edge">
<title>eng_8&#45;&gt;eng_9</title>
<path fill="none" stroke="#c4cdd5" stroke-dasharray="5,2" d="M514.28,-307.62C514.28,-303.29 514.28,-270.58 514.28,-266.51"/>
</g>
<!-- cli_10 -->
<g id="node51" class="node">
<title>cli_10</title>
<ellipse fill="#b9c4cc" stroke="#b9c4cc" cx="155.28" cy="-222.8" rx="0.43" ry="0.43"/>
</g>
<!-- cli_9&#45;&gt;cli_10 -->
<g id="edge14" class="edge">
<title>cli_9&#45;&gt;cli_10</title>
<path fill="none" stroke="#c4cdd5" stroke-dasharray="5,2" d="M155.28,-264.76C155.28,-260.43 155.28,-227.72 155.28,-223.64"/>
</g>
<!-- ctl_10 -->
<g id="node52" class="node">
<title>ctl_10</title>
<ellipse fill="#b9c4cc" stroke="#b9c4cc" cx="241.28" cy="-222.8" rx="0.43" ry="0.43"/>
</g>
<!-- ctl_9&#45;&gt;ctl_10 -->
<g id="edge29" class="edge">
<title>ctl_9&#45;&gt;ctl_10</title>
<path fill="none" stroke="#c4cdd5" stroke-dasharray="5,2" d="M241.28,-264.76C241.28,-260.43 241.28,-227.72 241.28,-223.64"/>
</g>
<!-- svc_9&#45;&gt;eng_9 -->
<g id="edge88" class="edge">
<title>svc_9&#45;&gt;eng_9</title>
<path fill="none" stroke="#1f6fb2" stroke-width="1.9" d="M328.01,-265.66C385.63,-265.66 443.25,-265.66 500.87,-265.66"/>
<polygon fill="#1f6fb2" stroke="#1f6fb2" stroke-width="1.9" points="500.68,-269.16 510.68,-265.66 500.68,-262.16 500.68,-269.16"/>
<text xml:space="preserve" text-anchor="middle" x="317.32" y="-268.11" font-family="Arial" font-size="14.00" fill="#0f3e66">9) EvaluateAsync(context, rules)</text>
</g>
<!-- svc_10 -->
<g id="node53" class="node">
<title>svc_10</title>
<ellipse fill="#b9c4cc" stroke="#b9c4cc" cx="327.28" cy="-222.8" rx="0.43" ry="0.43"/>
</g>
<!-- svc_9&#45;&gt;svc_10 -->
<g id="edge44" class="edge">
<title>svc_9&#45;&gt;svc_10</title>
<path fill="none" stroke="#c4cdd5" stroke-dasharray="5,2" d="M327.28,-264.76C327.28,-260.43 327.28,-227.72 327.28,-223.64"/>
</g>
<!-- ctx_10 -->
<g id="node54" class="node">
<title>ctx_10</title>
<ellipse fill="#b9c4cc" stroke="#b9c4cc" cx="416.28" cy="-222.8" rx="0.43" ry="0.43"/>
</g>
<!-- ctx_9&#45;&gt;ctx_10 -->
<g id="edge59" class="edge">
<title>ctx_9&#45;&gt;ctx_10</title>
<path fill="none" stroke="#c4cdd5" stroke-dasharray="5,2" d="M416.28,-264.76C416.28,-260.43 416.28,-227.72 416.28,-223.64"/>
</g>
<!-- eng_10 -->
<g id="node55" class="node">
<title>eng_10</title>
<ellipse fill="#b9c4cc" stroke="#b9c4cc" cx="514.28" cy="-222.8" rx="0.43" ry="0.43"/>
</g>
<!-- eng_9&#45;&gt;eng_10 -->
<g id="edge74" class="edge">
<title>eng_9&#45;&gt;eng_10</title>
<path fill="none" stroke="#c4cdd5" stroke-dasharray="5,2" d="M514.28,-264.76C514.28,-260.43 514.28,-227.72 514.28,-223.64"/>
</g>
<!-- cli_11 -->
<g id="node56" class="node">
<title>cli_11</title>
<ellipse fill="#b9c4cc" stroke="#b9c4cc" cx="155.28" cy="-179.93" rx="0.43" ry="0.43"/>
</g>
<!-- cli_10&#45;&gt;cli_11 -->
<g id="edge15" class="edge">
<title>cli_10&#45;&gt;cli_11</title>
<path fill="none" stroke="#c4cdd5" stroke-dasharray="5,2" d="M155.28,-221.89C155.28,-217.57 155.28,-184.85 155.28,-180.78"/>
</g>
<!-- ctl_11 -->
<g id="node57" class="node">
<title>ctl_11</title>
<ellipse fill="#b9c4cc" stroke="#b9c4cc" cx="241.28" cy="-179.93" rx="0.43" ry="0.43"/>
</g>
<!-- ctl_10&#45;&gt;ctl_11 -->
<g id="edge30" class="edge">
<title>ctl_10&#45;&gt;ctl_11</title>
<path fill="none" stroke="#c4cdd5" stroke-dasharray="5,2" d="M241.28,-221.89C241.28,-217.57 241.28,-184.85 241.28,-180.78"/>
</g>
<!-- svc_11 -->
<g id="node58" class="node">
<title>svc_11</title>
<ellipse fill="#b9c4cc" stroke="#b9c4cc" cx="327.28" cy="-179.93" rx="0.43" ry="0.43"/>
</g>
<!-- svc_10&#45;&gt;svc_11 -->
<g id="edge45" class="edge">
<title>svc_10&#45;&gt;svc_11</title>
<path fill="none" stroke="#c4cdd5" stroke-dasharray="5,2" d="M327.28,-221.89C327.28,-217.57 327.28,-184.85 327.28,-180.78"/>
</g>
<!-- ctx_11 -->
<g id="node59" class="node">
<title>ctx_11</title>
<ellipse fill="#b9c4cc" stroke="#b9c4cc" cx="416.28" cy="-179.93" rx="0.43" ry="0.43"/>
</g>
<!-- ctx_10&#45;&gt;ctx_11 -->
<g id="edge60" class="edge">
<title>ctx_10&#45;&gt;ctx_11</title>
<path fill="none" stroke="#c4cdd5" stroke-dasharray="5,2" d="M416.28,-221.89C416.28,-217.57 416.28,-184.85 416.28,-180.78"/>
</g>
<!-- eng_10&#45;&gt;eng_10 -->
<g id="edge89" class="edge">
<title>eng_10&#45;&gt;eng_10</title>
<path fill="none" stroke="#7a6baa" d="M514.75,-223.29C524.7,-233.51 543.71,-233.35 543.71,-222.8 543.71,-215.13 533.68,-212.95 524.37,-216.25"/>
<polygon fill="#7a6baa" stroke="#7a6baa" points="522.63,-213.21 516.03,-221.5 526.36,-219.13 522.63,-213.21"/>
<text xml:space="preserve" text-anchor="middle" x="459.19" y="-241.07" font-family="Arial" font-size="14.00" fill="#4a3c78">10) تطبيق شروط JSON&#45;Logic</text>
<text xml:space="preserve" text-anchor="middle" x="459.19" y="-225.32" font-family="Arial" font-size="14.00" fill="#4a3c78">على السياق</text>
</g>
<!-- eng_11 -->
<g id="node60" class="node">
<title>eng_11</title>
<ellipse fill="#b9c4cc" stroke="#b9c4cc" cx="514.28" cy="-179.93" rx="0.43" ry="0.43"/>
</g>
<!-- eng_10&#45;&gt;eng_11 -->
<g id="edge75" class="edge">
<title>eng_10&#45;&gt;eng_11</title>
<path fill="none" stroke="#c4cdd5" stroke-dasharray="5,2" d="M514.28,-221.89C514.28,-217.57 514.28,-184.85 514.28,-180.78"/>
</g>
<!-- cli_12 -->
<g id="node61" class="node">
<title>cli_12</title>
<ellipse fill="#b9c4cc" stroke="#b9c4cc" cx="155.28" cy="-137.07" rx="0.43" ry="0.43"/>
</g>
<!-- cli_11&#45;&gt;cli_12 -->
<g id="edge16" class="edge">
<title>cli_11&#45;&gt;cli_12</title>
<path fill="none" stroke="#c4cdd5" stroke-dasharray="5,2" d="M155.28,-179.03C155.28,-174.7 155.28,-141.99 155.28,-137.92"/>
</g>
<!-- ctl_12 -->
<g id="node62" class="node">
<title>ctl_12</title>
<ellipse fill="#b9c4cc" stroke="#b9c4cc" cx="241.28" cy="-137.07" rx="0.43" ry="0.43"/>
</g>
<!-- ctl_11&#45;&gt;ctl_12 -->
<g id="edge31" class="edge">
<title>ctl_11&#45;&gt;ctl_12</title>
<path fill="none" stroke="#c4cdd5" stroke-dasharray="5,2" d="M241.28,-179.03C241.28,-174.7 241.28,-141.99 241.28,-137.92"/>
</g>
<!-- svc_12 -->
<g id="node63" class="node">
<title>svc_12</title>
<ellipse fill="#b9c4cc" stroke="#b9c4cc" cx="327.28" cy="-137.07" rx="0.43" ry="0.43"/>
</g>
<!-- svc_11&#45;&gt;svc_12 -->
<g id="edge46" class="edge">
<title>svc_11&#45;&gt;svc_12</title>
<path fill="none" stroke="#c4cdd5" stroke-dasharray="5,2" d="M327.28,-179.03C327.28,-174.7 327.28,-141.99 327.28,-137.92"/>
</g>
<!-- ctx_12 -->
<g id="node64" class="node">
<title>ctx_12</title>
<ellipse fill="#b9c4cc" stroke="#b9c4cc" cx="416.28" cy="-137.07" rx="0.43" ry="0.43"/>
</g>
<!-- ctx_11&#45;&gt;ctx_12 -->
<g id="edge61" class="edge">
<title>ctx_11&#45;&gt;ctx_12</title>
<path fill="none" stroke="#c4cdd5" stroke-dasharray="5,2" d="M416.28,-179.03C416.28,-174.7 416.28,-141.99 416.28,-137.92"/>
</g>
<!-- eng_11&#45;&gt;svc_11 -->
<g id="edge90" class="edge">
<title>eng_11&#45;&gt;svc_11</title>
<path fill="none" stroke="#7c8996" stroke-width="1.4" stroke-dasharray="5,2" d="M513.55,-179.93C455.57,-179.93 397.59,-179.93 339.61,-179.93"/>
<polygon fill="#7c8996" stroke="#7c8996" stroke-width="1.4" points="329.72,-179.93 339.72,-175.43 333.01,-179.73 339.72,-179.73 339.72,-179.93 339.72,-180.13 333.01,-180.13 339.72,-184.43 329.72,-179.93"/>
<text xml:space="preserve" text-anchor="middle" x="367.33" y="-182.38" font-family="Arial" font-size="14.00" fill="#3d4750">11) البطاقات — Cards</text>
</g>
<!-- eng_12 -->
<g id="node65" class="node">
<title>eng_12</title>
<ellipse fill="#b9c4cc" stroke="#b9c4cc" cx="514.28" cy="-137.07" rx="0.43" ry="0.43"/>
</g>
<!-- eng_11&#45;&gt;eng_12 -->
<g id="edge76" class="edge">
<title>eng_11&#45;&gt;eng_12</title>
<path fill="none" stroke="#c4cdd5" stroke-dasharray="5,2" d="M514.28,-179.03C514.28,-174.7 514.28,-141.99 514.28,-137.92"/>
</g>
<!-- cli_13 -->
<g id="node66" class="node">
<title>cli_13</title>
<ellipse fill="#b9c4cc" stroke="#b9c4cc" cx="155.28" cy="-94.2" rx="0.43" ry="0.43"/>
</g>
<!-- cli_12&#45;&gt;cli_13 -->
<g id="edge17" class="edge">
<title>cli_12&#45;&gt;cli_13</title>
<path fill="none" stroke="#c4cdd5" stroke-dasharray="5,2" d="M155.28,-136.16C155.28,-131.84 155.28,-99.12 155.28,-95.05"/>
</g>
<!-- ctl_13 -->
<g id="node67" class="node">
<title>ctl_13</title>
<ellipse fill="#b9c4cc" stroke="#b9c4cc" cx="241.28" cy="-94.2" rx="0.43" ry="0.43"/>
</g>
<!-- ctl_12&#45;&gt;ctl_13 -->
<g id="edge32" class="edge">
<title>ctl_12&#45;&gt;ctl_13</title>
<path fill="none" stroke="#c4cdd5" stroke-dasharray="5,2" d="M241.28,-136.16C241.28,-131.84 241.28,-99.12 241.28,-95.05"/>
</g>
<!-- svc_12&#45;&gt;ctl_12 -->
<g id="edge91" class="edge">
<title>svc_12&#45;&gt;ctl_12</title>
<path fill="none" stroke="#7c8996" stroke-width="1.4" stroke-dasharray="5,2" d="M326.61,-137.07C302.25,-137.07 277.89,-137.07 253.53,-137.07"/>
<polygon fill="#7c8996" stroke="#7c8996" stroke-width="1.4" points="243.66,-137.07 253.66,-132.57 246.95,-136.87 253.66,-136.87 253.66,-137.07 253.66,-137.27 246.95,-137.27 253.66,-141.57 243.66,-137.07"/>
<text xml:space="preserve" text-anchor="middle" x="199.32" y="-139.52" font-family="Arial" font-size="14.00" fill="#3d4750">12) CdsHookResponse(cards)</text>
</g>
<!-- svc_13 -->
<g id="node68" class="node">
<title>svc_13</title>
<ellipse fill="#b9c4cc" stroke="#b9c4cc" cx="327.28" cy="-94.2" rx="0.43" ry="0.43"/>
</g>
<!-- svc_12&#45;&gt;svc_13 -->
<g id="edge47" class="edge">
<title>svc_12&#45;&gt;svc_13</title>
<path fill="none" stroke="#c4cdd5" stroke-dasharray="5,2" d="M327.28,-136.16C327.28,-131.84 327.28,-99.12 327.28,-95.05"/>
</g>
<!-- ctx_13 -->
<g id="node69" class="node">
<title>ctx_13</title>
<ellipse fill="#b9c4cc" stroke="#b9c4cc" cx="416.28" cy="-94.2" rx="0.43" ry="0.43"/>
</g>
<!-- ctx_12&#45;&gt;ctx_13 -->
<g id="edge62" class="edge">
<title>ctx_12&#45;&gt;ctx_13</title>
<path fill="none" stroke="#c4cdd5" stroke-dasharray="5,2" d="M416.28,-136.16C416.28,-131.84 416.28,-99.12 416.28,-95.05"/>
</g>
<!-- eng_13 -->
<g id="node70" class="node">
<title>eng_13</title>
<ellipse fill="#b9c4cc" stroke="#b9c4cc" cx="514.28" cy="-94.2" rx="0.43" ry="0.43"/>
</g>
<!-- eng_12&#45;&gt;eng_13 -->
<g id="edge77" class="edge">
<title>eng_12&#45;&gt;eng_13</title>
<path fill="none" stroke="#c4cdd5" stroke-dasharray="5,2" d="M514.28,-136.16C514.28,-131.84 514.28,-99.12 514.28,-95.05"/>
</g>
<!-- cli_14 -->
<g id="node71" class="node">
<title>cli_14</title>
<ellipse fill="#b9c4cc" stroke="#b9c4cc" cx="155.28" cy="-51.34" rx="0.43" ry="0.43"/>
</g>
<!-- cli_13&#45;&gt;cli_14 -->
<g id="edge18" class="edge">
<title>cli_13&#45;&gt;cli_14</title>
<path fill="none" stroke="#c4cdd5" stroke-dasharray="5,2" d="M155.28,-93.3C155.28,-88.97 155.28,-56.26 155.28,-52.19"/>
</g>
<!-- ctl_13&#45;&gt;ctl_13 -->
<g id="edge92" class="edge">
<title>ctl_13&#45;&gt;ctl_13</title>
<path fill="none" stroke="#7a6baa" d="M241.75,-94.7C251.7,-104.92 270.71,-104.75 270.71,-94.2 270.71,-86.54 260.68,-84.36 251.37,-87.66"/>
<polygon fill="#7a6baa" stroke="#7a6baa" points="249.63,-84.62 243.03,-92.9 253.36,-90.54 249.63,-84.62"/>
<text xml:space="preserve" text-anchor="middle" x="208.31" y="-112.48" font-family="Arial" font-size="14.00" fill="#4a3c78">13) إن وُجدت بطاقات:</text>
<text xml:space="preserve" text-anchor="middle" x="208.31" y="-96.73" font-family="Arial" font-size="14.00" fill="#4a3c78">AlertFeed.Enqueue</text>
</g>
<!-- ctl_14 -->
<g id="node72" class="node">
<title>ctl_14</title>
<ellipse fill="#b9c4cc" stroke="#b9c4cc" cx="241.28" cy="-51.34" rx="0.43" ry="0.43"/>
</g>
<!-- ctl_13&#45;&gt;ctl_14 -->
<g id="edge33" class="edge">
<title>ctl_13&#45;&gt;ctl_14</title>
<path fill="none" stroke="#c4cdd5" stroke-dasharray="5,2" d="M241.28,-93.3C241.28,-88.97 241.28,-56.26 241.28,-52.19"/>
</g>
<!-- svc_14 -->
<g id="node73" class="node">
<title>svc_14</title>
<ellipse fill="#b9c4cc" stroke="#b9c4cc" cx="327.28" cy="-51.34" rx="0.43" ry="0.43"/>
</g>
<!-- svc_13&#45;&gt;svc_14 -->
<g id="edge48" class="edge">
<title>svc_13&#45;&gt;svc_14</title>
<path fill="none" stroke="#c4cdd5" stroke-dasharray="5,2" d="M327.28,-93.3C327.28,-88.97 327.28,-56.26 327.28,-52.19"/>
</g>
<!-- ctx_14 -->
<g id="node74" class="node">
<title>ctx_14</title>
<ellipse fill="#b9c4cc" stroke="#b9c4cc" cx="416.28" cy="-51.34" rx="0.43" ry="0.43"/>
</g>
<!-- ctx_13&#45;&gt;ctx_14 -->
<g id="edge63" class="edge">
<title>ctx_13&#45;&gt;ctx_14</title>
<path fill="none" stroke="#c4cdd5" stroke-dasharray="5,2" d="M416.28,-93.3C416.28,-88.97 416.28,-56.26 416.28,-52.19"/>
</g>
<!-- eng_14 -->
<g id="node75" class="node">
<title>eng_14</title>
<ellipse fill="#b9c4cc" stroke="#b9c4cc" cx="514.28" cy="-51.34" rx="0.43" ry="0.43"/>
</g>
<!-- eng_13&#45;&gt;eng_14 -->
<g id="edge78" class="edge">
<title>eng_13&#45;&gt;eng_14</title>
<path fill="none" stroke="#c4cdd5" stroke-dasharray="5,2" d="M514.28,-93.3C514.28,-88.97 514.28,-56.26 514.28,-52.19"/>
</g>
<!-- cli_15 -->
<g id="node76" class="node">
<title>cli_15</title>
<ellipse fill="#b9c4cc" stroke="#b9c4cc" cx="155.28" cy="-8.48" rx="0.43" ry="0.43"/>
</g>
<!-- cli_14&#45;&gt;cli_15 -->
<g id="edge19" class="edge">
<title>cli_14&#45;&gt;cli_15</title>
<path fill="none" stroke="#c4cdd5" stroke-dasharray="5,2" d="M155.28,-50.44C155.28,-46.11 155.28,-13.4 155.28,-9.32"/>
</g>
<!-- ctl_14&#45;&gt;cli_14 -->
<g id="edge93" class="edge">
<title>ctl_14&#45;&gt;cli_14</title>
<path fill="none" stroke="#7c8996" stroke-width="1.4" stroke-dasharray="5,2" d="M240.61,-51.34C216.25,-51.34 191.89,-51.34 167.53,-51.34"/>
<polygon fill="#7c8996" stroke="#7c8996" stroke-width="1.4" points="157.66,-51.34 167.66,-46.84 160.95,-51.14 167.66,-51.14 167.66,-51.34 167.66,-51.54 160.95,-51.54 167.66,-55.84 157.66,-51.34"/>
<text xml:space="preserve" text-anchor="middle" x="142.57" y="-53.79" font-family="Arial" font-size="14.00" fill="#3d4750">14) 200 OK { cards }</text>
</g>
<!-- ctl_15 -->
<g id="node77" class="node">
<title>ctl_15</title>
<ellipse fill="#b9c4cc" stroke="#b9c4cc" cx="241.28" cy="-8.48" rx="0.43" ry="0.43"/>
</g>
<!-- ctl_14&#45;&gt;ctl_15 -->
<g id="edge34" class="edge">
<title>ctl_14&#45;&gt;ctl_15</title>
<path fill="none" stroke="#c4cdd5" stroke-dasharray="5,2" d="M241.28,-50.44C241.28,-46.11 241.28,-13.4 241.28,-9.32"/>
</g>
<!-- svc_15 -->
<g id="node78" class="node">
<title>svc_15</title>
<ellipse fill="#b9c4cc" stroke="#b9c4cc" cx="327.28" cy="-8.48" rx="0.43" ry="0.43"/>
</g>
<!-- svc_14&#45;&gt;svc_15 -->
<g id="edge49" class="edge">
<title>svc_14&#45;&gt;svc_15</title>
<path fill="none" stroke="#c4cdd5" stroke-dasharray="5,2" d="M327.28,-50.44C327.28,-46.11 327.28,-13.4 327.28,-9.32"/>
</g>
<!-- ctx_15 -->
<g id="node79" class="node">
<title>ctx_15</title>
<ellipse fill="#b9c4cc" stroke="#b9c4cc" cx="416.28" cy="-8.48" rx="0.43" ry="0.43"/>
</g>
<!-- ctx_14&#45;&gt;ctx_15 -->
<g id="edge64" class="edge">
<title>ctx_14&#45;&gt;ctx_15</title>
<path fill="none" stroke="#c4cdd5" stroke-dasharray="5,2" d="M416.28,-50.44C416.28,-46.11 416.28,-13.4 416.28,-9.32"/>
</g>
<!-- eng_15 -->
<g id="node80" class="node">
<title>eng_15</title>
<ellipse fill="#b9c4cc" stroke="#b9c4cc" cx="514.28" cy="-8.48" rx="0.43" ry="0.43"/>
</g>
<!-- eng_14&#45;&gt;eng_15 -->
<g id="edge79" class="edge">
<title>eng_14&#45;&gt;eng_15</title>
<path fill="none" stroke="#c4cdd5" stroke-dasharray="5,2" d="M514.28,-50.44C514.28,-46.11 514.28,-13.4 514.28,-9.32"/>
</g>
<!-- cli_15&#45;&gt;cli_15 -->
<g id="edge94" class="edge">
<title>cli_15&#45;&gt;cli_15</title>
<path fill="none" stroke="#7a6baa" d="M155.75,-8.97C165.7,-19.19 184.71,-19.03 184.71,-8.48 184.71,-0.81 174.68,1.37 165.37,-1.93"/>
<polygon fill="#7a6baa" stroke="#7a6baa" points="163.63,1.11 157.03,-7.18 167.36,-4.81 163.63,1.11"/>
<text xml:space="preserve" text-anchor="middle" x="100.94" y="-11" font-family="Arial" font-size="14.00" fill="#4a3c78">15) عرض بطاقات التحذير للطبيب</text>
</g>
</g>
</svg>
