<?xml version="1.0" encoding="UTF-8" standalone="no"?>
<!DOCTYPE svg PUBLIC "-//W3C//DTD SVG 1.1//EN"
 "http://www.w3.org/Graphics/SVG/1.1/DTD/svg11.dtd">
<!-- Generated by graphviz version 14.1.1 (20251213.1925)
 -->
<!-- Title: UC Pages: 1 -->
<svg width="441pt" height="776pt"
 viewBox="0.00 0.00 441.00 776.00" xmlns="http://www.w3.org/2000/svg" xmlns:xlink="http://www.w3.org/1999/xlink">
<g id="graph0" class="graph" transform="scale(1 1) rotate(0) translate(21.6 754.35)">
<title>UC</title>
<polygon fill="white" stroke="none" points="-21.6,21.6 -21.6,-754.35 418.96,-754.35 418.96,21.6 -21.6,21.6"/>
<text xml:space="preserve" text-anchor="middle" x="198.68" y="-715.45" font-family="Arial" font-size="14.00">مخطّط حالات الاستخدام العام لنظام DMRS</text>
<g id="clust2" class="cluster">
<title>cluster_sys</title>
<path fill="#f7fbfd" stroke="#1f6fb2" d="M20,-8C20,-8 199.36,-8 199.36,-8 205.36,-8 211.36,-14 211.36,-20 211.36,-20 211.36,-689 211.36,-689 211.36,-695 205.36,-701 199.36,-701 199.36,-701 20,-701 20,-701 14,-701 8,-695 8,-689 8,-689 8,-20 8,-20 8,-14 14,-8 20,-8"/>
<text xml:space="preserve" text-anchor="middle" x="109.68" y="-683.7" font-family="Arial" font-size="14.00">نظام DMRS</text>
</g>
<!-- sysadmin -->
<g id="node1" class="node">
<title>sysadmin</title>
<path fill="#c0392b" stroke="black" d="M385.36,-657C385.36,-657 324.36,-657 324.36,-657 318.36,-657 312.36,-651 312.36,-645 312.36,-645 312.36,-633 312.36,-633 312.36,-627 318.36,-621 324.36,-621 324.36,-621 385.36,-621 385.36,-621 391.36,-621 397.36,-627 397.36,-633 397.36,-633 397.36,-645 397.36,-645 397.36,-651 391.36,-657 385.36,-657"/>
<text xml:space="preserve" text-anchor="middle" x="354.86" y="-642.05" font-family="Arial" font-size="11.00" fill="white">مدير النظام</text>
<text xml:space="preserve" text-anchor="middle" x="354.86" y="-628.55" font-family="Arial" font-size="11.00" fill="white">System Admin</text>
</g>
<!-- orgadmin -->
<g id="node2" class="node">
<title>orgadmin</title>
<path fill="#8e44ad" stroke="black" d="M376.36,-509C376.36,-509 333.36,-509 333.36,-509 327.36,-509 321.36,-503 321.36,-497 321.36,-497 321.36,-485 321.36,-485 321.36,-479 327.36,-473 333.36,-473 333.36,-473 376.36,-473 376.36,-473 382.36,-473 388.36,-479 388.36,-485 388.36,-485 388.36,-497 388.36,-497 388.36,-503 382.36,-509 376.36,-509"/>
<text xml:space="preserve" text-anchor="middle" x="354.86" y="-494.05" font-family="Arial" font-size="11.00" fill="white">مدير المؤسسة</text>
<text xml:space="preserve" text-anchor="middle" x="354.86" y="-480.55" font-family="Arial" font-size="11.00" fill="white">Org Admin</text>
</g>
<!-- sysadmin&#45;&gt;orgadmin -->
<g id="edge1" class="edge">
<title>sysadmin&#45;&gt;orgadmin</title>
<path fill="none" stroke="#333333" d="M354.86,-609.42C354.86,-576.02 354.86,-542.61 354.86,-509.21"/>
<polygon fill="none" stroke="#333333" points="351.36,-609.23 354.86,-619.23 358.36,-609.23 351.36,-609.23"/>
</g>
<!-- g_orgs -->
<g id="node14" class="node">
<title>g_orgs</title>
<ellipse fill="#f7e3e1" stroke="#c0392b" cx="109.68" cy="-639" rx="87.68" ry="24.75"/>
<text xml:space="preserve" text-anchor="middle" x="109.68" y="-642.05" font-family="Arial" font-size="11.00">إدارة المؤسسات</text>
<text xml:space="preserve" text-anchor="middle" x="109.68" y="-628.55" font-family="Arial" font-size="11.00">Manage Organizations</text>
</g>
<!-- sysadmin&#45;&gt;g_orgs -->
<g id="edge13" class="edge">
<title>sysadmin&#45;&gt;g_orgs</title>
<path fill="none" stroke="#666666" d="M312.06,-639C280.69,-639 236.63,-639 197.73,-639"/>
</g>
<!-- pract -->
<g id="node3" class="node">
<title>pract</title>
<path fill="#1f6fb2" stroke="black" d="M382.74,-250C382.74,-250 326.99,-250 326.99,-250 320.99,-250 314.99,-244 314.99,-238 314.99,-238 314.99,-226 314.99,-226 314.99,-220 320.99,-214 326.99,-214 326.99,-214 382.74,-214 382.74,-214 388.74,-214 394.74,-220 394.74,-226 394.74,-226 394.74,-238 394.74,-238 394.74,-244 388.74,-250 382.74,-250"/>
<text xml:space="preserve" text-anchor="middle" x="354.86" y="-235.05" font-family="Arial" font-size="11.00" fill="white">الطبيب / الممارس</text>
<text xml:space="preserve" text-anchor="middle" x="354.86" y="-221.55" font-family="Arial" font-size="11.00" fill="white">Practitioner</text>
</g>
<!-- orgadmin&#45;&gt;pract -->
<g id="edge2" class="edge">
<title>orgadmin&#45;&gt;pract</title>
<path fill="none" stroke="#333333" d="M354.86,-461.39C354.86,-391.08 354.86,-320.77 354.86,-250.46"/>
<polygon fill="none" stroke="#333333" points="351.36,-461.16 354.86,-471.16 358.36,-461.16 351.36,-461.16"/>
</g>
<!-- g_staff -->
<g id="node11" class="node">
<title>g_staff</title>
<ellipse fill="#f1e6f7" stroke="#8e44ad" cx="109.68" cy="-417" rx="64.88" ry="24.75"/>
<text xml:space="preserve" text-anchor="middle" x="109.68" y="-420.05" font-family="Arial" font-size="11.00">إدارة الكادر والدعوات</text>
<text xml:space="preserve" text-anchor="middle" x="109.68" y="-406.55" font-family="Arial" font-size="11.00">Staff &amp; Invites</text>
</g>
<!-- orgadmin&#45;&gt;g_staff -->
<g id="edge10" class="edge">
<title>orgadmin&#45;&gt;g_staff</title>
<path fill="none" stroke="#666666" d="M321.07,-481.02C279.97,-468.51 209.11,-446.95 161.1,-432.34"/>
</g>
<!-- g_ext -->
<g id="node12" class="node">
<title>g_ext</title>
<ellipse fill="#f1e6f7" stroke="#8e44ad" cx="109.68" cy="-491" rx="74.95" ry="24.75"/>
<text xml:space="preserve" text-anchor="middle" x="109.68" y="-494.05" font-family="Arial" font-size="11.00">النماذج الخارجية</text>
<text xml:space="preserve" text-anchor="middle" x="109.68" y="-480.55" font-family="Arial" font-size="11.00">External AI Models</text>
</g>
<!-- orgadmin&#45;&gt;g_ext -->
<g id="edge11" class="edge">
<title>orgadmin&#45;&gt;g_ext</title>
<path fill="none" stroke="#666666" d="M321.07,-491C286.39,-491 230.52,-491 185.06,-491"/>
</g>
<!-- g_cds -->
<g id="node13" class="node">
<title>g_cds</title>
<ellipse fill="#f1e6f7" stroke="#8e44ad" cx="109.68" cy="-565" rx="69.12" ry="24.75"/>
<text xml:space="preserve" text-anchor="middle" x="109.68" y="-568.05" font-family="Arial" font-size="11.00">تأليف قواعد دعم القرار</text>
<text xml:space="preserve" text-anchor="middle" x="109.68" y="-554.55" font-family="Arial" font-size="11.00">CDS Authoring</text>
</g>
<!-- orgadmin&#45;&gt;g_cds -->
<g id="edge12" class="edge">
<title>orgadmin&#45;&gt;g_cds</title>
<path fill="none" stroke="#666666" d="M321.07,-500.98C280.62,-513.29 211.34,-534.37 163.39,-548.96"/>
</g>
<!-- g_auth -->
<g id="node6" class="node">
<title>g_auth</title>
<ellipse fill="#eeeeee" stroke="#777777" cx="109.68" cy="-121" rx="73.36" ry="24.75"/>
<text xml:space="preserve" text-anchor="middle" x="109.68" y="-124.05" font-family="Arial" font-size="11.00">المصادقة وتبديل اللغة</text>
<text xml:space="preserve" text-anchor="middle" x="109.68" y="-110.55" font-family="Arial" font-size="11.00">Login &amp; Language</text>
</g>
<!-- pract&#45;&gt;g_auth -->
<g id="edge6" class="edge">
<title>pract&#45;&gt;g_auth</title>
<path fill="none" stroke="#666666" d="M321.33,-213.6C292.81,-197.84 250,-175.05 211.36,-158 195.69,-151.08 178.28,-144.36 162.4,-138.58"/>
</g>
<!-- g_clin -->
<g id="node8" class="node">
<title>g_clin</title>
<ellipse fill="#e8f1f8" stroke="#1f6fb2" cx="109.68" cy="-195" rx="73.89" ry="24.75"/>
<text xml:space="preserve" text-anchor="middle" x="109.68" y="-198.05" font-family="Arial" font-size="11.00">السجل السريري للمرضى</text>
<text xml:space="preserve" text-anchor="middle" x="109.68" y="-184.55" font-family="Arial" font-size="11.00">Clinical Record</text>
</g>
<!-- pract&#45;&gt;g_clin -->
<g id="edge7" class="edge">
<title>pract&#45;&gt;g_clin</title>
<path fill="none" stroke="#666666" d="M314.52,-226.01C277.55,-220.39 221.49,-211.86 177.51,-205.17"/>
</g>
<!-- g_orders -->
<g id="node9" class="node">
<title>g_orders</title>
<ellipse fill="#e8f1f8" stroke="#1f6fb2" cx="109.68" cy="-269" rx="81.85" ry="24.75"/>
<text xml:space="preserve" text-anchor="middle" x="109.68" y="-272.05" font-family="Arial" font-size="11.00">الطلبات والمواعيد</text>
<text xml:space="preserve" text-anchor="middle" x="109.68" y="-258.55" font-family="Arial" font-size="11.00">Orders &amp; Scheduling</text>
</g>
<!-- pract&#45;&gt;g_orders -->
<g id="edge8" class="edge">
<title>pract&#45;&gt;g_orders</title>
<path fill="none" stroke="#666666" d="M314.52,-237.99C279.17,-243.36 226.35,-251.4 183.34,-257.95"/>
</g>
<!-- g_ai -->
<g id="node10" class="node">
<title>g_ai</title>
<ellipse fill="#e8f1f8" stroke="#1f6fb2" cx="109.68" cy="-343" rx="71.24" ry="24.75"/>
<text xml:space="preserve" text-anchor="middle" x="109.68" y="-346.05" font-family="Arial" font-size="11.00">المخاطر والرؤى الذكية</text>
<text xml:space="preserve" text-anchor="middle" x="109.68" y="-332.55" font-family="Arial" font-size="11.00">AI Risk &amp; Insights</text>
</g>
<!-- pract&#45;&gt;g_ai -->
<g id="edge9" class="edge">
<title>pract&#45;&gt;g_ai</title>
<path fill="none" stroke="#666666" d="M321.33,-250.4C292.81,-266.16 250,-288.95 211.36,-306 195.43,-313.03 177.71,-319.86 161.63,-325.7"/>
</g>
<!-- patient -->
<g id="node4" class="node">
<title>patient</title>
<path fill="#2e8b57" stroke="black" d="M369.86,-72C369.86,-72 339.86,-72 339.86,-72 333.86,-72 327.86,-66 327.86,-60 327.86,-60 327.86,-48 327.86,-48 327.86,-42 333.86,-36 339.86,-36 339.86,-36 369.86,-36 369.86,-36 375.86,-36 381.86,-42 381.86,-48 381.86,-48 381.86,-60 381.86,-60 381.86,-66 375.86,-72 369.86,-72"/>
<text xml:space="preserve" text-anchor="middle" x="354.86" y="-57.05" font-family="Arial" font-size="11.00" fill="white">المريض</text>
<text xml:space="preserve" text-anchor="middle" x="354.86" y="-43.55" font-family="Arial" font-size="11.00" fill="white">Patient</text>
</g>
<!-- patient&#45;&gt;g_auth -->
<g id="edge4" class="edge">
<title>patient&#45;&gt;g_auth</title>
<path fill="none" stroke="#666666" d="M327.37,-61.3C289.21,-71.81 217.83,-91.48 167.44,-105.36"/>
</g>
<!-- g_portal -->
<g id="node7" class="node">
<title>g_portal</title>
<ellipse fill="#e3f2e9" stroke="#2e8b57" cx="109.68" cy="-47" rx="57.45" ry="24.75"/>
<text xml:space="preserve" text-anchor="middle" x="109.68" y="-50.05" font-family="Arial" font-size="11.00">بوابة المريض</text>
<text xml:space="preserve" text-anchor="middle" x="109.68" y="-36.55" font-family="Arial" font-size="11.00">Patient Portal</text>
</g>
<!-- patient&#45;&gt;g_portal -->
<g id="edge5" class="edge">
<title>patient&#45;&gt;g_portal</title>
<path fill="none" stroke="#666666" d="M327.37,-53.24C289.21,-52.14 217.83,-50.08 167.44,-48.63"/>
</g>
<!-- visitor -->
<g id="node5" class="node">
<title>visitor</title>
<path fill="#777777" stroke="black" d="M369.86,-139C369.86,-139 339.86,-139 339.86,-139 333.86,-139 327.86,-133 327.86,-127 327.86,-127 327.86,-115 327.86,-115 327.86,-109 333.86,-103 339.86,-103 339.86,-103 369.86,-103 369.86,-103 375.86,-103 381.86,-109 381.86,-115 381.86,-115 381.86,-127 381.86,-127 381.86,-133 375.86,-139 369.86,-139"/>
<text xml:space="preserve" text-anchor="middle" x="354.86" y="-124.05" font-family="Arial" font-size="11.00" fill="white">الزائر</text>
<text xml:space="preserve" text-anchor="middle" x="354.86" y="-110.55" font-family="Arial" font-size="11.00" fill="white">Visitor</text>
</g>
<!-- visitor&#45;&gt;g_auth -->
<g id="edge3" class="edge">
<title>visitor&#45;&gt;g_auth</title>
<path fill="none" stroke="#666666" d="M327.37,-121C293.09,-121 231.99,-121 183.39,-121"/>
</g>
</g>
</svg>
