<?xml version="1.0" encoding="UTF-8" standalone="no"?>
<!DOCTYPE svg PUBLIC "-//W3C//DTD SVG 1.1//EN"
 "http://www.w3.org/Graphics/SVG/1.1/DTD/svg11.dtd">
<!-- Generated by graphviz version 14.1.1 (20251213.1925)
 -->
<!-- Title: UC Pages: 1 -->
<svg width="745pt" height="1352pt"
 viewBox="0.00 0.00 745.00 1352.00" xmlns="http://www.w3.org/2000/svg" xmlns:xlink="http://www.w3.org/1999/xlink">
<g id="graph0" class="graph" transform="scale(1 1) rotate(0) translate(21.6 1330.6)">
<title>UC</title>
<polygon fill="white" stroke="none" points="-21.6,21.6 -21.6,-1330.6 723.01,-1330.6 723.01,21.6 -21.6,21.6"/>
<text xml:space="preserve" text-anchor="middle" x="350.71" y="-1292.65" font-family="Arial" font-size="13.00">مخطّط حالات الاستخدام — الطبيب / الممارس (Practitioner)</text>
<g id="clust1" class="cluster">
<title>cluster_sys</title>
<path fill="#f7fbfd" stroke="#1f6fb2" d="M20,-8C20,-8 484.01,-8 484.01,-8 490.01,-8 496.01,-14 496.01,-20 496.01,-20 496.01,-1266 496.01,-1266 496.01,-1272 490.01,-1278 484.01,-1278 484.01,-1278 20,-1278 20,-1278 14,-1278 8,-1272 8,-1266 8,-1266 8,-20 8,-20 8,-14 14,-8 20,-8"/>
<text xml:space="preserve" text-anchor="middle" x="252.01" y="-1261.65" font-family="Arial" font-size="13.00">نظام نبض</text>
</g>
<!-- actor -->
<g id="node1" class="node">
<title>actor</title>
<path fill="#1f6fb2" stroke="black" d="M689.41,-638C689.41,-638 591.01,-638 591.01,-638 585.01,-638 579.01,-632 579.01,-626 579.01,-626 579.01,-614 579.01,-614 579.01,-608 585.01,-602 591.01,-602 591.01,-602 689.41,-602 689.41,-602 695.41,-602 701.41,-608 701.41,-614 701.41,-614 701.41,-626 701.41,-626 701.41,-632 695.41,-638 689.41,-638"/>
<text xml:space="preserve" text-anchor="middle" x="640.21" y="-623.05" font-family="Arial" font-size="11.00" fill="white">الطبيب / الممارس</text>
<text xml:space="preserve" text-anchor="middle" x="640.21" y="-609.55" font-family="Arial" font-size="11.00" fill="white">Practitioner</text>
</g>
<!-- u_login -->
<g id="node2" class="node">
<title>u_login</title>
<ellipse fill="#e8f1f8" stroke="#1f6fb2" cx="391.03" cy="-1218" rx="46.85" ry="24.75"/>
<text xml:space="preserve" text-anchor="middle" x="391.03" y="-1221.05" font-family="Arial" font-size="11.00">تسجيل الدخول</text>
<text xml:space="preserve" text-anchor="middle" x="391.03" y="-1207.55" font-family="Arial" font-size="11.00">Login</text>
</g>
<!-- actor&#45;&gt;u_login -->
<g id="edge1" class="edge">
<title>actor&#45;&gt;u_login</title>
<path fill="none" stroke="#555555" d="M637.07,-638.39C626.45,-726.39 576.76,-1103.49 496.01,-1184 480.34,-1199.62 457.4,-1208.07 437.05,-1212.63"/>
</g>
<!-- u_dash -->
<g id="node3" class="node">
<title>u_dash</title>
<ellipse fill="#e8f1f8" stroke="#1f6fb2" cx="391.03" cy="-1149" rx="68.06" ry="24.75"/>
<text xml:space="preserve" text-anchor="middle" x="391.03" y="-1152.05" font-family="Arial" font-size="11.00">عرض اللوحة الرئيسية</text>
<text xml:space="preserve" text-anchor="middle" x="391.03" y="-1138.55" font-family="Arial" font-size="11.00">View Dashboard</text>
</g>
<!-- actor&#45;&gt;u_dash -->
<g id="edge2" class="edge">
<title>actor&#45;&gt;u_dash</title>
<path fill="none" stroke="#555555" d="M636.42,-638.31C623.7,-719.51 568.64,-1046.14 496.01,-1115 484.23,-1126.17 468.71,-1133.68 453.28,-1138.71"/>
</g>
<!-- u_search -->
<g id="node4" class="node">
<title>u_search</title>
<ellipse fill="#e8f1f8" stroke="#1f6fb2" cx="391.03" cy="-1080" rx="65.41" ry="24.75"/>
<text xml:space="preserve" text-anchor="middle" x="391.03" y="-1083.05" font-family="Arial" font-size="11.00">البحث عن المرضى</text>
<text xml:space="preserve" text-anchor="middle" x="391.03" y="-1069.55" font-family="Arial" font-size="11.00">Search Patients</text>
</g>
<!-- actor&#45;&gt;u_search -->
<g id="edge3" class="edge">
<title>actor&#45;&gt;u_search</title>
<path fill="none" stroke="#555555" d="M638.83,-638.08C636.42,-703.38 619.17,-929.24 496.01,-1046 483.81,-1057.56 467.62,-1065.2 451.66,-1070.23"/>
</g>
<!-- u_pat -->
<g id="node5" class="node">
<title>u_pat</title>
<ellipse fill="#e8f1f8" stroke="#1f6fb2" cx="391.03" cy="-1011" rx="68.59" ry="24.75"/>
<text xml:space="preserve" text-anchor="middle" x="391.03" y="-1014.05" font-family="Arial" font-size="11.00">إدارة المرضى</text>
<text xml:space="preserve" text-anchor="middle" x="391.03" y="-1000.55" font-family="Arial" font-size="11.00">Manage Patients</text>
</g>
<!-- actor&#45;&gt;u_pat -->
<g id="edge4" class="edge">
<title>actor&#45;&gt;u_pat</title>
<path fill="none" stroke="#555555" d="M637.29,-638.19C630.16,-696.34 600.07,-879.54 496.01,-977 484.3,-987.97 468.99,-995.4 453.73,-1000.44"/>
</g>
<!-- u_chart -->
<g id="node6" class="node">
<title>u_chart</title>
<ellipse fill="#e8f1f8" stroke="#1f6fb2" cx="391.03" cy="-942" rx="77.07" ry="24.75"/>
<text xml:space="preserve" text-anchor="middle" x="391.03" y="-945.05" font-family="Arial" font-size="11.00">فتح مخطّط المريض</text>
<text xml:space="preserve" text-anchor="middle" x="391.03" y="-931.55" font-family="Arial" font-size="11.00">Open Patient Chart</text>
</g>
<!-- actor&#45;&gt;u_chart -->
<g id="edge5" class="edge">
<title>actor&#45;&gt;u_chart</title>
<path fill="none" stroke="#555555" d="M635.35,-638.2C623.69,-688.71 584.1,-831.87 496.01,-908 485.09,-917.44 471.49,-924.27 457.76,-929.21"/>
</g>
<!-- u_cond -->
<g id="node7" class="node">
<title>u_cond</title>
<ellipse fill="#e8f1f8" stroke="#1f6fb2" cx="391.03" cy="-873" rx="70.71" ry="24.75"/>
<text xml:space="preserve" text-anchor="middle" x="391.03" y="-876.05" font-family="Arial" font-size="11.00">تسجيل حالة مرضية</text>
<text xml:space="preserve" text-anchor="middle" x="391.03" y="-862.55" font-family="Arial" font-size="11.00">Record Condition</text>
</g>
<!-- actor&#45;&gt;u_cond -->
<g id="edge6" class="edge">
<title>actor&#45;&gt;u_cond</title>
<path fill="none" stroke="#555555" d="M632.26,-638.29C615.43,-680.13 568.49,-783.46 496.01,-839 483.42,-848.65 467.98,-855.62 452.89,-860.63"/>
</g>
<!-- u_obs -->
<g id="node8" class="node">
<title>u_obs</title>
<ellipse fill="#e8f1f8" stroke="#1f6fb2" cx="391.03" cy="-804" rx="79.2" ry="24.75"/>
<text xml:space="preserve" text-anchor="middle" x="391.03" y="-807.05" font-family="Arial" font-size="11.00">تسجيل ملاحظة</text>
<text xml:space="preserve" text-anchor="middle" x="391.03" y="-793.55" font-family="Arial" font-size="11.00">Record Observation</text>
</g>
<!-- actor&#45;&gt;u_obs -->
<g id="edge7" class="edge">
<title>actor&#45;&gt;u_obs</title>
<path fill="none" stroke="#555555" d="M626.39,-638.49C603.66,-669.93 553.28,-733.91 496.01,-770 483.48,-777.9 468.93,-784.14 454.76,-789"/>
</g>
<!-- u_proc -->
<g id="node9" class="node">
<title>u_proc</title>
<ellipse fill="#e8f1f8" stroke="#1f6fb2" cx="391.03" cy="-735" rx="73.89" ry="24.75"/>
<text xml:space="preserve" text-anchor="middle" x="391.03" y="-738.05" font-family="Arial" font-size="11.00">تسجيل إجراء</text>
<text xml:space="preserve" text-anchor="middle" x="391.03" y="-724.55" font-family="Arial" font-size="11.00">Record Procedure</text>
</g>
<!-- actor&#45;&gt;u_proc -->
<g id="edge8" class="edge">
<title>actor&#45;&gt;u_proc</title>
<path fill="none" stroke="#555555" d="M610.74,-638.35C582.46,-656.03 537.43,-682.73 496.01,-701 480.81,-707.71 463.85,-713.8 448.11,-718.92"/>
</g>
<!-- u_allergy -->
<g id="node10" class="node">
<title>u_allergy</title>
<ellipse fill="#e8f1f8" stroke="#1f6fb2" cx="391.03" cy="-666" rx="61.16" ry="24.75"/>
<text xml:space="preserve" text-anchor="middle" x="391.03" y="-669.05" font-family="Arial" font-size="11.00">تسجيل حساسية</text>
<text xml:space="preserve" text-anchor="middle" x="391.03" y="-655.55" font-family="Arial" font-size="11.00">Record Allergy</text>
</g>
<!-- actor&#45;&gt;u_allergy -->
<g id="edge9" class="edge">
<title>actor&#45;&gt;u_allergy</title>
<path fill="none" stroke="#555555" d="M578.74,-631.25C538.58,-638.73 486.26,-648.46 447.23,-655.73"/>
</g>
<!-- u_enc -->
<g id="node11" class="node">
<title>u_enc</title>
<ellipse fill="#e8f1f8" stroke="#1f6fb2" cx="391.03" cy="-597" rx="73.36" ry="24.75"/>
<text xml:space="preserve" text-anchor="middle" x="391.03" y="-600.05" font-family="Arial" font-size="11.00">تسجيل زيارة</text>
<text xml:space="preserve" text-anchor="middle" x="391.03" y="-586.55" font-family="Arial" font-size="11.00">Record Encounter</text>
</g>
<!-- actor&#45;&gt;u_enc -->
<g id="edge10" class="edge">
<title>actor&#45;&gt;u_enc</title>
<path fill="none" stroke="#555555" d="M578.74,-614.37C543.44,-611.09 498.74,-606.93 461.93,-603.5"/>
</g>
<!-- u_med -->
<g id="node12" class="node">
<title>u_med</title>
<ellipse fill="#e8f1f8" stroke="#1f6fb2" cx="391.03" cy="-528" rx="82.38" ry="24.75"/>
<text xml:space="preserve" text-anchor="middle" x="391.03" y="-531.05" font-family="Arial" font-size="11.00">وصف دواء</text>
<text xml:space="preserve" text-anchor="middle" x="391.03" y="-517.55" font-family="Arial" font-size="11.00">Prescribe Medication</text>
</g>
<!-- actor&#45;&gt;u_med -->
<g id="edge11" class="edge">
<title>actor&#45;&gt;u_med</title>
<path fill="none" stroke="#555555" d="M595.96,-601.58C567.7,-589.77 529.9,-574.39 496.01,-562 480.94,-556.49 464.49,-550.91 449.21,-545.91"/>
</g>
<!-- u_svc -->
<g id="node14" class="node">
<title>u_svc</title>
<ellipse fill="#e8f1f8" stroke="#1f6fb2" cx="391.03" cy="-459" rx="92.98" ry="24.75"/>
<text xml:space="preserve" text-anchor="middle" x="391.03" y="-462.05" font-family="Arial" font-size="11.00">إنشاء طلب خدمة</text>
<text xml:space="preserve" text-anchor="middle" x="391.03" y="-448.55" font-family="Arial" font-size="11.00">Create Service Request</text>
</g>
<!-- actor&#45;&gt;u_svc -->
<g id="edge12" class="edge">
<title>actor&#45;&gt;u_svc</title>
<path fill="none" stroke="#555555" d="M623.38,-601.84C598.72,-574.59 548.47,-523.09 496.01,-493 484.48,-486.38 471.48,-480.85 458.67,-476.29"/>
</g>
<!-- u_appt -->
<g id="node15" class="node">
<title>u_appt</title>
<ellipse fill="#e8f1f8" stroke="#1f6fb2" cx="391.03" cy="-390" rx="87.68" ry="24.75"/>
<text xml:space="preserve" text-anchor="middle" x="391.03" y="-393.05" font-family="Arial" font-size="11.00">جدولة موعد</text>
<text xml:space="preserve" text-anchor="middle" x="391.03" y="-379.55" font-family="Arial" font-size="11.00">Schedule Appointment</text>
</g>
<!-- actor&#45;&gt;u_appt -->
<g id="edge13" class="edge">
<title>actor&#45;&gt;u_appt</title>
<path fill="none" stroke="#555555" d="M630.75,-601.63C612.03,-563 563.37,-472.89 496.01,-424 485.33,-416.25 472.78,-410.2 460.17,-405.5"/>
</g>
<!-- u_loc -->
<g id="node16" class="node">
<title>u_loc</title>
<ellipse fill="#e8f1f8" stroke="#1f6fb2" cx="391.03" cy="-321" rx="73.36" ry="24.75"/>
<text xml:space="preserve" text-anchor="middle" x="391.03" y="-324.05" font-family="Arial" font-size="11.00">إدارة المواقع</text>
<text xml:space="preserve" text-anchor="middle" x="391.03" y="-310.55" font-family="Arial" font-size="11.00">Manage Locations</text>
</g>
<!-- actor&#45;&gt;u_loc -->
<g id="edge14" class="edge">
<title>actor&#45;&gt;u_loc</title>
<path fill="none" stroke="#555555" d="M634.42,-601.52C621.04,-553.56 578.7,-424.04 496.01,-355 484.35,-345.26 469.82,-338.29 455.36,-333.31"/>
</g>
<!-- u_risk -->
<g id="node17" class="node">
<title>u_risk</title>
<ellipse fill="#e8f1f8" stroke="#1f6fb2" cx="391.03" cy="-252" rx="77.07" ry="24.75"/>
<text xml:space="preserve" text-anchor="middle" x="391.03" y="-255.05" font-family="Arial" font-size="11.00">عرض بطاقات المخاطر</text>
<text xml:space="preserve" text-anchor="middle" x="391.03" y="-241.55" font-family="Arial" font-size="11.00">View AI Risk Cards</text>
</g>
<!-- actor&#45;&gt;u_risk -->
<g id="edge15" class="edge">
<title>actor&#45;&gt;u_risk</title>
<path fill="none" stroke="#555555" d="M636.72,-601.79C628.14,-546.09 594.7,-376.28 496.01,-286 485.43,-276.32 472.05,-269.39 458.43,-264.44"/>
</g>
<!-- u_hist -->
<g id="node18" class="node">
<title>u_hist</title>
<ellipse fill="#e8f1f8" stroke="#1f6fb2" cx="391.03" cy="-183" rx="81.85" ry="24.75"/>
<text xml:space="preserve" text-anchor="middle" x="391.03" y="-186.05" font-family="Arial" font-size="11.00">استعراض تاريخ النسخ</text>
<text xml:space="preserve" text-anchor="middle" x="391.03" y="-172.55" font-family="Arial" font-size="11.00">View Version History</text>
</g>
<!-- actor&#45;&gt;u_hist -->
<g id="edge16" class="edge">
<title>actor&#45;&gt;u_hist</title>
<path fill="none" stroke="#555555" d="M638.23,-601.76C633.84,-538.89 610.85,-328.96 496.01,-217 486.42,-207.65 474.23,-200.88 461.59,-195.96"/>
</g>
<!-- u_doc -->
<g id="node19" class="node">
<title>u_doc</title>
<ellipse fill="#e8f1f8" stroke="#1f6fb2" cx="391.03" cy="-114" rx="79.73" ry="24.75"/>
<text xml:space="preserve" text-anchor="middle" x="391.03" y="-117.05" font-family="Arial" font-size="11.00">إدارة وثائق المريض</text>
<text xml:space="preserve" text-anchor="middle" x="391.03" y="-103.55" font-family="Arial" font-size="11.00">Manage Documents</text>
</g>
<!-- actor&#45;&gt;u_doc -->
<g id="edge17" class="edge">
<title>actor&#45;&gt;u_doc</title>
<path fill="none" stroke="#555555" d="M639.47,-601.52C639.41,-531.48 629.56,-279.66 496.01,-148 486.21,-138.33 473.61,-131.41 460.6,-126.46"/>
</g>
<!-- u_ins -->
<g id="node20" class="node">
<title>u_ins</title>
<ellipse fill="#e8f1f8" stroke="#1f6fb2" cx="391.03" cy="-45" rx="65.41" ry="24.75"/>
<text xml:space="preserve" text-anchor="middle" x="391.03" y="-48.05" font-family="Arial" font-size="11.00">عرض الرؤى الذكية</text>
<text xml:space="preserve" text-anchor="middle" x="391.03" y="-34.55" font-family="Arial" font-size="11.00">View AI Insights</text>
</g>
<!-- actor&#45;&gt;u_ins -->
<g id="edge18" class="edge">
<title>actor&#45;&gt;u_ins</title>
<path fill="none" stroke="#555555" d="M636.88,-601.78C625.6,-516.29 573.94,-155.82 496.01,-79 484.04,-67.2 467.92,-59.49 451.95,-54.46"/>
</g>
<!-- u_cds -->
<g id="node13" class="node">
<title>u_cds</title>
<ellipse fill="#fdf3e3" stroke="#c8902a" cx="91.77" cy="-528" rx="71.77" ry="24.75"/>
<text xml:space="preserve" text-anchor="middle" x="91.77" y="-531.05" font-family="Arial" font-size="11.00">عرض بطاقة دعم القرار</text>
<text xml:space="preserve" text-anchor="middle" x="91.77" y="-517.55" font-family="Arial" font-size="11.00">Show CDS Card</text>
</g>
<!-- u_med&#45;&gt;u_cds -->
<g id="edge19" class="edge">
<title>u_med&#45;&gt;u_cds</title>
<path fill="none" stroke="#c8902a" stroke-dasharray="5,2" d="M297.32,-528C254.16,-528 203.63,-528 163.6,-528"/>
<polygon fill="#c8902a" stroke="#c8902a" points="307.19,-528 297.19,-532.5 303.41,-528 297.19,-528 297.19,-528 297.19,-528 303.41,-528 297.19,-523.5 307.19,-528"/>
<text xml:space="preserve" text-anchor="middle" x="230.79" y="-529.95" font-family="Arial" font-size="9.00" fill="#c8902a">«include»</text>
</g>
</g>
</svg>
