<?xml version="1.0" encoding="UTF-8" standalone="no"?>
<!DOCTYPE svg PUBLIC "-//W3C//DTD SVG 1.1//EN"
 "http://www.w3.org/Graphics/SVG/1.1/DTD/svg11.dtd">
<!-- Generated by graphviz version 14.1.1 (20251213.1925)
 -->
<!-- Title: UC Pages: 1 -->
<svg width="455pt" height="327pt"
 viewBox="0.00 0.00 455.00 327.00" xmlns="http://www.w3.org/2000/svg" xmlns:xlink="http://www.w3.org/1999/xlink">
<g id="graph0" class="graph" transform="scale(1 1) rotate(0) translate(21.6 305.6)">
<title>UC</title>
<polygon fill="white" stroke="none" points="-21.6,21.6 -21.6,-305.6 433.39,-305.6 433.39,21.6 -21.6,21.6"/>
<text xml:space="preserve" text-anchor="middle" x="205.89" y="-267.65" font-family="Arial" font-size="13.00">مخطّط حالات الاستخدام — الزائر (غير المسجّل / Visitor)</text>
<g id="clust1" class="cluster">
<title>cluster_sys</title>
<path fill="#fafafa" stroke="#777777" d="M20,-8C20,-8 202.79,-8 202.79,-8 208.79,-8 214.79,-14 214.79,-20 214.79,-20 214.79,-241 214.79,-241 214.79,-247 208.79,-253 202.79,-253 202.79,-253 20,-253 20,-253 14,-253 8,-247 8,-241 8,-241 8,-20 8,-20 8,-14 14,-8 20,-8"/>
<text xml:space="preserve" text-anchor="middle" x="111.39" y="-236.65" font-family="Arial" font-size="13.00">نظام نبض</text>
</g>
<!-- actor -->
<g id="node1" class="node">
<title>actor</title>
<path fill="#777777" stroke="black" d="M399.79,-137C399.79,-137 315.79,-137 315.79,-137 309.79,-137 303.79,-131 303.79,-125 303.79,-125 303.79,-113 303.79,-113 303.79,-107 309.79,-101 315.79,-101 315.79,-101 399.79,-101 399.79,-101 405.79,-101 411.79,-107 411.79,-113 411.79,-113 411.79,-125 411.79,-125 411.79,-131 405.79,-137 399.79,-137"/>
<text xml:space="preserve" text-anchor="middle" x="357.79" y="-122.05" font-family="Arial" font-size="11.00" fill="white">الزائر</text>
<text xml:space="preserve" text-anchor="middle" x="357.79" y="-108.55" font-family="Arial" font-size="11.00" fill="white">Visitor</text>
</g>
<!-- u_welcome -->
<g id="node2" class="node">
<title>u_welcome</title>
<ellipse fill="#eeeeee" stroke="#777777" cx="111.39" cy="-45" rx="91.39" ry="24.75"/>
<text xml:space="preserve" text-anchor="middle" x="111.39" y="-48.05" font-family="Arial" font-size="11.00">تصفّح صفحة الترحيب</text>
<text xml:space="preserve" text-anchor="middle" x="111.39" y="-34.55" font-family="Arial" font-size="11.00">Browse Welcome Page</text>
</g>
<!-- actor&#45;&gt;u_welcome -->
<g id="edge1" class="edge">
<title>actor&#45;&gt;u_welcome</title>
<path fill="none" stroke="#555555" d="M303.46,-102.85C265.11,-91.24 213.34,-75.57 173.36,-63.46"/>
</g>
<!-- u_lang -->
<g id="node3" class="node">
<title>u_lang</title>
<ellipse fill="#eeeeee" stroke="#777777" cx="111.39" cy="-119" rx="70.18" ry="24.75"/>
<text xml:space="preserve" text-anchor="middle" x="111.39" y="-122.05" font-family="Arial" font-size="11.00">تبديل اللغة</text>
<text xml:space="preserve" text-anchor="middle" x="111.39" y="-108.55" font-family="Arial" font-size="11.00">Switch Language</text>
</g>
<!-- actor&#45;&gt;u_lang -->
<g id="edge2" class="edge">
<title>actor&#45;&gt;u_lang</title>
<path fill="none" stroke="#555555" d="M303.46,-119C267.78,-119 220.48,-119 181.87,-119"/>
</g>
<!-- u_login -->
<g id="node4" class="node">
<title>u_login</title>
<ellipse fill="#eeeeee" stroke="#777777" cx="111.39" cy="-193" rx="89.8" ry="24.75"/>
<text xml:space="preserve" text-anchor="middle" x="111.39" y="-196.05" font-family="Arial" font-size="11.00">بدء تسجيل الدخول</text>
<text xml:space="preserve" text-anchor="middle" x="111.39" y="-182.55" font-family="Arial" font-size="11.00">Begin Login (Keycloak)</text>
</g>
<!-- actor&#45;&gt;u_login -->
<g id="edge3" class="edge">
<title>actor&#45;&gt;u_login</title>
<path fill="none" stroke="#555555" d="M303.46,-135.15C264.97,-146.8 212.96,-162.55 172.92,-174.67"/>
</g>
</g>
</svg>
