<?xml version="1.0" encoding="UTF-8" standalone="no"?>
<!DOCTYPE svg PUBLIC "-//W3C//DTD SVG 1.1//EN"
 "http://www.w3.org/Graphics/SVG/1.1/DTD/svg11.dtd">
<!-- Generated by graphviz version 14.1.1 (20251213.1925)
 -->
<!-- Title: UC Pages: 1 -->
<svg width="1014pt" height="574pt"
 viewBox="0.00 0.00 1014.00 574.00" xmlns="http://www.w3.org/2000/svg" xmlns:xlink="http://www.w3.org/1999/xlink">
<g id="graph0" class="graph" transform="scale(1 1) rotate(0) translate(21.6 552.6)">
<title>UC</title>
<polygon fill="white" stroke="none" points="-21.6,21.6 -21.6,-552.6 992.28,-552.6 992.28,21.6 -21.6,21.6"/>
<text xml:space="preserve" text-anchor="middle" x="485.34" y="-514.65" font-family="Arial" font-size="13.00">مخطّط حالات الاستخدام — مدير المؤسسة (Org Admin)</text>
<g id="clust1" class="cluster">
<title>cluster_sys</title>
<path fill="#fbf7fd" stroke="#8e44ad" d="M20,-8C20,-8 689.78,-8 689.78,-8 695.78,-8 701.78,-14 701.78,-20 701.78,-20 701.78,-448 701.78,-448 701.78,-454 695.78,-460 689.78,-460 689.78,-460 20,-460 20,-460 14,-460 8,-454 8,-448 8,-448 8,-20 8,-20 8,-14 14,-8 20,-8"/>
<text xml:space="preserve" text-anchor="middle" x="354.89" y="-443.65" font-family="Arial" font-size="13.00">نظام نبض &#160;(قدرات إضافية لمدير المؤسسة)</text>
</g>
<!-- actor -->
<g id="node1" class="node">
<title>actor</title>
<path fill="#8e44ad" stroke="black" d="M958.68,-276C958.68,-276 860.28,-276 860.28,-276 854.28,-276 848.28,-270 848.28,-264 848.28,-264 848.28,-252 848.28,-252 848.28,-246 854.28,-240 860.28,-240 860.28,-240 958.68,-240 958.68,-240 964.68,-240 970.68,-246 970.68,-252 970.68,-252 970.68,-264 970.68,-264 970.68,-270 964.68,-276 958.68,-276"/>
<text xml:space="preserve" text-anchor="middle" x="909.48" y="-261.05" font-family="Arial" font-size="11.00" fill="white">مدير المؤسسة</text>
<text xml:space="preserve" text-anchor="middle" x="909.48" y="-247.55" font-family="Arial" font-size="11.00" fill="white">Org Admin</text>
</g>
<!-- practitioner -->
<g id="node2" class="node">
<title>practitioner</title>
<path fill="#1f6fb2" stroke="black" d="M636.98,-508C636.98,-508 538.58,-508 538.58,-508 532.58,-508 526.58,-502 526.58,-496 526.58,-496 526.58,-484 526.58,-484 526.58,-478 532.58,-472 538.58,-472 538.58,-472 636.98,-472 636.98,-472 642.98,-472 648.98,-478 648.98,-484 648.98,-484 648.98,-496 648.98,-496 648.98,-502 642.98,-508 636.98,-508"/>
<text xml:space="preserve" text-anchor="middle" x="587.78" y="-493.05" font-family="Arial" font-size="11.00" fill="white">الطبيب / الممارس</text>
<text xml:space="preserve" text-anchor="middle" x="587.78" y="-479.55" font-family="Arial" font-size="11.00" fill="white">Practitioner</text>
</g>
<!-- actor&#45;&gt;practitioner -->
<g id="edge1" class="edge">
<title>actor&#45;&gt;practitioner</title>
<path fill="none" stroke="#333333" d="M889.32,-285.53C856.44,-330.56 784.74,-419.47 701.78,-465 685.84,-473.75 667.05,-479.44 649.41,-483.13"/>
<polygon fill="none" stroke="#333333" points="892.03,-287.76 895.03,-277.6 886.35,-283.67 892.03,-287.76"/>
<text xml:space="preserve" text-anchor="middle" x="769.03" y="-451.78" font-family="Arial" font-size="9.00" fill="#333333">يرث قدراته</text>
<text xml:space="preserve" text-anchor="middle" x="769.03" y="-441.28" font-family="Arial" font-size="9.00" fill="#333333">(generalization)</text>
</g>
<!-- u_org -->
<g id="node3" class="node">
<title>u_org</title>
<ellipse fill="#f1e6f7" stroke="#8e44ad" cx="587.78" cy="-400" rx="98.82" ry="24.75"/>
<text xml:space="preserve" text-anchor="middle" x="587.78" y="-403.05" font-family="Arial" font-size="11.00">عرض تفاصيل المؤسسة</text>
<text xml:space="preserve" text-anchor="middle" x="587.78" y="-389.55" font-family="Arial" font-size="11.00">View Organization Details</text>
</g>
<!-- actor&#45;&gt;u_org -->
<g id="edge2" class="edge">
<title>actor&#45;&gt;u_org</title>
<path fill="none" stroke="#555555" d="M877.09,-276.49C837.29,-299.4 766.09,-338.64 701.78,-365 686.96,-371.08 670.68,-376.7 655.2,-381.58"/>
</g>
<!-- u_staff -->
<g id="node4" class="node">
<title>u_staff</title>
<ellipse fill="#f1e6f7" stroke="#8e44ad" cx="587.78" cy="-329" rx="56.92" ry="24.75"/>
<text xml:space="preserve" text-anchor="middle" x="587.78" y="-332.05" font-family="Arial" font-size="11.00">إدارة الكادر</text>
<text xml:space="preserve" text-anchor="middle" x="587.78" y="-318.55" font-family="Arial" font-size="11.00">Manage Staff</text>
</g>
<!-- actor&#45;&gt;u_staff -->
<g id="edge3" class="edge">
<title>actor&#45;&gt;u_staff</title>
<path fill="none" stroke="#555555" d="M847.97,-271.44C787.51,-284.87 695.63,-305.27 639.06,-317.83"/>
</g>
<!-- u_invite -->
<g id="node5" class="node">
<title>u_invite</title>
<ellipse fill="#f1e6f7" stroke="#8e44ad" cx="587.78" cy="-258" rx="72.83" ry="24.75"/>
<text xml:space="preserve" text-anchor="middle" x="587.78" y="-261.05" font-family="Arial" font-size="11.00">إنشاء دعوة كادر</text>
<text xml:space="preserve" text-anchor="middle" x="587.78" y="-247.55" font-family="Arial" font-size="11.00">Create Staff Invite</text>
</g>
<!-- actor&#45;&gt;u_invite -->
<g id="edge4" class="edge">
<title>actor&#45;&gt;u_invite</title>
<path fill="none" stroke="#555555" d="M847.97,-258C794.84,-258 717.45,-258 661.07,-258"/>
</g>
<!-- u_extreg -->
<g id="node6" class="node">
<title>u_extreg</title>
<ellipse fill="#f1e6f7" stroke="#8e44ad" cx="587.78" cy="-187" rx="102" ry="24.75"/>
<text xml:space="preserve" text-anchor="middle" x="587.78" y="-190.05" font-family="Arial" font-size="11.00">تسجيل نموذج ذكاء خارجي</text>
<text xml:space="preserve" text-anchor="middle" x="587.78" y="-176.55" font-family="Arial" font-size="11.00">Register External AI Model</text>
</g>
<!-- actor&#45;&gt;u_extreg -->
<g id="edge5" class="edge">
<title>actor&#45;&gt;u_extreg</title>
<path fill="none" stroke="#555555" d="M847.97,-244.56C795.84,-232.98 720.34,-216.22 664.27,-203.76"/>
</g>
<!-- u_extrun -->
<g id="node7" class="node">
<title>u_extrun</title>
<ellipse fill="#f1e6f7" stroke="#8e44ad" cx="587.78" cy="-116" rx="87.68" ry="24.75"/>
<text xml:space="preserve" text-anchor="middle" x="587.78" y="-119.05" font-family="Arial" font-size="11.00">تشغيل نموذج خارجي</text>
<text xml:space="preserve" text-anchor="middle" x="587.78" y="-105.55" font-family="Arial" font-size="11.00">Run External AI Model</text>
</g>
<!-- actor&#45;&gt;u_extrun -->
<g id="edge6" class="edge">
<title>actor&#45;&gt;u_extrun</title>
<path fill="none" stroke="#555555" d="M877.09,-239.51C837.29,-216.6 766.09,-177.36 701.78,-151 685.82,-144.46 668.16,-138.44 651.65,-133.31"/>
</g>
<!-- u_cds -->
<g id="node8" class="node">
<title>u_cds</title>
<ellipse fill="#f1e6f7" stroke="#8e44ad" cx="587.78" cy="-45" rx="74.95" ry="24.75"/>
<text xml:space="preserve" text-anchor="middle" x="587.78" y="-48.05" font-family="Arial" font-size="11.00">تأليف قواعد دعم القرار</text>
<text xml:space="preserve" text-anchor="middle" x="587.78" y="-34.55" font-family="Arial" font-size="11.00">Author CDS Rules</text>
</g>
<!-- actor&#45;&gt;u_cds -->
<g id="edge7" class="edge">
<title>actor&#45;&gt;u_cds</title>
<path fill="none" stroke="#555555" d="M892.41,-239.77C859.92,-204 782.58,-124.22 701.78,-80 685.84,-71.27 667.41,-64.4 650.13,-59.14"/>
</g>
<!-- u_cdspub -->
<g id="node9" class="node">
<title>u_cdspub</title>
<ellipse fill="#fbf3fd" stroke="#8e44ad" cx="185.64" cy="-45" rx="165.64" ry="24.75"/>
<text xml:space="preserve" text-anchor="middle" x="185.64" y="-48.05" font-family="Arial" font-size="11.00">تحقّق / معاينة / نشر / تفعيل / أرشفة</text>
<text xml:space="preserve" text-anchor="middle" x="185.64" y="-34.55" font-family="Arial" font-size="11.00">Validate · Preview · Publish · Activate · Retire</text>
</g>
<!-- u_cds&#45;&gt;u_cdspub -->
<g id="edge8" class="edge">
<title>u_cds&#45;&gt;u_cdspub</title>
<path fill="none" stroke="#8e44ad" stroke-dasharray="5,2" d="M501.3,-45C457.59,-45 402.87,-45 351.37,-45"/>
<polygon fill="#8e44ad" stroke="#8e44ad" points="511.24,-45 501.24,-49.5 507.45,-45 501.24,-45 501.24,-45 501.24,-45 507.45,-45 501.24,-40.5 511.24,-45"/>
<text xml:space="preserve" text-anchor="middle" x="418.53" y="-46.95" font-family="Arial" font-size="9.00" fill="#8e44ad">«include»</text>
</g>
</g>
</svg>
