<?xml version="1.0" encoding="UTF-8" standalone="no"?>
<!DOCTYPE svg PUBLIC "-//W3C//DTD SVG 1.1//EN"
 "http://www.w3.org/Graphics/SVG/1.1/DTD/svg11.dtd">
<!-- Generated by graphviz version 14.1.1 (20251213.1925)
 -->
<!-- Title: UC Pages: 1 -->
<svg width="527pt" height="290pt"
 viewBox="0.00 0.00 527.00 290.00" xmlns="http://www.w3.org/2000/svg" xmlns:xlink="http://www.w3.org/1999/xlink">
<g id="graph0" class="graph" transform="scale(1 1) rotate(0) translate(21.6 268.6)">
<title>UC</title>
<polygon fill="white" stroke="none" points="-21.6,21.6 -21.6,-268.6 505.06,-268.6 505.06,21.6 -21.6,21.6"/>
<text xml:space="preserve" text-anchor="middle" x="241.73" y="-230.65" font-family="Arial" font-size="13.00">مخطّط حالات الاستخدام — مدير النظام (System Admin)</text>
<g id="clust1" class="cluster">
<title>cluster_sys</title>
<path fill="#fdf6f5" stroke="#c0392b" d="M20,-8C20,-8 195.36,-8 195.36,-8 201.36,-8 207.36,-14 207.36,-20 207.36,-20 207.36,-164 207.36,-164 207.36,-170 201.36,-176 195.36,-176 195.36,-176 20,-176 20,-176 14,-176 8,-170 8,-164 8,-164 8,-20 8,-20 8,-14 14,-8 20,-8"/>
<text xml:space="preserve" text-anchor="middle" x="107.68" y="-159.65" font-family="Arial" font-size="13.00">نظام نبض &#160;(قدرات إضافية لمدير النظام)</text>
</g>
<!-- actor -->
<g id="node1" class="node">
<title>actor</title>
<path fill="#c0392b" stroke="black" d="M471.46,-134C471.46,-134 365.86,-134 365.86,-134 359.86,-134 353.86,-128 353.86,-122 353.86,-122 353.86,-110 353.86,-110 353.86,-104 359.86,-98 365.86,-98 365.86,-98 471.46,-98 471.46,-98 477.46,-98 483.46,-104 483.46,-110 483.46,-110 483.46,-122 483.46,-122 483.46,-128 477.46,-134 471.46,-134"/>
<text xml:space="preserve" text-anchor="middle" x="418.66" y="-119.05" font-family="Arial" font-size="11.00" fill="white">مدير النظام</text>
<text xml:space="preserve" text-anchor="middle" x="418.66" y="-105.55" font-family="Arial" font-size="11.00" fill="white">System Admin</text>
</g>
<!-- orgadmin -->
<g id="node2" class="node">
<title>orgadmin</title>
<path fill="#8e44ad" stroke="black" d="M156.88,-224C156.88,-224 58.48,-224 58.48,-224 52.48,-224 46.48,-218 46.48,-212 46.48,-212 46.48,-200 46.48,-200 46.48,-194 52.48,-188 58.48,-188 58.48,-188 156.88,-188 156.88,-188 162.88,-188 168.88,-194 168.88,-200 168.88,-200 168.88,-212 168.88,-212 168.88,-218 162.88,-224 156.88,-224"/>
<text xml:space="preserve" text-anchor="middle" x="107.68" y="-209.05" font-family="Arial" font-size="11.00" fill="white">مدير المؤسسة</text>
<text xml:space="preserve" text-anchor="middle" x="107.68" y="-195.55" font-family="Arial" font-size="11.00" fill="white">Org Admin</text>
</g>
<!-- actor&#45;&gt;orgadmin -->
<g id="edge1" class="edge">
<title>actor&#45;&gt;orgadmin</title>
<path fill="none" stroke="#333333" d="M349.8,-137.95C308.73,-150.99 255.22,-167.55 207.36,-181 195.11,-184.44 181.95,-187.93 169.35,-191.16"/>
<polygon fill="none" stroke="#333333" points="350.86,-141.28 359.33,-134.92 348.74,-134.61 350.86,-141.28"/>
<text xml:space="preserve" text-anchor="middle" x="274.61" y="-181.76" font-family="Arial" font-size="9.00" fill="#333333">يرث قدراته</text>
<text xml:space="preserve" text-anchor="middle" x="274.61" y="-171.26" font-family="Arial" font-size="9.00" fill="#333333">(generalization)</text>
</g>
<!-- u_orgs -->
<g id="node3" class="node">
<title>u_orgs</title>
<ellipse fill="#f7e3e1" stroke="#c0392b" cx="107.68" cy="-116" rx="87.68" ry="24.75"/>
<text xml:space="preserve" text-anchor="middle" x="107.68" y="-119.05" font-family="Arial" font-size="11.00">إدارة المؤسسات</text>
<text xml:space="preserve" text-anchor="middle" x="107.68" y="-105.55" font-family="Arial" font-size="11.00">Manage Organizations</text>
</g>
<!-- actor&#45;&gt;u_orgs -->
<g id="edge2" class="edge">
<title>actor&#45;&gt;u_orgs</title>
<path fill="none" stroke="#555555" d="M353.64,-116C307.95,-116 245.95,-116 195.76,-116"/>
</g>
<!-- u_assign -->
<g id="node4" class="node">
<title>u_assign</title>
<ellipse fill="#f7e3e1" stroke="#c0392b" cx="107.68" cy="-45" rx="72.3" ry="24.75"/>
<text xml:space="preserve" text-anchor="middle" x="107.68" y="-48.05" font-family="Arial" font-size="11.00">تعيين مدير مؤسسة</text>
<text xml:space="preserve" text-anchor="middle" x="107.68" y="-34.55" font-family="Arial" font-size="11.00">Assign Org Admin</text>
</g>
<!-- actor&#45;&gt;u_assign -->
<g id="edge3" class="edge">
<title>actor&#45;&gt;u_assign</title>
<path fill="none" stroke="#555555" d="M353.64,-101.29C299.2,-88.78 221.61,-70.95 168.43,-58.73"/>
</g>
</g>
</svg>
