<?xml version="1.0" encoding="UTF-8" standalone="no"?>
<!DOCTYPE svg PUBLIC "-//W3C//DTD SVG 1.1//EN"
 "http://www.w3.org/Graphics/SVG/1.1/DTD/svg11.dtd">
<!-- Generated by graphviz version 14.1.1 (20251213.1925)
 -->
<!-- Title: UC Pages: 1 -->
<svg width="529pt" height="290pt"
 viewBox="0.00 0.00 529.00 290.00" xmlns="http://www.w3.org/2000/svg" xmlns:xlink="http://www.w3.org/1999/xlink">
<g id="graph0" class="graph" transform="scale(1 1) rotate(0) translate(21.6 268.6)">
<title>UC</title>
<polygon fill="white" stroke="none" points="-21.6,21.6 -21.6,-268.6 507.76,-268.6 507.76,21.6 -21.6,21.6"/>
<text xml:space="preserve" text-anchor="middle" x="243.08" y="-230.65" font-family="Arial" font-size="13.00">مخطّط حالات الاستخدام — مدير النظام (System Admin)</text>
<g id="clust1" class="cluster">
<title>cluster_sys</title>
<path fill="#fdf6f5" stroke="#c0392b" d="M16.31,-8C16.31,-8 198.06,-8 198.06,-8 204.06,-8 210.06,-14 210.06,-20 210.06,-20 210.06,-164 210.06,-164 210.06,-170 204.06,-176 198.06,-176 198.06,-176 16.31,-176 16.31,-176 10.31,-176 4.31,-170 4.31,-164 4.31,-164 4.31,-20 4.31,-20 4.31,-14 10.31,-8 16.31,-8"/>
<text xml:space="preserve" text-anchor="middle" x="107.18" y="-159.65" font-family="Arial" font-size="13.00">نظام DMRS &#160;(قدرات إضافية لمدير النظام)</text>
</g>
<!-- actor -->
<g id="node1" class="node">
<title>actor</title>
<path fill="#c0392b" stroke="black" d="M474.16,-134C474.16,-134 368.56,-134 368.56,-134 362.56,-134 356.56,-128 356.56,-122 356.56,-122 356.56,-110 356.56,-110 356.56,-104 362.56,-98 368.56,-98 368.56,-98 474.16,-98 474.16,-98 480.16,-98 486.16,-104 486.16,-110 486.16,-110 486.16,-122 486.16,-122 486.16,-128 480.16,-134 474.16,-134"/>
<text xml:space="preserve" text-anchor="middle" x="421.36" y="-119.05" font-family="Arial" font-size="11.00" fill="white">مدير النظام</text>
<text xml:space="preserve" text-anchor="middle" x="421.36" y="-105.55" font-family="Arial" font-size="11.00" fill="white">System Admin</text>
</g>
<!-- orgadmin -->
<g id="node2" class="node">
<title>orgadmin</title>
<path fill="#8e44ad" stroke="black" d="M156.88,-224C156.88,-224 58.48,-224 58.48,-224 52.48,-224 46.48,-218 46.48,-212 46.48,-212 46.48,-200 46.48,-200 46.48,-194 52.48,-188 58.48,-188 58.48,-188 156.88,-188 156.88,-188 162.88,-188 168.88,-194 168.88,-200 168.88,-200 168.88,-212 168.88,-212 168.88,-218 162.88,-224 156.88,-224"/>
<text xml:space="preserve" text-anchor="middle" x="107.68" y="-209.05" font-family="Arial" font-size="11.00" fill="white">مدير المؤسسة</text>
<text xml:space="preserve" text-anchor="middle" x="107.68" y="-195.55" font-family="Arial" font-size="11.00" fill="white">Org Admin</text>
</g>
<!-- actor&#45;&gt;orgadmin -->
<g id="edge1" class="edge">
<title>actor&#45;&gt;orgadmin</title>
<path fill="none" stroke="#333333" d="M353.23,-137.84C312.08,-150.95 258.22,-167.63 210.06,-181 196.87,-184.66 182.64,-188.34 169.14,-191.7"/>
<polygon fill="none" stroke="#333333" points="354.04,-141.25 362.5,-134.87 351.91,-134.58 354.04,-141.25"/>
<text xml:space="preserve" text-anchor="middle" x="277.31" y="-181.86" font-family="Arial" font-size="9.00" fill="#333333">يرث قدراته</text>
<text xml:space="preserve" text-anchor="middle" x="277.31" y="-171.36" font-family="Arial" font-size="9.00" fill="#333333">(generalization)</text>
</g>
<!-- u_orgs -->
<g id="node3" class="node">
<title>u_orgs</title>
<ellipse fill="#f7e3e1" stroke="#c0392b" cx="107.68" cy="-116" rx="87.68" ry="24.75"/>
<text xml:space="preserve" text-anchor="middle" x="107.68" y="-119.05" font-family="Arial" font-size="11.00">إدارة المؤسسات</text>
<text xml:space="preserve" text-anchor="middle" x="107.68" y="-105.55" font-family="Arial" font-size="11.00">Manage Organizations</text>
</g>
<!-- actor&#45;&gt;u_orgs -->
<g id="edge2" class="edge">
<title>actor&#45;&gt;u_orgs</title>
<path fill="none" stroke="#555555" d="M356.15,-116C309.82,-116 246.73,-116 195.85,-116"/>
</g>
<!-- u_assign -->
<g id="node4" class="node">
<title>u_assign</title>
<ellipse fill="#f7e3e1" stroke="#c0392b" cx="107.68" cy="-45" rx="72.3" ry="24.75"/>
<text xml:space="preserve" text-anchor="middle" x="107.68" y="-48.05" font-family="Arial" font-size="11.00">تعيين مدير مؤسسة</text>
<text xml:space="preserve" text-anchor="middle" x="107.68" y="-34.55" font-family="Arial" font-size="11.00">Assign Org Admin</text>
</g>
<!-- actor&#45;&gt;u_assign -->
<g id="edge3" class="edge">
<title>actor&#45;&gt;u_assign</title>
<path fill="none" stroke="#555555" d="M356.15,-101.37C301.09,-88.83 222.35,-70.89 168.57,-58.64"/>
</g>
</g>
</svg>
