<?xml version="1.0" encoding="UTF-8" standalone="no"?>
<!DOCTYPE svg PUBLIC "-//W3C//DTD SVG 1.1//EN"
 "http://www.w3.org/Graphics/SVG/1.1/DTD/svg11.dtd">
<!-- Generated by graphviz version 14.1.1 (20251213.1925)
 -->
<!-- Title: UC Pages: 1 -->
<svg width="724pt" height="534pt"
 viewBox="0.00 0.00 724.00 534.00" xmlns="http://www.w3.org/2000/svg" xmlns:xlink="http://www.w3.org/1999/xlink">
<g id="graph0" class="graph" transform="scale(1 1) rotate(0) translate(21.6 512.6)">
<title>UC</title>
<polygon fill="white" stroke="none" points="-21.6,21.6 -21.6,-512.6 702.02,-512.6 702.02,21.6 -21.6,21.6"/>
<text xml:space="preserve" text-anchor="middle" x="340.21" y="-474.65" font-family="Arial" font-size="13.00">مخطّط حالات الاستخدام — المريض (Patient)</text>
<g id="clust1" class="cluster">
<title>cluster_sys</title>
<path fill="#f6fcf8" stroke="#2e8b57" d="M20,-8C20,-8 470.22,-8 470.22,-8 476.22,-8 482.22,-14 482.22,-20 482.22,-20 482.22,-448 482.22,-448 482.22,-454 476.22,-460 470.22,-460 470.22,-460 20,-460 20,-460 14,-460 8,-454 8,-448 8,-448 8,-20 8,-20 8,-14 14,-8 20,-8"/>
<text xml:space="preserve" text-anchor="middle" x="245.11" y="-443.65" font-family="Arial" font-size="13.00">نظام DMRS</text>
</g>
<!-- actor -->
<g id="node1" class="node">
<title>actor</title>
<path fill="#2e8b57" stroke="black" d="M668.42,-229C668.42,-229 577.22,-229 577.22,-229 571.22,-229 565.22,-223 565.22,-217 565.22,-217 565.22,-205 565.22,-205 565.22,-199 571.22,-193 577.22,-193 577.22,-193 668.42,-193 668.42,-193 674.42,-193 680.42,-199 680.42,-205 680.42,-205 680.42,-217 680.42,-217 680.42,-223 674.42,-229 668.42,-229"/>
<text xml:space="preserve" text-anchor="middle" x="622.82" y="-214.05" font-family="Arial" font-size="11.00" fill="white">المريض</text>
<text xml:space="preserve" text-anchor="middle" x="622.82" y="-200.55" font-family="Arial" font-size="11.00" fill="white">Patient</text>
</g>
<!-- u_login -->
<g id="node2" class="node">
<title>u_login</title>
<ellipse fill="#e3f2e9" stroke="#2e8b57" cx="388.91" cy="-400" rx="46.85" ry="24.75"/>
<text xml:space="preserve" text-anchor="middle" x="388.91" y="-403.05" font-family="Arial" font-size="11.00">تسجيل الدخول</text>
<text xml:space="preserve" text-anchor="middle" x="388.91" y="-389.55" font-family="Arial" font-size="11.00">Login</text>
</g>
<!-- actor&#45;&gt;u_login -->
<g id="edge1" class="edge">
<title>actor&#45;&gt;u_login</title>
<path fill="none" stroke="#555555" d="M609.55,-229.48C587.55,-261.3 538.43,-326.68 482.22,-365 466.79,-375.52 447.76,-383.43 431,-389.04"/>
</g>
<!-- u_lang -->
<g id="node3" class="node">
<title>u_lang</title>
<ellipse fill="#e3f2e9" stroke="#2e8b57" cx="388.91" cy="-329" rx="70.18" ry="24.75"/>
<text xml:space="preserve" text-anchor="middle" x="388.91" y="-332.05" font-family="Arial" font-size="11.00">تبديل اللغة</text>
<text xml:space="preserve" text-anchor="middle" x="388.91" y="-318.55" font-family="Arial" font-size="11.00">Switch Language</text>
</g>
<!-- actor&#45;&gt;u_lang -->
<g id="edge2" class="edge">
<title>actor&#45;&gt;u_lang</title>
<path fill="none" stroke="#555555" d="M594.02,-229.5C566.4,-247.39 522.48,-274.59 482.22,-294 468.79,-300.48 453.83,-306.6 439.92,-311.85"/>
</g>
<!-- u_claim -->
<g id="node4" class="node">
<title>u_claim</title>
<ellipse fill="#e3f2e9" stroke="#2e8b57" cx="388.91" cy="-258" rx="77.07" ry="24.75"/>
<text xml:space="preserve" text-anchor="middle" x="388.91" y="-261.05" font-family="Arial" font-size="11.00">ربط الحساب بالسجل</text>
<text xml:space="preserve" text-anchor="middle" x="388.91" y="-247.55" font-family="Arial" font-size="11.00">Claim Patient Invite</text>
</g>
<!-- actor&#45;&gt;u_claim -->
<g id="edge3" class="edge">
<title>actor&#45;&gt;u_claim</title>
<path fill="none" stroke="#555555" d="M564.79,-222.56C531.53,-229.3 489.46,-237.82 454.92,-244.82"/>
</g>
<!-- u_dash -->
<g id="node5" class="node">
<title>u_dash</title>
<ellipse fill="#e3f2e9" stroke="#2e8b57" cx="388.91" cy="-187" rx="68.06" ry="24.75"/>
<text xml:space="preserve" text-anchor="middle" x="388.91" y="-190.05" font-family="Arial" font-size="11.00">عرض اللوحة الرئيسية</text>
<text xml:space="preserve" text-anchor="middle" x="388.91" y="-176.55" font-family="Arial" font-size="11.00">View Dashboard</text>
</g>
<!-- actor&#45;&gt;u_dash -->
<g id="edge4" class="edge">
<title>actor&#45;&gt;u_dash</title>
<path fill="none" stroke="#555555" d="M564.79,-205.1C531.53,-201.66 489.46,-197.3 454.92,-193.73"/>
</g>
<!-- u_health -->
<g id="node6" class="node">
<title>u_health</title>
<ellipse fill="#e3f2e9" stroke="#2e8b57" cx="388.91" cy="-116" rx="81.32" ry="24.75"/>
<text xml:space="preserve" text-anchor="middle" x="388.91" y="-119.05" font-family="Arial" font-size="11.00">الاطّلاع على سجلّي الصحّي</text>
<text xml:space="preserve" text-anchor="middle" x="388.91" y="-105.55" font-family="Arial" font-size="11.00">View My Health</text>
</g>
<!-- actor&#45;&gt;u_health -->
<g id="edge5" class="edge">
<title>actor&#45;&gt;u_health</title>
<path fill="none" stroke="#555555" d="M580.18,-192.54C552.53,-180.42 515.36,-164.4 482.22,-151 469.19,-145.73 455.04,-140.25 441.82,-135.23"/>
</g>
<!-- u_prof -->
<g id="node8" class="node">
<title>u_prof</title>
<ellipse fill="#e3f2e9" stroke="#2e8b57" cx="388.91" cy="-45" rx="74.95" ry="24.75"/>
<text xml:space="preserve" text-anchor="middle" x="388.91" y="-48.05" font-family="Arial" font-size="11.00">إدارة ملفّي الشخصي</text>
<text xml:space="preserve" text-anchor="middle" x="388.91" y="-34.55" font-family="Arial" font-size="11.00">Manage My Profile</text>
</g>
<!-- actor&#45;&gt;u_prof -->
<g id="edge6" class="edge">
<title>actor&#45;&gt;u_prof</title>
<path fill="none" stroke="#555555" d="M606.44,-192.52C582.45,-164.73 533.54,-112.03 482.22,-80 470.74,-72.83 457.55,-66.75 444.8,-61.78"/>
</g>
<!-- u_appt -->
<g id="node7" class="node">
<title>u_appt</title>
<ellipse fill="#e3f2e9" stroke="#2e8b57" cx="96.54" cy="-116" rx="76.54" ry="24.75"/>
<text xml:space="preserve" text-anchor="middle" x="96.54" y="-119.05" font-family="Arial" font-size="11.00">متابعة المواعيد</text>
<text xml:space="preserve" text-anchor="middle" x="96.54" y="-105.55" font-family="Arial" font-size="11.00">View Appointments</text>
</g>
<!-- u_health&#45;&gt;u_appt -->
<g id="edge7" class="edge">
<title>u_health&#45;&gt;u_appt</title>
<path fill="none" stroke="#2e8b57" stroke-dasharray="5,2" d="M296.4,-116C256.75,-116 210.89,-116 173.2,-116"/>
<polygon fill="#2e8b57" stroke="#2e8b57" points="306.19,-116 296.19,-120.5 302.41,-116 296.19,-116 296.19,-116 296.19,-116 302.41,-116 296.19,-111.5 306.19,-116"/>
<text xml:space="preserve" text-anchor="middle" x="240.34" y="-117.95" font-family="Arial" font-size="9.00" fill="#2e8b57">«include»</text>
</g>
</g>
</svg>
